M48
METRIC
T1C0.300
T2C1.000
T3C1.020
T4C1.600
%
G90
G05
T1
X80.78Y-79.489
X85.161Y-118.45
X85.217Y-96.901
X85.217Y-98.298
X85.217Y-109.855
X85.217Y-133.731
X85.311Y-128.897
X85.4Y-126.891
X85.43Y-115.941
X85.58Y-123.139
X85.895Y-110.914
X86.04Y-101.808
X86.129Y-81.43
X86.175Y-99.002
X86.439Y-77.729
X86.614Y-91.821
X86.614Y-94.361
X86.741Y-99.568
X86.995Y-120.401
X87.371Y-135.6
X87.399Y-124.8
X87.63Y-126.693
X87.8Y-121.399
X88.252Y-115.717
X88.387Y-130.764
X88.41Y-85.169
X88.684Y-114.884
X88.74Y-98.613
X89.459Y-131.559
X89.827Y-80.896
X90.246Y-82.728
X90.729Y-137.081
X90.932Y-83.439
X91.105Y-79.634
X91.341Y-110.19
X91.376Y-85.839
X91.44Y-105.664
X91.44Y-108.585
X91.811Y-71.1
X92.956Y-138.237
X93.129Y-70.231
X94.419Y-71.9
X94.595Y-92.238
X95.27Y-91.811
X95.616Y-94.638
X95.86Y-91.204
X96.009Y-90.388
X96.012Y-86.939
X96.599Y-105.4
X97.29Y-121.389
X97.701Y-100.081
X97.729Y-96.004
X97.76Y-89.936
X98.016Y-94.805
X98.26Y-126.921
X98.461Y-82.291
X98.93Y-109.09
X99.05Y-106.959
X100.0Y-84.0
X100.325Y-96.411
X100.409Y-107.95
X100.513Y-92.728
X100.523Y-94.95
X100.724Y-93.5
X100.912Y-92.034
X101.404Y-91.404
X101.622Y-108.366
X102.758Y-109.69
X103.124Y-96.972
X103.124Y-98.174
X103.124Y-100.721
X103.127Y-106.342
X103.21Y-115.903
X103.5Y-120.769
X103.741Y-117.653
X103.929Y-110.218
X103.957Y-93.734
X104.432Y-120.193
X106.515Y-99.123
X106.62Y-95.844
X107.664Y-95.882
X107.715Y-106.347
X107.734Y-99.127
X107.734Y-111.414
X108.893Y-95.885
X109.83Y-79.741
X110.599Y-82.199
X110.782Y-71.399
X112.027Y-71.418
X112.781Y-74.031
X113.379Y-71.504
X114.15Y-77.089
X114.151Y-83.718
X114.691Y-81.59
X115.443Y-86.614
X115.58Y-71.539
X115.649Y-82.959
X120.0Y-89.0
X122.637Y-107.531
X122.769Y-97.574
X122.833Y-108.326
X123.689Y-103.576
X123.902Y-107.279
X124.199Y-127.465
X125.386Y-111.173
X125.68Y-94.379
X125.939Y-98.069
X126.427Y-104.775
X127.021Y-129.286
X127.166Y-105.532
X127.199Y-97.671
X127.369Y-100.3
X127.58Y-116.271
X127.58Y-127.465
X127.705Y-133.485
X127.74Y-93.081
X127.931Y-125.539
X127.971Y-96.901
X128.058Y-122.306
X128.068Y-107.742
X128.2Y-109.601
X128.34Y-106.799
T2
X100.94Y-66.197
X100.94Y-70.697
X107.44Y-66.197
X107.44Y-70.697
T3
X92.969Y-96.19
X92.969Y-98.73
X92.969Y-101.27
X92.969Y-103.81
X92.969Y-106.35
X92.969Y-108.89
X92.969Y-111.43
X92.969Y-113.97
X92.969Y-116.51
X92.969Y-119.05
X92.969Y-121.59
X92.969Y-124.13
X92.969Y-126.67
X92.969Y-129.21
X92.969Y-131.75
X92.969Y-134.29
X95.509Y-96.19
X95.509Y-98.73
X95.509Y-101.27
X95.509Y-103.81
X95.509Y-106.35
X95.509Y-108.89
X95.509Y-111.43
X95.509Y-113.97
X95.509Y-116.51
X95.509Y-119.05
X95.509Y-121.59
X95.509Y-124.13
X95.509Y-126.67
X95.509Y-129.21
X95.509Y-131.75
X95.509Y-134.29
X117.41Y-96.19
X117.41Y-98.73
X117.41Y-101.27
X117.41Y-103.81
X117.41Y-106.35
X117.41Y-108.89
X117.41Y-111.43
X117.41Y-113.97
X117.41Y-116.51
X117.41Y-119.05
X117.41Y-121.59
X117.41Y-124.13
X117.41Y-126.67
X117.41Y-129.21
X117.41Y-131.75
X117.41Y-134.29
X118.65Y-66.069
X119.95Y-96.19
X119.95Y-98.73
X119.95Y-101.27
X119.95Y-103.81
X119.95Y-106.35
X119.95Y-108.89
X119.95Y-111.43
X119.95Y-113.97
X119.95Y-116.51
X119.95Y-119.05
X119.95Y-121.59
X119.95Y-124.13
X119.95Y-126.67
X119.95Y-129.21
X119.95Y-131.75
X119.95Y-134.29
X121.19Y-66.069
X123.73Y-66.069
T4
X91.059Y-74.041
X91.059Y-89.281
M30
