%TF.GenerationSoftware,KiCad,Pcbnew,9.0.5*%
%TF.CreationDate,2025-12-03T10:09:39+00:00*%
%TF.ProjectId,ZX Interface,5a582049-6e74-4657-9266-6163652e6b69,3.2*%
%TF.SameCoordinates,Original*%
%TF.FileFunction,Paste,Top*%
%TF.FilePolarity,Positive*%
%FSLAX46Y46*%
G04 Gerber Fmt 4.6, Leading zero omitted, Abs format (unit mm)*
G04 Created by KiCad (PCBNEW 9.0.5) date 2025-12-03 10:09:39*
%MOMM*%
%LPD*%
G01*
G04 APERTURE LIST*
%ADD10R,7.620000X1.524000*%
G04 APERTURE END LIST*
D10*
%TO.C,SK1*%
X80772000Y-68961000D03*
X80772000Y-71501000D03*
X80772000Y-74041000D03*
X80772000Y-76581000D03*
X80772000Y-81661000D03*
X80772000Y-84201000D03*
X80772000Y-86741000D03*
X80772000Y-89281000D03*
X80772000Y-91821000D03*
X80772000Y-94361000D03*
X80772000Y-96901000D03*
X80772000Y-99441000D03*
X80772000Y-101981000D03*
X80772000Y-104521000D03*
X80772000Y-107061000D03*
X80772000Y-109601000D03*
X80772000Y-112141000D03*
X80772000Y-114681000D03*
X80772000Y-117221000D03*
X80772000Y-119761000D03*
X80772000Y-122301000D03*
X80772000Y-124841000D03*
X80772000Y-127381000D03*
X80772000Y-129921000D03*
X80772000Y-132461000D03*
X80772000Y-135001000D03*
X80772000Y-137541000D03*
%TD*%
%TO.C,SK2*%
X132650000Y-68961000D03*
X132650000Y-71501000D03*
X132650000Y-74041000D03*
X132650000Y-76581000D03*
X132650000Y-81661000D03*
X132650000Y-84201000D03*
X132650000Y-86741000D03*
X132650000Y-89281000D03*
X132650000Y-91821000D03*
X132650000Y-94361000D03*
X132650000Y-96901000D03*
X132650000Y-99441000D03*
X132650000Y-101981000D03*
X132650000Y-104521000D03*
X132650000Y-107061000D03*
X132650000Y-109601000D03*
X132650000Y-112141000D03*
X132650000Y-114681000D03*
X132650000Y-117221000D03*
X132650000Y-119761000D03*
X132650000Y-122301000D03*
X132650000Y-124841000D03*
X132650000Y-127381000D03*
X132650000Y-129921000D03*
X132650000Y-132461000D03*
X132650000Y-135001000D03*
X132650000Y-137541000D03*
%TD*%
M02*
