%TF.GenerationSoftware,KiCad,Pcbnew,9.0.5*%
%TF.CreationDate,2025-12-03T10:09:39+00:00*%
%TF.ProjectId,ZX Interface,5a582049-6e74-4657-9266-6163652e6b69,3.2*%
%TF.SameCoordinates,Original*%
%TF.FileFunction,Copper,L1,Top*%
%TF.FilePolarity,Positive*%
%FSLAX46Y46*%
G04 Gerber Fmt 4.6, Leading zero omitted, Abs format (unit mm)*
G04 Created by KiCad (PCBNEW 9.0.5) date 2025-12-03 10:09:39*
%MOMM*%
%LPD*%
G01*
G04 APERTURE LIST*
G04 Aperture macros list*
%AMRoundRect*
0 Rectangle with rounded corners*
0 $1 Rounding radius*
0 $2 $3 $4 $5 $6 $7 $8 $9 X,Y pos of 4 corners*
0 Add a 4 corners polygon primitive as box body*
4,1,4,$2,$3,$4,$5,$6,$7,$8,$9,$2,$3,0*
0 Add four circle primitives for the rounded corners*
1,1,$1+$1,$2,$3*
1,1,$1+$1,$4,$5*
1,1,$1+$1,$6,$7*
1,1,$1+$1,$8,$9*
0 Add four rect primitives between the rounded corners*
20,1,$1+$1,$2,$3,$4,$5,0*
20,1,$1+$1,$4,$5,$6,$7,0*
20,1,$1+$1,$6,$7,$8,$9,0*
20,1,$1+$1,$8,$9,$2,$3,0*%
G04 Aperture macros list end*
%TA.AperFunction,Conductor*%
%ADD10C,0.300000*%
%TD*%
%TA.AperFunction,Conductor*%
%ADD11C,0.850000*%
%TD*%
%TA.AperFunction,Conductor*%
%ADD12C,0.000000*%
%TD*%
%TA.AperFunction,Conductor*%
%ADD13C,0.500000*%
%TD*%
%TA.AperFunction,Conductor*%
%ADD14C,1.600000*%
%TD*%
%TA.AperFunction,Conductor*%
%ADD15C,1.000000*%
%TD*%
%TA.AperFunction,Conductor*%
%ADD16C,0.400000*%
%TD*%
%TA.AperFunction,SMDPad,CuDef*%
%ADD17R,7.620000X1.524000*%
%TD*%
%TA.AperFunction,ComponentPad*%
%ADD18R,1.370000X1.370000*%
%TD*%
%TA.AperFunction,ComponentPad*%
%ADD19C,1.370000*%
%TD*%
%TA.AperFunction,ComponentPad*%
%ADD20O,2.055000X1.500000*%
%TD*%
%TA.AperFunction,ComponentPad*%
%ADD21RoundRect,0.250000X1.350000X-1.350000X1.350000X1.350000X-1.350000X1.350000X-1.350000X-1.350000X0*%
%TD*%
%TA.AperFunction,ComponentPad*%
%ADD22C,3.200000*%
%TD*%
%TA.AperFunction,ComponentPad*%
%ADD23R,1.530000X1.530000*%
%TD*%
%TA.AperFunction,ComponentPad*%
%ADD24C,1.530000*%
%TD*%
%TA.AperFunction,ViaPad*%
%ADD25C,0.500000*%
%TD*%
%TA.AperFunction,ViaPad*%
%ADD26C,0.600000*%
%TD*%
%TA.AperFunction,Conductor*%
%ADD27C,0.200000*%
%TD*%
%TA.AperFunction,Conductor*%
%ADD28C,0.350000*%
%TD*%
G04 APERTURE END LIST*
%TO.N,DIN41-D3*%
D10*
X95420000Y-91810000D02*
G75*
G02*
X95120000Y-91810000I-150000J0D01*
G01*
X95120000Y-91810000D02*
G75*
G02*
X95420000Y-91810000I150000J0D01*
G01*
%TO.N,DIN32-{slash}IORQ*%
X87780000Y-126692120D02*
G75*
G02*
X87480000Y-126692120I-150000J0D01*
G01*
X87480000Y-126692120D02*
G75*
G02*
X87780000Y-126692120I150000J0D01*
G01*
%TO.N,DIN43-D5*%
X127890000Y-93080000D02*
G75*
G02*
X127590000Y-93080000I-150000J0D01*
G01*
X127590000Y-93080000D02*
G75*
G02*
X127890000Y-93080000I150000J0D01*
G01*
%TO.N,DIN45-D7*%
D11*
X117835000Y-103810000D02*
G75*
G02*
X116985000Y-103810000I-425000J0D01*
G01*
X116985000Y-103810000D02*
G75*
G02*
X117835000Y-103810000I425000J0D01*
G01*
%TO.N,DIN14-A5*%
X93394000Y-121590000D02*
G75*
G02*
X92544000Y-121590000I-425000J0D01*
G01*
X92544000Y-121590000D02*
G75*
G02*
X93394000Y-121590000I425000J0D01*
G01*
%TO.N,DIN9-A0*%
X95934000Y-116510000D02*
G75*
G02*
X95084000Y-116510000I-425000J0D01*
G01*
X95084000Y-116510000D02*
G75*
G02*
X95934000Y-116510000I425000J0D01*
G01*
%TO.N,DIN25-CLOCK*%
X120375000Y-96190000D02*
G75*
G02*
X119525000Y-96190000I-425000J0D01*
G01*
X119525000Y-96190000D02*
G75*
G02*
X120375000Y-96190000I425000J0D01*
G01*
%TO.N,DIN27-{slash}BUSACK*%
D10*
X127855120Y-133485120D02*
G75*
G02*
X127555120Y-133485120I-150000J0D01*
G01*
X127555120Y-133485120D02*
G75*
G02*
X127855120Y-133485120I150000J0D01*
G01*
%TO.N,DIN33-{slash}MREQ*%
X87145000Y-120400000D02*
G75*
G02*
X86845000Y-120400000I-150000J0D01*
G01*
X86845000Y-120400000D02*
G75*
G02*
X87145000Y-120400000I150000J0D01*
G01*
%TO.N,DIN36-{slash}IORQGE*%
X104106240Y-93734360D02*
G75*
G02*
X103806240Y-93734360I-150000J0D01*
G01*
X103806240Y-93734360D02*
G75*
G02*
X104106240Y-93734360I150000J0D01*
G01*
D12*
%TA.AperFunction,Conductor*%
%TO.N,DIN47-{slash}WR*%
G36*
X84582000Y-115681000D02*
G01*
X76962000Y-115681000D01*
X76962000Y-113681000D01*
X84582000Y-113681000D01*
X84582000Y-115681000D01*
G37*
%TD.AperFunction*%
%TA.AperFunction,Conductor*%
%TO.N,DIN40-D2*%
G36*
X84582000Y-87741000D02*
G01*
X76962000Y-87741000D01*
X76962000Y-85741000D01*
X84582000Y-85741000D01*
X84582000Y-87741000D01*
G37*
%TD.AperFunction*%
%TO.N,unconnected-(J1-Pad25)*%
D11*
X93394000Y-126670000D02*
G75*
G02*
X92544000Y-126670000I-425000J0D01*
G01*
X92544000Y-126670000D02*
G75*
G02*
X93394000Y-126670000I425000J0D01*
G01*
D12*
%TA.AperFunction,Conductor*%
%TO.N,DIN48-{slash}M1*%
G36*
X84582000Y-128381000D02*
G01*
X76962000Y-128381000D01*
X76962000Y-126381000D01*
X84582000Y-126381000D01*
X84582000Y-128381000D01*
G37*
%TD.AperFunction*%
%TA.AperFunction,Conductor*%
%TO.N,DIN46-{slash}RD*%
G36*
X136460000Y-113141000D02*
G01*
X128840000Y-113141000D01*
X128840000Y-111141000D01*
X136460000Y-111141000D01*
X136460000Y-113141000D01*
G37*
%TD.AperFunction*%
D10*
X127315910Y-105532840D02*
G75*
G02*
X127015910Y-105532840I-150000J0D01*
G01*
X127015910Y-105532840D02*
G75*
G02*
X127315910Y-105532840I150000J0D01*
G01*
%TO.N,DIN17-A8*%
X88833280Y-114883280D02*
G75*
G02*
X88533280Y-114883280I-150000J0D01*
G01*
X88533280Y-114883280D02*
G75*
G02*
X88833280Y-114883280I150000J0D01*
G01*
%TO.N,DIN15-A6*%
X104583000Y-120193000D02*
G75*
G02*
X104283000Y-120193000I-150000J0D01*
G01*
X104283000Y-120193000D02*
G75*
G02*
X104583000Y-120193000I150000J0D01*
G01*
D12*
%TA.AperFunction,Conductor*%
%TO.N,DIN45-D7*%
G36*
X136460000Y-75041000D02*
G01*
X128840000Y-75041000D01*
X128840000Y-73041000D01*
X136460000Y-73041000D01*
X136460000Y-75041000D01*
G37*
%TD.AperFunction*%
%TO.N,DIN42-D4*%
D11*
X117835000Y-111430000D02*
G75*
G02*
X116985000Y-111430000I-425000J0D01*
G01*
X116985000Y-111430000D02*
G75*
G02*
X117835000Y-111430000I425000J0D01*
G01*
%TO.N,DIN3-Y-{slash}DRD*%
D10*
X122920000Y-97573000D02*
G75*
G02*
X122620000Y-97573000I-150000J0D01*
G01*
X122620000Y-97573000D02*
G75*
G02*
X122920000Y-97573000I150000J0D01*
G01*
%TO.N,DIN2-VIDEO-OE2*%
D11*
X95934000Y-98730000D02*
G75*
G02*
X95084000Y-98730000I-425000J0D01*
G01*
X95084000Y-98730000D02*
G75*
G02*
X95934000Y-98730000I425000J0D01*
G01*
D12*
%TA.AperFunction,Conductor*%
%TO.N,DIN33-{slash}MREQ*%
G36*
X84582000Y-108061000D02*
G01*
X76962000Y-108061000D01*
X76962000Y-106061000D01*
X84582000Y-106061000D01*
X84582000Y-108061000D01*
G37*
%TD.AperFunction*%
%TO.N,unconnected-(J1-Pad30)*%
D11*
X95934000Y-131750000D02*
G75*
G02*
X95084000Y-131750000I-425000J0D01*
G01*
X95084000Y-131750000D02*
G75*
G02*
X95934000Y-131750000I425000J0D01*
G01*
%TO.N,DIN39-D1*%
X117835000Y-119050000D02*
G75*
G02*
X116985000Y-119050000I-425000J0D01*
G01*
X116985000Y-119050000D02*
G75*
G02*
X117835000Y-119050000I425000J0D01*
G01*
%TO.N,DIN10-A1*%
D10*
X88401700Y-115718580D02*
G75*
G02*
X88101700Y-115718580I-150000J0D01*
G01*
X88101700Y-115718580D02*
G75*
G02*
X88401700Y-115718580I150000J0D01*
G01*
D12*
%TA.AperFunction,Conductor*%
%TO.N,DIN24-A15*%
G36*
X84582000Y-69961000D02*
G01*
X76962000Y-69961000D01*
X76962000Y-67961000D01*
X84582000Y-67961000D01*
X84582000Y-69961000D01*
G37*
%TD.AperFunction*%
%TA.AperFunction,Conductor*%
%TO.N,POWER_12VAC*%
G36*
X84582000Y-125841000D02*
G01*
X76962000Y-125841000D01*
X76962000Y-123841000D01*
X84582000Y-123841000D01*
X84582000Y-125841000D01*
G37*
%TD.AperFunction*%
%TO.N,DIN15-A6*%
D11*
X93394000Y-119050000D02*
G75*
G02*
X92544000Y-119050000I-425000J0D01*
G01*
X92544000Y-119050000D02*
G75*
G02*
X93394000Y-119050000I425000J0D01*
G01*
%TO.N,DIN1-NCA4-OE1*%
X95934000Y-96190000D02*
G75*
G02*
X95084000Y-96190000I-425000J0D01*
G01*
X95084000Y-96190000D02*
G75*
G02*
X95934000Y-96190000I425000J0D01*
G01*
%TO.N,DIN30-{slash}WAIT*%
D10*
X85580000Y-115940000D02*
G75*
G02*
X85280000Y-115940000I-150000J0D01*
G01*
X85280000Y-115940000D02*
G75*
G02*
X85580000Y-115940000I150000J0D01*
G01*
%TO.N,POWER_+9V*%
D13*
X114400000Y-77090000D02*
G75*
G02*
X113900000Y-77090000I-250000J0D01*
G01*
X113900000Y-77090000D02*
G75*
G02*
X114400000Y-77090000I250000J0D01*
G01*
%TO.N,DIN35-{slash}NMI*%
D11*
X120375000Y-121590000D02*
G75*
G02*
X119525000Y-121590000I-425000J0D01*
G01*
X119525000Y-121590000D02*
G75*
G02*
X120375000Y-121590000I425000J0D01*
G01*
D12*
%TA.AperFunction,Conductor*%
%TO.N,POWER5V*%
G36*
X92659000Y-90881000D02*
G01*
X89459000Y-90881000D01*
X89459000Y-87681000D01*
X92659000Y-87681000D01*
X92659000Y-90881000D01*
G37*
%TD.AperFunction*%
%TO.N,DIN44-D6*%
D10*
X96160000Y-90389000D02*
G75*
G02*
X95860000Y-90389000I-150000J0D01*
G01*
X95860000Y-90389000D02*
G75*
G02*
X96160000Y-90389000I150000J0D01*
G01*
%TO.N,DIN12-A3*%
D11*
X95934000Y-124130000D02*
G75*
G02*
X95084000Y-124130000I-425000J0D01*
G01*
X95084000Y-124130000D02*
G75*
G02*
X95934000Y-124130000I425000J0D01*
G01*
%TO.N,POWER5V*%
X95934000Y-129210000D02*
G75*
G02*
X95084000Y-129210000I-425000J0D01*
G01*
X95084000Y-129210000D02*
G75*
G02*
X95934000Y-129210000I425000J0D01*
G01*
%TO.N,DIN45-D7*%
D10*
X91255240Y-79634770D02*
G75*
G02*
X90955240Y-79634770I-150000J0D01*
G01*
X90955240Y-79634770D02*
G75*
G02*
X91255240Y-79634770I150000J0D01*
G01*
%TO.N,DIN36-{slash}IORQGE*%
D11*
X120375000Y-124130000D02*
G75*
G02*
X119525000Y-124130000I-425000J0D01*
G01*
X119525000Y-124130000D02*
G75*
G02*
X120375000Y-124130000I425000J0D01*
G01*
D12*
%TA.AperFunction,Conductor*%
%TO.N,DIN1-NCA4-OE1*%
G36*
X136460000Y-77581000D02*
G01*
X128840000Y-77581000D01*
X128840000Y-75581000D01*
X136460000Y-75581000D01*
X136460000Y-77581000D01*
G37*
%TD.AperFunction*%
%TO.N,unconnected-(J1-Pad29)*%
D11*
X93394000Y-131750000D02*
G75*
G02*
X92544000Y-131750000I-425000J0D01*
G01*
X92544000Y-131750000D02*
G75*
G02*
X93394000Y-131750000I425000J0D01*
G01*
D12*
%TA.AperFunction,Conductor*%
%TO.N,DIN41-D3*%
G36*
X84582000Y-95361000D02*
G01*
X76962000Y-95361000D01*
X76962000Y-93361000D01*
X84582000Y-93361000D01*
X84582000Y-95361000D01*
G37*
%TD.AperFunction*%
%TO.N,DIN20-A11*%
D11*
X93394000Y-106350000D02*
G75*
G02*
X92544000Y-106350000I-425000J0D01*
G01*
X92544000Y-106350000D02*
G75*
G02*
X93394000Y-106350000I425000J0D01*
G01*
%TO.N,GND*%
D13*
X127620000Y-100300000D02*
G75*
G02*
X127120000Y-100300000I-250000J0D01*
G01*
X127120000Y-100300000D02*
G75*
G02*
X127620000Y-100300000I250000J0D01*
G01*
D12*
%TA.AperFunction,Conductor*%
%TO.N,DIN40-D2*%
G36*
X136460000Y-87741000D02*
G01*
X128840000Y-87741000D01*
X128840000Y-85741000D01*
X136460000Y-85741000D01*
X136460000Y-87741000D01*
G37*
%TD.AperFunction*%
%TA.AperFunction,Conductor*%
%TO.N,DIN35-{slash}NMI*%
G36*
X84582000Y-102981000D02*
G01*
X76962000Y-102981000D01*
X76962000Y-100981000D01*
X84582000Y-100981000D01*
X84582000Y-102981000D01*
G37*
%TD.AperFunction*%
%TO.N,unconnected-(J1-Pad26)*%
D11*
X95934000Y-126670000D02*
G75*
G02*
X95084000Y-126670000I-425000J0D01*
G01*
X95084000Y-126670000D02*
G75*
G02*
X95934000Y-126670000I425000J0D01*
G01*
%TO.N,POWER5_VIN*%
D14*
X91859000Y-74041000D02*
G75*
G02*
X90259000Y-74041000I-800000J0D01*
G01*
X90259000Y-74041000D02*
G75*
G02*
X91859000Y-74041000I800000J0D01*
G01*
D12*
%TA.AperFunction,Conductor*%
%TO.N,DIN1-NCA4-OE1*%
G36*
X84582000Y-77581000D02*
G01*
X76962000Y-77581000D01*
X76962000Y-75581000D01*
X84582000Y-75581000D01*
X84582000Y-77581000D01*
G37*
%TD.AperFunction*%
%TO.N,DIN39-D1*%
D10*
X99200000Y-106960000D02*
G75*
G02*
X98900000Y-106960000I-150000J0D01*
G01*
X98900000Y-106960000D02*
G75*
G02*
X99200000Y-106960000I150000J0D01*
G01*
D12*
%TA.AperFunction,Conductor*%
%TO.N,DIN19-A10*%
G36*
X136460000Y-136001000D02*
G01*
X128840000Y-136001000D01*
X128840000Y-134001000D01*
X136460000Y-134001000D01*
X136460000Y-136001000D01*
G37*
%TD.AperFunction*%
%TO.N,DIN13-A4*%
D10*
X98410000Y-126920000D02*
G75*
G02*
X98110000Y-126920000I-150000J0D01*
G01*
X98110000Y-126920000D02*
G75*
G02*
X98410000Y-126920000I150000J0D01*
G01*
%TO.N,DIN19-A10*%
D11*
X93394000Y-108890000D02*
G75*
G02*
X92544000Y-108890000I-425000J0D01*
G01*
X92544000Y-108890000D02*
G75*
G02*
X93394000Y-108890000I425000J0D01*
G01*
%TO.N,DIN31-{slash}BUSRQ*%
D10*
X98899010Y-109194775D02*
G75*
G02*
X98599010Y-109194775I-150000J0D01*
G01*
X98599010Y-109194775D02*
G75*
G02*
X98899010Y-109194775I150000J0D01*
G01*
D12*
%TA.AperFunction,Conductor*%
%TO.N,DIN44-D6*%
G36*
X136460000Y-90281000D02*
G01*
X128840000Y-90281000D01*
X128840000Y-88281000D01*
X136460000Y-88281000D01*
X136460000Y-90281000D01*
G37*
%TD.AperFunction*%
%TO.N,DIN43-D5*%
D10*
X96010000Y-91205000D02*
G75*
G02*
X95710000Y-91205000I-150000J0D01*
G01*
X95710000Y-91205000D02*
G75*
G02*
X96010000Y-91205000I150000J0D01*
G01*
%TO.N,DIN47-{slash}WR*%
X86045270Y-110914270D02*
G75*
G02*
X85745270Y-110914270I-150000J0D01*
G01*
X85745270Y-110914270D02*
G75*
G02*
X86045270Y-110914270I150000J0D01*
G01*
%TO.N,DIN33-{slash}MREQ*%
X128218080Y-107741920D02*
G75*
G02*
X127918080Y-107741920I-150000J0D01*
G01*
X127918080Y-107741920D02*
G75*
G02*
X128218080Y-107741920I150000J0D01*
G01*
%TO.N,DIN8-{slash}RESET*%
D15*
X107910000Y-66210000D02*
G75*
G02*
X106910000Y-66210000I-500000J0D01*
G01*
X106910000Y-66210000D02*
G75*
G02*
X107910000Y-66210000I500000J0D01*
G01*
%TO.N,DIN41-D3*%
D10*
X101061040Y-92034290D02*
G75*
G02*
X100761040Y-92034290I-150000J0D01*
G01*
X100761040Y-92034290D02*
G75*
G02*
X101061040Y-92034290I150000J0D01*
G01*
%TO.N,DIN28-{slash}ROMCS*%
X127171530Y-129286000D02*
G75*
G02*
X126871530Y-129286000I-150000J0D01*
G01*
X126871530Y-129286000D02*
G75*
G02*
X127171530Y-129286000I150000J0D01*
G01*
%TO.N,DIN45-D7*%
X109980000Y-79740000D02*
G75*
G02*
X109680000Y-79740000I-150000J0D01*
G01*
X109680000Y-79740000D02*
G75*
G02*
X109980000Y-79740000I150000J0D01*
G01*
%TO.N,DIN34-{slash}HALT*%
X128490000Y-106800000D02*
G75*
G02*
X128190000Y-106800000I-150000J0D01*
G01*
X128190000Y-106800000D02*
G75*
G02*
X128490000Y-106800000I150000J0D01*
G01*
%TO.N,unconnected-(J2-Pad25)*%
D11*
X117835000Y-126670000D02*
G75*
G02*
X116985000Y-126670000I-425000J0D01*
G01*
X116985000Y-126670000D02*
G75*
G02*
X117835000Y-126670000I425000J0D01*
G01*
%TO.N,POWER_+12V*%
D16*
X85780000Y-123140000D02*
G75*
G02*
X85380000Y-123140000I-200000J0D01*
G01*
X85380000Y-123140000D02*
G75*
G02*
X85780000Y-123140000I200000J0D01*
G01*
%TO.N,DIN22-A13*%
D11*
X93394000Y-101270000D02*
G75*
G02*
X92544000Y-101270000I-425000J0D01*
G01*
X92544000Y-101270000D02*
G75*
G02*
X93394000Y-101270000I425000J0D01*
G01*
%TO.N,DIN38-D0*%
X117835000Y-121590000D02*
G75*
G02*
X116985000Y-121590000I-425000J0D01*
G01*
X116985000Y-121590000D02*
G75*
G02*
X117835000Y-121590000I425000J0D01*
G01*
%TO.N,DIN29-{slash}RFRSH*%
D10*
X124350000Y-127464740D02*
G75*
G02*
X124050000Y-127464740I-150000J0D01*
G01*
X124050000Y-127464740D02*
G75*
G02*
X124350000Y-127464740I150000J0D01*
G01*
%TO.N,DIN26-Spare3*%
D11*
X120375000Y-98730000D02*
G75*
G02*
X119525000Y-98730000I-425000J0D01*
G01*
X119525000Y-98730000D02*
G75*
G02*
X120375000Y-98730000I425000J0D01*
G01*
%TO.N,DIN5-U-{slash}MTR*%
X95934000Y-106350000D02*
G75*
G02*
X95084000Y-106350000I-425000J0D01*
G01*
X95084000Y-106350000D02*
G75*
G02*
X95934000Y-106350000I425000J0D01*
G01*
%TO.N,POWER5V*%
X117835000Y-129210000D02*
G75*
G02*
X116985000Y-129210000I-425000J0D01*
G01*
X116985000Y-129210000D02*
G75*
G02*
X117835000Y-129210000I425000J0D01*
G01*
D12*
%TA.AperFunction,Conductor*%
%TO.N,DIN41-D3*%
G36*
X136460000Y-95361000D02*
G01*
X128840000Y-95361000D01*
X128840000Y-93361000D01*
X136460000Y-93361000D01*
X136460000Y-95361000D01*
G37*
%TD.AperFunction*%
%TO.N,DIN35-{slash}NMI*%
D10*
X86325300Y-99002330D02*
G75*
G02*
X86025300Y-99002330I-150000J0D01*
G01*
X86025300Y-99002330D02*
G75*
G02*
X86325300Y-99002330I150000J0D01*
G01*
X126090000Y-98070000D02*
G75*
G02*
X125790000Y-98070000I-150000J0D01*
G01*
X125790000Y-98070000D02*
G75*
G02*
X126090000Y-98070000I150000J0D01*
G01*
D12*
%TA.AperFunction,Conductor*%
%TO.N,DIN32-{slash}IORQ*%
G36*
X84582000Y-110601000D02*
G01*
X76962000Y-110601000D01*
X76962000Y-108601000D01*
X84582000Y-108601000D01*
X84582000Y-110601000D01*
G37*
%TD.AperFunction*%
%TO.N,DIN46-{slash}RD*%
D11*
X117835000Y-101270000D02*
G75*
G02*
X116985000Y-101270000I-425000J0D01*
G01*
X116985000Y-101270000D02*
G75*
G02*
X117835000Y-101270000I425000J0D01*
G01*
%TO.N,DIN30-{slash}WAIT*%
D10*
X125535500Y-111172500D02*
G75*
G02*
X125235500Y-111172500I-150000J0D01*
G01*
X125235500Y-111172500D02*
G75*
G02*
X125535500Y-111172500I150000J0D01*
G01*
%TO.N,DIN40-D2*%
X95765000Y-94638040D02*
G75*
G02*
X95465000Y-94638040I-150000J0D01*
G01*
X95465000Y-94638040D02*
G75*
G02*
X95765000Y-94638040I150000J0D01*
G01*
%TO.N,DIN8-{slash}RESET*%
D11*
X95934000Y-113970000D02*
G75*
G02*
X95084000Y-113970000I-425000J0D01*
G01*
X95084000Y-113970000D02*
G75*
G02*
X95934000Y-113970000I425000J0D01*
G01*
%TO.N,GND*%
D15*
X107910000Y-70710000D02*
G75*
G02*
X106910000Y-70710000I-500000J0D01*
G01*
X106910000Y-70710000D02*
G75*
G02*
X107910000Y-70710000I500000J0D01*
G01*
%TO.N,DIN46-{slash}RD*%
D10*
X103274000Y-100720000D02*
G75*
G02*
X102974000Y-100720000I-150000J0D01*
G01*
X102974000Y-100720000D02*
G75*
G02*
X103274000Y-100720000I150000J0D01*
G01*
%TO.N,DIN36-{slash}IORQGE*%
X98165000Y-94805000D02*
G75*
G02*
X97865000Y-94805000I-150000J0D01*
G01*
X97865000Y-94805000D02*
G75*
G02*
X98165000Y-94805000I150000J0D01*
G01*
%TO.N,POWER_12VAC*%
D16*
X85600000Y-126890000D02*
G75*
G02*
X85200000Y-126890000I-200000J0D01*
G01*
X85200000Y-126890000D02*
G75*
G02*
X85600000Y-126890000I200000J0D01*
G01*
D12*
%TA.AperFunction,Conductor*%
%TO.N,DIN44-D6*%
G36*
X84582000Y-90281000D02*
G01*
X76962000Y-90281000D01*
X76962000Y-88281000D01*
X84582000Y-88281000D01*
X84582000Y-90281000D01*
G37*
%TD.AperFunction*%
%TA.AperFunction,Conductor*%
%TO.N,DIN29-{slash}RFRSH*%
G36*
X136460000Y-130921000D02*
G01*
X128840000Y-130921000D01*
X128840000Y-128921000D01*
X136460000Y-128921000D01*
X136460000Y-130921000D01*
G37*
%TD.AperFunction*%
%TO.N,DIN42-D4*%
D10*
X94744140Y-92238040D02*
G75*
G02*
X94444140Y-92238040I-150000J0D01*
G01*
X94444140Y-92238040D02*
G75*
G02*
X94744140Y-92238040I150000J0D01*
G01*
D12*
%TA.AperFunction,Conductor*%
%TO.N,DIN43-D5*%
G36*
X84582000Y-92821000D02*
G01*
X76962000Y-92821000D01*
X76962000Y-90821000D01*
X84582000Y-90821000D01*
X84582000Y-92821000D01*
G37*
%TD.AperFunction*%
%TO.N,DIN31-{slash}BUSRQ*%
D11*
X120375000Y-111430000D02*
G75*
G02*
X119525000Y-111430000I-425000J0D01*
G01*
X119525000Y-111430000D02*
G75*
G02*
X120375000Y-111430000I425000J0D01*
G01*
%TO.N,GND*%
X95934000Y-134290000D02*
G75*
G02*
X95084000Y-134290000I-425000J0D01*
G01*
X95084000Y-134290000D02*
G75*
G02*
X95934000Y-134290000I425000J0D01*
G01*
%TO.N,DIN34-{slash}HALT*%
D10*
X100474000Y-96410000D02*
G75*
G02*
X100174000Y-96410000I-150000J0D01*
G01*
X100174000Y-96410000D02*
G75*
G02*
X100474000Y-96410000I150000J0D01*
G01*
%TO.N,DIN32-{slash}IORQ*%
X122983940Y-108326990D02*
G75*
G02*
X122683940Y-108326990I-150000J0D01*
G01*
X122683940Y-108326990D02*
G75*
G02*
X122983940Y-108326990I150000J0D01*
G01*
%TO.N,DIN7-Spare2*%
D11*
X95934000Y-111430000D02*
G75*
G02*
X95084000Y-111430000I-425000J0D01*
G01*
X95084000Y-111430000D02*
G75*
G02*
X95934000Y-111430000I425000J0D01*
G01*
%TO.N,DIN38-D0*%
D10*
X86280000Y-81430000D02*
G75*
G02*
X85980000Y-81430000I-150000J0D01*
G01*
X85980000Y-81430000D02*
G75*
G02*
X86280000Y-81430000I150000J0D01*
G01*
%TO.N,DIN17-A8*%
D11*
X93394000Y-113970000D02*
G75*
G02*
X92544000Y-113970000I-425000J0D01*
G01*
X92544000Y-113970000D02*
G75*
G02*
X93394000Y-113970000I425000J0D01*
G01*
%TO.N,DIN37-{slash}INT*%
X117835000Y-124130000D02*
G75*
G02*
X116985000Y-124130000I-425000J0D01*
G01*
X116985000Y-124130000D02*
G75*
G02*
X117835000Y-124130000I425000J0D01*
G01*
%TO.N,DIN25-CLOCK*%
D10*
X120150000Y-89000000D02*
G75*
G02*
X119850000Y-89000000I-150000J0D01*
G01*
X119850000Y-89000000D02*
G75*
G02*
X120150000Y-89000000I150000J0D01*
G01*
D12*
%TA.AperFunction,Conductor*%
%TO.N,DIN22-A13*%
G36*
X136460000Y-72501000D02*
G01*
X128840000Y-72501000D01*
X128840000Y-70501000D01*
X136460000Y-70501000D01*
X136460000Y-72501000D01*
G37*
%TD.AperFunction*%
%TO.N,POWER_-5V*%
D16*
X127780000Y-116270000D02*
G75*
G02*
X127380000Y-116270000I-200000J0D01*
G01*
X127380000Y-116270000D02*
G75*
G02*
X127780000Y-116270000I200000J0D01*
G01*
D12*
%TA.AperFunction,Conductor*%
%TO.N,DIN38-D0*%
G36*
X84582000Y-82661000D02*
G01*
X76962000Y-82661000D01*
X76962000Y-80661000D01*
X84582000Y-80661000D01*
X84582000Y-82661000D01*
G37*
%TD.AperFunction*%
%TO.N,GND*%
D13*
X115900000Y-82960000D02*
G75*
G02*
X115400000Y-82960000I-250000J0D01*
G01*
X115400000Y-82960000D02*
G75*
G02*
X115900000Y-82960000I250000J0D01*
G01*
%TO.N,DIN5-U-{slash}MTR*%
D10*
X103277530Y-106343000D02*
G75*
G02*
X102977530Y-106343000I-150000J0D01*
G01*
X102977530Y-106343000D02*
G75*
G02*
X103277530Y-106343000I150000J0D01*
G01*
D12*
%TA.AperFunction,Conductor*%
%TO.N,DIN48-{slash}M1*%
G36*
X136460000Y-128381000D02*
G01*
X128840000Y-128381000D01*
X128840000Y-126381000D01*
X136460000Y-126381000D01*
X136460000Y-128381000D01*
G37*
%TD.AperFunction*%
%TO.N,DIN41-D3*%
D10*
X104078030Y-110218030D02*
G75*
G02*
X103778030Y-110218030I-150000J0D01*
G01*
X103778030Y-110218030D02*
G75*
G02*
X104078030Y-110218030I150000J0D01*
G01*
D12*
%TA.AperFunction,Conductor*%
%TO.N,DIN48-{slash}M1*%
G36*
X118260000Y-97040000D02*
G01*
X116560000Y-97040000D01*
X116560000Y-95340000D01*
X118260000Y-95340000D01*
X118260000Y-97040000D01*
G37*
%TD.AperFunction*%
%TO.N,DIN11-A2*%
D10*
X87950000Y-121400000D02*
G75*
G02*
X87650000Y-121400000I-150000J0D01*
G01*
X87650000Y-121400000D02*
G75*
G02*
X87950000Y-121400000I150000J0D01*
G01*
D12*
%TA.AperFunction,Conductor*%
%TO.N,DIN30-{slash}WAIT*%
G36*
X84582000Y-120761000D02*
G01*
X76962000Y-120761000D01*
X76962000Y-118761000D01*
X84582000Y-118761000D01*
X84582000Y-120761000D01*
G37*
%TD.AperFunction*%
%TO.N,POWER5_VIN*%
D13*
X113030000Y-74030000D02*
G75*
G02*
X112530000Y-74030000I-250000J0D01*
G01*
X112530000Y-74030000D02*
G75*
G02*
X113030000Y-74030000I250000J0D01*
G01*
%TO.N,unconnected-(J2-Pad29)*%
D11*
X117835000Y-131750000D02*
G75*
G02*
X116985000Y-131750000I-425000J0D01*
G01*
X116985000Y-131750000D02*
G75*
G02*
X117835000Y-131750000I425000J0D01*
G01*
%TO.N,DIN43-D5*%
D10*
X101555000Y-91405000D02*
G75*
G02*
X101255000Y-91405000I-150000J0D01*
G01*
X101255000Y-91405000D02*
G75*
G02*
X101555000Y-91405000I150000J0D01*
G01*
%TO.N,DIN21-A12*%
X94570000Y-71900000D02*
G75*
G02*
X94270000Y-71900000I-150000J0D01*
G01*
X94270000Y-71900000D02*
G75*
G02*
X94570000Y-71900000I150000J0D01*
G01*
%TO.N,DIN8-{slash}RESET*%
D15*
X101410000Y-66210000D02*
G75*
G02*
X100410000Y-66210000I-500000J0D01*
G01*
X100410000Y-66210000D02*
G75*
G02*
X101410000Y-66210000I500000J0D01*
G01*
D12*
%TA.AperFunction,Conductor*%
%TO.N,DIN30-{slash}WAIT*%
G36*
X136460000Y-120761000D02*
G01*
X128840000Y-120761000D01*
X128840000Y-118761000D01*
X136460000Y-118761000D01*
X136460000Y-120761000D01*
G37*
%TD.AperFunction*%
%TO.N,DIN23-A14*%
D10*
X91525360Y-85839000D02*
G75*
G02*
X91225360Y-85839000I-150000J0D01*
G01*
X91225360Y-85839000D02*
G75*
G02*
X91525360Y-85839000I150000J0D01*
G01*
%TO.N,POWER_+9V*%
D13*
X86690000Y-77730000D02*
G75*
G02*
X86190000Y-77730000I-250000J0D01*
G01*
X86190000Y-77730000D02*
G75*
G02*
X86690000Y-77730000I250000J0D01*
G01*
D12*
%TA.AperFunction,Conductor*%
%TO.N,DIN34-{slash}HALT*%
G36*
X136460000Y-105521000D02*
G01*
X128840000Y-105521000D01*
X128840000Y-103521000D01*
X136460000Y-103521000D01*
X136460000Y-105521000D01*
G37*
%TD.AperFunction*%
%TA.AperFunction,Conductor*%
%TO.N,DIN42-D4*%
G36*
X84582000Y-97901000D02*
G01*
X76962000Y-97901000D01*
X76962000Y-95901000D01*
X84582000Y-95901000D01*
X84582000Y-97901000D01*
G37*
%TD.AperFunction*%
%TO.N,DIN2-VIDEO-OE2*%
D10*
X97850000Y-100080000D02*
G75*
G02*
X97550000Y-100080000I-150000J0D01*
G01*
X97550000Y-100080000D02*
G75*
G02*
X97850000Y-100080000I150000J0D01*
G01*
D12*
%TA.AperFunction,Conductor*%
%TO.N,POWER_+12V*%
G36*
X136460000Y-123301000D02*
G01*
X128840000Y-123301000D01*
X128840000Y-121301000D01*
X136460000Y-121301000D01*
X136460000Y-123301000D01*
G37*
%TD.AperFunction*%
%TO.N,DIN42-D4*%
D10*
X128121000Y-96901000D02*
G75*
G02*
X127821000Y-96901000I-150000J0D01*
G01*
X127821000Y-96901000D02*
G75*
G02*
X128121000Y-96901000I150000J0D01*
G01*
%TO.N,DIN38-D0*%
X114840000Y-81590000D02*
G75*
G02*
X114540000Y-81590000I-150000J0D01*
G01*
X114540000Y-81590000D02*
G75*
G02*
X114840000Y-81590000I150000J0D01*
G01*
D12*
%TA.AperFunction,Conductor*%
%TO.N,DIN24-A15*%
G36*
X136460000Y-69961000D02*
G01*
X128840000Y-69961000D01*
X128840000Y-67961000D01*
X136460000Y-67961000D01*
X136460000Y-69961000D01*
G37*
%TD.AperFunction*%
%TO.N,DIN32-{slash}IORQ*%
D10*
X128350000Y-109601000D02*
G75*
G02*
X128050000Y-109601000I-150000J0D01*
G01*
X128050000Y-109601000D02*
G75*
G02*
X128350000Y-109601000I150000J0D01*
G01*
%TO.N,DIN16-A7*%
X103890000Y-117653000D02*
G75*
G02*
X103590000Y-117653000I-150000J0D01*
G01*
X103590000Y-117653000D02*
G75*
G02*
X103890000Y-117653000I150000J0D01*
G01*
%TO.N,POWER5V*%
D11*
X93394000Y-129210000D02*
G75*
G02*
X92544000Y-129210000I-425000J0D01*
G01*
X92544000Y-129210000D02*
G75*
G02*
X93394000Y-129210000I425000J0D01*
G01*
%TO.N,DIN12-A3*%
D10*
X87550000Y-124800000D02*
G75*
G02*
X87250000Y-124800000I-150000J0D01*
G01*
X87250000Y-124800000D02*
G75*
G02*
X87550000Y-124800000I150000J0D01*
G01*
%TO.N,DIN1-NCA4-OE1*%
X89977340Y-80896870D02*
G75*
G02*
X89677340Y-80896870I-150000J0D01*
G01*
X89677340Y-80896870D02*
G75*
G02*
X89977340Y-80896870I150000J0D01*
G01*
%TO.N,DIN35-{slash}NMI*%
X100674000Y-94950000D02*
G75*
G02*
X100374000Y-94950000I-150000J0D01*
G01*
X100374000Y-94950000D02*
G75*
G02*
X100674000Y-94950000I150000J0D01*
G01*
%TO.N,DIN48-{slash}M1*%
X127730000Y-127464740D02*
G75*
G02*
X127430000Y-127464740I-150000J0D01*
G01*
X127430000Y-127464740D02*
G75*
G02*
X127730000Y-127464740I150000J0D01*
G01*
D12*
%TA.AperFunction,Conductor*%
%TO.N,DIN43-D5*%
G36*
X136460000Y-92821000D02*
G01*
X128840000Y-92821000D01*
X128840000Y-90821000D01*
X136460000Y-90821000D01*
X136460000Y-92821000D01*
G37*
%TD.AperFunction*%
%TO.N,POWER_+12V*%
D16*
X128256800Y-122305980D02*
G75*
G02*
X127856800Y-122305980I-200000J0D01*
G01*
X127856800Y-122305980D02*
G75*
G02*
X128256800Y-122305980I200000J0D01*
G01*
%TO.N,DIN29-{slash}RFRSH*%
D10*
X89609000Y-131560000D02*
G75*
G02*
X89309000Y-131560000I-150000J0D01*
G01*
X89309000Y-131560000D02*
G75*
G02*
X89609000Y-131560000I150000J0D01*
G01*
%TO.N,DIN21-A12*%
D11*
X93394000Y-103810000D02*
G75*
G02*
X92544000Y-103810000I-425000J0D01*
G01*
X92544000Y-103810000D02*
G75*
G02*
X93394000Y-103810000I425000J0D01*
G01*
%TO.N,DIN22-A13*%
D10*
X93280000Y-70231000D02*
G75*
G02*
X92980000Y-70231000I-150000J0D01*
G01*
X92980000Y-70231000D02*
G75*
G02*
X93280000Y-70231000I150000J0D01*
G01*
D12*
%TA.AperFunction,Conductor*%
%TO.N,DIN24-A15*%
G36*
X93819000Y-97040000D02*
G01*
X92119000Y-97040000D01*
X92119000Y-95340000D01*
X93819000Y-95340000D01*
X93819000Y-97040000D01*
G37*
%TD.AperFunction*%
%TA.AperFunction,Conductor*%
%TO.N,DIN39-D1*%
G36*
X136460000Y-85201000D02*
G01*
X128840000Y-85201000D01*
X128840000Y-83201000D01*
X136460000Y-83201000D01*
X136460000Y-85201000D01*
G37*
%TD.AperFunction*%
D10*
X100150000Y-84000000D02*
G75*
G02*
X99850000Y-84000000I-150000J0D01*
G01*
X99850000Y-84000000D02*
G75*
G02*
X100150000Y-84000000I150000J0D01*
G01*
%TO.N,DIN33-{slash}MREQ*%
X124053000Y-107280000D02*
G75*
G02*
X123753000Y-107280000I-150000J0D01*
G01*
X123753000Y-107280000D02*
G75*
G02*
X124053000Y-107280000I150000J0D01*
G01*
X97440000Y-121390000D02*
G75*
G02*
X97140000Y-121390000I-150000J0D01*
G01*
X97140000Y-121390000D02*
G75*
G02*
X97440000Y-121390000I150000J0D01*
G01*
%TO.N,DIN41-D3*%
D11*
X117835000Y-113970000D02*
G75*
G02*
X116985000Y-113970000I-425000J0D01*
G01*
X116985000Y-113970000D02*
G75*
G02*
X117835000Y-113970000I425000J0D01*
G01*
D12*
%TA.AperFunction,Conductor*%
%TO.N,DIN17-A8*%
G36*
X136460000Y-133461000D02*
G01*
X128840000Y-133461000D01*
X128840000Y-131461000D01*
X136460000Y-131461000D01*
X136460000Y-133461000D01*
G37*
%TD.AperFunction*%
%TA.AperFunction,Conductor*%
%TO.N,DIN35-{slash}NMI*%
G36*
X136460000Y-102981000D02*
G01*
X128840000Y-102981000D01*
X128840000Y-100981000D01*
X136460000Y-100981000D01*
X136460000Y-102981000D01*
G37*
%TD.AperFunction*%
%TO.N,DIN43-D5*%
D11*
X117835000Y-108890000D02*
G75*
G02*
X116985000Y-108890000I-425000J0D01*
G01*
X116985000Y-108890000D02*
G75*
G02*
X117835000Y-108890000I425000J0D01*
G01*
%TO.N,DIN6-Spare1*%
X95934000Y-108890000D02*
G75*
G02*
X95084000Y-108890000I-425000J0D01*
G01*
X95084000Y-108890000D02*
G75*
G02*
X95934000Y-108890000I425000J0D01*
G01*
D12*
%TA.AperFunction,Conductor*%
%TO.N,DIN33-{slash}MREQ*%
G36*
X136460000Y-108061000D02*
G01*
X128840000Y-108061000D01*
X128840000Y-106061000D01*
X136460000Y-106061000D01*
X136460000Y-108061000D01*
G37*
%TD.AperFunction*%
%TO.N,DIN45-D7*%
D10*
X97910110Y-89936510D02*
G75*
G02*
X97610110Y-89936510I-150000J0D01*
G01*
X97610110Y-89936510D02*
G75*
G02*
X97910110Y-89936510I150000J0D01*
G01*
%TO.N,DIN23-A14*%
D11*
X93394000Y-98730000D02*
G75*
G02*
X92544000Y-98730000I-425000J0D01*
G01*
X92544000Y-98730000D02*
G75*
G02*
X93394000Y-98730000I425000J0D01*
G01*
%TO.N,DIN20-A11*%
D10*
X87520000Y-135601000D02*
G75*
G02*
X87220000Y-135601000I-150000J0D01*
G01*
X87220000Y-135601000D02*
G75*
G02*
X87520000Y-135601000I150000J0D01*
G01*
%TO.N,DIN4-V-{slash}DWR*%
X96750000Y-105400000D02*
G75*
G02*
X96450000Y-105400000I-150000J0D01*
G01*
X96450000Y-105400000D02*
G75*
G02*
X96750000Y-105400000I150000J0D01*
G01*
%TO.N,DIN48-{slash}M1*%
X85460000Y-128898530D02*
G75*
G02*
X85160000Y-128898530I-150000J0D01*
G01*
X85160000Y-128898530D02*
G75*
G02*
X85460000Y-128898530I150000J0D01*
G01*
%TO.N,DIN3-Y-{slash}DRD*%
D11*
X95934000Y-101270000D02*
G75*
G02*
X95084000Y-101270000I-425000J0D01*
G01*
X95084000Y-101270000D02*
G75*
G02*
X95934000Y-101270000I425000J0D01*
G01*
%TO.N,DIN9-A0*%
D10*
X96162000Y-86940000D02*
G75*
G02*
X95862000Y-86940000I-150000J0D01*
G01*
X95862000Y-86940000D02*
G75*
G02*
X96162000Y-86940000I150000J0D01*
G01*
D12*
%TA.AperFunction,Conductor*%
%TO.N,NCA28*%
G36*
X84582000Y-138541000D02*
G01*
X76962000Y-138541000D01*
X76962000Y-136541000D01*
X84582000Y-136541000D01*
X84582000Y-138541000D01*
G37*
%TD.AperFunction*%
%TO.N,POWER_-5V*%
D16*
X85360000Y-118450000D02*
G75*
G02*
X84960000Y-118450000I-200000J0D01*
G01*
X84960000Y-118450000D02*
G75*
G02*
X85360000Y-118450000I200000J0D01*
G01*
%TO.N,DIN39-D1*%
D10*
X90395130Y-82728870D02*
G75*
G02*
X90095130Y-82728870I-150000J0D01*
G01*
X90095130Y-82728870D02*
G75*
G02*
X90395130Y-82728870I150000J0D01*
G01*
%TO.N,POWER_12VAC*%
X128080000Y-125540000D02*
G75*
G02*
X127780000Y-125540000I-150000J0D01*
G01*
X127780000Y-125540000D02*
G75*
G02*
X128080000Y-125540000I150000J0D01*
G01*
%TO.N,GND*%
D11*
X120375000Y-134290000D02*
G75*
G02*
X119525000Y-134290000I-425000J0D01*
G01*
X119525000Y-134290000D02*
G75*
G02*
X120375000Y-134290000I425000J0D01*
G01*
%TO.N,DIN31-{slash}BUSRQ*%
D10*
X91490000Y-110190000D02*
G75*
G02*
X91190000Y-110190000I-150000J0D01*
G01*
X91190000Y-110190000D02*
G75*
G02*
X91490000Y-110190000I150000J0D01*
G01*
D12*
%TA.AperFunction,Conductor*%
%TO.N,DIN47-{slash}WR*%
G36*
X136460000Y-115681000D02*
G01*
X128840000Y-115681000D01*
X128840000Y-113681000D01*
X136460000Y-113681000D01*
X136460000Y-115681000D01*
G37*
%TD.AperFunction*%
%TA.AperFunction,Conductor*%
%TO.N,DIN22-A13*%
G36*
X84582000Y-72501000D02*
G01*
X76962000Y-72501000D01*
X76962000Y-70501000D01*
X84582000Y-70501000D01*
X84582000Y-72501000D01*
G37*
%TD.AperFunction*%
%TO.N,DIN48-{slash}M1*%
D10*
X103274000Y-98173000D02*
G75*
G02*
X102974000Y-98173000I-150000J0D01*
G01*
X102974000Y-98173000D02*
G75*
G02*
X103274000Y-98173000I150000J0D01*
G01*
D12*
%TA.AperFunction,Conductor*%
%TO.N,DIN46-{slash}RD*%
G36*
X84582000Y-113141000D02*
G01*
X76962000Y-113141000D01*
X76962000Y-111141000D01*
X84582000Y-111141000D01*
X84582000Y-113141000D01*
G37*
%TD.AperFunction*%
%TO.N,DIN42-D4*%
D10*
X100663100Y-92728300D02*
G75*
G02*
X100363100Y-92728300I-150000J0D01*
G01*
X100363100Y-92728300D02*
G75*
G02*
X100663100Y-92728300I150000J0D01*
G01*
D12*
%TA.AperFunction,Conductor*%
%TO.N,DIN39-D1*%
G36*
X84582000Y-85201000D02*
G01*
X76962000Y-85201000D01*
X76962000Y-83201000D01*
X84582000Y-83201000D01*
X84582000Y-85201000D01*
G37*
%TD.AperFunction*%
%TA.AperFunction,Conductor*%
%TO.N,POWER_12VAC*%
G36*
X136460000Y-125841000D02*
G01*
X128840000Y-125841000D01*
X128840000Y-123841000D01*
X136460000Y-123841000D01*
X136460000Y-125841000D01*
G37*
%TD.AperFunction*%
%TA.AperFunction,Conductor*%
%TO.N,DIN45-D7*%
G36*
X84582000Y-75041000D02*
G01*
X76962000Y-75041000D01*
X76962000Y-73041000D01*
X84582000Y-73041000D01*
X84582000Y-75041000D01*
G37*
%TD.AperFunction*%
%TO.N,DIN4-V-{slash}DWR*%
D10*
X122786760Y-107530000D02*
G75*
G02*
X122486760Y-107530000I-150000J0D01*
G01*
X122486760Y-107530000D02*
G75*
G02*
X122786760Y-107530000I150000J0D01*
G01*
%TO.N,unconnected-(J2-Pad26)*%
D11*
X120375000Y-126670000D02*
G75*
G02*
X119525000Y-126670000I-425000J0D01*
G01*
X119525000Y-126670000D02*
G75*
G02*
X120375000Y-126670000I425000J0D01*
G01*
%TO.N,DIN35-{slash}NMI*%
D10*
X102909000Y-109690000D02*
G75*
G02*
X102609000Y-109690000I-150000J0D01*
G01*
X102609000Y-109690000D02*
G75*
G02*
X102909000Y-109690000I150000J0D01*
G01*
%TO.N,DIN40-D2*%
X101772225Y-108365925D02*
G75*
G02*
X101472225Y-108365925I-150000J0D01*
G01*
X101472225Y-108365925D02*
G75*
G02*
X101772225Y-108365925I150000J0D01*
G01*
%TO.N,DIN1-NCA4-OE1*%
X110750000Y-82200000D02*
G75*
G02*
X110450000Y-82200000I-150000J0D01*
G01*
X110450000Y-82200000D02*
G75*
G02*
X110750000Y-82200000I150000J0D01*
G01*
%TO.N,DIN27-{slash}BUSACK*%
D11*
X120375000Y-101270000D02*
G75*
G02*
X119525000Y-101270000I-425000J0D01*
G01*
X119525000Y-101270000D02*
G75*
G02*
X120375000Y-101270000I425000J0D01*
G01*
%TO.N,DIN40-D2*%
X117835000Y-116510000D02*
G75*
G02*
X116985000Y-116510000I-425000J0D01*
G01*
X116985000Y-116510000D02*
G75*
G02*
X117835000Y-116510000I425000J0D01*
G01*
D12*
%TA.AperFunction,Conductor*%
%TO.N,DIN37-{slash}INT*%
G36*
X84582000Y-100441000D02*
G01*
X76962000Y-100441000D01*
X76962000Y-98441000D01*
X84582000Y-98441000D01*
X84582000Y-100441000D01*
G37*
%TD.AperFunction*%
%TA.AperFunction,Conductor*%
%TO.N,DIN42-D4*%
G36*
X136460000Y-97901000D02*
G01*
X128840000Y-97901000D01*
X128840000Y-95901000D01*
X136460000Y-95901000D01*
X136460000Y-97901000D01*
G37*
%TD.AperFunction*%
%TO.N,GND*%
D15*
X101410000Y-70710000D02*
G75*
G02*
X100410000Y-70710000I-500000J0D01*
G01*
X100410000Y-70710000D02*
G75*
G02*
X101410000Y-70710000I500000J0D01*
G01*
D13*
X81030000Y-79490000D02*
G75*
G02*
X80530000Y-79490000I-250000J0D01*
G01*
X80530000Y-79490000D02*
G75*
G02*
X81030000Y-79490000I250000J0D01*
G01*
D12*
%TA.AperFunction,Conductor*%
%TO.N,DIN29-{slash}RFRSH*%
G36*
X84582000Y-130921000D02*
G01*
X76962000Y-130921000D01*
X76962000Y-128921000D01*
X84582000Y-128921000D01*
X84582000Y-130921000D01*
G37*
%TD.AperFunction*%
%TA.AperFunction,Conductor*%
%TO.N,DIN34-{slash}HALT*%
G36*
X84582000Y-105521000D02*
G01*
X76962000Y-105521000D01*
X76962000Y-103521000D01*
X84582000Y-103521000D01*
X84582000Y-105521000D01*
G37*
%TD.AperFunction*%
%TO.N,DIN8-{slash}RESET*%
D10*
X98610000Y-82290000D02*
G75*
G02*
X98310000Y-82290000I-150000J0D01*
G01*
X98310000Y-82290000D02*
G75*
G02*
X98610000Y-82290000I150000J0D01*
G01*
%TO.N,DIN17-A8*%
X88535740Y-130764270D02*
G75*
G02*
X88235740Y-130764270I-150000J0D01*
G01*
X88235740Y-130764270D02*
G75*
G02*
X88535740Y-130764270I150000J0D01*
G01*
%TO.N,DIN10-A1*%
D11*
X95934000Y-119050000D02*
G75*
G02*
X95084000Y-119050000I-425000J0D01*
G01*
X95084000Y-119050000D02*
G75*
G02*
X95934000Y-119050000I425000J0D01*
G01*
%TO.N,DIN39-D1*%
D10*
X97880000Y-96005000D02*
G75*
G02*
X97580000Y-96005000I-150000J0D01*
G01*
X97580000Y-96005000D02*
G75*
G02*
X97880000Y-96005000I150000J0D01*
G01*
%TO.N,DIN34-{slash}HALT*%
D11*
X120375000Y-119050000D02*
G75*
G02*
X119525000Y-119050000I-425000J0D01*
G01*
X119525000Y-119050000D02*
G75*
G02*
X120375000Y-119050000I425000J0D01*
G01*
%TO.N,DIN37-{slash}INT*%
D10*
X127350000Y-97670000D02*
G75*
G02*
X127050000Y-97670000I-150000J0D01*
G01*
X127050000Y-97670000D02*
G75*
G02*
X127350000Y-97670000I150000J0D01*
G01*
D12*
%TA.AperFunction,Conductor*%
%TO.N,POWER_+12V*%
G36*
X84582000Y-123301000D02*
G01*
X76962000Y-123301000D01*
X76962000Y-121301000D01*
X84582000Y-121301000D01*
X84582000Y-123301000D01*
G37*
%TD.AperFunction*%
%TA.AperFunction,Conductor*%
%TO.N,NCA28*%
G36*
X136460000Y-138541000D02*
G01*
X128840000Y-138541000D01*
X128840000Y-136541000D01*
X136460000Y-136541000D01*
X136460000Y-138541000D01*
G37*
%TD.AperFunction*%
%TO.N,DIN17-A8*%
D10*
X93106880Y-138236780D02*
G75*
G02*
X92806880Y-138236780I-150000J0D01*
G01*
X92806880Y-138236780D02*
G75*
G02*
X93106880Y-138236780I150000J0D01*
G01*
%TO.N,POWER5V*%
D11*
X120375000Y-129210000D02*
G75*
G02*
X119525000Y-129210000I-425000J0D01*
G01*
X119525000Y-129210000D02*
G75*
G02*
X120375000Y-129210000I425000J0D01*
G01*
D12*
%TA.AperFunction,Conductor*%
%TO.N,DIN38-D0*%
G36*
X136460000Y-82661000D02*
G01*
X128840000Y-82661000D01*
X128840000Y-80661000D01*
X136460000Y-80661000D01*
X136460000Y-82661000D01*
G37*
%TD.AperFunction*%
%TO.N,DIN41-D3*%
D10*
X125830000Y-94380000D02*
G75*
G02*
X125530000Y-94380000I-150000J0D01*
G01*
X125530000Y-94380000D02*
G75*
G02*
X125830000Y-94380000I150000J0D01*
G01*
%TO.N,DIN21-A12*%
X115730000Y-71540000D02*
G75*
G02*
X115430000Y-71540000I-150000J0D01*
G01*
X115430000Y-71540000D02*
G75*
G02*
X115730000Y-71540000I150000J0D01*
G01*
%TO.N,DIN28-{slash}ROMCS*%
D11*
X120375000Y-103810000D02*
G75*
G02*
X119525000Y-103810000I-425000J0D01*
G01*
X119525000Y-103810000D02*
G75*
G02*
X120375000Y-103810000I425000J0D01*
G01*
%TO.N,DIN18-A9*%
D10*
X90880000Y-137080000D02*
G75*
G02*
X90580000Y-137080000I-150000J0D01*
G01*
X90580000Y-137080000D02*
G75*
G02*
X90880000Y-137080000I150000J0D01*
G01*
%TO.N,GND*%
D13*
X86289310Y-101809310D02*
G75*
G02*
X85789310Y-101809310I-250000J0D01*
G01*
X85789310Y-101809310D02*
G75*
G02*
X86289310Y-101809310I250000J0D01*
G01*
%TO.N,DIN48-{slash}M1*%
D10*
X123838230Y-103575000D02*
G75*
G02*
X123538230Y-103575000I-150000J0D01*
G01*
X123538230Y-103575000D02*
G75*
G02*
X123838230Y-103575000I150000J0D01*
G01*
%TO.N,DIN37-{slash}INT*%
X103360000Y-115903000D02*
G75*
G02*
X103060000Y-115903000I-150000J0D01*
G01*
X103060000Y-115903000D02*
G75*
G02*
X103360000Y-115903000I150000J0D01*
G01*
%TO.N,DIN29-{slash}RFRSH*%
D11*
X120375000Y-106350000D02*
G75*
G02*
X119525000Y-106350000I-425000J0D01*
G01*
X119525000Y-106350000D02*
G75*
G02*
X120375000Y-106350000I425000J0D01*
G01*
%TO.N,DIN4-V-{slash}DWR*%
X95934000Y-103810000D02*
G75*
G02*
X95084000Y-103810000I-425000J0D01*
G01*
X95084000Y-103810000D02*
G75*
G02*
X95934000Y-103810000I425000J0D01*
G01*
%TO.N,DIN37-{slash}INT*%
D10*
X100874000Y-93500000D02*
G75*
G02*
X100574000Y-93500000I-150000J0D01*
G01*
X100574000Y-93500000D02*
G75*
G02*
X100874000Y-93500000I150000J0D01*
G01*
D12*
%TA.AperFunction,Conductor*%
%TO.N,DIN19-A10*%
G36*
X84582000Y-136001000D02*
G01*
X76962000Y-136001000D01*
X76962000Y-134001000D01*
X84582000Y-134001000D01*
X84582000Y-136001000D01*
G37*
%TD.AperFunction*%
%TA.AperFunction,Conductor*%
%TO.N,DIN37-{slash}INT*%
G36*
X136460000Y-100441000D02*
G01*
X128840000Y-100441000D01*
X128840000Y-98441000D01*
X136460000Y-98441000D01*
X136460000Y-100441000D01*
G37*
%TD.AperFunction*%
%TO.N,DIN18-A9*%
D11*
X93394000Y-111430000D02*
G75*
G02*
X92544000Y-111430000I-425000J0D01*
G01*
X92544000Y-111430000D02*
G75*
G02*
X93394000Y-111430000I425000J0D01*
G01*
D12*
%TA.AperFunction,Conductor*%
%TO.N,POWER_-5V*%
G36*
X84582000Y-118221000D02*
G01*
X76962000Y-118221000D01*
X76962000Y-116221000D01*
X84582000Y-116221000D01*
X84582000Y-118221000D01*
G37*
%TD.AperFunction*%
%TO.N,DIN16-A7*%
D11*
X93394000Y-116510000D02*
G75*
G02*
X92544000Y-116510000I-425000J0D01*
G01*
X92544000Y-116510000D02*
G75*
G02*
X93394000Y-116510000I425000J0D01*
G01*
%TO.N,DIN11-A2*%
X95934000Y-121590000D02*
G75*
G02*
X95084000Y-121590000I-425000J0D01*
G01*
X95084000Y-121590000D02*
G75*
G02*
X95934000Y-121590000I425000J0D01*
G01*
D12*
%TA.AperFunction,Conductor*%
%TO.N,DIN32-{slash}IORQ*%
G36*
X136460000Y-110601000D02*
G01*
X128840000Y-110601000D01*
X128840000Y-108601000D01*
X136460000Y-108601000D01*
X136460000Y-110601000D01*
G37*
%TD.AperFunction*%
%TO.N,DIN33-{slash}MREQ*%
D11*
X120375000Y-116510000D02*
G75*
G02*
X119525000Y-116510000I-425000J0D01*
G01*
X119525000Y-116510000D02*
G75*
G02*
X120375000Y-116510000I425000J0D01*
G01*
%TO.N,DIN47-{slash}WR*%
X117835000Y-98730000D02*
G75*
G02*
X116985000Y-98730000I-425000J0D01*
G01*
X116985000Y-98730000D02*
G75*
G02*
X117835000Y-98730000I425000J0D01*
G01*
%TO.N,DIN14-A5*%
D10*
X103650000Y-120770000D02*
G75*
G02*
X103350000Y-120770000I-150000J0D01*
G01*
X103350000Y-120770000D02*
G75*
G02*
X103650000Y-120770000I150000J0D01*
G01*
%TO.N,DIN2-VIDEO-OE2*%
X103274000Y-96973000D02*
G75*
G02*
X102974000Y-96973000I-150000J0D01*
G01*
X102974000Y-96973000D02*
G75*
G02*
X103274000Y-96973000I150000J0D01*
G01*
%TO.N,DIN32-{slash}IORQ*%
D11*
X120375000Y-113970000D02*
G75*
G02*
X119525000Y-113970000I-425000J0D01*
G01*
X119525000Y-113970000D02*
G75*
G02*
X120375000Y-113970000I425000J0D01*
G01*
D12*
%TA.AperFunction,Conductor*%
%TO.N,DIN17-A8*%
G36*
X84582000Y-133461000D02*
G01*
X76962000Y-133461000D01*
X76962000Y-131461000D01*
X84582000Y-131461000D01*
X84582000Y-133461000D01*
G37*
%TD.AperFunction*%
%TO.N,DIN30-{slash}WAIT*%
D11*
X120375000Y-108890000D02*
G75*
G02*
X119525000Y-108890000I-425000J0D01*
G01*
X119525000Y-108890000D02*
G75*
G02*
X120375000Y-108890000I425000J0D01*
G01*
%TO.N,unconnected-(J2-Pad30)*%
X120375000Y-131750000D02*
G75*
G02*
X119525000Y-131750000I-425000J0D01*
G01*
X119525000Y-131750000D02*
G75*
G02*
X120375000Y-131750000I425000J0D01*
G01*
%TO.N,DIN13-A4*%
X93394000Y-124130000D02*
G75*
G02*
X92544000Y-124130000I-425000J0D01*
G01*
X92544000Y-124130000D02*
G75*
G02*
X93394000Y-124130000I425000J0D01*
G01*
D12*
%TA.AperFunction,Conductor*%
%TO.N,POWER_-5V*%
G36*
X136460000Y-118221000D02*
G01*
X128840000Y-118221000D01*
X128840000Y-116221000D01*
X136460000Y-116221000D01*
X136460000Y-118221000D01*
G37*
%TD.AperFunction*%
%TO.N,DIN44-D6*%
D11*
X117835000Y-106350000D02*
G75*
G02*
X116985000Y-106350000I-425000J0D01*
G01*
X116985000Y-106350000D02*
G75*
G02*
X117835000Y-106350000I425000J0D01*
G01*
%TO.N,DIN22-A13*%
D10*
X91960000Y-71100000D02*
G75*
G02*
X91660000Y-71100000I-150000J0D01*
G01*
X91660000Y-71100000D02*
G75*
G02*
X91960000Y-71100000I150000J0D01*
G01*
%TO.N,DIN21-A12*%
X88560000Y-85170000D02*
G75*
G02*
X88260000Y-85170000I-150000J0D01*
G01*
X88260000Y-85170000D02*
G75*
G02*
X88560000Y-85170000I150000J0D01*
G01*
%TO.N,GND*%
D11*
X117835000Y-134290000D02*
G75*
G02*
X116985000Y-134290000I-425000J0D01*
G01*
X116985000Y-134290000D02*
G75*
G02*
X117835000Y-134290000I425000J0D01*
G01*
%TO.N,DIN36-{slash}IORQGE*%
D10*
X88891000Y-98612420D02*
G75*
G02*
X88591000Y-98612420I-150000J0D01*
G01*
X88591000Y-98612420D02*
G75*
G02*
X88891000Y-98612420I150000J0D01*
G01*
%TO.N,GND*%
D11*
X93394000Y-134290000D02*
G75*
G02*
X92544000Y-134290000I-425000J0D01*
G01*
X92544000Y-134290000D02*
G75*
G02*
X93394000Y-134290000I425000J0D01*
G01*
%TD*%
D17*
%TO.P,SK1,A1,A15*%
%TO.N,DIN24-A15*%
X80772000Y-68961000D03*
%TO.P,SK1,A2,A13*%
%TO.N,DIN22-A13*%
X80772000Y-71501000D03*
%TO.P,SK1,A3,D7*%
%TO.N,DIN45-D7*%
X80772000Y-74041000D03*
%TO.P,SK1,A4,NCA4*%
%TO.N,DIN1-NCA4-OE1*%
X80772000Y-76581000D03*
%TO.P,SK1,A6,D0*%
%TO.N,DIN38-D0*%
X80772000Y-81661000D03*
%TO.P,SK1,A7,D1*%
%TO.N,DIN39-D1*%
X80772000Y-84201000D03*
%TO.P,SK1,A8,D2*%
%TO.N,DIN40-D2*%
X80772000Y-86741000D03*
%TO.P,SK1,A9,D6*%
%TO.N,DIN44-D6*%
X80772000Y-89281000D03*
%TO.P,SK1,A10,D5*%
%TO.N,DIN43-D5*%
X80772000Y-91821000D03*
%TO.P,SK1,A11,D3*%
%TO.N,DIN41-D3*%
X80772000Y-94361000D03*
%TO.P,SK1,A12,D4*%
%TO.N,DIN42-D4*%
X80772000Y-96901000D03*
%TO.P,SK1,A13,~{INT}*%
%TO.N,DIN37-{slash}INT*%
X80772000Y-99441000D03*
%TO.P,SK1,A14,~{NMI}*%
%TO.N,DIN35-{slash}NMI*%
X80772000Y-101981000D03*
%TO.P,SK1,A15,~{HALT}*%
%TO.N,DIN34-{slash}HALT*%
X80772000Y-104521000D03*
%TO.P,SK1,A16,~{MREQ}*%
%TO.N,DIN33-{slash}MREQ*%
X80772000Y-107061000D03*
%TO.P,SK1,A17,~{IORQ}*%
%TO.N,DIN32-{slash}IORQ*%
X80772000Y-109601000D03*
%TO.P,SK1,A18,~{RD}*%
%TO.N,DIN46-{slash}RD*%
X80772000Y-112141000D03*
%TO.P,SK1,A19,~{WR}*%
%TO.N,DIN47-{slash}WR*%
X80772000Y-114681000D03*
%TO.P,SK1,A20,-5V*%
%TO.N,POWER_-5V*%
X80772000Y-117221000D03*
%TO.P,SK1,A21,~{WAIT}*%
%TO.N,DIN30-{slash}WAIT*%
X80772000Y-119761000D03*
%TO.P,SK1,A22,+12V*%
%TO.N,POWER_+12V*%
X80772000Y-122301000D03*
%TO.P,SK1,A23,+12VAC*%
%TO.N,POWER_12VAC*%
X80772000Y-124841000D03*
%TO.P,SK1,A24,~{M1}*%
%TO.N,DIN48-{slash}M1*%
X80772000Y-127381000D03*
%TO.P,SK1,A25,~{RFSH}*%
%TO.N,DIN29-{slash}RFRSH*%
X80772000Y-129921000D03*
%TO.P,SK1,A26,A8*%
%TO.N,DIN17-A8*%
X80772000Y-132461000D03*
%TO.P,SK1,A27,A10*%
%TO.N,DIN19-A10*%
X80772000Y-135001000D03*
%TO.P,SK1,A28,NCA28*%
%TO.N,NCA28*%
X80772000Y-137541000D03*
%TD*%
D18*
%TO.P,J3,01,01*%
%TO.N,DIN6-Spare1*%
X118649750Y-66068575D03*
D19*
%TO.P,J3,02,02*%
%TO.N,DIN7-Spare2*%
X121189750Y-66068575D03*
%TO.P,J3,03,03*%
%TO.N,DIN26-Spare3*%
X123729750Y-66068575D03*
%TD*%
D20*
%TO.P,S1,1,1*%
%TO.N,DIN8-{slash}RESET*%
X100939965Y-66196650D03*
%TO.P,S1,2,2*%
X107439965Y-66196650D03*
%TO.P,S1,3,3*%
%TO.N,GND*%
X100939965Y-70696650D03*
%TO.P,S1,4,4*%
X107439965Y-70696650D03*
%TD*%
D21*
%TO.P,D1,1,K*%
%TO.N,POWER5V*%
X91059000Y-89281000D03*
D22*
%TO.P,D1,2,A*%
%TO.N,POWER5_VIN*%
X91059000Y-74041000D03*
%TD*%
D17*
%TO.P,SK2,A1,A15*%
%TO.N,DIN24-A15*%
X132650000Y-68961000D03*
%TO.P,SK2,A2,A13*%
%TO.N,DIN22-A13*%
X132650000Y-71501000D03*
%TO.P,SK2,A3,D7*%
%TO.N,DIN45-D7*%
X132650000Y-74041000D03*
%TO.P,SK2,A4,NCA4*%
%TO.N,DIN1-NCA4-OE1*%
X132650000Y-76581000D03*
%TO.P,SK2,A6,D0*%
%TO.N,DIN38-D0*%
X132650000Y-81661000D03*
%TO.P,SK2,A7,D1*%
%TO.N,DIN39-D1*%
X132650000Y-84201000D03*
%TO.P,SK2,A8,D2*%
%TO.N,DIN40-D2*%
X132650000Y-86741000D03*
%TO.P,SK2,A9,D6*%
%TO.N,DIN44-D6*%
X132650000Y-89281000D03*
%TO.P,SK2,A10,D5*%
%TO.N,DIN43-D5*%
X132650000Y-91821000D03*
%TO.P,SK2,A11,D3*%
%TO.N,DIN41-D3*%
X132650000Y-94361000D03*
%TO.P,SK2,A12,D4*%
%TO.N,DIN42-D4*%
X132650000Y-96901000D03*
%TO.P,SK2,A13,~{INT}*%
%TO.N,DIN37-{slash}INT*%
X132650000Y-99441000D03*
%TO.P,SK2,A14,~{NMI}*%
%TO.N,DIN35-{slash}NMI*%
X132650000Y-101981000D03*
%TO.P,SK2,A15,~{HALT}*%
%TO.N,DIN34-{slash}HALT*%
X132650000Y-104521000D03*
%TO.P,SK2,A16,~{MREQ}*%
%TO.N,DIN33-{slash}MREQ*%
X132650000Y-107061000D03*
%TO.P,SK2,A17,~{IORQ}*%
%TO.N,DIN32-{slash}IORQ*%
X132650000Y-109601000D03*
%TO.P,SK2,A18,~{RD}*%
%TO.N,DIN46-{slash}RD*%
X132650000Y-112141000D03*
%TO.P,SK2,A19,~{WR}*%
%TO.N,DIN47-{slash}WR*%
X132650000Y-114681000D03*
%TO.P,SK2,A20,-5V*%
%TO.N,POWER_-5V*%
X132650000Y-117221000D03*
%TO.P,SK2,A21,~{WAIT}*%
%TO.N,DIN30-{slash}WAIT*%
X132650000Y-119761000D03*
%TO.P,SK2,A22,+12V*%
%TO.N,POWER_+12V*%
X132650000Y-122301000D03*
%TO.P,SK2,A23,+12VAC*%
%TO.N,POWER_12VAC*%
X132650000Y-124841000D03*
%TO.P,SK2,A24,~{M1}*%
%TO.N,DIN48-{slash}M1*%
X132650000Y-127381000D03*
%TO.P,SK2,A25,~{RFSH}*%
%TO.N,DIN29-{slash}RFRSH*%
X132650000Y-129921000D03*
%TO.P,SK2,A26,A8*%
%TO.N,DIN17-A8*%
X132650000Y-132461000D03*
%TO.P,SK2,A27,A10*%
%TO.N,DIN19-A10*%
X132650000Y-135001000D03*
%TO.P,SK2,A28,NCA28*%
%TO.N,NCA28*%
X132650000Y-137541000D03*
%TD*%
D23*
%TO.P,J1,01,01*%
%TO.N,DIN24-A15*%
X92969000Y-96190000D03*
D24*
%TO.P,J1,02,02*%
%TO.N,DIN1-NCA4-OE1*%
X95509000Y-96190000D03*
%TO.P,J1,03,03*%
%TO.N,DIN23-A14*%
X92969000Y-98730000D03*
%TO.P,J1,04,04*%
%TO.N,DIN2-VIDEO-OE2*%
X95509000Y-98730000D03*
%TO.P,J1,05,05*%
%TO.N,DIN22-A13*%
X92969000Y-101270000D03*
%TO.P,J1,06,06*%
%TO.N,DIN3-Y-{slash}DRD*%
X95509000Y-101270000D03*
%TO.P,J1,07,07*%
%TO.N,DIN21-A12*%
X92969000Y-103810000D03*
%TO.P,J1,08,08*%
%TO.N,DIN4-V-{slash}DWR*%
X95509000Y-103810000D03*
%TO.P,J1,09,09*%
%TO.N,DIN20-A11*%
X92969000Y-106350000D03*
%TO.P,J1,10,10*%
%TO.N,DIN5-U-{slash}MTR*%
X95509000Y-106350000D03*
%TO.P,J1,11,11*%
%TO.N,DIN19-A10*%
X92969000Y-108890000D03*
%TO.P,J1,12,12*%
%TO.N,DIN6-Spare1*%
X95509000Y-108890000D03*
%TO.P,J1,13,13*%
%TO.N,DIN18-A9*%
X92969000Y-111430000D03*
%TO.P,J1,14,14*%
%TO.N,DIN7-Spare2*%
X95509000Y-111430000D03*
%TO.P,J1,15,15*%
%TO.N,DIN17-A8*%
X92969000Y-113970000D03*
%TO.P,J1,16,16*%
%TO.N,DIN8-{slash}RESET*%
X95509000Y-113970000D03*
%TO.P,J1,17,17*%
%TO.N,DIN16-A7*%
X92969000Y-116510000D03*
%TO.P,J1,18,18*%
%TO.N,DIN9-A0*%
X95509000Y-116510000D03*
%TO.P,J1,19,19*%
%TO.N,DIN15-A6*%
X92969000Y-119050000D03*
%TO.P,J1,20,20*%
%TO.N,DIN10-A1*%
X95509000Y-119050000D03*
%TO.P,J1,21,21*%
%TO.N,DIN14-A5*%
X92969000Y-121590000D03*
%TO.P,J1,22,22*%
%TO.N,DIN11-A2*%
X95509000Y-121590000D03*
%TO.P,J1,23,23*%
%TO.N,DIN13-A4*%
X92969000Y-124130000D03*
%TO.P,J1,24,24*%
%TO.N,DIN12-A3*%
X95509000Y-124130000D03*
%TO.P,J1,25,25*%
%TO.N,unconnected-(J1-Pad25)*%
X92969000Y-126670000D03*
%TO.P,J1,26,26*%
%TO.N,unconnected-(J1-Pad26)*%
X95509000Y-126670000D03*
%TO.P,J1,27,27*%
%TO.N,POWER5V*%
X92969000Y-129210000D03*
%TO.P,J1,28,28*%
X95509000Y-129210000D03*
%TO.P,J1,29,29*%
%TO.N,unconnected-(J1-Pad29)*%
X92969000Y-131750000D03*
%TO.P,J1,30,30*%
%TO.N,unconnected-(J1-Pad30)*%
X95509000Y-131750000D03*
%TO.P,J1,31,31*%
%TO.N,GND*%
X92969000Y-134290000D03*
%TO.P,J1,32,32*%
X95509000Y-134290000D03*
%TD*%
D23*
%TO.P,J2,01,01*%
%TO.N,DIN48-{slash}M1*%
X117410000Y-96189800D03*
D24*
%TO.P,J2,02,02*%
%TO.N,DIN25-CLOCK*%
X119950000Y-96189800D03*
%TO.P,J2,03,03*%
%TO.N,DIN47-{slash}WR*%
X117410000Y-98729800D03*
%TO.P,J2,04,04*%
%TO.N,DIN26-Spare3*%
X119950000Y-98729800D03*
%TO.P,J2,05,05*%
%TO.N,DIN46-{slash}RD*%
X117410000Y-101269800D03*
%TO.P,J2,06,06*%
%TO.N,DIN27-{slash}BUSACK*%
X119950000Y-101269800D03*
%TO.P,J2,07,07*%
%TO.N,DIN45-D7*%
X117410000Y-103809800D03*
%TO.P,J2,08,08*%
%TO.N,DIN28-{slash}ROMCS*%
X119950000Y-103809800D03*
%TO.P,J2,09,09*%
%TO.N,DIN44-D6*%
X117410000Y-106349800D03*
%TO.P,J2,10,10*%
%TO.N,DIN29-{slash}RFRSH*%
X119950000Y-106349800D03*
%TO.P,J2,11,11*%
%TO.N,DIN43-D5*%
X117410000Y-108889800D03*
%TO.P,J2,12,12*%
%TO.N,DIN30-{slash}WAIT*%
X119950000Y-108889800D03*
%TO.P,J2,13,13*%
%TO.N,DIN42-D4*%
X117410000Y-111429800D03*
%TO.P,J2,14,14*%
%TO.N,DIN31-{slash}BUSRQ*%
X119950000Y-111429800D03*
%TO.P,J2,15,15*%
%TO.N,DIN41-D3*%
X117410000Y-113969800D03*
%TO.P,J2,16,16*%
%TO.N,DIN32-{slash}IORQ*%
X119950000Y-113969800D03*
%TO.P,J2,17,17*%
%TO.N,DIN40-D2*%
X117410000Y-116509800D03*
%TO.P,J2,18,18*%
%TO.N,DIN33-{slash}MREQ*%
X119950000Y-116509800D03*
%TO.P,J2,19,19*%
%TO.N,DIN39-D1*%
X117410000Y-119049800D03*
%TO.P,J2,20,20*%
%TO.N,DIN34-{slash}HALT*%
X119950000Y-119049800D03*
%TO.P,J2,21,21*%
%TO.N,DIN38-D0*%
X117410000Y-121589800D03*
%TO.P,J2,22,22*%
%TO.N,DIN35-{slash}NMI*%
X119950000Y-121589800D03*
%TO.P,J2,23,23*%
%TO.N,DIN37-{slash}INT*%
X117410000Y-124129800D03*
%TO.P,J2,24,24*%
%TO.N,DIN36-{slash}IORQGE*%
X119950000Y-124129800D03*
%TO.P,J2,25,25*%
%TO.N,unconnected-(J2-Pad25)*%
X117410000Y-126669800D03*
%TO.P,J2,26,26*%
%TO.N,unconnected-(J2-Pad26)*%
X119950000Y-126669800D03*
%TO.P,J2,27,27*%
%TO.N,POWER5V*%
X117410000Y-129209800D03*
%TO.P,J2,28,28*%
X119950000Y-129209800D03*
%TO.P,J2,29,29*%
%TO.N,unconnected-(J2-Pad29)*%
X117410000Y-131749800D03*
%TO.P,J2,30,30*%
%TO.N,unconnected-(J2-Pad30)*%
X119950000Y-131749800D03*
%TO.P,J2,31,31*%
%TO.N,GND*%
X117410000Y-134289800D03*
%TO.P,J2,32,32*%
X119950000Y-134289800D03*
%TD*%
D25*
%TO.N,POWER5_VIN*%
X112781080Y-74030840D03*
%TO.N,DIN8-{slash}RESET*%
X98460560Y-82290920D03*
%TO.N,DIN13-A4*%
X98259900Y-126921260D03*
%TO.N,DIN15-A6*%
X104432100Y-120192800D03*
%TO.N,DIN18-A9*%
X90728800Y-137081260D03*
%TO.N,DIN2-VIDEO-OE2*%
X103124000Y-96972120D03*
X97701100Y-100081080D03*
%TO.N,DIN11-A2*%
X87800180Y-121399300D03*
D26*
X86614000Y-94361000D03*
D25*
%TO.N,DIN22-A13*%
X93129100Y-70231000D03*
X91810840Y-71099680D03*
%TO.N,DIN9-A0*%
X96012000Y-86939120D03*
%TO.N,DIN4-V-{slash}DWR*%
X122637320Y-107530900D03*
X96598740Y-105399840D03*
%TO.N,DIN3-Y-{slash}DRD*%
X122769400Y-97574100D03*
D26*
%TO.N,DIN6-Spare1*%
X106514900Y-99123500D03*
X110782100Y-71399400D03*
X100409375Y-107950000D03*
X106619675Y-95843725D03*
D25*
%TO.N,DIN20-A11*%
X87370920Y-135600440D03*
%TO.N,GND*%
X127369340Y-100299520D03*
X80779620Y-79489300D03*
X86039960Y-101808280D03*
X115648740Y-82958940D03*
%TO.N,DIN1-NCA4-OE1*%
X89827100Y-80896460D03*
X110599220Y-82199480D03*
%TO.N,DIN17-A8*%
X88684100Y-114884200D03*
X88386920Y-130764280D03*
X92956380Y-138236960D03*
D26*
X85217000Y-133731000D03*
%TO.N,DIN7-Spare2*%
X107715050Y-106346625D03*
X107734100Y-99126675D03*
X112026700Y-71418450D03*
X107664250Y-95881825D03*
X107734100Y-111413925D03*
D25*
%TO.N,DIN14-A5*%
X103499920Y-120769380D03*
%TO.N,DIN5-U-{slash}MTR*%
X103126540Y-106342180D03*
%TO.N,DIN12-A3*%
X87398860Y-124800360D03*
D26*
X85217000Y-96901000D03*
D25*
%TO.N,DIN23-A14*%
X91376500Y-85839300D03*
%TO.N,DIN16-A7*%
X103741220Y-117652800D03*
%TO.N,DIN21-A12*%
X115580160Y-71539100D03*
X94419420Y-71899780D03*
X88409780Y-85168740D03*
D26*
%TO.N,DIN10-A1*%
X86614000Y-91821000D03*
D25*
X88252300Y-115717320D03*
%TO.N,DIN40-D2*%
X95615760Y-94637860D03*
D26*
X90932000Y-83439000D03*
D25*
X101622225Y-108365925D03*
D26*
X115443000Y-86614000D03*
D25*
%TO.N,DIN37-{slash}INT*%
X127199160Y-97670620D03*
D26*
X85217000Y-98298000D03*
D25*
X103210360Y-115902740D03*
X100723700Y-93499940D03*
%TO.N,DIN38-D0*%
X86128860Y-81429860D03*
X114691160Y-81589880D03*
%TO.N,DIN35-{slash}NMI*%
X100523040Y-94950280D03*
X102758240Y-109689900D03*
X86174580Y-99001580D03*
X125939320Y-98069400D03*
%TO.N,DIN28-{slash}ROMCS*%
X127021360Y-129286000D03*
%TO.N,DIN47-{slash}WR*%
X85895180Y-110914180D03*
D26*
X91440000Y-108585000D03*
D25*
%TO.N,DIN29-{slash}RFRSH*%
X89458800Y-131559300D03*
X124199420Y-127464820D03*
%TO.N,DIN32-{slash}IORQ*%
X122832900Y-108325920D03*
X128199920Y-109601000D03*
X87630000Y-126692660D03*
%TO.N,DIN43-D5*%
X101404420Y-91404440D03*
X95859600Y-91203780D03*
X127740180Y-93080840D03*
%TO.N,DIN33-{slash}MREQ*%
X128067840Y-107741720D03*
X123902240Y-107279440D03*
X86995000Y-120401080D03*
X97289620Y-121389140D03*
%TO.N,DIN39-D1*%
X100000000Y-84000000D03*
X97729040Y-96004380D03*
X99049840Y-106959400D03*
X90246200Y-82727800D03*
D26*
X114150775Y-83718400D03*
D25*
%TO.N,DIN41-D3*%
X100911660Y-92034360D03*
X103929180Y-110218220D03*
X125680240Y-94378780D03*
X95270320Y-91810840D03*
%TO.N,DIN36-{slash}IORQGE*%
X88739980Y-98612960D03*
X103957120Y-93733620D03*
X98016060Y-94805500D03*
%TO.N,DIN34-{slash}HALT*%
X128339620Y-106799380D03*
X100324920Y-96410780D03*
D26*
X86741000Y-99568000D03*
D25*
%TO.N,DIN48-{slash}M1*%
X123688880Y-103576120D03*
X127580160Y-127464820D03*
X85310980Y-128897380D03*
X103124000Y-98173540D03*
%TO.N,DIN45-D7*%
X97759520Y-89936320D03*
X91104720Y-79634080D03*
X109829600Y-79740760D03*
%TO.N,DIN30-{slash}WAIT*%
X125385600Y-111173260D03*
X85430360Y-115940840D03*
%TO.N,DIN27-{slash}BUSACK*%
X127704620Y-133484620D03*
%TO.N,DIN42-D4*%
X94594680Y-92237560D03*
X100512880Y-92727780D03*
X127971320Y-96901000D03*
%TO.N,DIN46-{slash}RD*%
X103124000Y-100721160D03*
D26*
X91440000Y-105664000D03*
X85217000Y-109855000D03*
D25*
X127166140Y-105531920D03*
D26*
%TO.N,DIN26-Spare3*%
X108892975Y-95885000D03*
X113379250Y-71504175D03*
D25*
%TO.N,DIN25-CLOCK*%
X120000000Y-89000000D03*
D26*
%TO.N,DIN44-D6*%
X126427000Y-104775000D03*
D25*
X96009460Y-90388440D03*
%TO.N,POWER_+12V*%
X128057680Y-122306080D03*
X85580220Y-123139200D03*
%TO.N,DIN31-{slash}BUSRQ*%
X98930460Y-109090460D03*
X91340940Y-110190280D03*
%TO.N,POWER_-5V*%
X85161120Y-118450360D03*
X127580160Y-116271040D03*
%TO.N,POWER_12VAC*%
X85399880Y-126890780D03*
X127930680Y-125539500D03*
%TO.N,POWER_+9V*%
X114150140Y-77089000D03*
X86438740Y-77729080D03*
%TD*%
D27*
%TO.N,DIN8-{slash}RESET*%
X100910000Y-66210000D02*
X107410000Y-66210000D01*
%TO.N,DIN13-A4*%
X96853000Y-125513000D02*
X94359000Y-125513000D01*
X94359000Y-125513000D02*
X92969000Y-124123000D01*
X98260000Y-126920000D02*
X96853000Y-125513000D01*
%TO.N,DIN15-A6*%
X104020000Y-119780000D02*
X97872350Y-119780000D01*
X94119000Y-117893000D02*
X92969000Y-119043000D01*
X95985350Y-117893000D02*
X94119000Y-117893000D01*
X104433000Y-120193000D02*
X104020000Y-119780000D01*
X97872350Y-119780000D02*
X95985350Y-117893000D01*
%TO.N,DIN18-A9*%
X91600000Y-136210000D02*
X91600000Y-112792000D01*
X90730000Y-137080000D02*
X91600000Y-136210000D01*
X91600000Y-112792000D02*
X92969000Y-111423000D01*
%TO.N,DIN2-VIDEO-OE2*%
X97700000Y-100080000D02*
X97890000Y-100080000D01*
X97890000Y-100080000D02*
X100997000Y-96973000D01*
X100997000Y-96973000D02*
X103124000Y-96973000D01*
%TO.N,DIN24-A15*%
X80772000Y-68961000D02*
X81321000Y-69510000D01*
X94670000Y-73010000D02*
X94670000Y-81589000D01*
X80772000Y-68961000D02*
X83820000Y-68961000D01*
X94670000Y-81589000D02*
X98810000Y-85729000D01*
X82451000Y-68380000D02*
X132069000Y-68380000D01*
X91819000Y-101852000D02*
X91819000Y-97333000D01*
X91819000Y-97333000D02*
X92969000Y-96183000D01*
X94359000Y-100786650D02*
X94359000Y-101602000D01*
X132069000Y-68380000D02*
X132650000Y-68961000D01*
X91130000Y-69470000D02*
X94670000Y-73010000D01*
X93541000Y-102420000D02*
X92387000Y-102420000D01*
X95032650Y-100113000D02*
X94359000Y-100786650D01*
X95848000Y-100113000D02*
X95032650Y-100113000D01*
X92387000Y-102420000D02*
X91819000Y-101852000D01*
X97059000Y-95540970D02*
X97059000Y-98902000D01*
X97883630Y-93805000D02*
X97600790Y-93805000D01*
X98810000Y-92878630D02*
X97883630Y-93805000D01*
X83820000Y-68961000D02*
X84329000Y-69470000D01*
X97059000Y-98902000D02*
X95848000Y-100113000D01*
X97015000Y-95496970D02*
X97059000Y-95540970D01*
X97366470Y-94039320D02*
X97015000Y-94390790D01*
X97015000Y-94390790D02*
X97015000Y-95496970D01*
X81321000Y-69510000D02*
X82451000Y-68380000D01*
X94359000Y-101602000D02*
X93541000Y-102420000D01*
X97600790Y-93805000D02*
X97366470Y-94039320D01*
X98810000Y-85729000D02*
X98810000Y-92878630D01*
X84329000Y-69470000D02*
X91130000Y-69470000D01*
%TO.N,DIN11-A2*%
X87695270Y-111659850D02*
X87695270Y-108661890D01*
X87452000Y-111903120D02*
X87695270Y-111659850D01*
X86614000Y-107580630D02*
X86614000Y-103510310D01*
X87995000Y-116310410D02*
X87452000Y-115767410D01*
X87695270Y-108661890D02*
X86614000Y-107580630D01*
X87741000Y-102383310D02*
X87741000Y-95488000D01*
X87741000Y-95488000D02*
X86614000Y-94361000D01*
X87995000Y-121205000D02*
X87995000Y-116310410D01*
X87452000Y-115767410D02*
X87452000Y-111903120D01*
X87800000Y-121400000D02*
X87995000Y-121205000D01*
X86614000Y-103510310D02*
X87741000Y-102383310D01*
%TO.N,DIN22-A13*%
X117141000Y-71501000D02*
X132650000Y-71501000D01*
X114660000Y-69020000D02*
X117141000Y-71501000D01*
X98410000Y-85894690D02*
X98410000Y-92430110D01*
X94359000Y-99873000D02*
X92969000Y-101263000D01*
X94341000Y-69020000D02*
X114660000Y-69020000D01*
X96659000Y-97143000D02*
X96229000Y-97573000D01*
X94270000Y-73560000D02*
X94270000Y-81754690D01*
X94359000Y-98246650D02*
X94359000Y-99873000D01*
X91070000Y-70360000D02*
X85520000Y-70360000D01*
X85520000Y-70360000D02*
X84379000Y-71501000D01*
X96229000Y-97573000D02*
X95032650Y-97573000D01*
X96615000Y-94225100D02*
X96615000Y-95662660D01*
X96659000Y-95706650D02*
X96659000Y-97143000D01*
X91810000Y-71100000D02*
X94270000Y-73560000D01*
X91810000Y-71100000D02*
X91070000Y-70360000D01*
X93130000Y-70231000D02*
X94341000Y-69020000D01*
X84379000Y-71501000D02*
X80772000Y-71501000D01*
X96615000Y-95662660D02*
X96659000Y-95706650D01*
X98410000Y-92430110D02*
X96615000Y-94225100D01*
X94270000Y-81754690D02*
X98410000Y-85894690D01*
X95032650Y-97573000D02*
X94359000Y-98246650D01*
%TO.N,DIN4-V-{slash}DWR*%
X118800000Y-108413650D02*
X118800000Y-109366350D01*
X121435350Y-110040000D02*
X122233940Y-109241410D01*
X114321750Y-105400000D02*
X116661750Y-107740000D01*
X118126350Y-107740000D02*
X118800000Y-108413650D01*
X102970000Y-105400000D02*
X96600000Y-105400000D01*
X116661750Y-107740000D02*
X118126350Y-107740000D01*
X119473650Y-110040000D02*
X121435350Y-110040000D01*
X122233940Y-109241410D02*
X122233940Y-107932820D01*
X118800000Y-109366350D02*
X119473650Y-110040000D01*
X122233940Y-107932820D02*
X122636760Y-107530000D01*
X102970000Y-105400000D02*
X114321750Y-105400000D01*
%TO.N,DIN3-Y-{slash}DRD*%
X98000000Y-100692000D02*
X96080000Y-100692000D01*
X99512000Y-99180000D02*
X98000000Y-100692000D01*
X96080000Y-100692000D02*
X95509000Y-101263000D01*
X104572530Y-97573000D02*
X102965530Y-99180000D01*
X122770000Y-97573000D02*
X104572530Y-97573000D01*
X102965530Y-99180000D02*
X99512000Y-99180000D01*
%TO.N,DIN6-Spare1*%
X106616500Y-75584050D02*
X106616500Y-75606275D01*
X110782100Y-71418450D02*
X106616500Y-75584050D01*
X106616500Y-86194900D02*
X106619675Y-86198075D01*
X110782100Y-71399400D02*
X110782100Y-71418450D01*
X106619675Y-86198075D02*
X106619675Y-95843725D01*
X106616500Y-75606276D02*
X106616500Y-86194900D01*
%TO.N,DIN20-A11*%
X88554000Y-135601000D02*
X90059000Y-134096000D01*
X90059000Y-134096000D02*
X90059000Y-122013790D01*
X89850000Y-116807290D02*
X90662000Y-115995290D01*
X90041000Y-108291890D02*
X90041000Y-107795400D01*
X90041000Y-107795400D02*
X91493400Y-106343000D01*
X89850000Y-111835790D02*
X89850000Y-108482890D01*
X90662000Y-115995290D02*
X90662000Y-112647790D01*
X90059000Y-122013790D02*
X89850000Y-121804790D01*
X89850000Y-108482890D02*
X90041000Y-108291890D01*
X89850000Y-121804790D02*
X89850000Y-116807290D01*
X87370000Y-135601000D02*
X88554000Y-135601000D01*
X91493400Y-106343000D02*
X92969000Y-106343000D01*
X90662000Y-112647790D02*
X89850000Y-111835790D01*
%TO.N,DIN1-NCA4-OE1*%
X110660000Y-82200000D02*
X116279000Y-76581000D01*
X97085690Y-90110000D02*
X97085690Y-89552210D01*
X97085690Y-89552210D02*
X95412000Y-87878530D01*
X95412000Y-87878530D02*
X95412000Y-86198690D01*
X116279000Y-76581000D02*
X132650000Y-76581000D01*
X81193000Y-76160000D02*
X80772000Y-76581000D01*
X89827340Y-80896870D02*
X89827340Y-79013020D01*
X90110180Y-80896870D02*
X89827340Y-80896870D01*
X86974310Y-76160000D02*
X81193000Y-76160000D01*
X110600000Y-82200000D02*
X110660000Y-82200000D01*
X95412000Y-86198690D02*
X90110180Y-80896870D01*
X96215000Y-94059420D02*
X97320000Y-92954420D01*
X97320000Y-90344320D02*
X97085690Y-90110000D01*
X97320000Y-92954420D02*
X97320000Y-90344320D01*
X96215000Y-95477000D02*
X96215000Y-94059420D01*
X89827340Y-79013020D02*
X86974310Y-76160000D01*
X95509000Y-96183000D02*
X96215000Y-95477000D01*
%TO.N,DIN17-A8*%
X92956880Y-138236780D02*
X95093660Y-136100000D01*
X86689000Y-132461000D02*
X80772000Y-132461000D01*
X123504880Y-135515120D02*
X126523650Y-135515120D01*
X126523650Y-135515120D02*
X129577760Y-132461000D01*
X85217000Y-133731000D02*
X83947000Y-132461000D01*
X122920000Y-136100000D02*
X123504880Y-135515120D01*
X83947000Y-132461000D02*
X80772000Y-132461000D01*
X88385740Y-130764270D02*
X86689000Y-132461000D01*
X95093660Y-136100000D02*
X122920000Y-136100000D01*
X129577760Y-132461000D02*
X132650000Y-132461000D01*
%TO.N,DIN7-Spare2*%
X107689650Y-76615925D02*
X107664250Y-76641325D01*
X107664250Y-76641325D02*
X107664250Y-95881825D01*
X107715050Y-111394875D02*
X107734100Y-111413925D01*
X107715050Y-106346625D02*
X107715050Y-111394875D01*
X107689650Y-75755500D02*
X107689650Y-76615925D01*
X112026700Y-71418450D02*
X107689650Y-75755500D01*
%TO.N,DIN14-A5*%
X103500000Y-120770000D02*
X103163000Y-120433000D01*
X94119000Y-120433000D02*
X92969000Y-121583000D01*
X103163000Y-120433000D02*
X94119000Y-120433000D01*
%TO.N,DIN5-U-{slash}MTR*%
X103127530Y-106343000D02*
X95509000Y-106343000D01*
%TO.N,DIN12-A3*%
X87341000Y-102217630D02*
X87341000Y-99025000D01*
X87200000Y-123337310D02*
X87200000Y-121043530D01*
X86200000Y-103358630D02*
X87341000Y-102217630D01*
X87400000Y-124800000D02*
X87400000Y-123537310D01*
X87295270Y-108827580D02*
X86200000Y-107732310D01*
X87595000Y-116476100D02*
X87052000Y-115933100D01*
X87595000Y-120648530D02*
X87595000Y-116476100D01*
X87400000Y-123537310D02*
X87200000Y-123337310D01*
X86200000Y-107732310D02*
X86200000Y-103358630D01*
X87052000Y-115933100D02*
X87052000Y-111737430D01*
X87200000Y-121043530D02*
X87595000Y-120648530D01*
X87341000Y-99025000D02*
X85217000Y-96901000D01*
X87052000Y-111737430D02*
X87295270Y-111494170D01*
X87295270Y-111494170D02*
X87295270Y-108827580D01*
%TO.N,DIN23-A14*%
X91375360Y-85839000D02*
X92973000Y-87436650D01*
X92973000Y-93879000D02*
X94119000Y-95025000D01*
X92973000Y-87436650D02*
X92973000Y-93879000D01*
X94119000Y-95025000D02*
X94119000Y-97573000D01*
X94119000Y-97573000D02*
X92969000Y-98723000D01*
%TO.N,DIN19-A10*%
X91990530Y-108883000D02*
X91688530Y-109185000D01*
X85921470Y-135001000D02*
X87360470Y-136440000D01*
X80772000Y-135001000D02*
X85921470Y-135001000D01*
X126104450Y-136500000D02*
X101930000Y-136500000D01*
X91688530Y-109185000D02*
X90515000Y-109185000D01*
X127603450Y-135001000D02*
X126104450Y-136500000D01*
X92969000Y-108883000D02*
X91990530Y-108883000D01*
X90250000Y-111670100D02*
X91062000Y-112482100D01*
X92426780Y-138836780D02*
X91270000Y-137680000D01*
X101930000Y-136500000D02*
X99593220Y-138836780D01*
X91200000Y-113559530D02*
X91200000Y-116022970D01*
X91200000Y-116022970D02*
X90250000Y-116972970D01*
X91062000Y-113421530D02*
X91200000Y-113559530D01*
X87360470Y-136440000D02*
X89241470Y-136440000D01*
X80772000Y-135001000D02*
X83947000Y-135001000D01*
X90250000Y-109450000D02*
X90250000Y-111670100D01*
X90250000Y-116972970D02*
X90250000Y-121639100D01*
X91270000Y-137680000D02*
X90481470Y-137680000D01*
X90459000Y-135331000D02*
X90350470Y-135331000D01*
X99593220Y-138836780D02*
X92426780Y-138836780D01*
X90350470Y-135331000D02*
X89241470Y-136440000D01*
X91062000Y-112482100D02*
X91062000Y-113421530D01*
X90459000Y-121848100D02*
X90459000Y-135331000D01*
X132650000Y-135001000D02*
X127603450Y-135001000D01*
X90481470Y-137680000D02*
X89241470Y-136440000D01*
X90515000Y-109185000D02*
X90250000Y-109450000D01*
X90250000Y-121639100D02*
X90459000Y-121848100D01*
%TO.N,DIN21-A12*%
X88392000Y-85188000D02*
X88392000Y-92017310D01*
X114642475Y-70602475D02*
X115580000Y-71540000D01*
X91403000Y-103803000D02*
X92969000Y-103803000D01*
X89741000Y-102141000D02*
X91403000Y-103803000D01*
X89741000Y-98741000D02*
X89741000Y-102141000D01*
X95570000Y-73050000D02*
X107216975Y-73050000D01*
X88392000Y-92017310D02*
X89200000Y-92825310D01*
X89200000Y-98200000D02*
X89741000Y-98741000D01*
X107216975Y-73050000D02*
X109664500Y-70602475D01*
X94420000Y-71900000D02*
X95570000Y-73050000D01*
X109664500Y-70602475D02*
X114642475Y-70602475D01*
X89200000Y-92825310D02*
X89200000Y-98200000D01*
X88410000Y-85170000D02*
X88392000Y-85188000D01*
%TO.N,DIN10-A1*%
X88095270Y-108496210D02*
X87014000Y-107414940D01*
X87852000Y-115318890D02*
X87852000Y-112068800D01*
X88141000Y-93348000D02*
X86614000Y-91821000D01*
X88095270Y-111825540D02*
X88095270Y-108496210D01*
X88251700Y-115718580D02*
X87852000Y-115318890D01*
X87852000Y-112068800D02*
X88095270Y-111825540D01*
X88141000Y-102549000D02*
X88141000Y-93348000D01*
X87014000Y-107414940D02*
X87014000Y-103676000D01*
X87014000Y-103676000D02*
X88141000Y-102549000D01*
%TO.N,DIN40-D2*%
X95615000Y-94109120D02*
X95815000Y-93909120D01*
X89645130Y-82977400D02*
X89645130Y-82914130D01*
X115570000Y-86741000D02*
X132650000Y-86741000D01*
X105235575Y-116510000D02*
X117410000Y-116510000D01*
X96685690Y-89717900D02*
X95012000Y-88044220D01*
X92086630Y-83439000D02*
X90932000Y-83439000D01*
X89192000Y-82461000D02*
X85941000Y-82461000D01*
X90170000Y-83439000D02*
X90059870Y-83328870D01*
X94230000Y-85865210D02*
X94230000Y-85582370D01*
X85941000Y-82461000D02*
X85282000Y-83120000D01*
X101622225Y-108365925D02*
X101622225Y-109807375D01*
X95815000Y-93893730D02*
X96920000Y-92788730D01*
X101622225Y-108365925D02*
X101622225Y-108391075D01*
X102200075Y-110385225D02*
X102200075Y-113474500D01*
X96685690Y-90275690D02*
X96685690Y-89717900D01*
X95815000Y-93909120D02*
X95815000Y-93893730D01*
X95615000Y-94638040D02*
X95615000Y-94109120D01*
X90059870Y-83328870D02*
X89996600Y-83328870D01*
X95012000Y-88044220D02*
X95012000Y-86647210D01*
X115443000Y-86614000D02*
X115570000Y-86741000D01*
X95012000Y-86647210D02*
X94230000Y-85865210D01*
X101622225Y-109807375D02*
X102200075Y-110385225D01*
X90932000Y-83439000D02*
X90170000Y-83439000D01*
X96920000Y-90510000D02*
X96685690Y-90275690D01*
X96920000Y-92788730D02*
X96920000Y-90510000D01*
X94230000Y-85582370D02*
X92086630Y-83439000D01*
X102200075Y-113474500D02*
X105235575Y-116510000D01*
X85282000Y-86295000D02*
X84836000Y-86741000D01*
X85282000Y-83120000D02*
X85282000Y-86295000D01*
X89645130Y-82914130D02*
X89192000Y-82461000D01*
X84836000Y-86741000D02*
X80772000Y-86741000D01*
X89996600Y-83328870D02*
X89645130Y-82977400D01*
%TO.N,DIN37-{slash}INT*%
X128971000Y-99441000D02*
X132650000Y-99441000D01*
X84074000Y-99441000D02*
X85217000Y-98298000D01*
X127200000Y-97670000D02*
X128971000Y-99441000D01*
X80772000Y-99441000D02*
X84074000Y-99441000D01*
X103320000Y-115903000D02*
X103210000Y-115903000D01*
%TO.N,DIN38-D0*%
X114690000Y-81590000D02*
X114761000Y-81661000D01*
X80772000Y-81661000D02*
X85899000Y-81661000D01*
X114761000Y-81661000D02*
X132650000Y-81661000D01*
X85899000Y-81661000D02*
X86130000Y-81430000D01*
%TO.N,DIN35-{slash}NMI*%
X118800000Y-116273650D02*
X118800000Y-120440000D01*
X85790000Y-100513440D02*
X85790000Y-99387630D01*
X118800000Y-120440000D02*
X119950000Y-121590000D01*
X125940000Y-98070000D02*
X125940000Y-100001370D01*
X80772000Y-101981000D02*
X84322440Y-101981000D01*
X117886350Y-115360000D02*
X118800000Y-116273650D01*
X85790000Y-99387630D02*
X86175300Y-99002330D01*
X102826500Y-113252850D02*
X104933650Y-115360000D01*
X104933650Y-115360000D02*
X117886350Y-115360000D01*
X102759000Y-109690000D02*
X102826500Y-109757500D01*
X125940000Y-100001370D02*
X127919630Y-101981000D01*
X127919630Y-101981000D02*
X132650000Y-101981000D01*
X84322440Y-101981000D02*
X85790000Y-100513440D01*
X102826500Y-109757500D02*
X102826500Y-113252850D01*
%TO.N,DIN28-{slash}ROMCS*%
X124306000Y-110837790D02*
X125462000Y-109681790D01*
X122909410Y-103803000D02*
X119957000Y-103803000D01*
X127021530Y-129286000D02*
X126935000Y-129286000D01*
X126935000Y-129286000D02*
X124306000Y-126657000D01*
X123989410Y-104883000D02*
X122909410Y-103803000D01*
X119957000Y-103803000D02*
X119950000Y-103810000D01*
X125462000Y-106355590D02*
X124630690Y-105524270D01*
X124306000Y-126657000D02*
X124306000Y-110837790D01*
X125462000Y-109681790D02*
X125462000Y-106355590D01*
X124630690Y-105524270D02*
X123989410Y-104883000D01*
%TO.N,DIN47-{slash}WR*%
X85852000Y-113030000D02*
X84201000Y-114681000D01*
X94119000Y-106974460D02*
X94119000Y-105866650D01*
X97825000Y-101692000D02*
X114446125Y-101692000D01*
X117676000Y-98996000D02*
X118580000Y-99900000D01*
X125427000Y-104027000D02*
X125427000Y-105189220D01*
X91507650Y-108585000D02*
X92492650Y-107600000D01*
X117276000Y-98246650D02*
X117276000Y-99180000D01*
X126981000Y-114681000D02*
X132650000Y-114681000D01*
X114446125Y-101692000D02*
X117408325Y-98729800D01*
X95941730Y-105158270D02*
X96659000Y-104441000D01*
X126262000Y-113962000D02*
X126981000Y-114681000D01*
X91440000Y-108585000D02*
X91507650Y-108585000D01*
X96659000Y-104441000D02*
X96659000Y-102858000D01*
X125427000Y-105189220D02*
X126262000Y-106024220D01*
X121300000Y-99900000D02*
X125427000Y-104027000D01*
X92492650Y-107600000D02*
X93493460Y-107600000D01*
X94119000Y-105866650D02*
X94827390Y-105158270D01*
X84201000Y-114681000D02*
X80772000Y-114681000D01*
X118580000Y-99900000D02*
X121300000Y-99900000D01*
X85852000Y-110957530D02*
X85852000Y-113030000D01*
X93493460Y-107600000D02*
X94119000Y-106974460D01*
X96659000Y-102858000D02*
X97825000Y-101692000D01*
X94827390Y-105158270D02*
X95941730Y-105158270D01*
X117676000Y-99345690D02*
X117676000Y-98996000D01*
X117408325Y-98729800D02*
X117410000Y-98729800D01*
X126262000Y-106024220D02*
X126262000Y-113962000D01*
X85895270Y-110914270D02*
X85852000Y-110957530D01*
%TO.N,DIN29-{slash}RFRSH*%
X126656270Y-129921000D02*
X132650000Y-129921000D01*
X124903000Y-106362270D02*
X123823730Y-105283000D01*
X123823730Y-105283000D02*
X122026000Y-105283000D01*
X89459000Y-130989000D02*
X89459000Y-131560000D01*
X124200000Y-127464740D02*
X126656270Y-129921000D01*
X124200000Y-127464740D02*
X123906000Y-127170740D01*
X123906000Y-110672100D02*
X124903000Y-109675100D01*
X88391000Y-129921000D02*
X89459000Y-130989000D01*
X119957000Y-106343000D02*
X119950000Y-106350000D01*
X123906000Y-127170740D02*
X123906000Y-110672100D01*
X80772000Y-129921000D02*
X88391000Y-129921000D01*
X124903000Y-109675100D02*
X124903000Y-106362270D01*
X122026000Y-105283000D02*
X120966000Y-106343000D01*
X120966000Y-106343000D02*
X119957000Y-106343000D01*
%TO.N,DIN32-{slash}IORQ*%
X86252000Y-116264470D02*
X86252000Y-111406060D01*
X86440000Y-120106470D02*
X86440000Y-116452470D01*
X132650000Y-109601000D02*
X128200000Y-109601000D01*
X86495270Y-111162790D02*
X86495270Y-110284740D01*
X122706000Y-111214000D02*
X119950000Y-113970000D01*
X122833940Y-110026060D02*
X122706000Y-110154000D01*
X86495270Y-110284740D02*
X85465530Y-109255000D01*
X86440000Y-116452470D02*
X86252000Y-116264470D01*
X85465530Y-109255000D02*
X81118000Y-109255000D01*
X86395000Y-125457120D02*
X86395000Y-120151470D01*
X87630000Y-126692120D02*
X86395000Y-125457120D01*
X122706000Y-110154000D02*
X122706000Y-111214000D01*
X86395000Y-120151470D02*
X86440000Y-120106470D01*
X81118000Y-109255000D02*
X80772000Y-109601000D01*
X86252000Y-111406060D02*
X86495270Y-111162790D01*
X122833940Y-108326990D02*
X122833940Y-110026060D01*
%TO.N,DIN43-D5*%
X86082000Y-83451370D02*
X86082000Y-87584690D01*
X95860000Y-91205000D02*
X94850000Y-90195000D01*
X85090000Y-88576690D02*
X85090000Y-90551000D01*
X93430000Y-86196590D02*
X93430000Y-85913740D01*
X94212000Y-86978590D02*
X93430000Y-86196590D01*
X94850000Y-89013590D02*
X94212000Y-88375590D01*
X132650000Y-91821000D02*
X128999000Y-91821000D01*
X83820000Y-91821000D02*
X80772000Y-91821000D01*
X86082000Y-87584690D02*
X85090000Y-88576690D01*
X128999000Y-91821000D02*
X127740000Y-93080000D01*
X93430000Y-85913740D02*
X91955260Y-84439000D01*
X89975350Y-84439000D02*
X88848350Y-83312000D01*
X91955260Y-84439000D02*
X89975350Y-84439000D01*
X94212000Y-88375590D02*
X94212000Y-86978590D01*
X85090000Y-90551000D02*
X83820000Y-91821000D01*
X88848350Y-83312000D02*
X86221370Y-83312000D01*
X94850000Y-90195000D02*
X94850000Y-89013590D01*
X86221370Y-83312000D02*
X86082000Y-83451370D01*
%TO.N,DIN33-{slash}MREQ*%
X124103000Y-107480000D02*
X124103000Y-109343730D01*
X86652000Y-111571750D02*
X86895270Y-111328480D01*
X123903000Y-107280000D02*
X124103000Y-107480000D01*
X119950000Y-116240000D02*
X119950000Y-116510000D01*
X86652000Y-116098790D02*
X86652000Y-111571750D01*
X121640000Y-122050000D02*
X121640000Y-118110000D01*
X124103000Y-109343730D02*
X123106000Y-110340730D01*
X86895270Y-111328480D02*
X86895270Y-108993270D01*
X86895270Y-108993270D02*
X84963000Y-107061000D01*
X121640000Y-118110000D02*
X120040000Y-116510000D01*
X84963000Y-107061000D02*
X80772000Y-107061000D01*
X120880150Y-122809850D02*
X121640000Y-122050000D01*
X123106000Y-110340730D02*
X123106000Y-113084000D01*
X128068080Y-107741920D02*
X128270000Y-107540000D01*
X97290000Y-121390000D02*
X98709850Y-122809850D01*
X86995000Y-120400000D02*
X86995000Y-116441790D01*
X132171000Y-107540000D02*
X132650000Y-107061000D01*
X128270000Y-107540000D02*
X132171000Y-107540000D01*
X123106000Y-113084000D02*
X119950000Y-116240000D01*
X86995000Y-116441790D02*
X86652000Y-116098790D01*
X120040000Y-116510000D02*
X119950000Y-116510000D01*
X98709850Y-122809850D02*
X120880150Y-122809850D01*
%TO.N,DIN39-D1*%
X84328000Y-84201000D02*
X80772000Y-84201000D01*
X114150775Y-83718400D02*
X115275614Y-83718400D01*
X97730000Y-96005000D02*
X97730000Y-95368530D01*
X99210000Y-84790775D02*
X100000000Y-84000775D01*
X99683000Y-107593000D02*
X99683000Y-117295530D01*
X84882000Y-83647000D02*
X84328000Y-84201000D01*
X90245130Y-82728870D02*
X89577250Y-82061000D01*
X115981786Y-83761000D02*
X116024386Y-83718400D01*
X98049320Y-94205000D02*
X99210000Y-93044320D01*
X99683000Y-117295530D02*
X101437470Y-119050000D01*
X84882000Y-82954310D02*
X84882000Y-83647000D01*
X97766470Y-94205000D02*
X98049320Y-94205000D01*
X100000000Y-84000775D02*
X100000000Y-84000000D01*
X132167400Y-83718400D02*
X132650000Y-84201000D01*
X101437470Y-119050000D02*
X117410000Y-119050000D01*
X99210000Y-93044320D02*
X99210000Y-84790775D01*
X115318214Y-83761000D02*
X115981786Y-83761000D01*
X97415000Y-94556470D02*
X97766470Y-94205000D01*
X85775310Y-82061000D02*
X84882000Y-82954310D01*
X115275614Y-83718400D02*
X115318214Y-83761000D01*
X89577250Y-82061000D02*
X85775310Y-82061000D01*
X97730000Y-95368530D02*
X97415000Y-95053530D01*
X97415000Y-95053530D02*
X97415000Y-94556470D01*
X116024386Y-83718400D02*
X132167400Y-83718400D01*
X99050000Y-106960000D02*
X99683000Y-107593000D01*
%TO.N,DIN41-D3*%
X95270000Y-91810000D02*
X95190000Y-91730000D01*
X91789570Y-84839000D02*
X89809670Y-84839000D01*
X86482000Y-83825000D02*
X86482000Y-87750370D01*
X84963000Y-94361000D02*
X80772000Y-94361000D01*
X93812000Y-88541270D02*
X93812000Y-87144270D01*
X125820000Y-94380000D02*
X125680000Y-94380000D01*
X94450000Y-90360690D02*
X94450000Y-89179270D01*
X95190000Y-91730000D02*
X95190000Y-91100690D01*
X100881750Y-92005000D02*
X100911040Y-92034290D01*
X85090000Y-94234000D02*
X84963000Y-94361000D01*
X88682670Y-83712000D02*
X86595000Y-83712000D01*
X95190000Y-91100690D02*
X94450000Y-90360690D01*
X104750000Y-113970000D02*
X117410000Y-113970000D01*
X93812000Y-87144270D02*
X93030000Y-86362270D01*
X89809670Y-84839000D02*
X88682670Y-83712000D01*
X85490000Y-88742370D02*
X85490000Y-90716690D01*
X85490000Y-90716690D02*
X85090000Y-91116690D01*
X93030000Y-86362270D02*
X93030000Y-86079430D01*
X103928030Y-113148030D02*
X104750000Y-113970000D01*
X132650000Y-94361000D02*
X125839000Y-94361000D01*
X125839000Y-94361000D02*
X125800000Y-94400000D01*
X100805000Y-92005000D02*
X100881750Y-92005000D01*
X86482000Y-87750370D02*
X85490000Y-88742370D01*
X86595000Y-83712000D02*
X86482000Y-83825000D01*
X125839000Y-94361000D02*
X125820000Y-94380000D01*
X93030000Y-86079430D02*
X91789570Y-84839000D01*
X85090000Y-91116690D02*
X85090000Y-94234000D01*
X103928030Y-110218030D02*
X103928030Y-113148030D01*
X94450000Y-89179270D02*
X93812000Y-88541270D01*
%TO.N,DIN36-{slash}IORQGE*%
X101362530Y-93710000D02*
X103931880Y-93710000D01*
X98015000Y-94805000D02*
X98720010Y-94100000D01*
X103931880Y-93710000D02*
X103956240Y-93734360D01*
X98720010Y-94100000D02*
X100972530Y-94100000D01*
X100972530Y-94100000D02*
X101362530Y-93710000D01*
%TO.N,DIN34-{slash}HALT*%
X80772000Y-104521000D02*
X84459000Y-104521000D01*
X128340000Y-105460000D02*
X129279000Y-104521000D01*
X128340000Y-106800000D02*
X128340000Y-105460000D01*
X86941000Y-102039000D02*
X86941000Y-99768000D01*
X84459000Y-104521000D02*
X86941000Y-102039000D01*
X129279000Y-104521000D02*
X132650000Y-104521000D01*
X86941000Y-99768000D02*
X86741000Y-99568000D01*
%TO.N,DIN48-{slash}M1*%
X116698800Y-96901000D02*
X117410000Y-96189800D01*
X125027000Y-104913770D02*
X123688230Y-103575000D01*
X124706000Y-111003470D02*
X125862000Y-109847470D01*
X125862000Y-106189900D02*
X125027000Y-105354900D01*
X117107000Y-96190000D02*
X117410000Y-96190000D01*
X85310000Y-128430000D02*
X84261000Y-127381000D01*
X103124000Y-98173000D02*
X104396000Y-96901000D01*
X104396000Y-96901000D02*
X116698800Y-96901000D01*
X127580000Y-127464740D02*
X127580000Y-127391000D01*
X127663740Y-127381000D02*
X132650000Y-127381000D01*
X125862000Y-109847470D02*
X125862000Y-106189900D01*
X127580000Y-127391000D02*
X124706000Y-124517000D01*
X80772000Y-127381000D02*
X80899000Y-127254000D01*
X84261000Y-127381000D02*
X80772000Y-127381000D01*
X124706000Y-124517000D02*
X124706000Y-111003470D01*
X125027000Y-105354900D02*
X125027000Y-104913770D01*
X127580000Y-127464740D02*
X127663740Y-127381000D01*
X85310000Y-128898530D02*
X85310000Y-128430000D01*
%TO.N,DIN45-D7*%
X97570000Y-86090000D02*
X91114770Y-79634770D01*
X97570000Y-89746400D02*
X97570000Y-86090000D01*
X115529000Y-74041000D02*
X132650000Y-74041000D01*
X109830000Y-79740000D02*
X115529000Y-74041000D01*
X97760110Y-89936510D02*
X97570000Y-89746400D01*
X91105240Y-79634770D02*
X91014770Y-79634770D01*
X91114770Y-79634770D02*
X91105240Y-79634770D01*
X91014770Y-79634770D02*
X85421000Y-74041000D01*
X85421000Y-74041000D02*
X80772000Y-74041000D01*
%TO.N,DIN30-{slash}WAIT*%
X125306000Y-115465000D02*
X129602000Y-119761000D01*
X125306000Y-111252000D02*
X125306000Y-115465000D01*
X85860000Y-118160050D02*
X85860000Y-118860000D01*
X125385500Y-111172500D02*
X125306000Y-111252000D01*
X129602000Y-119761000D02*
X132650000Y-119761000D01*
X84959000Y-119761000D02*
X80772000Y-119761000D01*
X85430000Y-117730050D02*
X85860000Y-118160050D01*
X85430000Y-115940000D02*
X85430000Y-117730050D01*
X85860000Y-118860000D02*
X84959000Y-119761000D01*
%TO.N,DIN27-{slash}BUSACK*%
X119473650Y-107500000D02*
X118800000Y-106826350D01*
X124503000Y-106527960D02*
X123733730Y-105758690D01*
X121435350Y-107500000D02*
X119473650Y-107500000D01*
X118800000Y-106826350D02*
X118800000Y-102420000D01*
X124845120Y-133485120D02*
X123506000Y-132146000D01*
X122522310Y-105758690D02*
X122116000Y-106165000D01*
X124503000Y-109509410D02*
X124503000Y-106527960D01*
X123733730Y-105758690D02*
X122522310Y-105758690D01*
X127705120Y-133485120D02*
X124845120Y-133485120D01*
X118800000Y-102420000D02*
X119950000Y-101270000D01*
X123506000Y-110506410D02*
X124503000Y-109509410D01*
X122116000Y-106819350D02*
X121435350Y-107500000D01*
X122116000Y-106165000D02*
X122116000Y-106819350D01*
X123506000Y-132146000D02*
X123506000Y-110506410D01*
%TO.N,DIN42-D4*%
X91623880Y-85239000D02*
X89643980Y-85239000D01*
X94050000Y-90526380D02*
X94050000Y-89344960D01*
X127971000Y-96901000D02*
X132650000Y-96901000D01*
X83947000Y-96266000D02*
X83312000Y-96901000D01*
X87084000Y-84112000D02*
X86882000Y-84314000D01*
X85890000Y-95720000D02*
X85344000Y-96266000D01*
X94670000Y-91146380D02*
X94050000Y-90526380D01*
X92630000Y-86527960D02*
X92630000Y-86245120D01*
X92630000Y-86245120D02*
X91623880Y-85239000D01*
X85890000Y-88908060D02*
X85890000Y-95720000D01*
X85344000Y-96266000D02*
X83947000Y-96266000D01*
X88516980Y-84112000D02*
X87084000Y-84112000D01*
X83312000Y-96901000D02*
X80772000Y-96901000D01*
X93412000Y-88706960D02*
X93412000Y-87309960D01*
X86882000Y-87916060D02*
X85890000Y-88908060D01*
X93412000Y-87309960D02*
X92630000Y-86527960D01*
X89643980Y-85239000D02*
X88516980Y-84112000D01*
X86882000Y-84314000D02*
X86882000Y-87916060D01*
X94050000Y-89344960D02*
X93412000Y-88706960D01*
X94594140Y-92238040D02*
X94670000Y-92162190D01*
X94670000Y-92162190D02*
X94670000Y-91146380D01*
%TO.N,DIN46-{slash}RD*%
X95265650Y-102420000D02*
X94359000Y-103326650D01*
X85217000Y-110863000D02*
X83939000Y-112141000D01*
X96659000Y-101092000D02*
X96659000Y-101746350D01*
X96659000Y-101746350D02*
X95985350Y-102420000D01*
X94359000Y-103326650D02*
X94359000Y-104396000D01*
X85217000Y-109855000D02*
X85217000Y-110863000D01*
X95985350Y-102420000D02*
X95265650Y-102420000D01*
X127165910Y-110715910D02*
X128620000Y-112170000D01*
X91911000Y-105193000D02*
X91440000Y-105664000D01*
X132621000Y-112170000D02*
X132650000Y-112141000D01*
X102752000Y-101092000D02*
X96659000Y-101092000D01*
X94359000Y-104396000D02*
X93562000Y-105193000D01*
X127165910Y-105532840D02*
X127165910Y-110715910D01*
X93562000Y-105193000D02*
X91911000Y-105193000D01*
X103124000Y-100720000D02*
X102752000Y-101092000D01*
X83939000Y-112141000D02*
X80772000Y-112141000D01*
X128620000Y-112170000D02*
X132621000Y-112170000D01*
%TO.N,DIN26-Spare3*%
X113379250Y-71504175D02*
X108892975Y-75990450D01*
X108892975Y-75990450D02*
X108892975Y-95885000D01*
%TO.N,DIN25-CLOCK*%
X120000000Y-89000000D02*
X120024525Y-89024525D01*
X120024525Y-96115475D02*
X119950000Y-96190000D01*
X120024525Y-89024525D02*
X120024525Y-96115475D01*
%TO.N,DIN44-D6*%
X94612000Y-86812900D02*
X93830000Y-86030900D01*
X89026310Y-82861000D02*
X86106690Y-82861000D01*
X126554000Y-104022630D02*
X124400000Y-101868630D01*
X124400000Y-101868630D02*
X124400000Y-93405000D01*
X89245130Y-83143090D02*
X89245130Y-83079810D01*
X124400000Y-93405000D02*
X128524000Y-89281000D01*
X89245130Y-83079810D02*
X89026310Y-82861000D01*
X93830000Y-85748060D02*
X92120940Y-84039000D01*
X85682000Y-83285690D02*
X85682000Y-87419000D01*
X86106690Y-82861000D02*
X85682000Y-83285690D01*
X95250000Y-88847900D02*
X94612000Y-88209900D01*
X90141040Y-84039000D02*
X89479440Y-83377400D01*
X94612000Y-88209900D02*
X94612000Y-86812900D01*
X126554000Y-104648000D02*
X126554000Y-104022630D01*
X85682000Y-87419000D02*
X83820000Y-89281000D01*
X117276000Y-106819350D02*
X117276000Y-106511570D01*
X92120940Y-84039000D02*
X90141040Y-84039000D01*
X95250000Y-89629000D02*
X95250000Y-88847900D01*
X89479440Y-83377400D02*
X89245130Y-83143090D01*
X96010000Y-90389000D02*
X95250000Y-89629000D01*
X128524000Y-89281000D02*
X132650000Y-89281000D01*
X126427000Y-104775000D02*
X126554000Y-104648000D01*
X93830000Y-86030900D02*
X93830000Y-85748060D01*
X83820000Y-89281000D02*
X80772000Y-89281000D01*
%TO.N,NCA28*%
X91104310Y-138080000D02*
X92261100Y-139236780D01*
X102095690Y-136900000D02*
X132009000Y-136900000D01*
X80772000Y-137541000D02*
X89776780Y-137541000D01*
X132009000Y-136900000D02*
X132650000Y-137541000D01*
X92261100Y-139236780D02*
X99758900Y-139236780D01*
X89776780Y-137541000D02*
X90315790Y-138080000D01*
X99758900Y-139236780D02*
X102095690Y-136900000D01*
X90315790Y-138080000D02*
X91104310Y-138080000D01*
D28*
%TO.N,POWER_+12V*%
X84741000Y-122301000D02*
X80772000Y-122301000D01*
X128061770Y-122301000D02*
X132650000Y-122301000D01*
X128056800Y-122305980D02*
X128061770Y-122301000D01*
X85580000Y-123140000D02*
X84741000Y-122301000D01*
D27*
%TO.N,DIN31-{slash}BUSRQ*%
X91370000Y-110220000D02*
X91340000Y-110190000D01*
X97800000Y-110220000D02*
X91370000Y-110220000D01*
X98930000Y-109090000D02*
X97800000Y-110220000D01*
D28*
%TO.N,POWER_-5V*%
X128371000Y-117221000D02*
X132650000Y-117221000D01*
X80772000Y-117221000D02*
X83931000Y-117221000D01*
X127580000Y-116270000D02*
X127580000Y-116430000D01*
X127580000Y-116430000D02*
X128371000Y-117221000D01*
X83931000Y-117221000D02*
X85160000Y-118450000D01*
%TO.N,POWER_12VAC*%
X84331000Y-124841000D02*
X80772000Y-124841000D01*
X84957000Y-125467000D02*
X84331000Y-124841000D01*
X85400000Y-126449000D02*
X84957000Y-126006000D01*
X84957000Y-126006000D02*
X84957000Y-125467000D01*
X128629000Y-124841000D02*
X132650000Y-124841000D01*
X127930000Y-125540000D02*
X128629000Y-124841000D01*
X85400000Y-126890000D02*
X85400000Y-126449000D01*
%TD*%
M02*
