%TF.GenerationSoftware,KiCad,Pcbnew,9.0.5*%
%TF.CreationDate,2025-12-03T10:09:39+00:00*%
%TF.ProjectId,ZX Interface,5a582049-6e74-4657-9266-6163652e6b69,3.2*%
%TF.SameCoordinates,Original*%
%TF.FileFunction,Soldermask,Bot*%
%TF.FilePolarity,Negative*%
%FSLAX46Y46*%
G04 Gerber Fmt 4.6, Leading zero omitted, Abs format (unit mm)*
G04 Created by KiCad (PCBNEW 9.0.5) date 2025-12-03 10:09:39*
%MOMM*%
%LPD*%
G01*
G04 APERTURE LIST*
G04 Aperture macros list*
%AMRoundRect*
0 Rectangle with rounded corners*
0 $1 Rounding radius*
0 $2 $3 $4 $5 $6 $7 $8 $9 X,Y pos of 4 corners*
0 Add a 4 corners polygon primitive as box body*
4,1,4,$2,$3,$4,$5,$6,$7,$8,$9,$2,$3,0*
0 Add four circle primitives for the rounded corners*
1,1,$1+$1,$2,$3*
1,1,$1+$1,$4,$5*
1,1,$1+$1,$6,$7*
1,1,$1+$1,$8,$9*
0 Add four rect primitives between the rounded corners*
20,1,$1+$1,$2,$3,$4,$5,0*
20,1,$1+$1,$4,$5,$6,$7,0*
20,1,$1+$1,$6,$7,$8,$9,0*
20,1,$1+$1,$8,$9,$2,$3,0*%
G04 Aperture macros list end*
%ADD10C,0.000000*%
%ADD11C,1.000000*%
%ADD12R,7.620000X1.524000*%
%ADD13RoundRect,0.102000X-0.685000X-0.685000X0.685000X-0.685000X0.685000X0.685000X-0.685000X0.685000X0*%
%ADD14C,1.574000*%
%ADD15O,2.055000X1.500000*%
%ADD16RoundRect,0.250000X1.350000X-1.350000X1.350000X1.350000X-1.350000X1.350000X-1.350000X-1.350000X0*%
%ADD17C,3.200000*%
%ADD18RoundRect,0.102000X0.765000X-0.765000X0.765000X0.765000X-0.765000X0.765000X-0.765000X-0.765000X0*%
%ADD19C,1.734000*%
G04 APERTURE END LIST*
D10*
G36*
X117493310Y-120744090D02*
G01*
X117575830Y-120756330D01*
X117656740Y-120776600D01*
X117735280Y-120804700D01*
X117810690Y-120840370D01*
X117882230Y-120883250D01*
X117949230Y-120932940D01*
X118011040Y-120988960D01*
X118067060Y-121050770D01*
X118116750Y-121117770D01*
X118159630Y-121189310D01*
X118195300Y-121264720D01*
X118223400Y-121343260D01*
X118243670Y-121424170D01*
X118255910Y-121506690D01*
X118260000Y-121590000D01*
X118255910Y-121673310D01*
X118243670Y-121755830D01*
X118223400Y-121836740D01*
X118195300Y-121915280D01*
X118159630Y-121990690D01*
X118116750Y-122062230D01*
X118067060Y-122129230D01*
X118011040Y-122191040D01*
X117949230Y-122247060D01*
X117882230Y-122296750D01*
X117810690Y-122339630D01*
X117735280Y-122375300D01*
X117656740Y-122403400D01*
X117575830Y-122423670D01*
X117493310Y-122435910D01*
X117410000Y-122440000D01*
X117326690Y-122435910D01*
X117244170Y-122423670D01*
X117163260Y-122403400D01*
X117084720Y-122375300D01*
X117009310Y-122339630D01*
X116937770Y-122296750D01*
X116870770Y-122247060D01*
X116808960Y-122191040D01*
X116752940Y-122129230D01*
X116703250Y-122062230D01*
X116660370Y-121990690D01*
X116624700Y-121915280D01*
X116596600Y-121836740D01*
X116576330Y-121755830D01*
X116564090Y-121673310D01*
X116560000Y-121590000D01*
X116564090Y-121506690D01*
X116576330Y-121424170D01*
X116596600Y-121343260D01*
X116624700Y-121264720D01*
X116660370Y-121189310D01*
X116703250Y-121117770D01*
X116752940Y-121050770D01*
X116808960Y-120988960D01*
X116870770Y-120932940D01*
X116937770Y-120883250D01*
X117009310Y-120840370D01*
X117084720Y-120804700D01*
X117163260Y-120776600D01*
X117244170Y-120756330D01*
X117326690Y-120744090D01*
X117410000Y-120740000D01*
X117493310Y-120744090D01*
G37*
G36*
X93052310Y-118204090D02*
G01*
X93134830Y-118216330D01*
X93215740Y-118236600D01*
X93294280Y-118264700D01*
X93369690Y-118300370D01*
X93441230Y-118343250D01*
X93508230Y-118392940D01*
X93570040Y-118448960D01*
X93626060Y-118510770D01*
X93675750Y-118577770D01*
X93718630Y-118649310D01*
X93754300Y-118724720D01*
X93782400Y-118803260D01*
X93802670Y-118884170D01*
X93814910Y-118966690D01*
X93819000Y-119050000D01*
X93814910Y-119133310D01*
X93802670Y-119215830D01*
X93782400Y-119296740D01*
X93754300Y-119375280D01*
X93718630Y-119450690D01*
X93675750Y-119522230D01*
X93626060Y-119589230D01*
X93570040Y-119651040D01*
X93508230Y-119707060D01*
X93441230Y-119756750D01*
X93369690Y-119799630D01*
X93294280Y-119835300D01*
X93215740Y-119863400D01*
X93134830Y-119883670D01*
X93052310Y-119895910D01*
X92969000Y-119900000D01*
X92885690Y-119895910D01*
X92803170Y-119883670D01*
X92722260Y-119863400D01*
X92643720Y-119835300D01*
X92568310Y-119799630D01*
X92496770Y-119756750D01*
X92429770Y-119707060D01*
X92367960Y-119651040D01*
X92311940Y-119589230D01*
X92262250Y-119522230D01*
X92219370Y-119450690D01*
X92183700Y-119375280D01*
X92155600Y-119296740D01*
X92135330Y-119215830D01*
X92123090Y-119133310D01*
X92119000Y-119050000D01*
X92123090Y-118966690D01*
X92135330Y-118884170D01*
X92155600Y-118803260D01*
X92183700Y-118724720D01*
X92219370Y-118649310D01*
X92262250Y-118577770D01*
X92311940Y-118510770D01*
X92367960Y-118448960D01*
X92429770Y-118392940D01*
X92496770Y-118343250D01*
X92568310Y-118300370D01*
X92643720Y-118264700D01*
X92722260Y-118236600D01*
X92803170Y-118216330D01*
X92885690Y-118204090D01*
X92969000Y-118200000D01*
X93052310Y-118204090D01*
G37*
G36*
X84582000Y-138541000D02*
G01*
X76962000Y-138541000D01*
X76962000Y-136541000D01*
X84582000Y-136541000D01*
X84582000Y-138541000D01*
G37*
G36*
X93052310Y-120744090D02*
G01*
X93134830Y-120756330D01*
X93215740Y-120776600D01*
X93294280Y-120804700D01*
X93369690Y-120840370D01*
X93441230Y-120883250D01*
X93508230Y-120932940D01*
X93570040Y-120988960D01*
X93626060Y-121050770D01*
X93675750Y-121117770D01*
X93718630Y-121189310D01*
X93754300Y-121264720D01*
X93782400Y-121343260D01*
X93802670Y-121424170D01*
X93814910Y-121506690D01*
X93819000Y-121590000D01*
X93814910Y-121673310D01*
X93802670Y-121755830D01*
X93782400Y-121836740D01*
X93754300Y-121915280D01*
X93718630Y-121990690D01*
X93675750Y-122062230D01*
X93626060Y-122129230D01*
X93570040Y-122191040D01*
X93508230Y-122247060D01*
X93441230Y-122296750D01*
X93369690Y-122339630D01*
X93294280Y-122375300D01*
X93215740Y-122403400D01*
X93134830Y-122423670D01*
X93052310Y-122435910D01*
X92969000Y-122440000D01*
X92885690Y-122435910D01*
X92803170Y-122423670D01*
X92722260Y-122403400D01*
X92643720Y-122375300D01*
X92568310Y-122339630D01*
X92496770Y-122296750D01*
X92429770Y-122247060D01*
X92367960Y-122191040D01*
X92311940Y-122129230D01*
X92262250Y-122062230D01*
X92219370Y-121990690D01*
X92183700Y-121915280D01*
X92155600Y-121836740D01*
X92135330Y-121755830D01*
X92123090Y-121673310D01*
X92119000Y-121590000D01*
X92123090Y-121506690D01*
X92135330Y-121424170D01*
X92155600Y-121343260D01*
X92183700Y-121264720D01*
X92219370Y-121189310D01*
X92262250Y-121117770D01*
X92311940Y-121050770D01*
X92367960Y-120988960D01*
X92429770Y-120932940D01*
X92496770Y-120883250D01*
X92568310Y-120840370D01*
X92643720Y-120804700D01*
X92722260Y-120776600D01*
X92803170Y-120756330D01*
X92885690Y-120744090D01*
X92969000Y-120740000D01*
X93052310Y-120744090D01*
G37*
G36*
X117493310Y-128364090D02*
G01*
X117575830Y-128376330D01*
X117656740Y-128396600D01*
X117735280Y-128424700D01*
X117810690Y-128460370D01*
X117882230Y-128503250D01*
X117949230Y-128552940D01*
X118011040Y-128608960D01*
X118067060Y-128670770D01*
X118116750Y-128737770D01*
X118159630Y-128809310D01*
X118195300Y-128884720D01*
X118223400Y-128963260D01*
X118243670Y-129044170D01*
X118255910Y-129126690D01*
X118260000Y-129210000D01*
X118255910Y-129293310D01*
X118243670Y-129375830D01*
X118223400Y-129456740D01*
X118195300Y-129535280D01*
X118159630Y-129610690D01*
X118116750Y-129682230D01*
X118067060Y-129749230D01*
X118011040Y-129811040D01*
X117949230Y-129867060D01*
X117882230Y-129916750D01*
X117810690Y-129959630D01*
X117735280Y-129995300D01*
X117656740Y-130023400D01*
X117575830Y-130043670D01*
X117493310Y-130055910D01*
X117410000Y-130060000D01*
X117326690Y-130055910D01*
X117244170Y-130043670D01*
X117163260Y-130023400D01*
X117084720Y-129995300D01*
X117009310Y-129959630D01*
X116937770Y-129916750D01*
X116870770Y-129867060D01*
X116808960Y-129811040D01*
X116752940Y-129749230D01*
X116703250Y-129682230D01*
X116660370Y-129610690D01*
X116624700Y-129535280D01*
X116596600Y-129456740D01*
X116576330Y-129375830D01*
X116564090Y-129293310D01*
X116560000Y-129210000D01*
X116564090Y-129126690D01*
X116576330Y-129044170D01*
X116596600Y-128963260D01*
X116624700Y-128884720D01*
X116660370Y-128809310D01*
X116703250Y-128737770D01*
X116752940Y-128670770D01*
X116808960Y-128608960D01*
X116870770Y-128552940D01*
X116937770Y-128503250D01*
X117009310Y-128460370D01*
X117084720Y-128424700D01*
X117163260Y-128396600D01*
X117244170Y-128376330D01*
X117326690Y-128364090D01*
X117410000Y-128360000D01*
X117493310Y-128364090D01*
G37*
G36*
X136460000Y-128381000D02*
G01*
X128840000Y-128381000D01*
X128840000Y-126381000D01*
X136460000Y-126381000D01*
X136460000Y-128381000D01*
G37*
G36*
X117493310Y-110584090D02*
G01*
X117575830Y-110596330D01*
X117656740Y-110616600D01*
X117735280Y-110644700D01*
X117810690Y-110680370D01*
X117882230Y-110723250D01*
X117949230Y-110772940D01*
X118011040Y-110828960D01*
X118067060Y-110890770D01*
X118116750Y-110957770D01*
X118159630Y-111029310D01*
X118195300Y-111104720D01*
X118223400Y-111183260D01*
X118243670Y-111264170D01*
X118255910Y-111346690D01*
X118260000Y-111430000D01*
X118255910Y-111513310D01*
X118243670Y-111595830D01*
X118223400Y-111676740D01*
X118195300Y-111755280D01*
X118159630Y-111830690D01*
X118116750Y-111902230D01*
X118067060Y-111969230D01*
X118011040Y-112031040D01*
X117949230Y-112087060D01*
X117882230Y-112136750D01*
X117810690Y-112179630D01*
X117735280Y-112215300D01*
X117656740Y-112243400D01*
X117575830Y-112263670D01*
X117493310Y-112275910D01*
X117410000Y-112280000D01*
X117326690Y-112275910D01*
X117244170Y-112263670D01*
X117163260Y-112243400D01*
X117084720Y-112215300D01*
X117009310Y-112179630D01*
X116937770Y-112136750D01*
X116870770Y-112087060D01*
X116808960Y-112031040D01*
X116752940Y-111969230D01*
X116703250Y-111902230D01*
X116660370Y-111830690D01*
X116624700Y-111755280D01*
X116596600Y-111676740D01*
X116576330Y-111595830D01*
X116564090Y-111513310D01*
X116560000Y-111430000D01*
X116564090Y-111346690D01*
X116576330Y-111264170D01*
X116596600Y-111183260D01*
X116624700Y-111104720D01*
X116660370Y-111029310D01*
X116703250Y-110957770D01*
X116752940Y-110890770D01*
X116808960Y-110828960D01*
X116870770Y-110772940D01*
X116937770Y-110723250D01*
X117009310Y-110680370D01*
X117084720Y-110644700D01*
X117163260Y-110616600D01*
X117244170Y-110596330D01*
X117326690Y-110584090D01*
X117410000Y-110580000D01*
X117493310Y-110584090D01*
G37*
G36*
X93052310Y-100424090D02*
G01*
X93134830Y-100436330D01*
X93215740Y-100456600D01*
X93294280Y-100484700D01*
X93369690Y-100520370D01*
X93441230Y-100563250D01*
X93508230Y-100612940D01*
X93570040Y-100668960D01*
X93626060Y-100730770D01*
X93675750Y-100797770D01*
X93718630Y-100869310D01*
X93754300Y-100944720D01*
X93782400Y-101023260D01*
X93802670Y-101104170D01*
X93814910Y-101186690D01*
X93819000Y-101270000D01*
X93814910Y-101353310D01*
X93802670Y-101435830D01*
X93782400Y-101516740D01*
X93754300Y-101595280D01*
X93718630Y-101670690D01*
X93675750Y-101742230D01*
X93626060Y-101809230D01*
X93570040Y-101871040D01*
X93508230Y-101927060D01*
X93441230Y-101976750D01*
X93369690Y-102019630D01*
X93294280Y-102055300D01*
X93215740Y-102083400D01*
X93134830Y-102103670D01*
X93052310Y-102115910D01*
X92969000Y-102120000D01*
X92885690Y-102115910D01*
X92803170Y-102103670D01*
X92722260Y-102083400D01*
X92643720Y-102055300D01*
X92568310Y-102019630D01*
X92496770Y-101976750D01*
X92429770Y-101927060D01*
X92367960Y-101871040D01*
X92311940Y-101809230D01*
X92262250Y-101742230D01*
X92219370Y-101670690D01*
X92183700Y-101595280D01*
X92155600Y-101516740D01*
X92135330Y-101435830D01*
X92123090Y-101353310D01*
X92119000Y-101270000D01*
X92123090Y-101186690D01*
X92135330Y-101104170D01*
X92155600Y-101023260D01*
X92183700Y-100944720D01*
X92219370Y-100869310D01*
X92262250Y-100797770D01*
X92311940Y-100730770D01*
X92367960Y-100668960D01*
X92429770Y-100612940D01*
X92496770Y-100563250D01*
X92568310Y-100520370D01*
X92643720Y-100484700D01*
X92722260Y-100456600D01*
X92803170Y-100436330D01*
X92885690Y-100424090D01*
X92969000Y-100420000D01*
X93052310Y-100424090D01*
G37*
G36*
X136460000Y-138541000D02*
G01*
X128840000Y-138541000D01*
X128840000Y-136541000D01*
X136460000Y-136541000D01*
X136460000Y-138541000D01*
G37*
G36*
X84582000Y-69961000D02*
G01*
X76962000Y-69961000D01*
X76962000Y-67961000D01*
X84582000Y-67961000D01*
X84582000Y-69961000D01*
G37*
G36*
X84582000Y-102981000D02*
G01*
X76962000Y-102981000D01*
X76962000Y-100981000D01*
X84582000Y-100981000D01*
X84582000Y-102981000D01*
G37*
G36*
X120033310Y-108044090D02*
G01*
X120115830Y-108056330D01*
X120196740Y-108076600D01*
X120275280Y-108104700D01*
X120350690Y-108140370D01*
X120422230Y-108183250D01*
X120489230Y-108232940D01*
X120551040Y-108288960D01*
X120607060Y-108350770D01*
X120656750Y-108417770D01*
X120699630Y-108489310D01*
X120735300Y-108564720D01*
X120763400Y-108643260D01*
X120783670Y-108724170D01*
X120795910Y-108806690D01*
X120800000Y-108890000D01*
X120795910Y-108973310D01*
X120783670Y-109055830D01*
X120763400Y-109136740D01*
X120735300Y-109215280D01*
X120699630Y-109290690D01*
X120656750Y-109362230D01*
X120607060Y-109429230D01*
X120551040Y-109491040D01*
X120489230Y-109547060D01*
X120422230Y-109596750D01*
X120350690Y-109639630D01*
X120275280Y-109675300D01*
X120196740Y-109703400D01*
X120115830Y-109723670D01*
X120033310Y-109735910D01*
X119950000Y-109740000D01*
X119866690Y-109735910D01*
X119784170Y-109723670D01*
X119703260Y-109703400D01*
X119624720Y-109675300D01*
X119549310Y-109639630D01*
X119477770Y-109596750D01*
X119410770Y-109547060D01*
X119348960Y-109491040D01*
X119292940Y-109429230D01*
X119243250Y-109362230D01*
X119200370Y-109290690D01*
X119164700Y-109215280D01*
X119136600Y-109136740D01*
X119116330Y-109055830D01*
X119104090Y-108973310D01*
X119100000Y-108890000D01*
X119104090Y-108806690D01*
X119116330Y-108724170D01*
X119136600Y-108643260D01*
X119164700Y-108564720D01*
X119200370Y-108489310D01*
X119243250Y-108417770D01*
X119292940Y-108350770D01*
X119348960Y-108288960D01*
X119410770Y-108232940D01*
X119477770Y-108183250D01*
X119549310Y-108140370D01*
X119624720Y-108104700D01*
X119703260Y-108076600D01*
X119784170Y-108056330D01*
X119866690Y-108044090D01*
X119950000Y-108040000D01*
X120033310Y-108044090D01*
G37*
G36*
X93052310Y-110584090D02*
G01*
X93134830Y-110596330D01*
X93215740Y-110616600D01*
X93294280Y-110644700D01*
X93369690Y-110680370D01*
X93441230Y-110723250D01*
X93508230Y-110772940D01*
X93570040Y-110828960D01*
X93626060Y-110890770D01*
X93675750Y-110957770D01*
X93718630Y-111029310D01*
X93754300Y-111104720D01*
X93782400Y-111183260D01*
X93802670Y-111264170D01*
X93814910Y-111346690D01*
X93819000Y-111430000D01*
X93814910Y-111513310D01*
X93802670Y-111595830D01*
X93782400Y-111676740D01*
X93754300Y-111755280D01*
X93718630Y-111830690D01*
X93675750Y-111902230D01*
X93626060Y-111969230D01*
X93570040Y-112031040D01*
X93508230Y-112087060D01*
X93441230Y-112136750D01*
X93369690Y-112179630D01*
X93294280Y-112215300D01*
X93215740Y-112243400D01*
X93134830Y-112263670D01*
X93052310Y-112275910D01*
X92969000Y-112280000D01*
X92885690Y-112275910D01*
X92803170Y-112263670D01*
X92722260Y-112243400D01*
X92643720Y-112215300D01*
X92568310Y-112179630D01*
X92496770Y-112136750D01*
X92429770Y-112087060D01*
X92367960Y-112031040D01*
X92311940Y-111969230D01*
X92262250Y-111902230D01*
X92219370Y-111830690D01*
X92183700Y-111755280D01*
X92155600Y-111676740D01*
X92135330Y-111595830D01*
X92123090Y-111513310D01*
X92119000Y-111430000D01*
X92123090Y-111346690D01*
X92135330Y-111264170D01*
X92155600Y-111183260D01*
X92183700Y-111104720D01*
X92219370Y-111029310D01*
X92262250Y-110957770D01*
X92311940Y-110890770D01*
X92367960Y-110828960D01*
X92429770Y-110772940D01*
X92496770Y-110723250D01*
X92568310Y-110680370D01*
X92643720Y-110644700D01*
X92722260Y-110616600D01*
X92803170Y-110596330D01*
X92885690Y-110584090D01*
X92969000Y-110580000D01*
X93052310Y-110584090D01*
G37*
G36*
X117493310Y-108044090D02*
G01*
X117575830Y-108056330D01*
X117656740Y-108076600D01*
X117735280Y-108104700D01*
X117810690Y-108140370D01*
X117882230Y-108183250D01*
X117949230Y-108232940D01*
X118011040Y-108288960D01*
X118067060Y-108350770D01*
X118116750Y-108417770D01*
X118159630Y-108489310D01*
X118195300Y-108564720D01*
X118223400Y-108643260D01*
X118243670Y-108724170D01*
X118255910Y-108806690D01*
X118260000Y-108890000D01*
X118255910Y-108973310D01*
X118243670Y-109055830D01*
X118223400Y-109136740D01*
X118195300Y-109215280D01*
X118159630Y-109290690D01*
X118116750Y-109362230D01*
X118067060Y-109429230D01*
X118011040Y-109491040D01*
X117949230Y-109547060D01*
X117882230Y-109596750D01*
X117810690Y-109639630D01*
X117735280Y-109675300D01*
X117656740Y-109703400D01*
X117575830Y-109723670D01*
X117493310Y-109735910D01*
X117410000Y-109740000D01*
X117326690Y-109735910D01*
X117244170Y-109723670D01*
X117163260Y-109703400D01*
X117084720Y-109675300D01*
X117009310Y-109639630D01*
X116937770Y-109596750D01*
X116870770Y-109547060D01*
X116808960Y-109491040D01*
X116752940Y-109429230D01*
X116703250Y-109362230D01*
X116660370Y-109290690D01*
X116624700Y-109215280D01*
X116596600Y-109136740D01*
X116576330Y-109055830D01*
X116564090Y-108973310D01*
X116560000Y-108890000D01*
X116564090Y-108806690D01*
X116576330Y-108724170D01*
X116596600Y-108643260D01*
X116624700Y-108564720D01*
X116660370Y-108489310D01*
X116703250Y-108417770D01*
X116752940Y-108350770D01*
X116808960Y-108288960D01*
X116870770Y-108232940D01*
X116937770Y-108183250D01*
X117009310Y-108140370D01*
X117084720Y-108104700D01*
X117163260Y-108076600D01*
X117244170Y-108056330D01*
X117326690Y-108044090D01*
X117410000Y-108040000D01*
X117493310Y-108044090D01*
G37*
G36*
X117493310Y-105504090D02*
G01*
X117575830Y-105516330D01*
X117656740Y-105536600D01*
X117735280Y-105564700D01*
X117810690Y-105600370D01*
X117882230Y-105643250D01*
X117949230Y-105692940D01*
X118011040Y-105748960D01*
X118067060Y-105810770D01*
X118116750Y-105877770D01*
X118159630Y-105949310D01*
X118195300Y-106024720D01*
X118223400Y-106103260D01*
X118243670Y-106184170D01*
X118255910Y-106266690D01*
X118260000Y-106350000D01*
X118255910Y-106433310D01*
X118243670Y-106515830D01*
X118223400Y-106596740D01*
X118195300Y-106675280D01*
X118159630Y-106750690D01*
X118116750Y-106822230D01*
X118067060Y-106889230D01*
X118011040Y-106951040D01*
X117949230Y-107007060D01*
X117882230Y-107056750D01*
X117810690Y-107099630D01*
X117735280Y-107135300D01*
X117656740Y-107163400D01*
X117575830Y-107183670D01*
X117493310Y-107195910D01*
X117410000Y-107200000D01*
X117326690Y-107195910D01*
X117244170Y-107183670D01*
X117163260Y-107163400D01*
X117084720Y-107135300D01*
X117009310Y-107099630D01*
X116937770Y-107056750D01*
X116870770Y-107007060D01*
X116808960Y-106951040D01*
X116752940Y-106889230D01*
X116703250Y-106822230D01*
X116660370Y-106750690D01*
X116624700Y-106675280D01*
X116596600Y-106596740D01*
X116576330Y-106515830D01*
X116564090Y-106433310D01*
X116560000Y-106350000D01*
X116564090Y-106266690D01*
X116576330Y-106184170D01*
X116596600Y-106103260D01*
X116624700Y-106024720D01*
X116660370Y-105949310D01*
X116703250Y-105877770D01*
X116752940Y-105810770D01*
X116808960Y-105748960D01*
X116870770Y-105692940D01*
X116937770Y-105643250D01*
X117009310Y-105600370D01*
X117084720Y-105564700D01*
X117163260Y-105536600D01*
X117244170Y-105516330D01*
X117326690Y-105504090D01*
X117410000Y-105500000D01*
X117493310Y-105504090D01*
G37*
G36*
X120033310Y-133444090D02*
G01*
X120115830Y-133456330D01*
X120196740Y-133476600D01*
X120275280Y-133504700D01*
X120350690Y-133540370D01*
X120422230Y-133583250D01*
X120489230Y-133632940D01*
X120551040Y-133688960D01*
X120607060Y-133750770D01*
X120656750Y-133817770D01*
X120699630Y-133889310D01*
X120735300Y-133964720D01*
X120763400Y-134043260D01*
X120783670Y-134124170D01*
X120795910Y-134206690D01*
X120800000Y-134290000D01*
X120795910Y-134373310D01*
X120783670Y-134455830D01*
X120763400Y-134536740D01*
X120735300Y-134615280D01*
X120699630Y-134690690D01*
X120656750Y-134762230D01*
X120607060Y-134829230D01*
X120551040Y-134891040D01*
X120489230Y-134947060D01*
X120422230Y-134996750D01*
X120350690Y-135039630D01*
X120275280Y-135075300D01*
X120196740Y-135103400D01*
X120115830Y-135123670D01*
X120033310Y-135135910D01*
X119950000Y-135140000D01*
X119866690Y-135135910D01*
X119784170Y-135123670D01*
X119703260Y-135103400D01*
X119624720Y-135075300D01*
X119549310Y-135039630D01*
X119477770Y-134996750D01*
X119410770Y-134947060D01*
X119348960Y-134891040D01*
X119292940Y-134829230D01*
X119243250Y-134762230D01*
X119200370Y-134690690D01*
X119164700Y-134615280D01*
X119136600Y-134536740D01*
X119116330Y-134455830D01*
X119104090Y-134373310D01*
X119100000Y-134290000D01*
X119104090Y-134206690D01*
X119116330Y-134124170D01*
X119136600Y-134043260D01*
X119164700Y-133964720D01*
X119200370Y-133889310D01*
X119243250Y-133817770D01*
X119292940Y-133750770D01*
X119348960Y-133688960D01*
X119410770Y-133632940D01*
X119477770Y-133583250D01*
X119549310Y-133540370D01*
X119624720Y-133504700D01*
X119703260Y-133476600D01*
X119784170Y-133456330D01*
X119866690Y-133444090D01*
X119950000Y-133440000D01*
X120033310Y-133444090D01*
G37*
G36*
X136460000Y-90281000D02*
G01*
X128840000Y-90281000D01*
X128840000Y-88281000D01*
X136460000Y-88281000D01*
X136460000Y-90281000D01*
G37*
G36*
X84582000Y-115681000D02*
G01*
X76962000Y-115681000D01*
X76962000Y-113681000D01*
X84582000Y-113681000D01*
X84582000Y-115681000D01*
G37*
G36*
X91215830Y-72448700D02*
G01*
X91371140Y-72471740D01*
X91523460Y-72509900D01*
X91671290Y-72562790D01*
X91813230Y-72629930D01*
X91947910Y-72710650D01*
X92074030Y-72804180D01*
X92190370Y-72909630D01*
X92295820Y-73025970D01*
X92389350Y-73152090D01*
X92470070Y-73286770D01*
X92537210Y-73428710D01*
X92590100Y-73576540D01*
X92628260Y-73728860D01*
X92651300Y-73884170D01*
X92659000Y-74041000D01*
X92651300Y-74197830D01*
X92628260Y-74353140D01*
X92590100Y-74505460D01*
X92537210Y-74653290D01*
X92470070Y-74795230D01*
X92389350Y-74929910D01*
X92295820Y-75056030D01*
X92190370Y-75172370D01*
X92074030Y-75277820D01*
X91947910Y-75371350D01*
X91813230Y-75452070D01*
X91671290Y-75519210D01*
X91523460Y-75572100D01*
X91371140Y-75610260D01*
X91215830Y-75633300D01*
X91059000Y-75641000D01*
X90902170Y-75633300D01*
X90746860Y-75610260D01*
X90594540Y-75572100D01*
X90446710Y-75519210D01*
X90304770Y-75452070D01*
X90170090Y-75371350D01*
X90043970Y-75277820D01*
X89927630Y-75172370D01*
X89822180Y-75056030D01*
X89728650Y-74929910D01*
X89647930Y-74795230D01*
X89580790Y-74653290D01*
X89527900Y-74505460D01*
X89489740Y-74353140D01*
X89466700Y-74197830D01*
X89459000Y-74041000D01*
X89466700Y-73884170D01*
X89489740Y-73728860D01*
X89527900Y-73576540D01*
X89580790Y-73428710D01*
X89647930Y-73286770D01*
X89728650Y-73152090D01*
X89822180Y-73025970D01*
X89927630Y-72909630D01*
X90043970Y-72804180D01*
X90170090Y-72710650D01*
X90304770Y-72629930D01*
X90446710Y-72562790D01*
X90594540Y-72509900D01*
X90746860Y-72471740D01*
X90902170Y-72448700D01*
X91059000Y-72441000D01*
X91215830Y-72448700D01*
G37*
G36*
X84582000Y-85201000D02*
G01*
X76962000Y-85201000D01*
X76962000Y-83201000D01*
X84582000Y-83201000D01*
X84582000Y-85201000D01*
G37*
G36*
X120033310Y-97884090D02*
G01*
X120115830Y-97896330D01*
X120196740Y-97916600D01*
X120275280Y-97944700D01*
X120350690Y-97980370D01*
X120422230Y-98023250D01*
X120489230Y-98072940D01*
X120551040Y-98128960D01*
X120607060Y-98190770D01*
X120656750Y-98257770D01*
X120699630Y-98329310D01*
X120735300Y-98404720D01*
X120763400Y-98483260D01*
X120783670Y-98564170D01*
X120795910Y-98646690D01*
X120800000Y-98730000D01*
X120795910Y-98813310D01*
X120783670Y-98895830D01*
X120763400Y-98976740D01*
X120735300Y-99055280D01*
X120699630Y-99130690D01*
X120656750Y-99202230D01*
X120607060Y-99269230D01*
X120551040Y-99331040D01*
X120489230Y-99387060D01*
X120422230Y-99436750D01*
X120350690Y-99479630D01*
X120275280Y-99515300D01*
X120196740Y-99543400D01*
X120115830Y-99563670D01*
X120033310Y-99575910D01*
X119950000Y-99580000D01*
X119866690Y-99575910D01*
X119784170Y-99563670D01*
X119703260Y-99543400D01*
X119624720Y-99515300D01*
X119549310Y-99479630D01*
X119477770Y-99436750D01*
X119410770Y-99387060D01*
X119348960Y-99331040D01*
X119292940Y-99269230D01*
X119243250Y-99202230D01*
X119200370Y-99130690D01*
X119164700Y-99055280D01*
X119136600Y-98976740D01*
X119116330Y-98895830D01*
X119104090Y-98813310D01*
X119100000Y-98730000D01*
X119104090Y-98646690D01*
X119116330Y-98564170D01*
X119136600Y-98483260D01*
X119164700Y-98404720D01*
X119200370Y-98329310D01*
X119243250Y-98257770D01*
X119292940Y-98190770D01*
X119348960Y-98128960D01*
X119410770Y-98072940D01*
X119477770Y-98023250D01*
X119549310Y-97980370D01*
X119624720Y-97944700D01*
X119703260Y-97916600D01*
X119784170Y-97896330D01*
X119866690Y-97884090D01*
X119950000Y-97880000D01*
X120033310Y-97884090D01*
G37*
D11*
X107910000Y-70710000D02*
G75*
G02*
X106910000Y-70710000I-500000J0D01*
G01*
X106910000Y-70710000D02*
G75*
G02*
X107910000Y-70710000I500000J0D01*
G01*
D10*
G36*
X117493310Y-133444090D02*
G01*
X117575830Y-133456330D01*
X117656740Y-133476600D01*
X117735280Y-133504700D01*
X117810690Y-133540370D01*
X117882230Y-133583250D01*
X117949230Y-133632940D01*
X118011040Y-133688960D01*
X118067060Y-133750770D01*
X118116750Y-133817770D01*
X118159630Y-133889310D01*
X118195300Y-133964720D01*
X118223400Y-134043260D01*
X118243670Y-134124170D01*
X118255910Y-134206690D01*
X118260000Y-134290000D01*
X118255910Y-134373310D01*
X118243670Y-134455830D01*
X118223400Y-134536740D01*
X118195300Y-134615280D01*
X118159630Y-134690690D01*
X118116750Y-134762230D01*
X118067060Y-134829230D01*
X118011040Y-134891040D01*
X117949230Y-134947060D01*
X117882230Y-134996750D01*
X117810690Y-135039630D01*
X117735280Y-135075300D01*
X117656740Y-135103400D01*
X117575830Y-135123670D01*
X117493310Y-135135910D01*
X117410000Y-135140000D01*
X117326690Y-135135910D01*
X117244170Y-135123670D01*
X117163260Y-135103400D01*
X117084720Y-135075300D01*
X117009310Y-135039630D01*
X116937770Y-134996750D01*
X116870770Y-134947060D01*
X116808960Y-134891040D01*
X116752940Y-134829230D01*
X116703250Y-134762230D01*
X116660370Y-134690690D01*
X116624700Y-134615280D01*
X116596600Y-134536740D01*
X116576330Y-134455830D01*
X116564090Y-134373310D01*
X116560000Y-134290000D01*
X116564090Y-134206690D01*
X116576330Y-134124170D01*
X116596600Y-134043260D01*
X116624700Y-133964720D01*
X116660370Y-133889310D01*
X116703250Y-133817770D01*
X116752940Y-133750770D01*
X116808960Y-133688960D01*
X116870770Y-133632940D01*
X116937770Y-133583250D01*
X117009310Y-133540370D01*
X117084720Y-133504700D01*
X117163260Y-133476600D01*
X117244170Y-133456330D01*
X117326690Y-133444090D01*
X117410000Y-133440000D01*
X117493310Y-133444090D01*
G37*
G36*
X136460000Y-130921000D02*
G01*
X128840000Y-130921000D01*
X128840000Y-128921000D01*
X136460000Y-128921000D01*
X136460000Y-130921000D01*
G37*
G36*
X95592310Y-123284090D02*
G01*
X95674830Y-123296330D01*
X95755740Y-123316600D01*
X95834280Y-123344700D01*
X95909690Y-123380370D01*
X95981230Y-123423250D01*
X96048230Y-123472940D01*
X96110040Y-123528960D01*
X96166060Y-123590770D01*
X96215750Y-123657770D01*
X96258630Y-123729310D01*
X96294300Y-123804720D01*
X96322400Y-123883260D01*
X96342670Y-123964170D01*
X96354910Y-124046690D01*
X96359000Y-124130000D01*
X96354910Y-124213310D01*
X96342670Y-124295830D01*
X96322400Y-124376740D01*
X96294300Y-124455280D01*
X96258630Y-124530690D01*
X96215750Y-124602230D01*
X96166060Y-124669230D01*
X96110040Y-124731040D01*
X96048230Y-124787060D01*
X95981230Y-124836750D01*
X95909690Y-124879630D01*
X95834280Y-124915300D01*
X95755740Y-124943400D01*
X95674830Y-124963670D01*
X95592310Y-124975910D01*
X95509000Y-124980000D01*
X95425690Y-124975910D01*
X95343170Y-124963670D01*
X95262260Y-124943400D01*
X95183720Y-124915300D01*
X95108310Y-124879630D01*
X95036770Y-124836750D01*
X94969770Y-124787060D01*
X94907960Y-124731040D01*
X94851940Y-124669230D01*
X94802250Y-124602230D01*
X94759370Y-124530690D01*
X94723700Y-124455280D01*
X94695600Y-124376740D01*
X94675330Y-124295830D01*
X94663090Y-124213310D01*
X94659000Y-124130000D01*
X94663090Y-124046690D01*
X94675330Y-123964170D01*
X94695600Y-123883260D01*
X94723700Y-123804720D01*
X94759370Y-123729310D01*
X94802250Y-123657770D01*
X94851940Y-123590770D01*
X94907960Y-123528960D01*
X94969770Y-123472940D01*
X95036770Y-123423250D01*
X95108310Y-123380370D01*
X95183720Y-123344700D01*
X95262260Y-123316600D01*
X95343170Y-123296330D01*
X95425690Y-123284090D01*
X95509000Y-123280000D01*
X95592310Y-123284090D01*
G37*
G36*
X136460000Y-108061000D02*
G01*
X128840000Y-108061000D01*
X128840000Y-106061000D01*
X136460000Y-106061000D01*
X136460000Y-108061000D01*
G37*
D11*
X101410000Y-66210000D02*
G75*
G02*
X100410000Y-66210000I-500000J0D01*
G01*
X100410000Y-66210000D02*
G75*
G02*
X101410000Y-66210000I500000J0D01*
G01*
D10*
G36*
X84582000Y-110601000D02*
G01*
X76962000Y-110601000D01*
X76962000Y-108601000D01*
X84582000Y-108601000D01*
X84582000Y-110601000D01*
G37*
G36*
X84582000Y-72501000D02*
G01*
X76962000Y-72501000D01*
X76962000Y-70501000D01*
X84582000Y-70501000D01*
X84582000Y-72501000D01*
G37*
G36*
X93052310Y-105504090D02*
G01*
X93134830Y-105516330D01*
X93215740Y-105536600D01*
X93294280Y-105564700D01*
X93369690Y-105600370D01*
X93441230Y-105643250D01*
X93508230Y-105692940D01*
X93570040Y-105748960D01*
X93626060Y-105810770D01*
X93675750Y-105877770D01*
X93718630Y-105949310D01*
X93754300Y-106024720D01*
X93782400Y-106103260D01*
X93802670Y-106184170D01*
X93814910Y-106266690D01*
X93819000Y-106350000D01*
X93814910Y-106433310D01*
X93802670Y-106515830D01*
X93782400Y-106596740D01*
X93754300Y-106675280D01*
X93718630Y-106750690D01*
X93675750Y-106822230D01*
X93626060Y-106889230D01*
X93570040Y-106951040D01*
X93508230Y-107007060D01*
X93441230Y-107056750D01*
X93369690Y-107099630D01*
X93294280Y-107135300D01*
X93215740Y-107163400D01*
X93134830Y-107183670D01*
X93052310Y-107195910D01*
X92969000Y-107200000D01*
X92885690Y-107195910D01*
X92803170Y-107183670D01*
X92722260Y-107163400D01*
X92643720Y-107135300D01*
X92568310Y-107099630D01*
X92496770Y-107056750D01*
X92429770Y-107007060D01*
X92367960Y-106951040D01*
X92311940Y-106889230D01*
X92262250Y-106822230D01*
X92219370Y-106750690D01*
X92183700Y-106675280D01*
X92155600Y-106596740D01*
X92135330Y-106515830D01*
X92123090Y-106433310D01*
X92119000Y-106350000D01*
X92123090Y-106266690D01*
X92135330Y-106184170D01*
X92155600Y-106103260D01*
X92183700Y-106024720D01*
X92219370Y-105949310D01*
X92262250Y-105877770D01*
X92311940Y-105810770D01*
X92367960Y-105748960D01*
X92429770Y-105692940D01*
X92496770Y-105643250D01*
X92568310Y-105600370D01*
X92643720Y-105564700D01*
X92722260Y-105536600D01*
X92803170Y-105516330D01*
X92885690Y-105504090D01*
X92969000Y-105500000D01*
X93052310Y-105504090D01*
G37*
G36*
X95592310Y-105504090D02*
G01*
X95674830Y-105516330D01*
X95755740Y-105536600D01*
X95834280Y-105564700D01*
X95909690Y-105600370D01*
X95981230Y-105643250D01*
X96048230Y-105692940D01*
X96110040Y-105748960D01*
X96166060Y-105810770D01*
X96215750Y-105877770D01*
X96258630Y-105949310D01*
X96294300Y-106024720D01*
X96322400Y-106103260D01*
X96342670Y-106184170D01*
X96354910Y-106266690D01*
X96359000Y-106350000D01*
X96354910Y-106433310D01*
X96342670Y-106515830D01*
X96322400Y-106596740D01*
X96294300Y-106675280D01*
X96258630Y-106750690D01*
X96215750Y-106822230D01*
X96166060Y-106889230D01*
X96110040Y-106951040D01*
X96048230Y-107007060D01*
X95981230Y-107056750D01*
X95909690Y-107099630D01*
X95834280Y-107135300D01*
X95755740Y-107163400D01*
X95674830Y-107183670D01*
X95592310Y-107195910D01*
X95509000Y-107200000D01*
X95425690Y-107195910D01*
X95343170Y-107183670D01*
X95262260Y-107163400D01*
X95183720Y-107135300D01*
X95108310Y-107099630D01*
X95036770Y-107056750D01*
X94969770Y-107007060D01*
X94907960Y-106951040D01*
X94851940Y-106889230D01*
X94802250Y-106822230D01*
X94759370Y-106750690D01*
X94723700Y-106675280D01*
X94695600Y-106596740D01*
X94675330Y-106515830D01*
X94663090Y-106433310D01*
X94659000Y-106350000D01*
X94663090Y-106266690D01*
X94675330Y-106184170D01*
X94695600Y-106103260D01*
X94723700Y-106024720D01*
X94759370Y-105949310D01*
X94802250Y-105877770D01*
X94851940Y-105810770D01*
X94907960Y-105748960D01*
X94969770Y-105692940D01*
X95036770Y-105643250D01*
X95108310Y-105600370D01*
X95183720Y-105564700D01*
X95262260Y-105536600D01*
X95343170Y-105516330D01*
X95425690Y-105504090D01*
X95509000Y-105500000D01*
X95592310Y-105504090D01*
G37*
G36*
X136460000Y-125841000D02*
G01*
X128840000Y-125841000D01*
X128840000Y-123841000D01*
X136460000Y-123841000D01*
X136460000Y-125841000D01*
G37*
G36*
X136460000Y-82661000D02*
G01*
X128840000Y-82661000D01*
X128840000Y-80661000D01*
X136460000Y-80661000D01*
X136460000Y-82661000D01*
G37*
G36*
X136460000Y-87741000D02*
G01*
X128840000Y-87741000D01*
X128840000Y-85741000D01*
X136460000Y-85741000D01*
X136460000Y-87741000D01*
G37*
G36*
X117493310Y-102964090D02*
G01*
X117575830Y-102976330D01*
X117656740Y-102996600D01*
X117735280Y-103024700D01*
X117810690Y-103060370D01*
X117882230Y-103103250D01*
X117949230Y-103152940D01*
X118011040Y-103208960D01*
X118067060Y-103270770D01*
X118116750Y-103337770D01*
X118159630Y-103409310D01*
X118195300Y-103484720D01*
X118223400Y-103563260D01*
X118243670Y-103644170D01*
X118255910Y-103726690D01*
X118260000Y-103810000D01*
X118255910Y-103893310D01*
X118243670Y-103975830D01*
X118223400Y-104056740D01*
X118195300Y-104135280D01*
X118159630Y-104210690D01*
X118116750Y-104282230D01*
X118067060Y-104349230D01*
X118011040Y-104411040D01*
X117949230Y-104467060D01*
X117882230Y-104516750D01*
X117810690Y-104559630D01*
X117735280Y-104595300D01*
X117656740Y-104623400D01*
X117575830Y-104643670D01*
X117493310Y-104655910D01*
X117410000Y-104660000D01*
X117326690Y-104655910D01*
X117244170Y-104643670D01*
X117163260Y-104623400D01*
X117084720Y-104595300D01*
X117009310Y-104559630D01*
X116937770Y-104516750D01*
X116870770Y-104467060D01*
X116808960Y-104411040D01*
X116752940Y-104349230D01*
X116703250Y-104282230D01*
X116660370Y-104210690D01*
X116624700Y-104135280D01*
X116596600Y-104056740D01*
X116576330Y-103975830D01*
X116564090Y-103893310D01*
X116560000Y-103810000D01*
X116564090Y-103726690D01*
X116576330Y-103644170D01*
X116596600Y-103563260D01*
X116624700Y-103484720D01*
X116660370Y-103409310D01*
X116703250Y-103337770D01*
X116752940Y-103270770D01*
X116808960Y-103208960D01*
X116870770Y-103152940D01*
X116937770Y-103103250D01*
X117009310Y-103060370D01*
X117084720Y-103024700D01*
X117163260Y-102996600D01*
X117244170Y-102976330D01*
X117326690Y-102964090D01*
X117410000Y-102960000D01*
X117493310Y-102964090D01*
G37*
G36*
X95592310Y-128364090D02*
G01*
X95674830Y-128376330D01*
X95755740Y-128396600D01*
X95834280Y-128424700D01*
X95909690Y-128460370D01*
X95981230Y-128503250D01*
X96048230Y-128552940D01*
X96110040Y-128608960D01*
X96166060Y-128670770D01*
X96215750Y-128737770D01*
X96258630Y-128809310D01*
X96294300Y-128884720D01*
X96322400Y-128963260D01*
X96342670Y-129044170D01*
X96354910Y-129126690D01*
X96359000Y-129210000D01*
X96354910Y-129293310D01*
X96342670Y-129375830D01*
X96322400Y-129456740D01*
X96294300Y-129535280D01*
X96258630Y-129610690D01*
X96215750Y-129682230D01*
X96166060Y-129749230D01*
X96110040Y-129811040D01*
X96048230Y-129867060D01*
X95981230Y-129916750D01*
X95909690Y-129959630D01*
X95834280Y-129995300D01*
X95755740Y-130023400D01*
X95674830Y-130043670D01*
X95592310Y-130055910D01*
X95509000Y-130060000D01*
X95425690Y-130055910D01*
X95343170Y-130043670D01*
X95262260Y-130023400D01*
X95183720Y-129995300D01*
X95108310Y-129959630D01*
X95036770Y-129916750D01*
X94969770Y-129867060D01*
X94907960Y-129811040D01*
X94851940Y-129749230D01*
X94802250Y-129682230D01*
X94759370Y-129610690D01*
X94723700Y-129535280D01*
X94695600Y-129456740D01*
X94675330Y-129375830D01*
X94663090Y-129293310D01*
X94659000Y-129210000D01*
X94663090Y-129126690D01*
X94675330Y-129044170D01*
X94695600Y-128963260D01*
X94723700Y-128884720D01*
X94759370Y-128809310D01*
X94802250Y-128737770D01*
X94851940Y-128670770D01*
X94907960Y-128608960D01*
X94969770Y-128552940D01*
X95036770Y-128503250D01*
X95108310Y-128460370D01*
X95183720Y-128424700D01*
X95262260Y-128396600D01*
X95343170Y-128376330D01*
X95425690Y-128364090D01*
X95509000Y-128360000D01*
X95592310Y-128364090D01*
G37*
G36*
X84582000Y-108061000D02*
G01*
X76962000Y-108061000D01*
X76962000Y-106061000D01*
X84582000Y-106061000D01*
X84582000Y-108061000D01*
G37*
G36*
X84582000Y-82661000D02*
G01*
X76962000Y-82661000D01*
X76962000Y-80661000D01*
X84582000Y-80661000D01*
X84582000Y-82661000D01*
G37*
G36*
X117493310Y-125824090D02*
G01*
X117575830Y-125836330D01*
X117656740Y-125856600D01*
X117735280Y-125884700D01*
X117810690Y-125920370D01*
X117882230Y-125963250D01*
X117949230Y-126012940D01*
X118011040Y-126068960D01*
X118067060Y-126130770D01*
X118116750Y-126197770D01*
X118159630Y-126269310D01*
X118195300Y-126344720D01*
X118223400Y-126423260D01*
X118243670Y-126504170D01*
X118255910Y-126586690D01*
X118260000Y-126670000D01*
X118255910Y-126753310D01*
X118243670Y-126835830D01*
X118223400Y-126916740D01*
X118195300Y-126995280D01*
X118159630Y-127070690D01*
X118116750Y-127142230D01*
X118067060Y-127209230D01*
X118011040Y-127271040D01*
X117949230Y-127327060D01*
X117882230Y-127376750D01*
X117810690Y-127419630D01*
X117735280Y-127455300D01*
X117656740Y-127483400D01*
X117575830Y-127503670D01*
X117493310Y-127515910D01*
X117410000Y-127520000D01*
X117326690Y-127515910D01*
X117244170Y-127503670D01*
X117163260Y-127483400D01*
X117084720Y-127455300D01*
X117009310Y-127419630D01*
X116937770Y-127376750D01*
X116870770Y-127327060D01*
X116808960Y-127271040D01*
X116752940Y-127209230D01*
X116703250Y-127142230D01*
X116660370Y-127070690D01*
X116624700Y-126995280D01*
X116596600Y-126916740D01*
X116576330Y-126835830D01*
X116564090Y-126753310D01*
X116560000Y-126670000D01*
X116564090Y-126586690D01*
X116576330Y-126504170D01*
X116596600Y-126423260D01*
X116624700Y-126344720D01*
X116660370Y-126269310D01*
X116703250Y-126197770D01*
X116752940Y-126130770D01*
X116808960Y-126068960D01*
X116870770Y-126012940D01*
X116937770Y-125963250D01*
X117009310Y-125920370D01*
X117084720Y-125884700D01*
X117163260Y-125856600D01*
X117244170Y-125836330D01*
X117326690Y-125824090D01*
X117410000Y-125820000D01*
X117493310Y-125824090D01*
G37*
G36*
X95592310Y-95344090D02*
G01*
X95674830Y-95356330D01*
X95755740Y-95376600D01*
X95834280Y-95404700D01*
X95909690Y-95440370D01*
X95981230Y-95483250D01*
X96048230Y-95532940D01*
X96110040Y-95588960D01*
X96166060Y-95650770D01*
X96215750Y-95717770D01*
X96258630Y-95789310D01*
X96294300Y-95864720D01*
X96322400Y-95943260D01*
X96342670Y-96024170D01*
X96354910Y-96106690D01*
X96359000Y-96190000D01*
X96354910Y-96273310D01*
X96342670Y-96355830D01*
X96322400Y-96436740D01*
X96294300Y-96515280D01*
X96258630Y-96590690D01*
X96215750Y-96662230D01*
X96166060Y-96729230D01*
X96110040Y-96791040D01*
X96048230Y-96847060D01*
X95981230Y-96896750D01*
X95909690Y-96939630D01*
X95834280Y-96975300D01*
X95755740Y-97003400D01*
X95674830Y-97023670D01*
X95592310Y-97035910D01*
X95509000Y-97040000D01*
X95425690Y-97035910D01*
X95343170Y-97023670D01*
X95262260Y-97003400D01*
X95183720Y-96975300D01*
X95108310Y-96939630D01*
X95036770Y-96896750D01*
X94969770Y-96847060D01*
X94907960Y-96791040D01*
X94851940Y-96729230D01*
X94802250Y-96662230D01*
X94759370Y-96590690D01*
X94723700Y-96515280D01*
X94695600Y-96436740D01*
X94675330Y-96355830D01*
X94663090Y-96273310D01*
X94659000Y-96190000D01*
X94663090Y-96106690D01*
X94675330Y-96024170D01*
X94695600Y-95943260D01*
X94723700Y-95864720D01*
X94759370Y-95789310D01*
X94802250Y-95717770D01*
X94851940Y-95650770D01*
X94907960Y-95588960D01*
X94969770Y-95532940D01*
X95036770Y-95483250D01*
X95108310Y-95440370D01*
X95183720Y-95404700D01*
X95262260Y-95376600D01*
X95343170Y-95356330D01*
X95425690Y-95344090D01*
X95509000Y-95340000D01*
X95592310Y-95344090D01*
G37*
G36*
X84582000Y-113141000D02*
G01*
X76962000Y-113141000D01*
X76962000Y-111141000D01*
X84582000Y-111141000D01*
X84582000Y-113141000D01*
G37*
G36*
X84582000Y-97901000D02*
G01*
X76962000Y-97901000D01*
X76962000Y-95901000D01*
X84582000Y-95901000D01*
X84582000Y-97901000D01*
G37*
G36*
X84582000Y-105521000D02*
G01*
X76962000Y-105521000D01*
X76962000Y-103521000D01*
X84582000Y-103521000D01*
X84582000Y-105521000D01*
G37*
G36*
X136460000Y-118221000D02*
G01*
X128840000Y-118221000D01*
X128840000Y-116221000D01*
X136460000Y-116221000D01*
X136460000Y-118221000D01*
G37*
G36*
X136460000Y-120761000D02*
G01*
X128840000Y-120761000D01*
X128840000Y-118761000D01*
X136460000Y-118761000D01*
X136460000Y-120761000D01*
G37*
G36*
X120033310Y-125824090D02*
G01*
X120115830Y-125836330D01*
X120196740Y-125856600D01*
X120275280Y-125884700D01*
X120350690Y-125920370D01*
X120422230Y-125963250D01*
X120489230Y-126012940D01*
X120551040Y-126068960D01*
X120607060Y-126130770D01*
X120656750Y-126197770D01*
X120699630Y-126269310D01*
X120735300Y-126344720D01*
X120763400Y-126423260D01*
X120783670Y-126504170D01*
X120795910Y-126586690D01*
X120800000Y-126670000D01*
X120795910Y-126753310D01*
X120783670Y-126835830D01*
X120763400Y-126916740D01*
X120735300Y-126995280D01*
X120699630Y-127070690D01*
X120656750Y-127142230D01*
X120607060Y-127209230D01*
X120551040Y-127271040D01*
X120489230Y-127327060D01*
X120422230Y-127376750D01*
X120350690Y-127419630D01*
X120275280Y-127455300D01*
X120196740Y-127483400D01*
X120115830Y-127503670D01*
X120033310Y-127515910D01*
X119950000Y-127520000D01*
X119866690Y-127515910D01*
X119784170Y-127503670D01*
X119703260Y-127483400D01*
X119624720Y-127455300D01*
X119549310Y-127419630D01*
X119477770Y-127376750D01*
X119410770Y-127327060D01*
X119348960Y-127271040D01*
X119292940Y-127209230D01*
X119243250Y-127142230D01*
X119200370Y-127070690D01*
X119164700Y-126995280D01*
X119136600Y-126916740D01*
X119116330Y-126835830D01*
X119104090Y-126753310D01*
X119100000Y-126670000D01*
X119104090Y-126586690D01*
X119116330Y-126504170D01*
X119136600Y-126423260D01*
X119164700Y-126344720D01*
X119200370Y-126269310D01*
X119243250Y-126197770D01*
X119292940Y-126130770D01*
X119348960Y-126068960D01*
X119410770Y-126012940D01*
X119477770Y-125963250D01*
X119549310Y-125920370D01*
X119624720Y-125884700D01*
X119703260Y-125856600D01*
X119784170Y-125836330D01*
X119866690Y-125824090D01*
X119950000Y-125820000D01*
X120033310Y-125824090D01*
G37*
G36*
X136460000Y-115681000D02*
G01*
X128840000Y-115681000D01*
X128840000Y-113681000D01*
X136460000Y-113681000D01*
X136460000Y-115681000D01*
G37*
G36*
X93052310Y-115664090D02*
G01*
X93134830Y-115676330D01*
X93215740Y-115696600D01*
X93294280Y-115724700D01*
X93369690Y-115760370D01*
X93441230Y-115803250D01*
X93508230Y-115852940D01*
X93570040Y-115908960D01*
X93626060Y-115970770D01*
X93675750Y-116037770D01*
X93718630Y-116109310D01*
X93754300Y-116184720D01*
X93782400Y-116263260D01*
X93802670Y-116344170D01*
X93814910Y-116426690D01*
X93819000Y-116510000D01*
X93814910Y-116593310D01*
X93802670Y-116675830D01*
X93782400Y-116756740D01*
X93754300Y-116835280D01*
X93718630Y-116910690D01*
X93675750Y-116982230D01*
X93626060Y-117049230D01*
X93570040Y-117111040D01*
X93508230Y-117167060D01*
X93441230Y-117216750D01*
X93369690Y-117259630D01*
X93294280Y-117295300D01*
X93215740Y-117323400D01*
X93134830Y-117343670D01*
X93052310Y-117355910D01*
X92969000Y-117360000D01*
X92885690Y-117355910D01*
X92803170Y-117343670D01*
X92722260Y-117323400D01*
X92643720Y-117295300D01*
X92568310Y-117259630D01*
X92496770Y-117216750D01*
X92429770Y-117167060D01*
X92367960Y-117111040D01*
X92311940Y-117049230D01*
X92262250Y-116982230D01*
X92219370Y-116910690D01*
X92183700Y-116835280D01*
X92155600Y-116756740D01*
X92135330Y-116675830D01*
X92123090Y-116593310D01*
X92119000Y-116510000D01*
X92123090Y-116426690D01*
X92135330Y-116344170D01*
X92155600Y-116263260D01*
X92183700Y-116184720D01*
X92219370Y-116109310D01*
X92262250Y-116037770D01*
X92311940Y-115970770D01*
X92367960Y-115908960D01*
X92429770Y-115852940D01*
X92496770Y-115803250D01*
X92568310Y-115760370D01*
X92643720Y-115724700D01*
X92722260Y-115696600D01*
X92803170Y-115676330D01*
X92885690Y-115664090D01*
X92969000Y-115660000D01*
X93052310Y-115664090D01*
G37*
G36*
X95592310Y-97884090D02*
G01*
X95674830Y-97896330D01*
X95755740Y-97916600D01*
X95834280Y-97944700D01*
X95909690Y-97980370D01*
X95981230Y-98023250D01*
X96048230Y-98072940D01*
X96110040Y-98128960D01*
X96166060Y-98190770D01*
X96215750Y-98257770D01*
X96258630Y-98329310D01*
X96294300Y-98404720D01*
X96322400Y-98483260D01*
X96342670Y-98564170D01*
X96354910Y-98646690D01*
X96359000Y-98730000D01*
X96354910Y-98813310D01*
X96342670Y-98895830D01*
X96322400Y-98976740D01*
X96294300Y-99055280D01*
X96258630Y-99130690D01*
X96215750Y-99202230D01*
X96166060Y-99269230D01*
X96110040Y-99331040D01*
X96048230Y-99387060D01*
X95981230Y-99436750D01*
X95909690Y-99479630D01*
X95834280Y-99515300D01*
X95755740Y-99543400D01*
X95674830Y-99563670D01*
X95592310Y-99575910D01*
X95509000Y-99580000D01*
X95425690Y-99575910D01*
X95343170Y-99563670D01*
X95262260Y-99543400D01*
X95183720Y-99515300D01*
X95108310Y-99479630D01*
X95036770Y-99436750D01*
X94969770Y-99387060D01*
X94907960Y-99331040D01*
X94851940Y-99269230D01*
X94802250Y-99202230D01*
X94759370Y-99130690D01*
X94723700Y-99055280D01*
X94695600Y-98976740D01*
X94675330Y-98895830D01*
X94663090Y-98813310D01*
X94659000Y-98730000D01*
X94663090Y-98646690D01*
X94675330Y-98564170D01*
X94695600Y-98483260D01*
X94723700Y-98404720D01*
X94759370Y-98329310D01*
X94802250Y-98257770D01*
X94851940Y-98190770D01*
X94907960Y-98128960D01*
X94969770Y-98072940D01*
X95036770Y-98023250D01*
X95108310Y-97980370D01*
X95183720Y-97944700D01*
X95262260Y-97916600D01*
X95343170Y-97896330D01*
X95425690Y-97884090D01*
X95509000Y-97880000D01*
X95592310Y-97884090D01*
G37*
G36*
X95592310Y-102964090D02*
G01*
X95674830Y-102976330D01*
X95755740Y-102996600D01*
X95834280Y-103024700D01*
X95909690Y-103060370D01*
X95981230Y-103103250D01*
X96048230Y-103152940D01*
X96110040Y-103208960D01*
X96166060Y-103270770D01*
X96215750Y-103337770D01*
X96258630Y-103409310D01*
X96294300Y-103484720D01*
X96322400Y-103563260D01*
X96342670Y-103644170D01*
X96354910Y-103726690D01*
X96359000Y-103810000D01*
X96354910Y-103893310D01*
X96342670Y-103975830D01*
X96322400Y-104056740D01*
X96294300Y-104135280D01*
X96258630Y-104210690D01*
X96215750Y-104282230D01*
X96166060Y-104349230D01*
X96110040Y-104411040D01*
X96048230Y-104467060D01*
X95981230Y-104516750D01*
X95909690Y-104559630D01*
X95834280Y-104595300D01*
X95755740Y-104623400D01*
X95674830Y-104643670D01*
X95592310Y-104655910D01*
X95509000Y-104660000D01*
X95425690Y-104655910D01*
X95343170Y-104643670D01*
X95262260Y-104623400D01*
X95183720Y-104595300D01*
X95108310Y-104559630D01*
X95036770Y-104516750D01*
X94969770Y-104467060D01*
X94907960Y-104411040D01*
X94851940Y-104349230D01*
X94802250Y-104282230D01*
X94759370Y-104210690D01*
X94723700Y-104135280D01*
X94695600Y-104056740D01*
X94675330Y-103975830D01*
X94663090Y-103893310D01*
X94659000Y-103810000D01*
X94663090Y-103726690D01*
X94675330Y-103644170D01*
X94695600Y-103563260D01*
X94723700Y-103484720D01*
X94759370Y-103409310D01*
X94802250Y-103337770D01*
X94851940Y-103270770D01*
X94907960Y-103208960D01*
X94969770Y-103152940D01*
X95036770Y-103103250D01*
X95108310Y-103060370D01*
X95183720Y-103024700D01*
X95262260Y-102996600D01*
X95343170Y-102976330D01*
X95425690Y-102964090D01*
X95509000Y-102960000D01*
X95592310Y-102964090D01*
G37*
G36*
X84582000Y-130921000D02*
G01*
X76962000Y-130921000D01*
X76962000Y-128921000D01*
X84582000Y-128921000D01*
X84582000Y-130921000D01*
G37*
G36*
X93052310Y-113124090D02*
G01*
X93134830Y-113136330D01*
X93215740Y-113156600D01*
X93294280Y-113184700D01*
X93369690Y-113220370D01*
X93441230Y-113263250D01*
X93508230Y-113312940D01*
X93570040Y-113368960D01*
X93626060Y-113430770D01*
X93675750Y-113497770D01*
X93718630Y-113569310D01*
X93754300Y-113644720D01*
X93782400Y-113723260D01*
X93802670Y-113804170D01*
X93814910Y-113886690D01*
X93819000Y-113970000D01*
X93814910Y-114053310D01*
X93802670Y-114135830D01*
X93782400Y-114216740D01*
X93754300Y-114295280D01*
X93718630Y-114370690D01*
X93675750Y-114442230D01*
X93626060Y-114509230D01*
X93570040Y-114571040D01*
X93508230Y-114627060D01*
X93441230Y-114676750D01*
X93369690Y-114719630D01*
X93294280Y-114755300D01*
X93215740Y-114783400D01*
X93134830Y-114803670D01*
X93052310Y-114815910D01*
X92969000Y-114820000D01*
X92885690Y-114815910D01*
X92803170Y-114803670D01*
X92722260Y-114783400D01*
X92643720Y-114755300D01*
X92568310Y-114719630D01*
X92496770Y-114676750D01*
X92429770Y-114627060D01*
X92367960Y-114571040D01*
X92311940Y-114509230D01*
X92262250Y-114442230D01*
X92219370Y-114370690D01*
X92183700Y-114295280D01*
X92155600Y-114216740D01*
X92135330Y-114135830D01*
X92123090Y-114053310D01*
X92119000Y-113970000D01*
X92123090Y-113886690D01*
X92135330Y-113804170D01*
X92155600Y-113723260D01*
X92183700Y-113644720D01*
X92219370Y-113569310D01*
X92262250Y-113497770D01*
X92311940Y-113430770D01*
X92367960Y-113368960D01*
X92429770Y-113312940D01*
X92496770Y-113263250D01*
X92568310Y-113220370D01*
X92643720Y-113184700D01*
X92722260Y-113156600D01*
X92803170Y-113136330D01*
X92885690Y-113124090D01*
X92969000Y-113120000D01*
X93052310Y-113124090D01*
G37*
G36*
X84582000Y-95361000D02*
G01*
X76962000Y-95361000D01*
X76962000Y-93361000D01*
X84582000Y-93361000D01*
X84582000Y-95361000D01*
G37*
G36*
X120033310Y-130904090D02*
G01*
X120115830Y-130916330D01*
X120196740Y-130936600D01*
X120275280Y-130964700D01*
X120350690Y-131000370D01*
X120422230Y-131043250D01*
X120489230Y-131092940D01*
X120551040Y-131148960D01*
X120607060Y-131210770D01*
X120656750Y-131277770D01*
X120699630Y-131349310D01*
X120735300Y-131424720D01*
X120763400Y-131503260D01*
X120783670Y-131584170D01*
X120795910Y-131666690D01*
X120800000Y-131750000D01*
X120795910Y-131833310D01*
X120783670Y-131915830D01*
X120763400Y-131996740D01*
X120735300Y-132075280D01*
X120699630Y-132150690D01*
X120656750Y-132222230D01*
X120607060Y-132289230D01*
X120551040Y-132351040D01*
X120489230Y-132407060D01*
X120422230Y-132456750D01*
X120350690Y-132499630D01*
X120275280Y-132535300D01*
X120196740Y-132563400D01*
X120115830Y-132583670D01*
X120033310Y-132595910D01*
X119950000Y-132600000D01*
X119866690Y-132595910D01*
X119784170Y-132583670D01*
X119703260Y-132563400D01*
X119624720Y-132535300D01*
X119549310Y-132499630D01*
X119477770Y-132456750D01*
X119410770Y-132407060D01*
X119348960Y-132351040D01*
X119292940Y-132289230D01*
X119243250Y-132222230D01*
X119200370Y-132150690D01*
X119164700Y-132075280D01*
X119136600Y-131996740D01*
X119116330Y-131915830D01*
X119104090Y-131833310D01*
X119100000Y-131750000D01*
X119104090Y-131666690D01*
X119116330Y-131584170D01*
X119136600Y-131503260D01*
X119164700Y-131424720D01*
X119200370Y-131349310D01*
X119243250Y-131277770D01*
X119292940Y-131210770D01*
X119348960Y-131148960D01*
X119410770Y-131092940D01*
X119477770Y-131043250D01*
X119549310Y-131000370D01*
X119624720Y-130964700D01*
X119703260Y-130936600D01*
X119784170Y-130916330D01*
X119866690Y-130904090D01*
X119950000Y-130900000D01*
X120033310Y-130904090D01*
G37*
G36*
X136460000Y-69961000D02*
G01*
X128840000Y-69961000D01*
X128840000Y-67961000D01*
X136460000Y-67961000D01*
X136460000Y-69961000D01*
G37*
G36*
X84582000Y-120761000D02*
G01*
X76962000Y-120761000D01*
X76962000Y-118761000D01*
X84582000Y-118761000D01*
X84582000Y-120761000D01*
G37*
G36*
X136460000Y-105521000D02*
G01*
X128840000Y-105521000D01*
X128840000Y-103521000D01*
X136460000Y-103521000D01*
X136460000Y-105521000D01*
G37*
G36*
X136460000Y-92821000D02*
G01*
X128840000Y-92821000D01*
X128840000Y-90821000D01*
X136460000Y-90821000D01*
X136460000Y-92821000D01*
G37*
G36*
X117493310Y-100424090D02*
G01*
X117575830Y-100436330D01*
X117656740Y-100456600D01*
X117735280Y-100484700D01*
X117810690Y-100520370D01*
X117882230Y-100563250D01*
X117949230Y-100612940D01*
X118011040Y-100668960D01*
X118067060Y-100730770D01*
X118116750Y-100797770D01*
X118159630Y-100869310D01*
X118195300Y-100944720D01*
X118223400Y-101023260D01*
X118243670Y-101104170D01*
X118255910Y-101186690D01*
X118260000Y-101270000D01*
X118255910Y-101353310D01*
X118243670Y-101435830D01*
X118223400Y-101516740D01*
X118195300Y-101595280D01*
X118159630Y-101670690D01*
X118116750Y-101742230D01*
X118067060Y-101809230D01*
X118011040Y-101871040D01*
X117949230Y-101927060D01*
X117882230Y-101976750D01*
X117810690Y-102019630D01*
X117735280Y-102055300D01*
X117656740Y-102083400D01*
X117575830Y-102103670D01*
X117493310Y-102115910D01*
X117410000Y-102120000D01*
X117326690Y-102115910D01*
X117244170Y-102103670D01*
X117163260Y-102083400D01*
X117084720Y-102055300D01*
X117009310Y-102019630D01*
X116937770Y-101976750D01*
X116870770Y-101927060D01*
X116808960Y-101871040D01*
X116752940Y-101809230D01*
X116703250Y-101742230D01*
X116660370Y-101670690D01*
X116624700Y-101595280D01*
X116596600Y-101516740D01*
X116576330Y-101435830D01*
X116564090Y-101353310D01*
X116560000Y-101270000D01*
X116564090Y-101186690D01*
X116576330Y-101104170D01*
X116596600Y-101023260D01*
X116624700Y-100944720D01*
X116660370Y-100869310D01*
X116703250Y-100797770D01*
X116752940Y-100730770D01*
X116808960Y-100668960D01*
X116870770Y-100612940D01*
X116937770Y-100563250D01*
X117009310Y-100520370D01*
X117084720Y-100484700D01*
X117163260Y-100456600D01*
X117244170Y-100436330D01*
X117326690Y-100424090D01*
X117410000Y-100420000D01*
X117493310Y-100424090D01*
G37*
G36*
X120033310Y-113124090D02*
G01*
X120115830Y-113136330D01*
X120196740Y-113156600D01*
X120275280Y-113184700D01*
X120350690Y-113220370D01*
X120422230Y-113263250D01*
X120489230Y-113312940D01*
X120551040Y-113368960D01*
X120607060Y-113430770D01*
X120656750Y-113497770D01*
X120699630Y-113569310D01*
X120735300Y-113644720D01*
X120763400Y-113723260D01*
X120783670Y-113804170D01*
X120795910Y-113886690D01*
X120800000Y-113970000D01*
X120795910Y-114053310D01*
X120783670Y-114135830D01*
X120763400Y-114216740D01*
X120735300Y-114295280D01*
X120699630Y-114370690D01*
X120656750Y-114442230D01*
X120607060Y-114509230D01*
X120551040Y-114571040D01*
X120489230Y-114627060D01*
X120422230Y-114676750D01*
X120350690Y-114719630D01*
X120275280Y-114755300D01*
X120196740Y-114783400D01*
X120115830Y-114803670D01*
X120033310Y-114815910D01*
X119950000Y-114820000D01*
X119866690Y-114815910D01*
X119784170Y-114803670D01*
X119703260Y-114783400D01*
X119624720Y-114755300D01*
X119549310Y-114719630D01*
X119477770Y-114676750D01*
X119410770Y-114627060D01*
X119348960Y-114571040D01*
X119292940Y-114509230D01*
X119243250Y-114442230D01*
X119200370Y-114370690D01*
X119164700Y-114295280D01*
X119136600Y-114216740D01*
X119116330Y-114135830D01*
X119104090Y-114053310D01*
X119100000Y-113970000D01*
X119104090Y-113886690D01*
X119116330Y-113804170D01*
X119136600Y-113723260D01*
X119164700Y-113644720D01*
X119200370Y-113569310D01*
X119243250Y-113497770D01*
X119292940Y-113430770D01*
X119348960Y-113368960D01*
X119410770Y-113312940D01*
X119477770Y-113263250D01*
X119549310Y-113220370D01*
X119624720Y-113184700D01*
X119703260Y-113156600D01*
X119784170Y-113136330D01*
X119866690Y-113124090D01*
X119950000Y-113120000D01*
X120033310Y-113124090D01*
G37*
G36*
X136460000Y-97901000D02*
G01*
X128840000Y-97901000D01*
X128840000Y-95901000D01*
X136460000Y-95901000D01*
X136460000Y-97901000D01*
G37*
G36*
X117493310Y-97884090D02*
G01*
X117575830Y-97896330D01*
X117656740Y-97916600D01*
X117735280Y-97944700D01*
X117810690Y-97980370D01*
X117882230Y-98023250D01*
X117949230Y-98072940D01*
X118011040Y-98128960D01*
X118067060Y-98190770D01*
X118116750Y-98257770D01*
X118159630Y-98329310D01*
X118195300Y-98404720D01*
X118223400Y-98483260D01*
X118243670Y-98564170D01*
X118255910Y-98646690D01*
X118260000Y-98730000D01*
X118255910Y-98813310D01*
X118243670Y-98895830D01*
X118223400Y-98976740D01*
X118195300Y-99055280D01*
X118159630Y-99130690D01*
X118116750Y-99202230D01*
X118067060Y-99269230D01*
X118011040Y-99331040D01*
X117949230Y-99387060D01*
X117882230Y-99436750D01*
X117810690Y-99479630D01*
X117735280Y-99515300D01*
X117656740Y-99543400D01*
X117575830Y-99563670D01*
X117493310Y-99575910D01*
X117410000Y-99580000D01*
X117326690Y-99575910D01*
X117244170Y-99563670D01*
X117163260Y-99543400D01*
X117084720Y-99515300D01*
X117009310Y-99479630D01*
X116937770Y-99436750D01*
X116870770Y-99387060D01*
X116808960Y-99331040D01*
X116752940Y-99269230D01*
X116703250Y-99202230D01*
X116660370Y-99130690D01*
X116624700Y-99055280D01*
X116596600Y-98976740D01*
X116576330Y-98895830D01*
X116564090Y-98813310D01*
X116560000Y-98730000D01*
X116564090Y-98646690D01*
X116576330Y-98564170D01*
X116596600Y-98483260D01*
X116624700Y-98404720D01*
X116660370Y-98329310D01*
X116703250Y-98257770D01*
X116752940Y-98190770D01*
X116808960Y-98128960D01*
X116870770Y-98072940D01*
X116937770Y-98023250D01*
X117009310Y-97980370D01*
X117084720Y-97944700D01*
X117163260Y-97916600D01*
X117244170Y-97896330D01*
X117326690Y-97884090D01*
X117410000Y-97880000D01*
X117493310Y-97884090D01*
G37*
G36*
X93052310Y-108044090D02*
G01*
X93134830Y-108056330D01*
X93215740Y-108076600D01*
X93294280Y-108104700D01*
X93369690Y-108140370D01*
X93441230Y-108183250D01*
X93508230Y-108232940D01*
X93570040Y-108288960D01*
X93626060Y-108350770D01*
X93675750Y-108417770D01*
X93718630Y-108489310D01*
X93754300Y-108564720D01*
X93782400Y-108643260D01*
X93802670Y-108724170D01*
X93814910Y-108806690D01*
X93819000Y-108890000D01*
X93814910Y-108973310D01*
X93802670Y-109055830D01*
X93782400Y-109136740D01*
X93754300Y-109215280D01*
X93718630Y-109290690D01*
X93675750Y-109362230D01*
X93626060Y-109429230D01*
X93570040Y-109491040D01*
X93508230Y-109547060D01*
X93441230Y-109596750D01*
X93369690Y-109639630D01*
X93294280Y-109675300D01*
X93215740Y-109703400D01*
X93134830Y-109723670D01*
X93052310Y-109735910D01*
X92969000Y-109740000D01*
X92885690Y-109735910D01*
X92803170Y-109723670D01*
X92722260Y-109703400D01*
X92643720Y-109675300D01*
X92568310Y-109639630D01*
X92496770Y-109596750D01*
X92429770Y-109547060D01*
X92367960Y-109491040D01*
X92311940Y-109429230D01*
X92262250Y-109362230D01*
X92219370Y-109290690D01*
X92183700Y-109215280D01*
X92155600Y-109136740D01*
X92135330Y-109055830D01*
X92123090Y-108973310D01*
X92119000Y-108890000D01*
X92123090Y-108806690D01*
X92135330Y-108724170D01*
X92155600Y-108643260D01*
X92183700Y-108564720D01*
X92219370Y-108489310D01*
X92262250Y-108417770D01*
X92311940Y-108350770D01*
X92367960Y-108288960D01*
X92429770Y-108232940D01*
X92496770Y-108183250D01*
X92568310Y-108140370D01*
X92643720Y-108104700D01*
X92722260Y-108076600D01*
X92803170Y-108056330D01*
X92885690Y-108044090D01*
X92969000Y-108040000D01*
X93052310Y-108044090D01*
G37*
G36*
X93052310Y-123284090D02*
G01*
X93134830Y-123296330D01*
X93215740Y-123316600D01*
X93294280Y-123344700D01*
X93369690Y-123380370D01*
X93441230Y-123423250D01*
X93508230Y-123472940D01*
X93570040Y-123528960D01*
X93626060Y-123590770D01*
X93675750Y-123657770D01*
X93718630Y-123729310D01*
X93754300Y-123804720D01*
X93782400Y-123883260D01*
X93802670Y-123964170D01*
X93814910Y-124046690D01*
X93819000Y-124130000D01*
X93814910Y-124213310D01*
X93802670Y-124295830D01*
X93782400Y-124376740D01*
X93754300Y-124455280D01*
X93718630Y-124530690D01*
X93675750Y-124602230D01*
X93626060Y-124669230D01*
X93570040Y-124731040D01*
X93508230Y-124787060D01*
X93441230Y-124836750D01*
X93369690Y-124879630D01*
X93294280Y-124915300D01*
X93215740Y-124943400D01*
X93134830Y-124963670D01*
X93052310Y-124975910D01*
X92969000Y-124980000D01*
X92885690Y-124975910D01*
X92803170Y-124963670D01*
X92722260Y-124943400D01*
X92643720Y-124915300D01*
X92568310Y-124879630D01*
X92496770Y-124836750D01*
X92429770Y-124787060D01*
X92367960Y-124731040D01*
X92311940Y-124669230D01*
X92262250Y-124602230D01*
X92219370Y-124530690D01*
X92183700Y-124455280D01*
X92155600Y-124376740D01*
X92135330Y-124295830D01*
X92123090Y-124213310D01*
X92119000Y-124130000D01*
X92123090Y-124046690D01*
X92135330Y-123964170D01*
X92155600Y-123883260D01*
X92183700Y-123804720D01*
X92219370Y-123729310D01*
X92262250Y-123657770D01*
X92311940Y-123590770D01*
X92367960Y-123528960D01*
X92429770Y-123472940D01*
X92496770Y-123423250D01*
X92568310Y-123380370D01*
X92643720Y-123344700D01*
X92722260Y-123316600D01*
X92803170Y-123296330D01*
X92885690Y-123284090D01*
X92969000Y-123280000D01*
X93052310Y-123284090D01*
G37*
G36*
X117493310Y-113124090D02*
G01*
X117575830Y-113136330D01*
X117656740Y-113156600D01*
X117735280Y-113184700D01*
X117810690Y-113220370D01*
X117882230Y-113263250D01*
X117949230Y-113312940D01*
X118011040Y-113368960D01*
X118067060Y-113430770D01*
X118116750Y-113497770D01*
X118159630Y-113569310D01*
X118195300Y-113644720D01*
X118223400Y-113723260D01*
X118243670Y-113804170D01*
X118255910Y-113886690D01*
X118260000Y-113970000D01*
X118255910Y-114053310D01*
X118243670Y-114135830D01*
X118223400Y-114216740D01*
X118195300Y-114295280D01*
X118159630Y-114370690D01*
X118116750Y-114442230D01*
X118067060Y-114509230D01*
X118011040Y-114571040D01*
X117949230Y-114627060D01*
X117882230Y-114676750D01*
X117810690Y-114719630D01*
X117735280Y-114755300D01*
X117656740Y-114783400D01*
X117575830Y-114803670D01*
X117493310Y-114815910D01*
X117410000Y-114820000D01*
X117326690Y-114815910D01*
X117244170Y-114803670D01*
X117163260Y-114783400D01*
X117084720Y-114755300D01*
X117009310Y-114719630D01*
X116937770Y-114676750D01*
X116870770Y-114627060D01*
X116808960Y-114571040D01*
X116752940Y-114509230D01*
X116703250Y-114442230D01*
X116660370Y-114370690D01*
X116624700Y-114295280D01*
X116596600Y-114216740D01*
X116576330Y-114135830D01*
X116564090Y-114053310D01*
X116560000Y-113970000D01*
X116564090Y-113886690D01*
X116576330Y-113804170D01*
X116596600Y-113723260D01*
X116624700Y-113644720D01*
X116660370Y-113569310D01*
X116703250Y-113497770D01*
X116752940Y-113430770D01*
X116808960Y-113368960D01*
X116870770Y-113312940D01*
X116937770Y-113263250D01*
X117009310Y-113220370D01*
X117084720Y-113184700D01*
X117163260Y-113156600D01*
X117244170Y-113136330D01*
X117326690Y-113124090D01*
X117410000Y-113120000D01*
X117493310Y-113124090D01*
G37*
G36*
X120033310Y-102964090D02*
G01*
X120115830Y-102976330D01*
X120196740Y-102996600D01*
X120275280Y-103024700D01*
X120350690Y-103060370D01*
X120422230Y-103103250D01*
X120489230Y-103152940D01*
X120551040Y-103208960D01*
X120607060Y-103270770D01*
X120656750Y-103337770D01*
X120699630Y-103409310D01*
X120735300Y-103484720D01*
X120763400Y-103563260D01*
X120783670Y-103644170D01*
X120795910Y-103726690D01*
X120800000Y-103810000D01*
X120795910Y-103893310D01*
X120783670Y-103975830D01*
X120763400Y-104056740D01*
X120735300Y-104135280D01*
X120699630Y-104210690D01*
X120656750Y-104282230D01*
X120607060Y-104349230D01*
X120551040Y-104411040D01*
X120489230Y-104467060D01*
X120422230Y-104516750D01*
X120350690Y-104559630D01*
X120275280Y-104595300D01*
X120196740Y-104623400D01*
X120115830Y-104643670D01*
X120033310Y-104655910D01*
X119950000Y-104660000D01*
X119866690Y-104655910D01*
X119784170Y-104643670D01*
X119703260Y-104623400D01*
X119624720Y-104595300D01*
X119549310Y-104559630D01*
X119477770Y-104516750D01*
X119410770Y-104467060D01*
X119348960Y-104411040D01*
X119292940Y-104349230D01*
X119243250Y-104282230D01*
X119200370Y-104210690D01*
X119164700Y-104135280D01*
X119136600Y-104056740D01*
X119116330Y-103975830D01*
X119104090Y-103893310D01*
X119100000Y-103810000D01*
X119104090Y-103726690D01*
X119116330Y-103644170D01*
X119136600Y-103563260D01*
X119164700Y-103484720D01*
X119200370Y-103409310D01*
X119243250Y-103337770D01*
X119292940Y-103270770D01*
X119348960Y-103208960D01*
X119410770Y-103152940D01*
X119477770Y-103103250D01*
X119549310Y-103060370D01*
X119624720Y-103024700D01*
X119703260Y-102996600D01*
X119784170Y-102976330D01*
X119866690Y-102964090D01*
X119950000Y-102960000D01*
X120033310Y-102964090D01*
G37*
G36*
X136460000Y-85201000D02*
G01*
X128840000Y-85201000D01*
X128840000Y-83201000D01*
X136460000Y-83201000D01*
X136460000Y-85201000D01*
G37*
G36*
X120033310Y-105504090D02*
G01*
X120115830Y-105516330D01*
X120196740Y-105536600D01*
X120275280Y-105564700D01*
X120350690Y-105600370D01*
X120422230Y-105643250D01*
X120489230Y-105692940D01*
X120551040Y-105748960D01*
X120607060Y-105810770D01*
X120656750Y-105877770D01*
X120699630Y-105949310D01*
X120735300Y-106024720D01*
X120763400Y-106103260D01*
X120783670Y-106184170D01*
X120795910Y-106266690D01*
X120800000Y-106350000D01*
X120795910Y-106433310D01*
X120783670Y-106515830D01*
X120763400Y-106596740D01*
X120735300Y-106675280D01*
X120699630Y-106750690D01*
X120656750Y-106822230D01*
X120607060Y-106889230D01*
X120551040Y-106951040D01*
X120489230Y-107007060D01*
X120422230Y-107056750D01*
X120350690Y-107099630D01*
X120275280Y-107135300D01*
X120196740Y-107163400D01*
X120115830Y-107183670D01*
X120033310Y-107195910D01*
X119950000Y-107200000D01*
X119866690Y-107195910D01*
X119784170Y-107183670D01*
X119703260Y-107163400D01*
X119624720Y-107135300D01*
X119549310Y-107099630D01*
X119477770Y-107056750D01*
X119410770Y-107007060D01*
X119348960Y-106951040D01*
X119292940Y-106889230D01*
X119243250Y-106822230D01*
X119200370Y-106750690D01*
X119164700Y-106675280D01*
X119136600Y-106596740D01*
X119116330Y-106515830D01*
X119104090Y-106433310D01*
X119100000Y-106350000D01*
X119104090Y-106266690D01*
X119116330Y-106184170D01*
X119136600Y-106103260D01*
X119164700Y-106024720D01*
X119200370Y-105949310D01*
X119243250Y-105877770D01*
X119292940Y-105810770D01*
X119348960Y-105748960D01*
X119410770Y-105692940D01*
X119477770Y-105643250D01*
X119549310Y-105600370D01*
X119624720Y-105564700D01*
X119703260Y-105536600D01*
X119784170Y-105516330D01*
X119866690Y-105504090D01*
X119950000Y-105500000D01*
X120033310Y-105504090D01*
G37*
G36*
X95592310Y-133444090D02*
G01*
X95674830Y-133456330D01*
X95755740Y-133476600D01*
X95834280Y-133504700D01*
X95909690Y-133540370D01*
X95981230Y-133583250D01*
X96048230Y-133632940D01*
X96110040Y-133688960D01*
X96166060Y-133750770D01*
X96215750Y-133817770D01*
X96258630Y-133889310D01*
X96294300Y-133964720D01*
X96322400Y-134043260D01*
X96342670Y-134124170D01*
X96354910Y-134206690D01*
X96359000Y-134290000D01*
X96354910Y-134373310D01*
X96342670Y-134455830D01*
X96322400Y-134536740D01*
X96294300Y-134615280D01*
X96258630Y-134690690D01*
X96215750Y-134762230D01*
X96166060Y-134829230D01*
X96110040Y-134891040D01*
X96048230Y-134947060D01*
X95981230Y-134996750D01*
X95909690Y-135039630D01*
X95834280Y-135075300D01*
X95755740Y-135103400D01*
X95674830Y-135123670D01*
X95592310Y-135135910D01*
X95509000Y-135140000D01*
X95425690Y-135135910D01*
X95343170Y-135123670D01*
X95262260Y-135103400D01*
X95183720Y-135075300D01*
X95108310Y-135039630D01*
X95036770Y-134996750D01*
X94969770Y-134947060D01*
X94907960Y-134891040D01*
X94851940Y-134829230D01*
X94802250Y-134762230D01*
X94759370Y-134690690D01*
X94723700Y-134615280D01*
X94695600Y-134536740D01*
X94675330Y-134455830D01*
X94663090Y-134373310D01*
X94659000Y-134290000D01*
X94663090Y-134206690D01*
X94675330Y-134124170D01*
X94695600Y-134043260D01*
X94723700Y-133964720D01*
X94759370Y-133889310D01*
X94802250Y-133817770D01*
X94851940Y-133750770D01*
X94907960Y-133688960D01*
X94969770Y-133632940D01*
X95036770Y-133583250D01*
X95108310Y-133540370D01*
X95183720Y-133504700D01*
X95262260Y-133476600D01*
X95343170Y-133456330D01*
X95425690Y-133444090D01*
X95509000Y-133440000D01*
X95592310Y-133444090D01*
G37*
G36*
X136460000Y-77581000D02*
G01*
X128840000Y-77581000D01*
X128840000Y-75581000D01*
X136460000Y-75581000D01*
X136460000Y-77581000D01*
G37*
G36*
X95592310Y-118204090D02*
G01*
X95674830Y-118216330D01*
X95755740Y-118236600D01*
X95834280Y-118264700D01*
X95909690Y-118300370D01*
X95981230Y-118343250D01*
X96048230Y-118392940D01*
X96110040Y-118448960D01*
X96166060Y-118510770D01*
X96215750Y-118577770D01*
X96258630Y-118649310D01*
X96294300Y-118724720D01*
X96322400Y-118803260D01*
X96342670Y-118884170D01*
X96354910Y-118966690D01*
X96359000Y-119050000D01*
X96354910Y-119133310D01*
X96342670Y-119215830D01*
X96322400Y-119296740D01*
X96294300Y-119375280D01*
X96258630Y-119450690D01*
X96215750Y-119522230D01*
X96166060Y-119589230D01*
X96110040Y-119651040D01*
X96048230Y-119707060D01*
X95981230Y-119756750D01*
X95909690Y-119799630D01*
X95834280Y-119835300D01*
X95755740Y-119863400D01*
X95674830Y-119883670D01*
X95592310Y-119895910D01*
X95509000Y-119900000D01*
X95425690Y-119895910D01*
X95343170Y-119883670D01*
X95262260Y-119863400D01*
X95183720Y-119835300D01*
X95108310Y-119799630D01*
X95036770Y-119756750D01*
X94969770Y-119707060D01*
X94907960Y-119651040D01*
X94851940Y-119589230D01*
X94802250Y-119522230D01*
X94759370Y-119450690D01*
X94723700Y-119375280D01*
X94695600Y-119296740D01*
X94675330Y-119215830D01*
X94663090Y-119133310D01*
X94659000Y-119050000D01*
X94663090Y-118966690D01*
X94675330Y-118884170D01*
X94695600Y-118803260D01*
X94723700Y-118724720D01*
X94759370Y-118649310D01*
X94802250Y-118577770D01*
X94851940Y-118510770D01*
X94907960Y-118448960D01*
X94969770Y-118392940D01*
X95036770Y-118343250D01*
X95108310Y-118300370D01*
X95183720Y-118264700D01*
X95262260Y-118236600D01*
X95343170Y-118216330D01*
X95425690Y-118204090D01*
X95509000Y-118200000D01*
X95592310Y-118204090D01*
G37*
G36*
X93052310Y-128364090D02*
G01*
X93134830Y-128376330D01*
X93215740Y-128396600D01*
X93294280Y-128424700D01*
X93369690Y-128460370D01*
X93441230Y-128503250D01*
X93508230Y-128552940D01*
X93570040Y-128608960D01*
X93626060Y-128670770D01*
X93675750Y-128737770D01*
X93718630Y-128809310D01*
X93754300Y-128884720D01*
X93782400Y-128963260D01*
X93802670Y-129044170D01*
X93814910Y-129126690D01*
X93819000Y-129210000D01*
X93814910Y-129293310D01*
X93802670Y-129375830D01*
X93782400Y-129456740D01*
X93754300Y-129535280D01*
X93718630Y-129610690D01*
X93675750Y-129682230D01*
X93626060Y-129749230D01*
X93570040Y-129811040D01*
X93508230Y-129867060D01*
X93441230Y-129916750D01*
X93369690Y-129959630D01*
X93294280Y-129995300D01*
X93215740Y-130023400D01*
X93134830Y-130043670D01*
X93052310Y-130055910D01*
X92969000Y-130060000D01*
X92885690Y-130055910D01*
X92803170Y-130043670D01*
X92722260Y-130023400D01*
X92643720Y-129995300D01*
X92568310Y-129959630D01*
X92496770Y-129916750D01*
X92429770Y-129867060D01*
X92367960Y-129811040D01*
X92311940Y-129749230D01*
X92262250Y-129682230D01*
X92219370Y-129610690D01*
X92183700Y-129535280D01*
X92155600Y-129456740D01*
X92135330Y-129375830D01*
X92123090Y-129293310D01*
X92119000Y-129210000D01*
X92123090Y-129126690D01*
X92135330Y-129044170D01*
X92155600Y-128963260D01*
X92183700Y-128884720D01*
X92219370Y-128809310D01*
X92262250Y-128737770D01*
X92311940Y-128670770D01*
X92367960Y-128608960D01*
X92429770Y-128552940D01*
X92496770Y-128503250D01*
X92568310Y-128460370D01*
X92643720Y-128424700D01*
X92722260Y-128396600D01*
X92803170Y-128376330D01*
X92885690Y-128364090D01*
X92969000Y-128360000D01*
X93052310Y-128364090D01*
G37*
G36*
X136460000Y-136001000D02*
G01*
X128840000Y-136001000D01*
X128840000Y-134001000D01*
X136460000Y-134001000D01*
X136460000Y-136001000D01*
G37*
G36*
X120033310Y-123284090D02*
G01*
X120115830Y-123296330D01*
X120196740Y-123316600D01*
X120275280Y-123344700D01*
X120350690Y-123380370D01*
X120422230Y-123423250D01*
X120489230Y-123472940D01*
X120551040Y-123528960D01*
X120607060Y-123590770D01*
X120656750Y-123657770D01*
X120699630Y-123729310D01*
X120735300Y-123804720D01*
X120763400Y-123883260D01*
X120783670Y-123964170D01*
X120795910Y-124046690D01*
X120800000Y-124130000D01*
X120795910Y-124213310D01*
X120783670Y-124295830D01*
X120763400Y-124376740D01*
X120735300Y-124455280D01*
X120699630Y-124530690D01*
X120656750Y-124602230D01*
X120607060Y-124669230D01*
X120551040Y-124731040D01*
X120489230Y-124787060D01*
X120422230Y-124836750D01*
X120350690Y-124879630D01*
X120275280Y-124915300D01*
X120196740Y-124943400D01*
X120115830Y-124963670D01*
X120033310Y-124975910D01*
X119950000Y-124980000D01*
X119866690Y-124975910D01*
X119784170Y-124963670D01*
X119703260Y-124943400D01*
X119624720Y-124915300D01*
X119549310Y-124879630D01*
X119477770Y-124836750D01*
X119410770Y-124787060D01*
X119348960Y-124731040D01*
X119292940Y-124669230D01*
X119243250Y-124602230D01*
X119200370Y-124530690D01*
X119164700Y-124455280D01*
X119136600Y-124376740D01*
X119116330Y-124295830D01*
X119104090Y-124213310D01*
X119100000Y-124130000D01*
X119104090Y-124046690D01*
X119116330Y-123964170D01*
X119136600Y-123883260D01*
X119164700Y-123804720D01*
X119200370Y-123729310D01*
X119243250Y-123657770D01*
X119292940Y-123590770D01*
X119348960Y-123528960D01*
X119410770Y-123472940D01*
X119477770Y-123423250D01*
X119549310Y-123380370D01*
X119624720Y-123344700D01*
X119703260Y-123316600D01*
X119784170Y-123296330D01*
X119866690Y-123284090D01*
X119950000Y-123280000D01*
X120033310Y-123284090D01*
G37*
G36*
X117493310Y-130904090D02*
G01*
X117575830Y-130916330D01*
X117656740Y-130936600D01*
X117735280Y-130964700D01*
X117810690Y-131000370D01*
X117882230Y-131043250D01*
X117949230Y-131092940D01*
X118011040Y-131148960D01*
X118067060Y-131210770D01*
X118116750Y-131277770D01*
X118159630Y-131349310D01*
X118195300Y-131424720D01*
X118223400Y-131503260D01*
X118243670Y-131584170D01*
X118255910Y-131666690D01*
X118260000Y-131750000D01*
X118255910Y-131833310D01*
X118243670Y-131915830D01*
X118223400Y-131996740D01*
X118195300Y-132075280D01*
X118159630Y-132150690D01*
X118116750Y-132222230D01*
X118067060Y-132289230D01*
X118011040Y-132351040D01*
X117949230Y-132407060D01*
X117882230Y-132456750D01*
X117810690Y-132499630D01*
X117735280Y-132535300D01*
X117656740Y-132563400D01*
X117575830Y-132583670D01*
X117493310Y-132595910D01*
X117410000Y-132600000D01*
X117326690Y-132595910D01*
X117244170Y-132583670D01*
X117163260Y-132563400D01*
X117084720Y-132535300D01*
X117009310Y-132499630D01*
X116937770Y-132456750D01*
X116870770Y-132407060D01*
X116808960Y-132351040D01*
X116752940Y-132289230D01*
X116703250Y-132222230D01*
X116660370Y-132150690D01*
X116624700Y-132075280D01*
X116596600Y-131996740D01*
X116576330Y-131915830D01*
X116564090Y-131833310D01*
X116560000Y-131750000D01*
X116564090Y-131666690D01*
X116576330Y-131584170D01*
X116596600Y-131503260D01*
X116624700Y-131424720D01*
X116660370Y-131349310D01*
X116703250Y-131277770D01*
X116752940Y-131210770D01*
X116808960Y-131148960D01*
X116870770Y-131092940D01*
X116937770Y-131043250D01*
X117009310Y-131000370D01*
X117084720Y-130964700D01*
X117163260Y-130936600D01*
X117244170Y-130916330D01*
X117326690Y-130904090D01*
X117410000Y-130900000D01*
X117493310Y-130904090D01*
G37*
G36*
X84582000Y-125841000D02*
G01*
X76962000Y-125841000D01*
X76962000Y-123841000D01*
X84582000Y-123841000D01*
X84582000Y-125841000D01*
G37*
G36*
X93052310Y-130904090D02*
G01*
X93134830Y-130916330D01*
X93215740Y-130936600D01*
X93294280Y-130964700D01*
X93369690Y-131000370D01*
X93441230Y-131043250D01*
X93508230Y-131092940D01*
X93570040Y-131148960D01*
X93626060Y-131210770D01*
X93675750Y-131277770D01*
X93718630Y-131349310D01*
X93754300Y-131424720D01*
X93782400Y-131503260D01*
X93802670Y-131584170D01*
X93814910Y-131666690D01*
X93819000Y-131750000D01*
X93814910Y-131833310D01*
X93802670Y-131915830D01*
X93782400Y-131996740D01*
X93754300Y-132075280D01*
X93718630Y-132150690D01*
X93675750Y-132222230D01*
X93626060Y-132289230D01*
X93570040Y-132351040D01*
X93508230Y-132407060D01*
X93441230Y-132456750D01*
X93369690Y-132499630D01*
X93294280Y-132535300D01*
X93215740Y-132563400D01*
X93134830Y-132583670D01*
X93052310Y-132595910D01*
X92969000Y-132600000D01*
X92885690Y-132595910D01*
X92803170Y-132583670D01*
X92722260Y-132563400D01*
X92643720Y-132535300D01*
X92568310Y-132499630D01*
X92496770Y-132456750D01*
X92429770Y-132407060D01*
X92367960Y-132351040D01*
X92311940Y-132289230D01*
X92262250Y-132222230D01*
X92219370Y-132150690D01*
X92183700Y-132075280D01*
X92155600Y-131996740D01*
X92135330Y-131915830D01*
X92123090Y-131833310D01*
X92119000Y-131750000D01*
X92123090Y-131666690D01*
X92135330Y-131584170D01*
X92155600Y-131503260D01*
X92183700Y-131424720D01*
X92219370Y-131349310D01*
X92262250Y-131277770D01*
X92311940Y-131210770D01*
X92367960Y-131148960D01*
X92429770Y-131092940D01*
X92496770Y-131043250D01*
X92568310Y-131000370D01*
X92643720Y-130964700D01*
X92722260Y-130936600D01*
X92803170Y-130916330D01*
X92885690Y-130904090D01*
X92969000Y-130900000D01*
X93052310Y-130904090D01*
G37*
G36*
X95592310Y-108044090D02*
G01*
X95674830Y-108056330D01*
X95755740Y-108076600D01*
X95834280Y-108104700D01*
X95909690Y-108140370D01*
X95981230Y-108183250D01*
X96048230Y-108232940D01*
X96110040Y-108288960D01*
X96166060Y-108350770D01*
X96215750Y-108417770D01*
X96258630Y-108489310D01*
X96294300Y-108564720D01*
X96322400Y-108643260D01*
X96342670Y-108724170D01*
X96354910Y-108806690D01*
X96359000Y-108890000D01*
X96354910Y-108973310D01*
X96342670Y-109055830D01*
X96322400Y-109136740D01*
X96294300Y-109215280D01*
X96258630Y-109290690D01*
X96215750Y-109362230D01*
X96166060Y-109429230D01*
X96110040Y-109491040D01*
X96048230Y-109547060D01*
X95981230Y-109596750D01*
X95909690Y-109639630D01*
X95834280Y-109675300D01*
X95755740Y-109703400D01*
X95674830Y-109723670D01*
X95592310Y-109735910D01*
X95509000Y-109740000D01*
X95425690Y-109735910D01*
X95343170Y-109723670D01*
X95262260Y-109703400D01*
X95183720Y-109675300D01*
X95108310Y-109639630D01*
X95036770Y-109596750D01*
X94969770Y-109547060D01*
X94907960Y-109491040D01*
X94851940Y-109429230D01*
X94802250Y-109362230D01*
X94759370Y-109290690D01*
X94723700Y-109215280D01*
X94695600Y-109136740D01*
X94675330Y-109055830D01*
X94663090Y-108973310D01*
X94659000Y-108890000D01*
X94663090Y-108806690D01*
X94675330Y-108724170D01*
X94695600Y-108643260D01*
X94723700Y-108564720D01*
X94759370Y-108489310D01*
X94802250Y-108417770D01*
X94851940Y-108350770D01*
X94907960Y-108288960D01*
X94969770Y-108232940D01*
X95036770Y-108183250D01*
X95108310Y-108140370D01*
X95183720Y-108104700D01*
X95262260Y-108076600D01*
X95343170Y-108056330D01*
X95425690Y-108044090D01*
X95509000Y-108040000D01*
X95592310Y-108044090D01*
G37*
G36*
X84582000Y-92821000D02*
G01*
X76962000Y-92821000D01*
X76962000Y-90821000D01*
X84582000Y-90821000D01*
X84582000Y-92821000D01*
G37*
G36*
X93052310Y-102964090D02*
G01*
X93134830Y-102976330D01*
X93215740Y-102996600D01*
X93294280Y-103024700D01*
X93369690Y-103060370D01*
X93441230Y-103103250D01*
X93508230Y-103152940D01*
X93570040Y-103208960D01*
X93626060Y-103270770D01*
X93675750Y-103337770D01*
X93718630Y-103409310D01*
X93754300Y-103484720D01*
X93782400Y-103563260D01*
X93802670Y-103644170D01*
X93814910Y-103726690D01*
X93819000Y-103810000D01*
X93814910Y-103893310D01*
X93802670Y-103975830D01*
X93782400Y-104056740D01*
X93754300Y-104135280D01*
X93718630Y-104210690D01*
X93675750Y-104282230D01*
X93626060Y-104349230D01*
X93570040Y-104411040D01*
X93508230Y-104467060D01*
X93441230Y-104516750D01*
X93369690Y-104559630D01*
X93294280Y-104595300D01*
X93215740Y-104623400D01*
X93134830Y-104643670D01*
X93052310Y-104655910D01*
X92969000Y-104660000D01*
X92885690Y-104655910D01*
X92803170Y-104643670D01*
X92722260Y-104623400D01*
X92643720Y-104595300D01*
X92568310Y-104559630D01*
X92496770Y-104516750D01*
X92429770Y-104467060D01*
X92367960Y-104411040D01*
X92311940Y-104349230D01*
X92262250Y-104282230D01*
X92219370Y-104210690D01*
X92183700Y-104135280D01*
X92155600Y-104056740D01*
X92135330Y-103975830D01*
X92123090Y-103893310D01*
X92119000Y-103810000D01*
X92123090Y-103726690D01*
X92135330Y-103644170D01*
X92155600Y-103563260D01*
X92183700Y-103484720D01*
X92219370Y-103409310D01*
X92262250Y-103337770D01*
X92311940Y-103270770D01*
X92367960Y-103208960D01*
X92429770Y-103152940D01*
X92496770Y-103103250D01*
X92568310Y-103060370D01*
X92643720Y-103024700D01*
X92722260Y-102996600D01*
X92803170Y-102976330D01*
X92885690Y-102964090D01*
X92969000Y-102960000D01*
X93052310Y-102964090D01*
G37*
G36*
X120033310Y-120744090D02*
G01*
X120115830Y-120756330D01*
X120196740Y-120776600D01*
X120275280Y-120804700D01*
X120350690Y-120840370D01*
X120422230Y-120883250D01*
X120489230Y-120932940D01*
X120551040Y-120988960D01*
X120607060Y-121050770D01*
X120656750Y-121117770D01*
X120699630Y-121189310D01*
X120735300Y-121264720D01*
X120763400Y-121343260D01*
X120783670Y-121424170D01*
X120795910Y-121506690D01*
X120800000Y-121590000D01*
X120795910Y-121673310D01*
X120783670Y-121755830D01*
X120763400Y-121836740D01*
X120735300Y-121915280D01*
X120699630Y-121990690D01*
X120656750Y-122062230D01*
X120607060Y-122129230D01*
X120551040Y-122191040D01*
X120489230Y-122247060D01*
X120422230Y-122296750D01*
X120350690Y-122339630D01*
X120275280Y-122375300D01*
X120196740Y-122403400D01*
X120115830Y-122423670D01*
X120033310Y-122435910D01*
X119950000Y-122440000D01*
X119866690Y-122435910D01*
X119784170Y-122423670D01*
X119703260Y-122403400D01*
X119624720Y-122375300D01*
X119549310Y-122339630D01*
X119477770Y-122296750D01*
X119410770Y-122247060D01*
X119348960Y-122191040D01*
X119292940Y-122129230D01*
X119243250Y-122062230D01*
X119200370Y-121990690D01*
X119164700Y-121915280D01*
X119136600Y-121836740D01*
X119116330Y-121755830D01*
X119104090Y-121673310D01*
X119100000Y-121590000D01*
X119104090Y-121506690D01*
X119116330Y-121424170D01*
X119136600Y-121343260D01*
X119164700Y-121264720D01*
X119200370Y-121189310D01*
X119243250Y-121117770D01*
X119292940Y-121050770D01*
X119348960Y-120988960D01*
X119410770Y-120932940D01*
X119477770Y-120883250D01*
X119549310Y-120840370D01*
X119624720Y-120804700D01*
X119703260Y-120776600D01*
X119784170Y-120756330D01*
X119866690Y-120744090D01*
X119950000Y-120740000D01*
X120033310Y-120744090D01*
G37*
G36*
X93052310Y-97884090D02*
G01*
X93134830Y-97896330D01*
X93215740Y-97916600D01*
X93294280Y-97944700D01*
X93369690Y-97980370D01*
X93441230Y-98023250D01*
X93508230Y-98072940D01*
X93570040Y-98128960D01*
X93626060Y-98190770D01*
X93675750Y-98257770D01*
X93718630Y-98329310D01*
X93754300Y-98404720D01*
X93782400Y-98483260D01*
X93802670Y-98564170D01*
X93814910Y-98646690D01*
X93819000Y-98730000D01*
X93814910Y-98813310D01*
X93802670Y-98895830D01*
X93782400Y-98976740D01*
X93754300Y-99055280D01*
X93718630Y-99130690D01*
X93675750Y-99202230D01*
X93626060Y-99269230D01*
X93570040Y-99331040D01*
X93508230Y-99387060D01*
X93441230Y-99436750D01*
X93369690Y-99479630D01*
X93294280Y-99515300D01*
X93215740Y-99543400D01*
X93134830Y-99563670D01*
X93052310Y-99575910D01*
X92969000Y-99580000D01*
X92885690Y-99575910D01*
X92803170Y-99563670D01*
X92722260Y-99543400D01*
X92643720Y-99515300D01*
X92568310Y-99479630D01*
X92496770Y-99436750D01*
X92429770Y-99387060D01*
X92367960Y-99331040D01*
X92311940Y-99269230D01*
X92262250Y-99202230D01*
X92219370Y-99130690D01*
X92183700Y-99055280D01*
X92155600Y-98976740D01*
X92135330Y-98895830D01*
X92123090Y-98813310D01*
X92119000Y-98730000D01*
X92123090Y-98646690D01*
X92135330Y-98564170D01*
X92155600Y-98483260D01*
X92183700Y-98404720D01*
X92219370Y-98329310D01*
X92262250Y-98257770D01*
X92311940Y-98190770D01*
X92367960Y-98128960D01*
X92429770Y-98072940D01*
X92496770Y-98023250D01*
X92568310Y-97980370D01*
X92643720Y-97944700D01*
X92722260Y-97916600D01*
X92803170Y-97896330D01*
X92885690Y-97884090D01*
X92969000Y-97880000D01*
X93052310Y-97884090D01*
G37*
G36*
X84582000Y-77581000D02*
G01*
X76962000Y-77581000D01*
X76962000Y-75581000D01*
X84582000Y-75581000D01*
X84582000Y-77581000D01*
G37*
G36*
X120033310Y-128364090D02*
G01*
X120115830Y-128376330D01*
X120196740Y-128396600D01*
X120275280Y-128424700D01*
X120350690Y-128460370D01*
X120422230Y-128503250D01*
X120489230Y-128552940D01*
X120551040Y-128608960D01*
X120607060Y-128670770D01*
X120656750Y-128737770D01*
X120699630Y-128809310D01*
X120735300Y-128884720D01*
X120763400Y-128963260D01*
X120783670Y-129044170D01*
X120795910Y-129126690D01*
X120800000Y-129210000D01*
X120795910Y-129293310D01*
X120783670Y-129375830D01*
X120763400Y-129456740D01*
X120735300Y-129535280D01*
X120699630Y-129610690D01*
X120656750Y-129682230D01*
X120607060Y-129749230D01*
X120551040Y-129811040D01*
X120489230Y-129867060D01*
X120422230Y-129916750D01*
X120350690Y-129959630D01*
X120275280Y-129995300D01*
X120196740Y-130023400D01*
X120115830Y-130043670D01*
X120033310Y-130055910D01*
X119950000Y-130060000D01*
X119866690Y-130055910D01*
X119784170Y-130043670D01*
X119703260Y-130023400D01*
X119624720Y-129995300D01*
X119549310Y-129959630D01*
X119477770Y-129916750D01*
X119410770Y-129867060D01*
X119348960Y-129811040D01*
X119292940Y-129749230D01*
X119243250Y-129682230D01*
X119200370Y-129610690D01*
X119164700Y-129535280D01*
X119136600Y-129456740D01*
X119116330Y-129375830D01*
X119104090Y-129293310D01*
X119100000Y-129210000D01*
X119104090Y-129126690D01*
X119116330Y-129044170D01*
X119136600Y-128963260D01*
X119164700Y-128884720D01*
X119200370Y-128809310D01*
X119243250Y-128737770D01*
X119292940Y-128670770D01*
X119348960Y-128608960D01*
X119410770Y-128552940D01*
X119477770Y-128503250D01*
X119549310Y-128460370D01*
X119624720Y-128424700D01*
X119703260Y-128396600D01*
X119784170Y-128376330D01*
X119866690Y-128364090D01*
X119950000Y-128360000D01*
X120033310Y-128364090D01*
G37*
G36*
X84582000Y-90281000D02*
G01*
X76962000Y-90281000D01*
X76962000Y-88281000D01*
X84582000Y-88281000D01*
X84582000Y-90281000D01*
G37*
G36*
X84582000Y-123301000D02*
G01*
X76962000Y-123301000D01*
X76962000Y-121301000D01*
X84582000Y-121301000D01*
X84582000Y-123301000D01*
G37*
G36*
X117493310Y-118204090D02*
G01*
X117575830Y-118216330D01*
X117656740Y-118236600D01*
X117735280Y-118264700D01*
X117810690Y-118300370D01*
X117882230Y-118343250D01*
X117949230Y-118392940D01*
X118011040Y-118448960D01*
X118067060Y-118510770D01*
X118116750Y-118577770D01*
X118159630Y-118649310D01*
X118195300Y-118724720D01*
X118223400Y-118803260D01*
X118243670Y-118884170D01*
X118255910Y-118966690D01*
X118260000Y-119050000D01*
X118255910Y-119133310D01*
X118243670Y-119215830D01*
X118223400Y-119296740D01*
X118195300Y-119375280D01*
X118159630Y-119450690D01*
X118116750Y-119522230D01*
X118067060Y-119589230D01*
X118011040Y-119651040D01*
X117949230Y-119707060D01*
X117882230Y-119756750D01*
X117810690Y-119799630D01*
X117735280Y-119835300D01*
X117656740Y-119863400D01*
X117575830Y-119883670D01*
X117493310Y-119895910D01*
X117410000Y-119900000D01*
X117326690Y-119895910D01*
X117244170Y-119883670D01*
X117163260Y-119863400D01*
X117084720Y-119835300D01*
X117009310Y-119799630D01*
X116937770Y-119756750D01*
X116870770Y-119707060D01*
X116808960Y-119651040D01*
X116752940Y-119589230D01*
X116703250Y-119522230D01*
X116660370Y-119450690D01*
X116624700Y-119375280D01*
X116596600Y-119296740D01*
X116576330Y-119215830D01*
X116564090Y-119133310D01*
X116560000Y-119050000D01*
X116564090Y-118966690D01*
X116576330Y-118884170D01*
X116596600Y-118803260D01*
X116624700Y-118724720D01*
X116660370Y-118649310D01*
X116703250Y-118577770D01*
X116752940Y-118510770D01*
X116808960Y-118448960D01*
X116870770Y-118392940D01*
X116937770Y-118343250D01*
X117009310Y-118300370D01*
X117084720Y-118264700D01*
X117163260Y-118236600D01*
X117244170Y-118216330D01*
X117326690Y-118204090D01*
X117410000Y-118200000D01*
X117493310Y-118204090D01*
G37*
G36*
X136460000Y-110601000D02*
G01*
X128840000Y-110601000D01*
X128840000Y-108601000D01*
X136460000Y-108601000D01*
X136460000Y-110601000D01*
G37*
G36*
X120033310Y-115664090D02*
G01*
X120115830Y-115676330D01*
X120196740Y-115696600D01*
X120275280Y-115724700D01*
X120350690Y-115760370D01*
X120422230Y-115803250D01*
X120489230Y-115852940D01*
X120551040Y-115908960D01*
X120607060Y-115970770D01*
X120656750Y-116037770D01*
X120699630Y-116109310D01*
X120735300Y-116184720D01*
X120763400Y-116263260D01*
X120783670Y-116344170D01*
X120795910Y-116426690D01*
X120800000Y-116510000D01*
X120795910Y-116593310D01*
X120783670Y-116675830D01*
X120763400Y-116756740D01*
X120735300Y-116835280D01*
X120699630Y-116910690D01*
X120656750Y-116982230D01*
X120607060Y-117049230D01*
X120551040Y-117111040D01*
X120489230Y-117167060D01*
X120422230Y-117216750D01*
X120350690Y-117259630D01*
X120275280Y-117295300D01*
X120196740Y-117323400D01*
X120115830Y-117343670D01*
X120033310Y-117355910D01*
X119950000Y-117360000D01*
X119866690Y-117355910D01*
X119784170Y-117343670D01*
X119703260Y-117323400D01*
X119624720Y-117295300D01*
X119549310Y-117259630D01*
X119477770Y-117216750D01*
X119410770Y-117167060D01*
X119348960Y-117111040D01*
X119292940Y-117049230D01*
X119243250Y-116982230D01*
X119200370Y-116910690D01*
X119164700Y-116835280D01*
X119136600Y-116756740D01*
X119116330Y-116675830D01*
X119104090Y-116593310D01*
X119100000Y-116510000D01*
X119104090Y-116426690D01*
X119116330Y-116344170D01*
X119136600Y-116263260D01*
X119164700Y-116184720D01*
X119200370Y-116109310D01*
X119243250Y-116037770D01*
X119292940Y-115970770D01*
X119348960Y-115908960D01*
X119410770Y-115852940D01*
X119477770Y-115803250D01*
X119549310Y-115760370D01*
X119624720Y-115724700D01*
X119703260Y-115696600D01*
X119784170Y-115676330D01*
X119866690Y-115664090D01*
X119950000Y-115660000D01*
X120033310Y-115664090D01*
G37*
G36*
X136460000Y-102981000D02*
G01*
X128840000Y-102981000D01*
X128840000Y-100981000D01*
X136460000Y-100981000D01*
X136460000Y-102981000D01*
G37*
G36*
X136460000Y-100441000D02*
G01*
X128840000Y-100441000D01*
X128840000Y-98441000D01*
X136460000Y-98441000D01*
X136460000Y-100441000D01*
G37*
G36*
X136460000Y-75041000D02*
G01*
X128840000Y-75041000D01*
X128840000Y-73041000D01*
X136460000Y-73041000D01*
X136460000Y-75041000D01*
G37*
G36*
X117493310Y-115664090D02*
G01*
X117575830Y-115676330D01*
X117656740Y-115696600D01*
X117735280Y-115724700D01*
X117810690Y-115760370D01*
X117882230Y-115803250D01*
X117949230Y-115852940D01*
X118011040Y-115908960D01*
X118067060Y-115970770D01*
X118116750Y-116037770D01*
X118159630Y-116109310D01*
X118195300Y-116184720D01*
X118223400Y-116263260D01*
X118243670Y-116344170D01*
X118255910Y-116426690D01*
X118260000Y-116510000D01*
X118255910Y-116593310D01*
X118243670Y-116675830D01*
X118223400Y-116756740D01*
X118195300Y-116835280D01*
X118159630Y-116910690D01*
X118116750Y-116982230D01*
X118067060Y-117049230D01*
X118011040Y-117111040D01*
X117949230Y-117167060D01*
X117882230Y-117216750D01*
X117810690Y-117259630D01*
X117735280Y-117295300D01*
X117656740Y-117323400D01*
X117575830Y-117343670D01*
X117493310Y-117355910D01*
X117410000Y-117360000D01*
X117326690Y-117355910D01*
X117244170Y-117343670D01*
X117163260Y-117323400D01*
X117084720Y-117295300D01*
X117009310Y-117259630D01*
X116937770Y-117216750D01*
X116870770Y-117167060D01*
X116808960Y-117111040D01*
X116752940Y-117049230D01*
X116703250Y-116982230D01*
X116660370Y-116910690D01*
X116624700Y-116835280D01*
X116596600Y-116756740D01*
X116576330Y-116675830D01*
X116564090Y-116593310D01*
X116560000Y-116510000D01*
X116564090Y-116426690D01*
X116576330Y-116344170D01*
X116596600Y-116263260D01*
X116624700Y-116184720D01*
X116660370Y-116109310D01*
X116703250Y-116037770D01*
X116752940Y-115970770D01*
X116808960Y-115908960D01*
X116870770Y-115852940D01*
X116937770Y-115803250D01*
X117009310Y-115760370D01*
X117084720Y-115724700D01*
X117163260Y-115696600D01*
X117244170Y-115676330D01*
X117326690Y-115664090D01*
X117410000Y-115660000D01*
X117493310Y-115664090D01*
G37*
G36*
X95592310Y-120744090D02*
G01*
X95674830Y-120756330D01*
X95755740Y-120776600D01*
X95834280Y-120804700D01*
X95909690Y-120840370D01*
X95981230Y-120883250D01*
X96048230Y-120932940D01*
X96110040Y-120988960D01*
X96166060Y-121050770D01*
X96215750Y-121117770D01*
X96258630Y-121189310D01*
X96294300Y-121264720D01*
X96322400Y-121343260D01*
X96342670Y-121424170D01*
X96354910Y-121506690D01*
X96359000Y-121590000D01*
X96354910Y-121673310D01*
X96342670Y-121755830D01*
X96322400Y-121836740D01*
X96294300Y-121915280D01*
X96258630Y-121990690D01*
X96215750Y-122062230D01*
X96166060Y-122129230D01*
X96110040Y-122191040D01*
X96048230Y-122247060D01*
X95981230Y-122296750D01*
X95909690Y-122339630D01*
X95834280Y-122375300D01*
X95755740Y-122403400D01*
X95674830Y-122423670D01*
X95592310Y-122435910D01*
X95509000Y-122440000D01*
X95425690Y-122435910D01*
X95343170Y-122423670D01*
X95262260Y-122403400D01*
X95183720Y-122375300D01*
X95108310Y-122339630D01*
X95036770Y-122296750D01*
X94969770Y-122247060D01*
X94907960Y-122191040D01*
X94851940Y-122129230D01*
X94802250Y-122062230D01*
X94759370Y-121990690D01*
X94723700Y-121915280D01*
X94695600Y-121836740D01*
X94675330Y-121755830D01*
X94663090Y-121673310D01*
X94659000Y-121590000D01*
X94663090Y-121506690D01*
X94675330Y-121424170D01*
X94695600Y-121343260D01*
X94723700Y-121264720D01*
X94759370Y-121189310D01*
X94802250Y-121117770D01*
X94851940Y-121050770D01*
X94907960Y-120988960D01*
X94969770Y-120932940D01*
X95036770Y-120883250D01*
X95108310Y-120840370D01*
X95183720Y-120804700D01*
X95262260Y-120776600D01*
X95343170Y-120756330D01*
X95425690Y-120744090D01*
X95509000Y-120740000D01*
X95592310Y-120744090D01*
G37*
G36*
X136460000Y-72501000D02*
G01*
X128840000Y-72501000D01*
X128840000Y-70501000D01*
X136460000Y-70501000D01*
X136460000Y-72501000D01*
G37*
G36*
X95592310Y-100424090D02*
G01*
X95674830Y-100436330D01*
X95755740Y-100456600D01*
X95834280Y-100484700D01*
X95909690Y-100520370D01*
X95981230Y-100563250D01*
X96048230Y-100612940D01*
X96110040Y-100668960D01*
X96166060Y-100730770D01*
X96215750Y-100797770D01*
X96258630Y-100869310D01*
X96294300Y-100944720D01*
X96322400Y-101023260D01*
X96342670Y-101104170D01*
X96354910Y-101186690D01*
X96359000Y-101270000D01*
X96354910Y-101353310D01*
X96342670Y-101435830D01*
X96322400Y-101516740D01*
X96294300Y-101595280D01*
X96258630Y-101670690D01*
X96215750Y-101742230D01*
X96166060Y-101809230D01*
X96110040Y-101871040D01*
X96048230Y-101927060D01*
X95981230Y-101976750D01*
X95909690Y-102019630D01*
X95834280Y-102055300D01*
X95755740Y-102083400D01*
X95674830Y-102103670D01*
X95592310Y-102115910D01*
X95509000Y-102120000D01*
X95425690Y-102115910D01*
X95343170Y-102103670D01*
X95262260Y-102083400D01*
X95183720Y-102055300D01*
X95108310Y-102019630D01*
X95036770Y-101976750D01*
X94969770Y-101927060D01*
X94907960Y-101871040D01*
X94851940Y-101809230D01*
X94802250Y-101742230D01*
X94759370Y-101670690D01*
X94723700Y-101595280D01*
X94695600Y-101516740D01*
X94675330Y-101435830D01*
X94663090Y-101353310D01*
X94659000Y-101270000D01*
X94663090Y-101186690D01*
X94675330Y-101104170D01*
X94695600Y-101023260D01*
X94723700Y-100944720D01*
X94759370Y-100869310D01*
X94802250Y-100797770D01*
X94851940Y-100730770D01*
X94907960Y-100668960D01*
X94969770Y-100612940D01*
X95036770Y-100563250D01*
X95108310Y-100520370D01*
X95183720Y-100484700D01*
X95262260Y-100456600D01*
X95343170Y-100436330D01*
X95425690Y-100424090D01*
X95509000Y-100420000D01*
X95592310Y-100424090D01*
G37*
G36*
X95592310Y-110584090D02*
G01*
X95674830Y-110596330D01*
X95755740Y-110616600D01*
X95834280Y-110644700D01*
X95909690Y-110680370D01*
X95981230Y-110723250D01*
X96048230Y-110772940D01*
X96110040Y-110828960D01*
X96166060Y-110890770D01*
X96215750Y-110957770D01*
X96258630Y-111029310D01*
X96294300Y-111104720D01*
X96322400Y-111183260D01*
X96342670Y-111264170D01*
X96354910Y-111346690D01*
X96359000Y-111430000D01*
X96354910Y-111513310D01*
X96342670Y-111595830D01*
X96322400Y-111676740D01*
X96294300Y-111755280D01*
X96258630Y-111830690D01*
X96215750Y-111902230D01*
X96166060Y-111969230D01*
X96110040Y-112031040D01*
X96048230Y-112087060D01*
X95981230Y-112136750D01*
X95909690Y-112179630D01*
X95834280Y-112215300D01*
X95755740Y-112243400D01*
X95674830Y-112263670D01*
X95592310Y-112275910D01*
X95509000Y-112280000D01*
X95425690Y-112275910D01*
X95343170Y-112263670D01*
X95262260Y-112243400D01*
X95183720Y-112215300D01*
X95108310Y-112179630D01*
X95036770Y-112136750D01*
X94969770Y-112087060D01*
X94907960Y-112031040D01*
X94851940Y-111969230D01*
X94802250Y-111902230D01*
X94759370Y-111830690D01*
X94723700Y-111755280D01*
X94695600Y-111676740D01*
X94675330Y-111595830D01*
X94663090Y-111513310D01*
X94659000Y-111430000D01*
X94663090Y-111346690D01*
X94675330Y-111264170D01*
X94695600Y-111183260D01*
X94723700Y-111104720D01*
X94759370Y-111029310D01*
X94802250Y-110957770D01*
X94851940Y-110890770D01*
X94907960Y-110828960D01*
X94969770Y-110772940D01*
X95036770Y-110723250D01*
X95108310Y-110680370D01*
X95183720Y-110644700D01*
X95262260Y-110616600D01*
X95343170Y-110596330D01*
X95425690Y-110584090D01*
X95509000Y-110580000D01*
X95592310Y-110584090D01*
G37*
G36*
X84582000Y-118221000D02*
G01*
X76962000Y-118221000D01*
X76962000Y-116221000D01*
X84582000Y-116221000D01*
X84582000Y-118221000D01*
G37*
G36*
X84582000Y-87741000D02*
G01*
X76962000Y-87741000D01*
X76962000Y-85741000D01*
X84582000Y-85741000D01*
X84582000Y-87741000D01*
G37*
G36*
X136460000Y-113141000D02*
G01*
X128840000Y-113141000D01*
X128840000Y-111141000D01*
X136460000Y-111141000D01*
X136460000Y-113141000D01*
G37*
G36*
X118260000Y-97040000D02*
G01*
X116560000Y-97040000D01*
X116560000Y-95340000D01*
X118260000Y-95340000D01*
X118260000Y-97040000D01*
G37*
G36*
X117493310Y-123284090D02*
G01*
X117575830Y-123296330D01*
X117656740Y-123316600D01*
X117735280Y-123344700D01*
X117810690Y-123380370D01*
X117882230Y-123423250D01*
X117949230Y-123472940D01*
X118011040Y-123528960D01*
X118067060Y-123590770D01*
X118116750Y-123657770D01*
X118159630Y-123729310D01*
X118195300Y-123804720D01*
X118223400Y-123883260D01*
X118243670Y-123964170D01*
X118255910Y-124046690D01*
X118260000Y-124130000D01*
X118255910Y-124213310D01*
X118243670Y-124295830D01*
X118223400Y-124376740D01*
X118195300Y-124455280D01*
X118159630Y-124530690D01*
X118116750Y-124602230D01*
X118067060Y-124669230D01*
X118011040Y-124731040D01*
X117949230Y-124787060D01*
X117882230Y-124836750D01*
X117810690Y-124879630D01*
X117735280Y-124915300D01*
X117656740Y-124943400D01*
X117575830Y-124963670D01*
X117493310Y-124975910D01*
X117410000Y-124980000D01*
X117326690Y-124975910D01*
X117244170Y-124963670D01*
X117163260Y-124943400D01*
X117084720Y-124915300D01*
X117009310Y-124879630D01*
X116937770Y-124836750D01*
X116870770Y-124787060D01*
X116808960Y-124731040D01*
X116752940Y-124669230D01*
X116703250Y-124602230D01*
X116660370Y-124530690D01*
X116624700Y-124455280D01*
X116596600Y-124376740D01*
X116576330Y-124295830D01*
X116564090Y-124213310D01*
X116560000Y-124130000D01*
X116564090Y-124046690D01*
X116576330Y-123964170D01*
X116596600Y-123883260D01*
X116624700Y-123804720D01*
X116660370Y-123729310D01*
X116703250Y-123657770D01*
X116752940Y-123590770D01*
X116808960Y-123528960D01*
X116870770Y-123472940D01*
X116937770Y-123423250D01*
X117009310Y-123380370D01*
X117084720Y-123344700D01*
X117163260Y-123316600D01*
X117244170Y-123296330D01*
X117326690Y-123284090D01*
X117410000Y-123280000D01*
X117493310Y-123284090D01*
G37*
G36*
X84582000Y-75041000D02*
G01*
X76962000Y-75041000D01*
X76962000Y-73041000D01*
X84582000Y-73041000D01*
X84582000Y-75041000D01*
G37*
G36*
X120033310Y-100424090D02*
G01*
X120115830Y-100436330D01*
X120196740Y-100456600D01*
X120275280Y-100484700D01*
X120350690Y-100520370D01*
X120422230Y-100563250D01*
X120489230Y-100612940D01*
X120551040Y-100668960D01*
X120607060Y-100730770D01*
X120656750Y-100797770D01*
X120699630Y-100869310D01*
X120735300Y-100944720D01*
X120763400Y-101023260D01*
X120783670Y-101104170D01*
X120795910Y-101186690D01*
X120800000Y-101270000D01*
X120795910Y-101353310D01*
X120783670Y-101435830D01*
X120763400Y-101516740D01*
X120735300Y-101595280D01*
X120699630Y-101670690D01*
X120656750Y-101742230D01*
X120607060Y-101809230D01*
X120551040Y-101871040D01*
X120489230Y-101927060D01*
X120422230Y-101976750D01*
X120350690Y-102019630D01*
X120275280Y-102055300D01*
X120196740Y-102083400D01*
X120115830Y-102103670D01*
X120033310Y-102115910D01*
X119950000Y-102120000D01*
X119866690Y-102115910D01*
X119784170Y-102103670D01*
X119703260Y-102083400D01*
X119624720Y-102055300D01*
X119549310Y-102019630D01*
X119477770Y-101976750D01*
X119410770Y-101927060D01*
X119348960Y-101871040D01*
X119292940Y-101809230D01*
X119243250Y-101742230D01*
X119200370Y-101670690D01*
X119164700Y-101595280D01*
X119136600Y-101516740D01*
X119116330Y-101435830D01*
X119104090Y-101353310D01*
X119100000Y-101270000D01*
X119104090Y-101186690D01*
X119116330Y-101104170D01*
X119136600Y-101023260D01*
X119164700Y-100944720D01*
X119200370Y-100869310D01*
X119243250Y-100797770D01*
X119292940Y-100730770D01*
X119348960Y-100668960D01*
X119410770Y-100612940D01*
X119477770Y-100563250D01*
X119549310Y-100520370D01*
X119624720Y-100484700D01*
X119703260Y-100456600D01*
X119784170Y-100436330D01*
X119866690Y-100424090D01*
X119950000Y-100420000D01*
X120033310Y-100424090D01*
G37*
G36*
X136460000Y-133461000D02*
G01*
X128840000Y-133461000D01*
X128840000Y-131461000D01*
X136460000Y-131461000D01*
X136460000Y-133461000D01*
G37*
G36*
X84582000Y-128381000D02*
G01*
X76962000Y-128381000D01*
X76962000Y-126381000D01*
X84582000Y-126381000D01*
X84582000Y-128381000D01*
G37*
D11*
X107910000Y-66210000D02*
G75*
G02*
X106910000Y-66210000I-500000J0D01*
G01*
X106910000Y-66210000D02*
G75*
G02*
X107910000Y-66210000I500000J0D01*
G01*
D10*
G36*
X84582000Y-133461000D02*
G01*
X76962000Y-133461000D01*
X76962000Y-131461000D01*
X84582000Y-131461000D01*
X84582000Y-133461000D01*
G37*
G36*
X84582000Y-100441000D02*
G01*
X76962000Y-100441000D01*
X76962000Y-98441000D01*
X84582000Y-98441000D01*
X84582000Y-100441000D01*
G37*
G36*
X95592310Y-113124090D02*
G01*
X95674830Y-113136330D01*
X95755740Y-113156600D01*
X95834280Y-113184700D01*
X95909690Y-113220370D01*
X95981230Y-113263250D01*
X96048230Y-113312940D01*
X96110040Y-113368960D01*
X96166060Y-113430770D01*
X96215750Y-113497770D01*
X96258630Y-113569310D01*
X96294300Y-113644720D01*
X96322400Y-113723260D01*
X96342670Y-113804170D01*
X96354910Y-113886690D01*
X96359000Y-113970000D01*
X96354910Y-114053310D01*
X96342670Y-114135830D01*
X96322400Y-114216740D01*
X96294300Y-114295280D01*
X96258630Y-114370690D01*
X96215750Y-114442230D01*
X96166060Y-114509230D01*
X96110040Y-114571040D01*
X96048230Y-114627060D01*
X95981230Y-114676750D01*
X95909690Y-114719630D01*
X95834280Y-114755300D01*
X95755740Y-114783400D01*
X95674830Y-114803670D01*
X95592310Y-114815910D01*
X95509000Y-114820000D01*
X95425690Y-114815910D01*
X95343170Y-114803670D01*
X95262260Y-114783400D01*
X95183720Y-114755300D01*
X95108310Y-114719630D01*
X95036770Y-114676750D01*
X94969770Y-114627060D01*
X94907960Y-114571040D01*
X94851940Y-114509230D01*
X94802250Y-114442230D01*
X94759370Y-114370690D01*
X94723700Y-114295280D01*
X94695600Y-114216740D01*
X94675330Y-114135830D01*
X94663090Y-114053310D01*
X94659000Y-113970000D01*
X94663090Y-113886690D01*
X94675330Y-113804170D01*
X94695600Y-113723260D01*
X94723700Y-113644720D01*
X94759370Y-113569310D01*
X94802250Y-113497770D01*
X94851940Y-113430770D01*
X94907960Y-113368960D01*
X94969770Y-113312940D01*
X95036770Y-113263250D01*
X95108310Y-113220370D01*
X95183720Y-113184700D01*
X95262260Y-113156600D01*
X95343170Y-113136330D01*
X95425690Y-113124090D01*
X95509000Y-113120000D01*
X95592310Y-113124090D01*
G37*
G36*
X95592310Y-115664090D02*
G01*
X95674830Y-115676330D01*
X95755740Y-115696600D01*
X95834280Y-115724700D01*
X95909690Y-115760370D01*
X95981230Y-115803250D01*
X96048230Y-115852940D01*
X96110040Y-115908960D01*
X96166060Y-115970770D01*
X96215750Y-116037770D01*
X96258630Y-116109310D01*
X96294300Y-116184720D01*
X96322400Y-116263260D01*
X96342670Y-116344170D01*
X96354910Y-116426690D01*
X96359000Y-116510000D01*
X96354910Y-116593310D01*
X96342670Y-116675830D01*
X96322400Y-116756740D01*
X96294300Y-116835280D01*
X96258630Y-116910690D01*
X96215750Y-116982230D01*
X96166060Y-117049230D01*
X96110040Y-117111040D01*
X96048230Y-117167060D01*
X95981230Y-117216750D01*
X95909690Y-117259630D01*
X95834280Y-117295300D01*
X95755740Y-117323400D01*
X95674830Y-117343670D01*
X95592310Y-117355910D01*
X95509000Y-117360000D01*
X95425690Y-117355910D01*
X95343170Y-117343670D01*
X95262260Y-117323400D01*
X95183720Y-117295300D01*
X95108310Y-117259630D01*
X95036770Y-117216750D01*
X94969770Y-117167060D01*
X94907960Y-117111040D01*
X94851940Y-117049230D01*
X94802250Y-116982230D01*
X94759370Y-116910690D01*
X94723700Y-116835280D01*
X94695600Y-116756740D01*
X94675330Y-116675830D01*
X94663090Y-116593310D01*
X94659000Y-116510000D01*
X94663090Y-116426690D01*
X94675330Y-116344170D01*
X94695600Y-116263260D01*
X94723700Y-116184720D01*
X94759370Y-116109310D01*
X94802250Y-116037770D01*
X94851940Y-115970770D01*
X94907960Y-115908960D01*
X94969770Y-115852940D01*
X95036770Y-115803250D01*
X95108310Y-115760370D01*
X95183720Y-115724700D01*
X95262260Y-115696600D01*
X95343170Y-115676330D01*
X95425690Y-115664090D01*
X95509000Y-115660000D01*
X95592310Y-115664090D01*
G37*
G36*
X93052310Y-133444090D02*
G01*
X93134830Y-133456330D01*
X93215740Y-133476600D01*
X93294280Y-133504700D01*
X93369690Y-133540370D01*
X93441230Y-133583250D01*
X93508230Y-133632940D01*
X93570040Y-133688960D01*
X93626060Y-133750770D01*
X93675750Y-133817770D01*
X93718630Y-133889310D01*
X93754300Y-133964720D01*
X93782400Y-134043260D01*
X93802670Y-134124170D01*
X93814910Y-134206690D01*
X93819000Y-134290000D01*
X93814910Y-134373310D01*
X93802670Y-134455830D01*
X93782400Y-134536740D01*
X93754300Y-134615280D01*
X93718630Y-134690690D01*
X93675750Y-134762230D01*
X93626060Y-134829230D01*
X93570040Y-134891040D01*
X93508230Y-134947060D01*
X93441230Y-134996750D01*
X93369690Y-135039630D01*
X93294280Y-135075300D01*
X93215740Y-135103400D01*
X93134830Y-135123670D01*
X93052310Y-135135910D01*
X92969000Y-135140000D01*
X92885690Y-135135910D01*
X92803170Y-135123670D01*
X92722260Y-135103400D01*
X92643720Y-135075300D01*
X92568310Y-135039630D01*
X92496770Y-134996750D01*
X92429770Y-134947060D01*
X92367960Y-134891040D01*
X92311940Y-134829230D01*
X92262250Y-134762230D01*
X92219370Y-134690690D01*
X92183700Y-134615280D01*
X92155600Y-134536740D01*
X92135330Y-134455830D01*
X92123090Y-134373310D01*
X92119000Y-134290000D01*
X92123090Y-134206690D01*
X92135330Y-134124170D01*
X92155600Y-134043260D01*
X92183700Y-133964720D01*
X92219370Y-133889310D01*
X92262250Y-133817770D01*
X92311940Y-133750770D01*
X92367960Y-133688960D01*
X92429770Y-133632940D01*
X92496770Y-133583250D01*
X92568310Y-133540370D01*
X92643720Y-133504700D01*
X92722260Y-133476600D01*
X92803170Y-133456330D01*
X92885690Y-133444090D01*
X92969000Y-133440000D01*
X93052310Y-133444090D01*
G37*
G36*
X120033310Y-118204090D02*
G01*
X120115830Y-118216330D01*
X120196740Y-118236600D01*
X120275280Y-118264700D01*
X120350690Y-118300370D01*
X120422230Y-118343250D01*
X120489230Y-118392940D01*
X120551040Y-118448960D01*
X120607060Y-118510770D01*
X120656750Y-118577770D01*
X120699630Y-118649310D01*
X120735300Y-118724720D01*
X120763400Y-118803260D01*
X120783670Y-118884170D01*
X120795910Y-118966690D01*
X120800000Y-119050000D01*
X120795910Y-119133310D01*
X120783670Y-119215830D01*
X120763400Y-119296740D01*
X120735300Y-119375280D01*
X120699630Y-119450690D01*
X120656750Y-119522230D01*
X120607060Y-119589230D01*
X120551040Y-119651040D01*
X120489230Y-119707060D01*
X120422230Y-119756750D01*
X120350690Y-119799630D01*
X120275280Y-119835300D01*
X120196740Y-119863400D01*
X120115830Y-119883670D01*
X120033310Y-119895910D01*
X119950000Y-119900000D01*
X119866690Y-119895910D01*
X119784170Y-119883670D01*
X119703260Y-119863400D01*
X119624720Y-119835300D01*
X119549310Y-119799630D01*
X119477770Y-119756750D01*
X119410770Y-119707060D01*
X119348960Y-119651040D01*
X119292940Y-119589230D01*
X119243250Y-119522230D01*
X119200370Y-119450690D01*
X119164700Y-119375280D01*
X119136600Y-119296740D01*
X119116330Y-119215830D01*
X119104090Y-119133310D01*
X119100000Y-119050000D01*
X119104090Y-118966690D01*
X119116330Y-118884170D01*
X119136600Y-118803260D01*
X119164700Y-118724720D01*
X119200370Y-118649310D01*
X119243250Y-118577770D01*
X119292940Y-118510770D01*
X119348960Y-118448960D01*
X119410770Y-118392940D01*
X119477770Y-118343250D01*
X119549310Y-118300370D01*
X119624720Y-118264700D01*
X119703260Y-118236600D01*
X119784170Y-118216330D01*
X119866690Y-118204090D01*
X119950000Y-118200000D01*
X120033310Y-118204090D01*
G37*
G36*
X93052310Y-125824090D02*
G01*
X93134830Y-125836330D01*
X93215740Y-125856600D01*
X93294280Y-125884700D01*
X93369690Y-125920370D01*
X93441230Y-125963250D01*
X93508230Y-126012940D01*
X93570040Y-126068960D01*
X93626060Y-126130770D01*
X93675750Y-126197770D01*
X93718630Y-126269310D01*
X93754300Y-126344720D01*
X93782400Y-126423260D01*
X93802670Y-126504170D01*
X93814910Y-126586690D01*
X93819000Y-126670000D01*
X93814910Y-126753310D01*
X93802670Y-126835830D01*
X93782400Y-126916740D01*
X93754300Y-126995280D01*
X93718630Y-127070690D01*
X93675750Y-127142230D01*
X93626060Y-127209230D01*
X93570040Y-127271040D01*
X93508230Y-127327060D01*
X93441230Y-127376750D01*
X93369690Y-127419630D01*
X93294280Y-127455300D01*
X93215740Y-127483400D01*
X93134830Y-127503670D01*
X93052310Y-127515910D01*
X92969000Y-127520000D01*
X92885690Y-127515910D01*
X92803170Y-127503670D01*
X92722260Y-127483400D01*
X92643720Y-127455300D01*
X92568310Y-127419630D01*
X92496770Y-127376750D01*
X92429770Y-127327060D01*
X92367960Y-127271040D01*
X92311940Y-127209230D01*
X92262250Y-127142230D01*
X92219370Y-127070690D01*
X92183700Y-126995280D01*
X92155600Y-126916740D01*
X92135330Y-126835830D01*
X92123090Y-126753310D01*
X92119000Y-126670000D01*
X92123090Y-126586690D01*
X92135330Y-126504170D01*
X92155600Y-126423260D01*
X92183700Y-126344720D01*
X92219370Y-126269310D01*
X92262250Y-126197770D01*
X92311940Y-126130770D01*
X92367960Y-126068960D01*
X92429770Y-126012940D01*
X92496770Y-125963250D01*
X92568310Y-125920370D01*
X92643720Y-125884700D01*
X92722260Y-125856600D01*
X92803170Y-125836330D01*
X92885690Y-125824090D01*
X92969000Y-125820000D01*
X93052310Y-125824090D01*
G37*
G36*
X120033310Y-110584090D02*
G01*
X120115830Y-110596330D01*
X120196740Y-110616600D01*
X120275280Y-110644700D01*
X120350690Y-110680370D01*
X120422230Y-110723250D01*
X120489230Y-110772940D01*
X120551040Y-110828960D01*
X120607060Y-110890770D01*
X120656750Y-110957770D01*
X120699630Y-111029310D01*
X120735300Y-111104720D01*
X120763400Y-111183260D01*
X120783670Y-111264170D01*
X120795910Y-111346690D01*
X120800000Y-111430000D01*
X120795910Y-111513310D01*
X120783670Y-111595830D01*
X120763400Y-111676740D01*
X120735300Y-111755280D01*
X120699630Y-111830690D01*
X120656750Y-111902230D01*
X120607060Y-111969230D01*
X120551040Y-112031040D01*
X120489230Y-112087060D01*
X120422230Y-112136750D01*
X120350690Y-112179630D01*
X120275280Y-112215300D01*
X120196740Y-112243400D01*
X120115830Y-112263670D01*
X120033310Y-112275910D01*
X119950000Y-112280000D01*
X119866690Y-112275910D01*
X119784170Y-112263670D01*
X119703260Y-112243400D01*
X119624720Y-112215300D01*
X119549310Y-112179630D01*
X119477770Y-112136750D01*
X119410770Y-112087060D01*
X119348960Y-112031040D01*
X119292940Y-111969230D01*
X119243250Y-111902230D01*
X119200370Y-111830690D01*
X119164700Y-111755280D01*
X119136600Y-111676740D01*
X119116330Y-111595830D01*
X119104090Y-111513310D01*
X119100000Y-111430000D01*
X119104090Y-111346690D01*
X119116330Y-111264170D01*
X119136600Y-111183260D01*
X119164700Y-111104720D01*
X119200370Y-111029310D01*
X119243250Y-110957770D01*
X119292940Y-110890770D01*
X119348960Y-110828960D01*
X119410770Y-110772940D01*
X119477770Y-110723250D01*
X119549310Y-110680370D01*
X119624720Y-110644700D01*
X119703260Y-110616600D01*
X119784170Y-110596330D01*
X119866690Y-110584090D01*
X119950000Y-110580000D01*
X120033310Y-110584090D01*
G37*
G36*
X136460000Y-95361000D02*
G01*
X128840000Y-95361000D01*
X128840000Y-93361000D01*
X136460000Y-93361000D01*
X136460000Y-95361000D01*
G37*
G36*
X93819000Y-97040000D02*
G01*
X92119000Y-97040000D01*
X92119000Y-95340000D01*
X93819000Y-95340000D01*
X93819000Y-97040000D01*
G37*
G36*
X92659000Y-90881000D02*
G01*
X89459000Y-90881000D01*
X89459000Y-87681000D01*
X92659000Y-87681000D01*
X92659000Y-90881000D01*
G37*
G36*
X120033310Y-95344090D02*
G01*
X120115830Y-95356330D01*
X120196740Y-95376600D01*
X120275280Y-95404700D01*
X120350690Y-95440370D01*
X120422230Y-95483250D01*
X120489230Y-95532940D01*
X120551040Y-95588960D01*
X120607060Y-95650770D01*
X120656750Y-95717770D01*
X120699630Y-95789310D01*
X120735300Y-95864720D01*
X120763400Y-95943260D01*
X120783670Y-96024170D01*
X120795910Y-96106690D01*
X120800000Y-96190000D01*
X120795910Y-96273310D01*
X120783670Y-96355830D01*
X120763400Y-96436740D01*
X120735300Y-96515280D01*
X120699630Y-96590690D01*
X120656750Y-96662230D01*
X120607060Y-96729230D01*
X120551040Y-96791040D01*
X120489230Y-96847060D01*
X120422230Y-96896750D01*
X120350690Y-96939630D01*
X120275280Y-96975300D01*
X120196740Y-97003400D01*
X120115830Y-97023670D01*
X120033310Y-97035910D01*
X119950000Y-97040000D01*
X119866690Y-97035910D01*
X119784170Y-97023670D01*
X119703260Y-97003400D01*
X119624720Y-96975300D01*
X119549310Y-96939630D01*
X119477770Y-96896750D01*
X119410770Y-96847060D01*
X119348960Y-96791040D01*
X119292940Y-96729230D01*
X119243250Y-96662230D01*
X119200370Y-96590690D01*
X119164700Y-96515280D01*
X119136600Y-96436740D01*
X119116330Y-96355830D01*
X119104090Y-96273310D01*
X119100000Y-96190000D01*
X119104090Y-96106690D01*
X119116330Y-96024170D01*
X119136600Y-95943260D01*
X119164700Y-95864720D01*
X119200370Y-95789310D01*
X119243250Y-95717770D01*
X119292940Y-95650770D01*
X119348960Y-95588960D01*
X119410770Y-95532940D01*
X119477770Y-95483250D01*
X119549310Y-95440370D01*
X119624720Y-95404700D01*
X119703260Y-95376600D01*
X119784170Y-95356330D01*
X119866690Y-95344090D01*
X119950000Y-95340000D01*
X120033310Y-95344090D01*
G37*
D11*
X101410000Y-70710000D02*
G75*
G02*
X100410000Y-70710000I-500000J0D01*
G01*
X100410000Y-70710000D02*
G75*
G02*
X101410000Y-70710000I500000J0D01*
G01*
D10*
G36*
X136460000Y-123301000D02*
G01*
X128840000Y-123301000D01*
X128840000Y-121301000D01*
X136460000Y-121301000D01*
X136460000Y-123301000D01*
G37*
G36*
X84582000Y-136001000D02*
G01*
X76962000Y-136001000D01*
X76962000Y-134001000D01*
X84582000Y-134001000D01*
X84582000Y-136001000D01*
G37*
G36*
X95592310Y-130904090D02*
G01*
X95674830Y-130916330D01*
X95755740Y-130936600D01*
X95834280Y-130964700D01*
X95909690Y-131000370D01*
X95981230Y-131043250D01*
X96048230Y-131092940D01*
X96110040Y-131148960D01*
X96166060Y-131210770D01*
X96215750Y-131277770D01*
X96258630Y-131349310D01*
X96294300Y-131424720D01*
X96322400Y-131503260D01*
X96342670Y-131584170D01*
X96354910Y-131666690D01*
X96359000Y-131750000D01*
X96354910Y-131833310D01*
X96342670Y-131915830D01*
X96322400Y-131996740D01*
X96294300Y-132075280D01*
X96258630Y-132150690D01*
X96215750Y-132222230D01*
X96166060Y-132289230D01*
X96110040Y-132351040D01*
X96048230Y-132407060D01*
X95981230Y-132456750D01*
X95909690Y-132499630D01*
X95834280Y-132535300D01*
X95755740Y-132563400D01*
X95674830Y-132583670D01*
X95592310Y-132595910D01*
X95509000Y-132600000D01*
X95425690Y-132595910D01*
X95343170Y-132583670D01*
X95262260Y-132563400D01*
X95183720Y-132535300D01*
X95108310Y-132499630D01*
X95036770Y-132456750D01*
X94969770Y-132407060D01*
X94907960Y-132351040D01*
X94851940Y-132289230D01*
X94802250Y-132222230D01*
X94759370Y-132150690D01*
X94723700Y-132075280D01*
X94695600Y-131996740D01*
X94675330Y-131915830D01*
X94663090Y-131833310D01*
X94659000Y-131750000D01*
X94663090Y-131666690D01*
X94675330Y-131584170D01*
X94695600Y-131503260D01*
X94723700Y-131424720D01*
X94759370Y-131349310D01*
X94802250Y-131277770D01*
X94851940Y-131210770D01*
X94907960Y-131148960D01*
X94969770Y-131092940D01*
X95036770Y-131043250D01*
X95108310Y-131000370D01*
X95183720Y-130964700D01*
X95262260Y-130936600D01*
X95343170Y-130916330D01*
X95425690Y-130904090D01*
X95509000Y-130900000D01*
X95592310Y-130904090D01*
G37*
G36*
X95592310Y-125824090D02*
G01*
X95674830Y-125836330D01*
X95755740Y-125856600D01*
X95834280Y-125884700D01*
X95909690Y-125920370D01*
X95981230Y-125963250D01*
X96048230Y-126012940D01*
X96110040Y-126068960D01*
X96166060Y-126130770D01*
X96215750Y-126197770D01*
X96258630Y-126269310D01*
X96294300Y-126344720D01*
X96322400Y-126423260D01*
X96342670Y-126504170D01*
X96354910Y-126586690D01*
X96359000Y-126670000D01*
X96354910Y-126753310D01*
X96342670Y-126835830D01*
X96322400Y-126916740D01*
X96294300Y-126995280D01*
X96258630Y-127070690D01*
X96215750Y-127142230D01*
X96166060Y-127209230D01*
X96110040Y-127271040D01*
X96048230Y-127327060D01*
X95981230Y-127376750D01*
X95909690Y-127419630D01*
X95834280Y-127455300D01*
X95755740Y-127483400D01*
X95674830Y-127503670D01*
X95592310Y-127515910D01*
X95509000Y-127520000D01*
X95425690Y-127515910D01*
X95343170Y-127503670D01*
X95262260Y-127483400D01*
X95183720Y-127455300D01*
X95108310Y-127419630D01*
X95036770Y-127376750D01*
X94969770Y-127327060D01*
X94907960Y-127271040D01*
X94851940Y-127209230D01*
X94802250Y-127142230D01*
X94759370Y-127070690D01*
X94723700Y-126995280D01*
X94695600Y-126916740D01*
X94675330Y-126835830D01*
X94663090Y-126753310D01*
X94659000Y-126670000D01*
X94663090Y-126586690D01*
X94675330Y-126504170D01*
X94695600Y-126423260D01*
X94723700Y-126344720D01*
X94759370Y-126269310D01*
X94802250Y-126197770D01*
X94851940Y-126130770D01*
X94907960Y-126068960D01*
X94969770Y-126012940D01*
X95036770Y-125963250D01*
X95108310Y-125920370D01*
X95183720Y-125884700D01*
X95262260Y-125856600D01*
X95343170Y-125836330D01*
X95425690Y-125824090D01*
X95509000Y-125820000D01*
X95592310Y-125824090D01*
G37*
D12*
%TO.C,SK1*%
X80772000Y-68961000D03*
X80772000Y-71501000D03*
X80772000Y-74041000D03*
X80772000Y-76581000D03*
X80772000Y-81661000D03*
X80772000Y-84201000D03*
X80772000Y-86741000D03*
X80772000Y-89281000D03*
X80772000Y-91821000D03*
X80772000Y-94361000D03*
X80772000Y-96901000D03*
X80772000Y-99441000D03*
X80772000Y-101981000D03*
X80772000Y-104521000D03*
X80772000Y-107061000D03*
X80772000Y-109601000D03*
X80772000Y-112141000D03*
X80772000Y-114681000D03*
X80772000Y-117221000D03*
X80772000Y-119761000D03*
X80772000Y-122301000D03*
X80772000Y-124841000D03*
X80772000Y-127381000D03*
X80772000Y-129921000D03*
X80772000Y-132461000D03*
X80772000Y-135001000D03*
X80772000Y-137541000D03*
%TD*%
D13*
%TO.C,J3*%
X118649750Y-66068575D03*
D14*
X121189750Y-66068575D03*
X123729750Y-66068575D03*
%TD*%
D15*
%TO.C,S1*%
X100939965Y-66196650D03*
X107439965Y-66196650D03*
X100939965Y-70696650D03*
X107439965Y-70696650D03*
%TD*%
D16*
%TO.C,D1*%
X91059000Y-89281000D03*
D17*
X91059000Y-74041000D03*
%TD*%
D12*
%TO.C,SK2*%
X132650000Y-68961000D03*
X132650000Y-71501000D03*
X132650000Y-74041000D03*
X132650000Y-76581000D03*
X132650000Y-81661000D03*
X132650000Y-84201000D03*
X132650000Y-86741000D03*
X132650000Y-89281000D03*
X132650000Y-91821000D03*
X132650000Y-94361000D03*
X132650000Y-96901000D03*
X132650000Y-99441000D03*
X132650000Y-101981000D03*
X132650000Y-104521000D03*
X132650000Y-107061000D03*
X132650000Y-109601000D03*
X132650000Y-112141000D03*
X132650000Y-114681000D03*
X132650000Y-117221000D03*
X132650000Y-119761000D03*
X132650000Y-122301000D03*
X132650000Y-124841000D03*
X132650000Y-127381000D03*
X132650000Y-129921000D03*
X132650000Y-132461000D03*
X132650000Y-135001000D03*
X132650000Y-137541000D03*
%TD*%
D18*
%TO.C,J1*%
X92969000Y-96190000D03*
D19*
X95509000Y-96190000D03*
X92969000Y-98730000D03*
X95509000Y-98730000D03*
X92969000Y-101270000D03*
X95509000Y-101270000D03*
X92969000Y-103810000D03*
X95509000Y-103810000D03*
X92969000Y-106350000D03*
X95509000Y-106350000D03*
X92969000Y-108890000D03*
X95509000Y-108890000D03*
X92969000Y-111430000D03*
X95509000Y-111430000D03*
X92969000Y-113970000D03*
X95509000Y-113970000D03*
X92969000Y-116510000D03*
X95509000Y-116510000D03*
X92969000Y-119050000D03*
X95509000Y-119050000D03*
X92969000Y-121590000D03*
X95509000Y-121590000D03*
X92969000Y-124130000D03*
X95509000Y-124130000D03*
X92969000Y-126670000D03*
X95509000Y-126670000D03*
X92969000Y-129210000D03*
X95509000Y-129210000D03*
X92969000Y-131750000D03*
X95509000Y-131750000D03*
X92969000Y-134290000D03*
X95509000Y-134290000D03*
%TD*%
D18*
%TO.C,J2*%
X117410000Y-96189800D03*
D19*
X119950000Y-96189800D03*
X117410000Y-98729800D03*
X119950000Y-98729800D03*
X117410000Y-101269800D03*
X119950000Y-101269800D03*
X117410000Y-103809800D03*
X119950000Y-103809800D03*
X117410000Y-106349800D03*
X119950000Y-106349800D03*
X117410000Y-108889800D03*
X119950000Y-108889800D03*
X117410000Y-111429800D03*
X119950000Y-111429800D03*
X117410000Y-113969800D03*
X119950000Y-113969800D03*
X117410000Y-116509800D03*
X119950000Y-116509800D03*
X117410000Y-119049800D03*
X119950000Y-119049800D03*
X117410000Y-121589800D03*
X119950000Y-121589800D03*
X117410000Y-124129800D03*
X119950000Y-124129800D03*
X117410000Y-126669800D03*
X119950000Y-126669800D03*
X117410000Y-129209800D03*
X119950000Y-129209800D03*
X117410000Y-131749800D03*
X119950000Y-131749800D03*
X117410000Y-134289800D03*
X119950000Y-134289800D03*
%TD*%
M02*
