%TF.GenerationSoftware,KiCad,Pcbnew,9.0.5*%
%TF.CreationDate,2025-12-03T10:09:40+00:00*%
%TF.ProjectId,ZX Interface,5a582049-6e74-4657-9266-6163652e6b69,3.2*%
%TF.SameCoordinates,Original*%
%TF.FileFunction,AssemblyDrawing,Bot*%
%FSLAX46Y46*%
G04 Gerber Fmt 4.6, Leading zero omitted, Abs format (unit mm)*
G04 Created by KiCad (PCBNEW 9.0.5) date 2025-12-03 10:09:40*
%MOMM*%
%LPD*%
G01*
G04 APERTURE LIST*
%ADD10C,0.150000*%
%ADD11C,0.100000*%
%ADD12C,0.200000*%
G04 APERTURE END LIST*
D10*
X91076200Y-115360953D02*
X91123819Y-115503810D01*
X91123819Y-115503810D02*
X91123819Y-115741905D01*
X91123819Y-115741905D02*
X91076200Y-115837143D01*
X91076200Y-115837143D02*
X91028580Y-115884762D01*
X91028580Y-115884762D02*
X90933342Y-115932381D01*
X90933342Y-115932381D02*
X90838104Y-115932381D01*
X90838104Y-115932381D02*
X90742866Y-115884762D01*
X90742866Y-115884762D02*
X90695247Y-115837143D01*
X90695247Y-115837143D02*
X90647628Y-115741905D01*
X90647628Y-115741905D02*
X90600009Y-115551429D01*
X90600009Y-115551429D02*
X90552390Y-115456191D01*
X90552390Y-115456191D02*
X90504771Y-115408572D01*
X90504771Y-115408572D02*
X90409533Y-115360953D01*
X90409533Y-115360953D02*
X90314295Y-115360953D01*
X90314295Y-115360953D02*
X90219057Y-115408572D01*
X90219057Y-115408572D02*
X90171438Y-115456191D01*
X90171438Y-115456191D02*
X90123819Y-115551429D01*
X90123819Y-115551429D02*
X90123819Y-115789524D01*
X90123819Y-115789524D02*
X90171438Y-115932381D01*
X91076200Y-116313334D02*
X91123819Y-116456191D01*
X91123819Y-116456191D02*
X91123819Y-116694286D01*
X91123819Y-116694286D02*
X91076200Y-116789524D01*
X91076200Y-116789524D02*
X91028580Y-116837143D01*
X91028580Y-116837143D02*
X90933342Y-116884762D01*
X90933342Y-116884762D02*
X90838104Y-116884762D01*
X90838104Y-116884762D02*
X90742866Y-116837143D01*
X90742866Y-116837143D02*
X90695247Y-116789524D01*
X90695247Y-116789524D02*
X90647628Y-116694286D01*
X90647628Y-116694286D02*
X90600009Y-116503810D01*
X90600009Y-116503810D02*
X90552390Y-116408572D01*
X90552390Y-116408572D02*
X90504771Y-116360953D01*
X90504771Y-116360953D02*
X90409533Y-116313334D01*
X90409533Y-116313334D02*
X90314295Y-116313334D01*
X90314295Y-116313334D02*
X90219057Y-116360953D01*
X90219057Y-116360953D02*
X90171438Y-116408572D01*
X90171438Y-116408572D02*
X90123819Y-116503810D01*
X90123819Y-116503810D02*
X90123819Y-116741905D01*
X90123819Y-116741905D02*
X90171438Y-116884762D01*
X91219057Y-117980000D02*
X91171438Y-117884762D01*
X91171438Y-117884762D02*
X91076200Y-117789524D01*
X91076200Y-117789524D02*
X90933342Y-117646667D01*
X90933342Y-117646667D02*
X90885723Y-117551429D01*
X90885723Y-117551429D02*
X90885723Y-117456191D01*
X91123819Y-117503810D02*
X91076200Y-117408572D01*
X91076200Y-117408572D02*
X90980961Y-117313334D01*
X90980961Y-117313334D02*
X90790485Y-117265715D01*
X90790485Y-117265715D02*
X90457152Y-117265715D01*
X90457152Y-117265715D02*
X90266676Y-117313334D01*
X90266676Y-117313334D02*
X90171438Y-117408572D01*
X90171438Y-117408572D02*
X90123819Y-117503810D01*
X90123819Y-117503810D02*
X90123819Y-117694286D01*
X90123819Y-117694286D02*
X90171438Y-117789524D01*
X90171438Y-117789524D02*
X90266676Y-117884762D01*
X90266676Y-117884762D02*
X90457152Y-117932381D01*
X90457152Y-117932381D02*
X90790485Y-117932381D01*
X90790485Y-117932381D02*
X90980961Y-117884762D01*
X90980961Y-117884762D02*
X91076200Y-117789524D01*
X91076200Y-117789524D02*
X91123819Y-117694286D01*
X91123819Y-117694286D02*
X91123819Y-117503810D01*
X90742866Y-118360953D02*
X90742866Y-119122858D01*
X91123819Y-120122857D02*
X91123819Y-119551429D01*
X91123819Y-119837143D02*
X90123819Y-119837143D01*
X90123819Y-119837143D02*
X90266676Y-119741905D01*
X90266676Y-119741905D02*
X90361914Y-119646667D01*
X90361914Y-119646667D02*
X90409533Y-119551429D01*
X91123819Y-121075238D02*
X91123819Y-120503810D01*
X91123819Y-120789524D02*
X90123819Y-120789524D01*
X90123819Y-120789524D02*
X90266676Y-120694286D01*
X90266676Y-120694286D02*
X90361914Y-120599048D01*
X90361914Y-120599048D02*
X90409533Y-120503810D01*
X90123819Y-121932381D02*
X90123819Y-121741905D01*
X90123819Y-121741905D02*
X90171438Y-121646667D01*
X90171438Y-121646667D02*
X90219057Y-121599048D01*
X90219057Y-121599048D02*
X90361914Y-121503810D01*
X90361914Y-121503810D02*
X90552390Y-121456191D01*
X90552390Y-121456191D02*
X90933342Y-121456191D01*
X90933342Y-121456191D02*
X91028580Y-121503810D01*
X91028580Y-121503810D02*
X91076200Y-121551429D01*
X91076200Y-121551429D02*
X91123819Y-121646667D01*
X91123819Y-121646667D02*
X91123819Y-121837143D01*
X91123819Y-121837143D02*
X91076200Y-121932381D01*
X91076200Y-121932381D02*
X91028580Y-121980000D01*
X91028580Y-121980000D02*
X90933342Y-122027619D01*
X90933342Y-122027619D02*
X90695247Y-122027619D01*
X90695247Y-122027619D02*
X90600009Y-121980000D01*
X90600009Y-121980000D02*
X90552390Y-121932381D01*
X90552390Y-121932381D02*
X90504771Y-121837143D01*
X90504771Y-121837143D02*
X90504771Y-121646667D01*
X90504771Y-121646667D02*
X90552390Y-121551429D01*
X90552390Y-121551429D02*
X90600009Y-121503810D01*
X90600009Y-121503810D02*
X90695247Y-121456191D01*
X90742866Y-122456191D02*
X90742866Y-123218096D01*
X90123819Y-123599048D02*
X91123819Y-124265714D01*
X90123819Y-124265714D02*
X91123819Y-123599048D01*
X90123819Y-124551429D02*
X91123819Y-125218095D01*
X90123819Y-125218095D02*
X91123819Y-124551429D01*
X90742866Y-125599048D02*
X90742866Y-126360953D01*
X90123819Y-126741905D02*
X91123819Y-127408571D01*
X90123819Y-127408571D02*
X91123819Y-126741905D01*
X90742866Y-127789524D02*
X90742866Y-128551429D01*
X91123819Y-129027619D02*
X90123819Y-129027619D01*
X90123819Y-129027619D02*
X90123819Y-129265714D01*
X90123819Y-129265714D02*
X90171438Y-129408571D01*
X90171438Y-129408571D02*
X90266676Y-129503809D01*
X90266676Y-129503809D02*
X90361914Y-129551428D01*
X90361914Y-129551428D02*
X90552390Y-129599047D01*
X90552390Y-129599047D02*
X90695247Y-129599047D01*
X90695247Y-129599047D02*
X90885723Y-129551428D01*
X90885723Y-129551428D02*
X90980961Y-129503809D01*
X90980961Y-129503809D02*
X91076200Y-129408571D01*
X91076200Y-129408571D02*
X91123819Y-129265714D01*
X91123819Y-129265714D02*
X91123819Y-129027619D01*
X115517200Y-115360753D02*
X115564819Y-115503610D01*
X115564819Y-115503610D02*
X115564819Y-115741705D01*
X115564819Y-115741705D02*
X115517200Y-115836943D01*
X115517200Y-115836943D02*
X115469580Y-115884562D01*
X115469580Y-115884562D02*
X115374342Y-115932181D01*
X115374342Y-115932181D02*
X115279104Y-115932181D01*
X115279104Y-115932181D02*
X115183866Y-115884562D01*
X115183866Y-115884562D02*
X115136247Y-115836943D01*
X115136247Y-115836943D02*
X115088628Y-115741705D01*
X115088628Y-115741705D02*
X115041009Y-115551229D01*
X115041009Y-115551229D02*
X114993390Y-115455991D01*
X114993390Y-115455991D02*
X114945771Y-115408372D01*
X114945771Y-115408372D02*
X114850533Y-115360753D01*
X114850533Y-115360753D02*
X114755295Y-115360753D01*
X114755295Y-115360753D02*
X114660057Y-115408372D01*
X114660057Y-115408372D02*
X114612438Y-115455991D01*
X114612438Y-115455991D02*
X114564819Y-115551229D01*
X114564819Y-115551229D02*
X114564819Y-115789324D01*
X114564819Y-115789324D02*
X114612438Y-115932181D01*
X115517200Y-116313134D02*
X115564819Y-116455991D01*
X115564819Y-116455991D02*
X115564819Y-116694086D01*
X115564819Y-116694086D02*
X115517200Y-116789324D01*
X115517200Y-116789324D02*
X115469580Y-116836943D01*
X115469580Y-116836943D02*
X115374342Y-116884562D01*
X115374342Y-116884562D02*
X115279104Y-116884562D01*
X115279104Y-116884562D02*
X115183866Y-116836943D01*
X115183866Y-116836943D02*
X115136247Y-116789324D01*
X115136247Y-116789324D02*
X115088628Y-116694086D01*
X115088628Y-116694086D02*
X115041009Y-116503610D01*
X115041009Y-116503610D02*
X114993390Y-116408372D01*
X114993390Y-116408372D02*
X114945771Y-116360753D01*
X114945771Y-116360753D02*
X114850533Y-116313134D01*
X114850533Y-116313134D02*
X114755295Y-116313134D01*
X114755295Y-116313134D02*
X114660057Y-116360753D01*
X114660057Y-116360753D02*
X114612438Y-116408372D01*
X114612438Y-116408372D02*
X114564819Y-116503610D01*
X114564819Y-116503610D02*
X114564819Y-116741705D01*
X114564819Y-116741705D02*
X114612438Y-116884562D01*
X115660057Y-117979800D02*
X115612438Y-117884562D01*
X115612438Y-117884562D02*
X115517200Y-117789324D01*
X115517200Y-117789324D02*
X115374342Y-117646467D01*
X115374342Y-117646467D02*
X115326723Y-117551229D01*
X115326723Y-117551229D02*
X115326723Y-117455991D01*
X115564819Y-117503610D02*
X115517200Y-117408372D01*
X115517200Y-117408372D02*
X115421961Y-117313134D01*
X115421961Y-117313134D02*
X115231485Y-117265515D01*
X115231485Y-117265515D02*
X114898152Y-117265515D01*
X114898152Y-117265515D02*
X114707676Y-117313134D01*
X114707676Y-117313134D02*
X114612438Y-117408372D01*
X114612438Y-117408372D02*
X114564819Y-117503610D01*
X114564819Y-117503610D02*
X114564819Y-117694086D01*
X114564819Y-117694086D02*
X114612438Y-117789324D01*
X114612438Y-117789324D02*
X114707676Y-117884562D01*
X114707676Y-117884562D02*
X114898152Y-117932181D01*
X114898152Y-117932181D02*
X115231485Y-117932181D01*
X115231485Y-117932181D02*
X115421961Y-117884562D01*
X115421961Y-117884562D02*
X115517200Y-117789324D01*
X115517200Y-117789324D02*
X115564819Y-117694086D01*
X115564819Y-117694086D02*
X115564819Y-117503610D01*
X115183866Y-118360753D02*
X115183866Y-119122658D01*
X115564819Y-120122657D02*
X115564819Y-119551229D01*
X115564819Y-119836943D02*
X114564819Y-119836943D01*
X114564819Y-119836943D02*
X114707676Y-119741705D01*
X114707676Y-119741705D02*
X114802914Y-119646467D01*
X114802914Y-119646467D02*
X114850533Y-119551229D01*
X115564819Y-121075038D02*
X115564819Y-120503610D01*
X115564819Y-120789324D02*
X114564819Y-120789324D01*
X114564819Y-120789324D02*
X114707676Y-120694086D01*
X114707676Y-120694086D02*
X114802914Y-120598848D01*
X114802914Y-120598848D02*
X114850533Y-120503610D01*
X114564819Y-121932181D02*
X114564819Y-121741705D01*
X114564819Y-121741705D02*
X114612438Y-121646467D01*
X114612438Y-121646467D02*
X114660057Y-121598848D01*
X114660057Y-121598848D02*
X114802914Y-121503610D01*
X114802914Y-121503610D02*
X114993390Y-121455991D01*
X114993390Y-121455991D02*
X115374342Y-121455991D01*
X115374342Y-121455991D02*
X115469580Y-121503610D01*
X115469580Y-121503610D02*
X115517200Y-121551229D01*
X115517200Y-121551229D02*
X115564819Y-121646467D01*
X115564819Y-121646467D02*
X115564819Y-121836943D01*
X115564819Y-121836943D02*
X115517200Y-121932181D01*
X115517200Y-121932181D02*
X115469580Y-121979800D01*
X115469580Y-121979800D02*
X115374342Y-122027419D01*
X115374342Y-122027419D02*
X115136247Y-122027419D01*
X115136247Y-122027419D02*
X115041009Y-121979800D01*
X115041009Y-121979800D02*
X114993390Y-121932181D01*
X114993390Y-121932181D02*
X114945771Y-121836943D01*
X114945771Y-121836943D02*
X114945771Y-121646467D01*
X114945771Y-121646467D02*
X114993390Y-121551229D01*
X114993390Y-121551229D02*
X115041009Y-121503610D01*
X115041009Y-121503610D02*
X115136247Y-121455991D01*
X115183866Y-122455991D02*
X115183866Y-123217896D01*
X114564819Y-123598848D02*
X115564819Y-124265514D01*
X114564819Y-124265514D02*
X115564819Y-123598848D01*
X114564819Y-124551229D02*
X115564819Y-125217895D01*
X114564819Y-125217895D02*
X115564819Y-124551229D01*
X115183866Y-125598848D02*
X115183866Y-126360753D01*
X114564819Y-126741705D02*
X115564819Y-127408371D01*
X114564819Y-127408371D02*
X115564819Y-126741705D01*
X115183866Y-127789324D02*
X115183866Y-128551229D01*
X115564819Y-129027419D02*
X114564819Y-129027419D01*
X114564819Y-129027419D02*
X114564819Y-129265514D01*
X114564819Y-129265514D02*
X114612438Y-129408371D01*
X114612438Y-129408371D02*
X114707676Y-129503609D01*
X114707676Y-129503609D02*
X114802914Y-129551228D01*
X114802914Y-129551228D02*
X114993390Y-129598847D01*
X114993390Y-129598847D02*
X115136247Y-129598847D01*
X115136247Y-129598847D02*
X115326723Y-129551228D01*
X115326723Y-129551228D02*
X115421961Y-129503609D01*
X115421961Y-129503609D02*
X115517200Y-129408371D01*
X115517200Y-129408371D02*
X115564819Y-129265514D01*
X115564819Y-129265514D02*
X115564819Y-129027419D01*
D11*
%TO.C,J1*%
X91764000Y-94665000D02*
X96714000Y-94665000D01*
X91764000Y-135815000D02*
X91764000Y-94665000D01*
X96714000Y-135815000D02*
X91764000Y-135815000D01*
X96714000Y-135815000D02*
X96714000Y-94665000D01*
D12*
X93029000Y-93905000D02*
G75*
G02*
X92829000Y-93905000I-100000J0D01*
G01*
X92829000Y-93905000D02*
G75*
G02*
X93029000Y-93905000I100000J0D01*
G01*
D11*
%TO.C,J2*%
X116205000Y-94664800D02*
X121155000Y-94664800D01*
X116205000Y-135814800D02*
X116205000Y-94664800D01*
X121155000Y-135814800D02*
X116205000Y-135814800D01*
X121155000Y-135814800D02*
X121155000Y-94664800D01*
D12*
X117470000Y-93904800D02*
G75*
G02*
X117270000Y-93904800I-100000J0D01*
G01*
X117270000Y-93904800D02*
G75*
G02*
X117470000Y-93904800I100000J0D01*
G01*
%TD*%
M02*
