%TF.GenerationSoftware,KiCad,Pcbnew,9.0.5*%
%TF.CreationDate,2025-12-03T10:09:39+00:00*%
%TF.ProjectId,ZX Interface,5a582049-6e74-4657-9266-6163652e6b69,3.2*%
%TF.SameCoordinates,Original*%
%TF.FileFunction,Copper,L4,Bot*%
%TF.FilePolarity,Positive*%
%FSLAX46Y46*%
G04 Gerber Fmt 4.6, Leading zero omitted, Abs format (unit mm)*
G04 Created by KiCad (PCBNEW 9.0.5) date 2025-12-03 10:09:39*
%MOMM*%
%LPD*%
G01*
G04 APERTURE LIST*
G04 Aperture macros list*
%AMRoundRect*
0 Rectangle with rounded corners*
0 $1 Rounding radius*
0 $2 $3 $4 $5 $6 $7 $8 $9 X,Y pos of 4 corners*
0 Add a 4 corners polygon primitive as box body*
4,1,4,$2,$3,$4,$5,$6,$7,$8,$9,$2,$3,0*
0 Add four circle primitives for the rounded corners*
1,1,$1+$1,$2,$3*
1,1,$1+$1,$4,$5*
1,1,$1+$1,$6,$7*
1,1,$1+$1,$8,$9*
0 Add four rect primitives between the rounded corners*
20,1,$1+$1,$2,$3,$4,$5,0*
20,1,$1+$1,$4,$5,$6,$7,0*
20,1,$1+$1,$6,$7,$8,$9,0*
20,1,$1+$1,$8,$9,$2,$3,0*%
G04 Aperture macros list end*
%TA.AperFunction,Conductor*%
%ADD10C,0.850000*%
%TD*%
%TA.AperFunction,Conductor*%
%ADD11C,0.300000*%
%TD*%
%TA.AperFunction,Conductor*%
%ADD12C,0.000000*%
%TD*%
%TA.AperFunction,Conductor*%
%ADD13C,0.400000*%
%TD*%
%TA.AperFunction,Conductor*%
%ADD14C,1.000000*%
%TD*%
%TA.AperFunction,Conductor*%
%ADD15C,0.500000*%
%TD*%
%TA.AperFunction,Conductor*%
%ADD16C,1.600000*%
%TD*%
%TA.AperFunction,SMDPad,CuDef*%
%ADD17R,7.620000X1.524000*%
%TD*%
%TA.AperFunction,ComponentPad*%
%ADD18R,1.370000X1.370000*%
%TD*%
%TA.AperFunction,ComponentPad*%
%ADD19C,1.370000*%
%TD*%
%TA.AperFunction,ComponentPad*%
%ADD20O,2.055000X1.500000*%
%TD*%
%TA.AperFunction,ComponentPad*%
%ADD21RoundRect,0.250000X1.350000X-1.350000X1.350000X1.350000X-1.350000X1.350000X-1.350000X-1.350000X0*%
%TD*%
%TA.AperFunction,ComponentPad*%
%ADD22C,3.200000*%
%TD*%
%TA.AperFunction,ComponentPad*%
%ADD23R,1.530000X1.530000*%
%TD*%
%TA.AperFunction,ComponentPad*%
%ADD24C,1.530000*%
%TD*%
%TA.AperFunction,ViaPad*%
%ADD25C,0.500000*%
%TD*%
%TA.AperFunction,ViaPad*%
%ADD26C,0.600000*%
%TD*%
%TA.AperFunction,Conductor*%
%ADD27C,0.200000*%
%TD*%
G04 APERTURE END LIST*
%TO.N,DIN11-A2*%
D10*
X95934000Y-121590000D02*
G75*
G02*
X95084000Y-121590000I-425000J0D01*
G01*
X95084000Y-121590000D02*
G75*
G02*
X95934000Y-121590000I425000J0D01*
G01*
%TO.N,DIN44-D6*%
D11*
X96160000Y-90389000D02*
G75*
G02*
X95860000Y-90389000I-150000J0D01*
G01*
X95860000Y-90389000D02*
G75*
G02*
X96160000Y-90389000I150000J0D01*
G01*
%TO.N,DIN14-A5*%
X103650000Y-120770000D02*
G75*
G02*
X103350000Y-120770000I-150000J0D01*
G01*
X103350000Y-120770000D02*
G75*
G02*
X103650000Y-120770000I150000J0D01*
G01*
D12*
%TA.AperFunction,Conductor*%
%TO.N,DIN25-CLOCK*%
G36*
X84582000Y-87741000D02*
G01*
X76962000Y-87741000D01*
X76962000Y-85741000D01*
X84582000Y-85741000D01*
X84582000Y-87741000D01*
G37*
%TD.AperFunction*%
%TO.N,DIN31-{slash}BUSRQ*%
D11*
X98899010Y-109194775D02*
G75*
G02*
X98599010Y-109194775I-150000J0D01*
G01*
X98599010Y-109194775D02*
G75*
G02*
X98899010Y-109194775I150000J0D01*
G01*
D12*
%TA.AperFunction,Conductor*%
%TO.N,DIN12-A3*%
G36*
X136460000Y-97901000D02*
G01*
X128840000Y-97901000D01*
X128840000Y-95901000D01*
X136460000Y-95901000D01*
X136460000Y-97901000D01*
G37*
%TD.AperFunction*%
%TO.N,DIN43-D5*%
D10*
X117835000Y-108890000D02*
G75*
G02*
X116985000Y-108890000I-425000J0D01*
G01*
X116985000Y-108890000D02*
G75*
G02*
X117835000Y-108890000I425000J0D01*
G01*
%TO.N,DIN10-A1*%
D11*
X88401700Y-115718580D02*
G75*
G02*
X88101700Y-115718580I-150000J0D01*
G01*
X88101700Y-115718580D02*
G75*
G02*
X88401700Y-115718580I150000J0D01*
G01*
%TO.N,DIN36-{slash}IORQGE*%
X88891000Y-98612420D02*
G75*
G02*
X88591000Y-98612420I-150000J0D01*
G01*
X88591000Y-98612420D02*
G75*
G02*
X88891000Y-98612420I150000J0D01*
G01*
D12*
%TA.AperFunction,Conductor*%
%TO.N,DIN28-{slash}ROMCS*%
G36*
X136460000Y-130921000D02*
G01*
X128840000Y-130921000D01*
X128840000Y-128921000D01*
X136460000Y-128921000D01*
X136460000Y-130921000D01*
G37*
%TD.AperFunction*%
%TO.N,DIN39-D1*%
D10*
X117835000Y-119050000D02*
G75*
G02*
X116985000Y-119050000I-425000J0D01*
G01*
X116985000Y-119050000D02*
G75*
G02*
X117835000Y-119050000I425000J0D01*
G01*
%TO.N,DIN4-V-{slash}DWR*%
X95934000Y-103810000D02*
G75*
G02*
X95084000Y-103810000I-425000J0D01*
G01*
X95084000Y-103810000D02*
G75*
G02*
X95934000Y-103810000I425000J0D01*
G01*
%TO.N,POWER_12VAC*%
D13*
X85600000Y-126890000D02*
G75*
G02*
X85200000Y-126890000I-200000J0D01*
G01*
X85200000Y-126890000D02*
G75*
G02*
X85600000Y-126890000I200000J0D01*
G01*
D12*
%TA.AperFunction,Conductor*%
%TO.N,DIN24-A15*%
G36*
X93819000Y-97040000D02*
G01*
X92119000Y-97040000D01*
X92119000Y-95340000D01*
X93819000Y-95340000D01*
X93819000Y-97040000D01*
G37*
%TD.AperFunction*%
%TA.AperFunction,Conductor*%
%TO.N,DIN27-{slash}BUSACK*%
G36*
X84582000Y-133461000D02*
G01*
X76962000Y-133461000D01*
X76962000Y-131461000D01*
X84582000Y-131461000D01*
X84582000Y-133461000D01*
G37*
%TD.AperFunction*%
%TO.N,DIN15-A6*%
D10*
X93394000Y-119050000D02*
G75*
G02*
X92544000Y-119050000I-425000J0D01*
G01*
X92544000Y-119050000D02*
G75*
G02*
X93394000Y-119050000I425000J0D01*
G01*
%TO.N,unconnected-(J2-Pad25)*%
X117835000Y-126670000D02*
G75*
G02*
X116985000Y-126670000I-425000J0D01*
G01*
X116985000Y-126670000D02*
G75*
G02*
X117835000Y-126670000I425000J0D01*
G01*
D12*
%TA.AperFunction,Conductor*%
%TO.N,DIN11-A2*%
G36*
X84582000Y-95361000D02*
G01*
X76962000Y-95361000D01*
X76962000Y-93361000D01*
X84582000Y-93361000D01*
X84582000Y-95361000D01*
G37*
%TD.AperFunction*%
%TO.N,DIN2-VIDEO-OE2*%
D11*
X97850000Y-100080000D02*
G75*
G02*
X97550000Y-100080000I-150000J0D01*
G01*
X97550000Y-100080000D02*
G75*
G02*
X97850000Y-100080000I150000J0D01*
G01*
%TO.N,DIN39-D1*%
X100150000Y-84000000D02*
G75*
G02*
X99850000Y-84000000I-150000J0D01*
G01*
X99850000Y-84000000D02*
G75*
G02*
X100150000Y-84000000I150000J0D01*
G01*
D12*
%TA.AperFunction,Conductor*%
%TO.N,DIN14-A5*%
G36*
X136460000Y-125841000D02*
G01*
X128840000Y-125841000D01*
X128840000Y-123841000D01*
X136460000Y-123841000D01*
X136460000Y-125841000D01*
G37*
%TD.AperFunction*%
%TO.N,DIN8-{slash}RESET*%
D14*
X107910000Y-66210000D02*
G75*
G02*
X106910000Y-66210000I-500000J0D01*
G01*
X106910000Y-66210000D02*
G75*
G02*
X107910000Y-66210000I500000J0D01*
G01*
%TO.N,DIN29-{slash}RFRSH*%
D10*
X120375000Y-106350000D02*
G75*
G02*
X119525000Y-106350000I-425000J0D01*
G01*
X119525000Y-106350000D02*
G75*
G02*
X120375000Y-106350000I425000J0D01*
G01*
D12*
%TA.AperFunction,Conductor*%
%TO.N,DIN3-Y-{slash}DRD*%
G36*
X84582000Y-108061000D02*
G01*
X76962000Y-108061000D01*
X76962000Y-106061000D01*
X84582000Y-106061000D01*
X84582000Y-108061000D01*
G37*
%TD.AperFunction*%
%TA.AperFunction,Conductor*%
%TO.N,DIN18-A9*%
G36*
X84582000Y-136001000D02*
G01*
X76962000Y-136001000D01*
X76962000Y-134001000D01*
X84582000Y-134001000D01*
X84582000Y-136001000D01*
G37*
%TD.AperFunction*%
%TO.N,DIN48-{slash}M1*%
D11*
X127730000Y-127464740D02*
G75*
G02*
X127430000Y-127464740I-150000J0D01*
G01*
X127430000Y-127464740D02*
G75*
G02*
X127730000Y-127464740I150000J0D01*
G01*
D12*
%TA.AperFunction,Conductor*%
%TO.N,DIN28-{slash}ROMCS*%
G36*
X84582000Y-130921000D02*
G01*
X76962000Y-130921000D01*
X76962000Y-128921000D01*
X84582000Y-128921000D01*
X84582000Y-130921000D01*
G37*
%TD.AperFunction*%
%TO.N,DIN21-A12*%
D11*
X115730000Y-71540000D02*
G75*
G02*
X115430000Y-71540000I-150000J0D01*
G01*
X115430000Y-71540000D02*
G75*
G02*
X115730000Y-71540000I150000J0D01*
G01*
%TO.N,GND*%
D10*
X95934000Y-134290000D02*
G75*
G02*
X95084000Y-134290000I-425000J0D01*
G01*
X95084000Y-134290000D02*
G75*
G02*
X95934000Y-134290000I425000J0D01*
G01*
%TO.N,DIN20-A11*%
X93394000Y-106350000D02*
G75*
G02*
X92544000Y-106350000I-425000J0D01*
G01*
X92544000Y-106350000D02*
G75*
G02*
X93394000Y-106350000I425000J0D01*
G01*
%TO.N,DIN27-{slash}BUSACK*%
X120375000Y-101270000D02*
G75*
G02*
X119525000Y-101270000I-425000J0D01*
G01*
X119525000Y-101270000D02*
G75*
G02*
X120375000Y-101270000I425000J0D01*
G01*
D12*
%TA.AperFunction,Conductor*%
%TO.N,DIN8-{slash}RESET*%
G36*
X84582000Y-118221000D02*
G01*
X76962000Y-118221000D01*
X76962000Y-116221000D01*
X84582000Y-116221000D01*
X84582000Y-118221000D01*
G37*
%TD.AperFunction*%
%TO.N,DIN43-D5*%
D11*
X101555000Y-91405000D02*
G75*
G02*
X101255000Y-91405000I-150000J0D01*
G01*
X101255000Y-91405000D02*
G75*
G02*
X101555000Y-91405000I150000J0D01*
G01*
%TO.N,DIN37-{slash}INT*%
X127350000Y-97670000D02*
G75*
G02*
X127050000Y-97670000I-150000J0D01*
G01*
X127050000Y-97670000D02*
G75*
G02*
X127350000Y-97670000I150000J0D01*
G01*
%TO.N,DIN32-{slash}IORQ*%
X87780000Y-126692120D02*
G75*
G02*
X87480000Y-126692120I-150000J0D01*
G01*
X87480000Y-126692120D02*
G75*
G02*
X87780000Y-126692120I150000J0D01*
G01*
%TO.N,DIN38-D0*%
X86280000Y-81430000D02*
G75*
G02*
X85980000Y-81430000I-150000J0D01*
G01*
X85980000Y-81430000D02*
G75*
G02*
X86280000Y-81430000I150000J0D01*
G01*
%TO.N,DIN29-{slash}RFRSH*%
X124350000Y-127464740D02*
G75*
G02*
X124050000Y-127464740I-150000J0D01*
G01*
X124050000Y-127464740D02*
G75*
G02*
X124350000Y-127464740I150000J0D01*
G01*
D12*
%TA.AperFunction,Conductor*%
%TO.N,DIN3-Y-{slash}DRD*%
G36*
X136460000Y-108061000D02*
G01*
X128840000Y-108061000D01*
X128840000Y-106061000D01*
X136460000Y-106061000D01*
X136460000Y-108061000D01*
G37*
%TD.AperFunction*%
%TO.N,DIN17-A8*%
D10*
X93394000Y-113970000D02*
G75*
G02*
X92544000Y-113970000I-425000J0D01*
G01*
X92544000Y-113970000D02*
G75*
G02*
X93394000Y-113970000I425000J0D01*
G01*
%TO.N,DIN28-{slash}ROMCS*%
X120375000Y-103810000D02*
G75*
G02*
X119525000Y-103810000I-425000J0D01*
G01*
X119525000Y-103810000D02*
G75*
G02*
X120375000Y-103810000I425000J0D01*
G01*
D12*
%TA.AperFunction,Conductor*%
%TO.N,DIN21-A12*%
G36*
X84582000Y-72501000D02*
G01*
X76962000Y-72501000D01*
X76962000Y-70501000D01*
X84582000Y-70501000D01*
X84582000Y-72501000D01*
G37*
%TD.AperFunction*%
%TO.N,DIN36-{slash}IORQGE*%
D11*
X98165000Y-94805000D02*
G75*
G02*
X97865000Y-94805000I-150000J0D01*
G01*
X97865000Y-94805000D02*
G75*
G02*
X98165000Y-94805000I150000J0D01*
G01*
D12*
%TA.AperFunction,Conductor*%
%TO.N,DIN9-A0*%
G36*
X136460000Y-90281000D02*
G01*
X128840000Y-90281000D01*
X128840000Y-88281000D01*
X136460000Y-88281000D01*
X136460000Y-90281000D01*
G37*
%TD.AperFunction*%
%TA.AperFunction,Conductor*%
%TO.N,DIN11-A2*%
G36*
X136460000Y-95361000D02*
G01*
X128840000Y-95361000D01*
X128840000Y-93361000D01*
X136460000Y-93361000D01*
X136460000Y-95361000D01*
G37*
%TD.AperFunction*%
%TO.N,unconnected-(J1-Pad30)*%
D10*
X95934000Y-131750000D02*
G75*
G02*
X95084000Y-131750000I-425000J0D01*
G01*
X95084000Y-131750000D02*
G75*
G02*
X95934000Y-131750000I425000J0D01*
G01*
%TO.N,DIN48-{slash}M1*%
D11*
X103274000Y-98173000D02*
G75*
G02*
X102974000Y-98173000I-150000J0D01*
G01*
X102974000Y-98173000D02*
G75*
G02*
X103274000Y-98173000I150000J0D01*
G01*
X123838230Y-103575000D02*
G75*
G02*
X123538230Y-103575000I-150000J0D01*
G01*
X123538230Y-103575000D02*
G75*
G02*
X123838230Y-103575000I150000J0D01*
G01*
D12*
%TA.AperFunction,Conductor*%
%TO.N,POWER5V*%
G36*
X92659000Y-90881000D02*
G01*
X89459000Y-90881000D01*
X89459000Y-87681000D01*
X92659000Y-87681000D01*
X92659000Y-90881000D01*
G37*
%TD.AperFunction*%
%TO.N,GND*%
D10*
X93394000Y-134290000D02*
G75*
G02*
X92544000Y-134290000I-425000J0D01*
G01*
X92544000Y-134290000D02*
G75*
G02*
X93394000Y-134290000I425000J0D01*
G01*
X117835000Y-134290000D02*
G75*
G02*
X116985000Y-134290000I-425000J0D01*
G01*
X116985000Y-134290000D02*
G75*
G02*
X117835000Y-134290000I425000J0D01*
G01*
D12*
%TA.AperFunction,Conductor*%
%TO.N,DIN12-A3*%
G36*
X84582000Y-97901000D02*
G01*
X76962000Y-97901000D01*
X76962000Y-95901000D01*
X84582000Y-95901000D01*
X84582000Y-97901000D01*
G37*
%TD.AperFunction*%
%TO.N,POWER_12VAC*%
D11*
X128080000Y-125540000D02*
G75*
G02*
X127780000Y-125540000I-150000J0D01*
G01*
X127780000Y-125540000D02*
G75*
G02*
X128080000Y-125540000I150000J0D01*
G01*
%TO.N,DIN12-A3*%
X87550000Y-124800000D02*
G75*
G02*
X87250000Y-124800000I-150000J0D01*
G01*
X87250000Y-124800000D02*
G75*
G02*
X87550000Y-124800000I150000J0D01*
G01*
%TO.N,DIN22-A13*%
X93280000Y-70231000D02*
G75*
G02*
X92980000Y-70231000I-150000J0D01*
G01*
X92980000Y-70231000D02*
G75*
G02*
X93280000Y-70231000I150000J0D01*
G01*
%TO.N,DIN47-{slash}WR*%
X86045270Y-110914270D02*
G75*
G02*
X85745270Y-110914270I-150000J0D01*
G01*
X85745270Y-110914270D02*
G75*
G02*
X86045270Y-110914270I150000J0D01*
G01*
D12*
%TA.AperFunction,Conductor*%
%TO.N,GND*%
G36*
X136460000Y-85201000D02*
G01*
X128840000Y-85201000D01*
X128840000Y-83201000D01*
X136460000Y-83201000D01*
X136460000Y-85201000D01*
G37*
%TD.AperFunction*%
%TO.N,DIN28-{slash}ROMCS*%
D11*
X127171530Y-129286000D02*
G75*
G02*
X126871530Y-129286000I-150000J0D01*
G01*
X126871530Y-129286000D02*
G75*
G02*
X127171530Y-129286000I150000J0D01*
G01*
%TO.N,DIN3-Y-{slash}DRD*%
X122920000Y-97573000D02*
G75*
G02*
X122620000Y-97573000I-150000J0D01*
G01*
X122620000Y-97573000D02*
G75*
G02*
X122920000Y-97573000I150000J0D01*
G01*
D10*
X95934000Y-101270000D02*
G75*
G02*
X95084000Y-101270000I-425000J0D01*
G01*
X95084000Y-101270000D02*
G75*
G02*
X95934000Y-101270000I425000J0D01*
G01*
%TO.N,DIN41-D3*%
D11*
X125830000Y-94380000D02*
G75*
G02*
X125530000Y-94380000I-150000J0D01*
G01*
X125530000Y-94380000D02*
G75*
G02*
X125830000Y-94380000I150000J0D01*
G01*
D12*
%TA.AperFunction,Conductor*%
%TO.N,DIN4-V-{slash}DWR*%
G36*
X84582000Y-110601000D02*
G01*
X76962000Y-110601000D01*
X76962000Y-108601000D01*
X84582000Y-108601000D01*
X84582000Y-110601000D01*
G37*
%TD.AperFunction*%
%TO.N,DIN35-{slash}NMI*%
D10*
X120375000Y-121590000D02*
G75*
G02*
X119525000Y-121590000I-425000J0D01*
G01*
X119525000Y-121590000D02*
G75*
G02*
X120375000Y-121590000I425000J0D01*
G01*
%TO.N,DIN29-{slash}RFRSH*%
D11*
X89609000Y-131560000D02*
G75*
G02*
X89309000Y-131560000I-150000J0D01*
G01*
X89309000Y-131560000D02*
G75*
G02*
X89609000Y-131560000I150000J0D01*
G01*
%TO.N,DIN43-D5*%
X127890000Y-93080000D02*
G75*
G02*
X127590000Y-93080000I-150000J0D01*
G01*
X127590000Y-93080000D02*
G75*
G02*
X127890000Y-93080000I150000J0D01*
G01*
%TO.N,DIN33-{slash}MREQ*%
X87145000Y-120400000D02*
G75*
G02*
X86845000Y-120400000I-150000J0D01*
G01*
X86845000Y-120400000D02*
G75*
G02*
X87145000Y-120400000I150000J0D01*
G01*
D12*
%TA.AperFunction,Conductor*%
%TO.N,DIN5-U-{slash}MTR*%
G36*
X84582000Y-113141000D02*
G01*
X76962000Y-113141000D01*
X76962000Y-111141000D01*
X84582000Y-111141000D01*
X84582000Y-113141000D01*
G37*
%TD.AperFunction*%
%TO.N,DIN40-D2*%
D11*
X101772225Y-108365925D02*
G75*
G02*
X101472225Y-108365925I-150000J0D01*
G01*
X101472225Y-108365925D02*
G75*
G02*
X101772225Y-108365925I150000J0D01*
G01*
%TO.N,DIN17-A8*%
X88833280Y-114883280D02*
G75*
G02*
X88533280Y-114883280I-150000J0D01*
G01*
X88533280Y-114883280D02*
G75*
G02*
X88833280Y-114883280I150000J0D01*
G01*
%TO.N,DIN41-D3*%
X104078030Y-110218030D02*
G75*
G02*
X103778030Y-110218030I-150000J0D01*
G01*
X103778030Y-110218030D02*
G75*
G02*
X104078030Y-110218030I150000J0D01*
G01*
%TO.N,DIN13-A4*%
X98410000Y-126920000D02*
G75*
G02*
X98110000Y-126920000I-150000J0D01*
G01*
X98110000Y-126920000D02*
G75*
G02*
X98410000Y-126920000I150000J0D01*
G01*
%TO.N,DIN21-A12*%
X88560000Y-85170000D02*
G75*
G02*
X88260000Y-85170000I-150000J0D01*
G01*
X88260000Y-85170000D02*
G75*
G02*
X88560000Y-85170000I150000J0D01*
G01*
%TO.N,GND*%
D10*
X120375000Y-134290000D02*
G75*
G02*
X119525000Y-134290000I-425000J0D01*
G01*
X119525000Y-134290000D02*
G75*
G02*
X120375000Y-134290000I425000J0D01*
G01*
%TO.N,DIN22-A13*%
X93394000Y-101270000D02*
G75*
G02*
X92544000Y-101270000I-425000J0D01*
G01*
X92544000Y-101270000D02*
G75*
G02*
X93394000Y-101270000I425000J0D01*
G01*
D12*
%TA.AperFunction,Conductor*%
%TO.N,DIN13-A4*%
G36*
X84582000Y-128381000D02*
G01*
X76962000Y-128381000D01*
X76962000Y-126381000D01*
X84582000Y-126381000D01*
X84582000Y-128381000D01*
G37*
%TD.AperFunction*%
%TO.N,POWER_+12V*%
D13*
X128256800Y-122305980D02*
G75*
G02*
X127856800Y-122305980I-200000J0D01*
G01*
X127856800Y-122305980D02*
G75*
G02*
X128256800Y-122305980I200000J0D01*
G01*
%TO.N,POWER5V*%
D10*
X117835000Y-129210000D02*
G75*
G02*
X116985000Y-129210000I-425000J0D01*
G01*
X116985000Y-129210000D02*
G75*
G02*
X117835000Y-129210000I425000J0D01*
G01*
%TO.N,DIN8-{slash}RESET*%
D14*
X101410000Y-66210000D02*
G75*
G02*
X100410000Y-66210000I-500000J0D01*
G01*
X100410000Y-66210000D02*
G75*
G02*
X101410000Y-66210000I500000J0D01*
G01*
%TO.N,DIN39-D1*%
D11*
X97880000Y-96005000D02*
G75*
G02*
X97580000Y-96005000I-150000J0D01*
G01*
X97580000Y-96005000D02*
G75*
G02*
X97880000Y-96005000I150000J0D01*
G01*
D12*
%TA.AperFunction,Conductor*%
%TO.N,DIN36-{slash}IORQGE*%
G36*
X84582000Y-100441000D02*
G01*
X76962000Y-100441000D01*
X76962000Y-98441000D01*
X84582000Y-98441000D01*
X84582000Y-100441000D01*
G37*
%TD.AperFunction*%
%TO.N,DIN41-D3*%
D11*
X95420000Y-91810000D02*
G75*
G02*
X95120000Y-91810000I-150000J0D01*
G01*
X95120000Y-91810000D02*
G75*
G02*
X95420000Y-91810000I150000J0D01*
G01*
%TO.N,POWER_+9V*%
D15*
X114400000Y-77090000D02*
G75*
G02*
X113900000Y-77090000I-250000J0D01*
G01*
X113900000Y-77090000D02*
G75*
G02*
X114400000Y-77090000I250000J0D01*
G01*
D12*
%TA.AperFunction,Conductor*%
%TO.N,DIN15-A6*%
G36*
X136460000Y-123301000D02*
G01*
X128840000Y-123301000D01*
X128840000Y-121301000D01*
X136460000Y-121301000D01*
X136460000Y-123301000D01*
G37*
%TD.AperFunction*%
%TO.N,DIN45-D7*%
D11*
X109980000Y-79740000D02*
G75*
G02*
X109680000Y-79740000I-150000J0D01*
G01*
X109680000Y-79740000D02*
G75*
G02*
X109980000Y-79740000I150000J0D01*
G01*
D12*
%TA.AperFunction,Conductor*%
%TO.N,GND*%
G36*
X84582000Y-102981000D02*
G01*
X76962000Y-102981000D01*
X76962000Y-100981000D01*
X84582000Y-100981000D01*
X84582000Y-102981000D01*
G37*
%TD.AperFunction*%
%TA.AperFunction,Conductor*%
%TO.N,DIN4-V-{slash}DWR*%
G36*
X136460000Y-110601000D02*
G01*
X128840000Y-110601000D01*
X128840000Y-108601000D01*
X136460000Y-108601000D01*
X136460000Y-110601000D01*
G37*
%TD.AperFunction*%
%TO.N,DIN13-A4*%
D10*
X93394000Y-124130000D02*
G75*
G02*
X92544000Y-124130000I-425000J0D01*
G01*
X92544000Y-124130000D02*
G75*
G02*
X93394000Y-124130000I425000J0D01*
G01*
D12*
%TA.AperFunction,Conductor*%
%TO.N,POWER_+9V*%
G36*
X136460000Y-77581000D02*
G01*
X128840000Y-77581000D01*
X128840000Y-75581000D01*
X136460000Y-75581000D01*
X136460000Y-77581000D01*
G37*
%TD.AperFunction*%
%TO.N,GND*%
D14*
X101410000Y-70710000D02*
G75*
G02*
X100410000Y-70710000I-500000J0D01*
G01*
X100410000Y-70710000D02*
G75*
G02*
X101410000Y-70710000I500000J0D01*
G01*
%TO.N,POWER_+12V*%
D13*
X85780000Y-123140000D02*
G75*
G02*
X85380000Y-123140000I-200000J0D01*
G01*
X85380000Y-123140000D02*
G75*
G02*
X85780000Y-123140000I200000J0D01*
G01*
%TO.N,DIN18-A9*%
D10*
X93394000Y-111430000D02*
G75*
G02*
X92544000Y-111430000I-425000J0D01*
G01*
X92544000Y-111430000D02*
G75*
G02*
X93394000Y-111430000I425000J0D01*
G01*
%TO.N,DIN46-{slash}RD*%
D11*
X127315910Y-105532840D02*
G75*
G02*
X127015910Y-105532840I-150000J0D01*
G01*
X127015910Y-105532840D02*
G75*
G02*
X127315910Y-105532840I150000J0D01*
G01*
%TO.N,unconnected-(J1-Pad25)*%
D10*
X93394000Y-126670000D02*
G75*
G02*
X92544000Y-126670000I-425000J0D01*
G01*
X92544000Y-126670000D02*
G75*
G02*
X93394000Y-126670000I425000J0D01*
G01*
%TO.N,DIN1-NCA4-OE1*%
X95934000Y-96190000D02*
G75*
G02*
X95084000Y-96190000I-425000J0D01*
G01*
X95084000Y-96190000D02*
G75*
G02*
X95934000Y-96190000I425000J0D01*
G01*
%TO.N,DIN35-{slash}NMI*%
D11*
X100674000Y-94950000D02*
G75*
G02*
X100374000Y-94950000I-150000J0D01*
G01*
X100374000Y-94950000D02*
G75*
G02*
X100674000Y-94950000I150000J0D01*
G01*
%TO.N,DIN33-{slash}MREQ*%
X124053000Y-107280000D02*
G75*
G02*
X123753000Y-107280000I-150000J0D01*
G01*
X123753000Y-107280000D02*
G75*
G02*
X124053000Y-107280000I150000J0D01*
G01*
%TO.N,DIN21-A12*%
X94570000Y-71900000D02*
G75*
G02*
X94270000Y-71900000I-150000J0D01*
G01*
X94270000Y-71900000D02*
G75*
G02*
X94570000Y-71900000I150000J0D01*
G01*
D12*
%TA.AperFunction,Conductor*%
%TO.N,DIN5-U-{slash}MTR*%
G36*
X136460000Y-113141000D02*
G01*
X128840000Y-113141000D01*
X128840000Y-111141000D01*
X136460000Y-111141000D01*
X136460000Y-113141000D01*
G37*
%TD.AperFunction*%
%TO.N,DIN34-{slash}HALT*%
D11*
X128490000Y-106800000D02*
G75*
G02*
X128190000Y-106800000I-150000J0D01*
G01*
X128190000Y-106800000D02*
G75*
G02*
X128490000Y-106800000I150000J0D01*
G01*
D12*
%TA.AperFunction,Conductor*%
%TO.N,DIN31-{slash}BUSRQ*%
G36*
X136460000Y-115681000D02*
G01*
X128840000Y-115681000D01*
X128840000Y-113681000D01*
X136460000Y-113681000D01*
X136460000Y-115681000D01*
G37*
%TD.AperFunction*%
%TA.AperFunction,Conductor*%
%TO.N,DIN2-VIDEO-OE2*%
G36*
X84582000Y-105521000D02*
G01*
X76962000Y-105521000D01*
X76962000Y-103521000D01*
X84582000Y-103521000D01*
X84582000Y-105521000D01*
G37*
%TD.AperFunction*%
%TO.N,DIN30-{slash}WAIT*%
D11*
X125535500Y-111172500D02*
G75*
G02*
X125235500Y-111172500I-150000J0D01*
G01*
X125235500Y-111172500D02*
G75*
G02*
X125535500Y-111172500I150000J0D01*
G01*
%TO.N,DIN42-D4*%
D10*
X117835000Y-111430000D02*
G75*
G02*
X116985000Y-111430000I-425000J0D01*
G01*
X116985000Y-111430000D02*
G75*
G02*
X117835000Y-111430000I425000J0D01*
G01*
D12*
%TA.AperFunction,Conductor*%
%TO.N,DIN13-A4*%
G36*
X136460000Y-128381000D02*
G01*
X128840000Y-128381000D01*
X128840000Y-126381000D01*
X136460000Y-126381000D01*
X136460000Y-128381000D01*
G37*
%TD.AperFunction*%
%TO.N,unconnected-(J2-Pad26)*%
D10*
X120375000Y-126670000D02*
G75*
G02*
X119525000Y-126670000I-425000J0D01*
G01*
X119525000Y-126670000D02*
G75*
G02*
X120375000Y-126670000I425000J0D01*
G01*
%TO.N,DIN23-A14*%
D11*
X91525360Y-85839000D02*
G75*
G02*
X91225360Y-85839000I-150000J0D01*
G01*
X91225360Y-85839000D02*
G75*
G02*
X91525360Y-85839000I150000J0D01*
G01*
%TO.N,DIN8-{slash}RESET*%
X98610000Y-82290000D02*
G75*
G02*
X98310000Y-82290000I-150000J0D01*
G01*
X98310000Y-82290000D02*
G75*
G02*
X98610000Y-82290000I150000J0D01*
G01*
%TO.N,DIN40-D2*%
D10*
X117835000Y-116510000D02*
G75*
G02*
X116985000Y-116510000I-425000J0D01*
G01*
X116985000Y-116510000D02*
G75*
G02*
X117835000Y-116510000I425000J0D01*
G01*
D12*
%TA.AperFunction,Conductor*%
%TO.N,GND*%
G36*
X84582000Y-82661000D02*
G01*
X76962000Y-82661000D01*
X76962000Y-80661000D01*
X84582000Y-80661000D01*
X84582000Y-82661000D01*
G37*
%TD.AperFunction*%
%TO.N,DIN42-D4*%
D11*
X100663100Y-92728300D02*
G75*
G02*
X100363100Y-92728300I-150000J0D01*
G01*
X100363100Y-92728300D02*
G75*
G02*
X100663100Y-92728300I150000J0D01*
G01*
%TO.N,GND*%
D15*
X81030000Y-79490000D02*
G75*
G02*
X80530000Y-79490000I-250000J0D01*
G01*
X80530000Y-79490000D02*
G75*
G02*
X81030000Y-79490000I250000J0D01*
G01*
D12*
%TA.AperFunction,Conductor*%
%TO.N,DIN14-A5*%
G36*
X84582000Y-125841000D02*
G01*
X76962000Y-125841000D01*
X76962000Y-123841000D01*
X84582000Y-123841000D01*
X84582000Y-125841000D01*
G37*
%TD.AperFunction*%
%TO.N,GND*%
D15*
X115900000Y-82960000D02*
G75*
G02*
X115400000Y-82960000I-250000J0D01*
G01*
X115400000Y-82960000D02*
G75*
G02*
X115900000Y-82960000I250000J0D01*
G01*
%TO.N,DIN33-{slash}MREQ*%
D11*
X97440000Y-121390000D02*
G75*
G02*
X97140000Y-121390000I-150000J0D01*
G01*
X97140000Y-121390000D02*
G75*
G02*
X97440000Y-121390000I150000J0D01*
G01*
%TO.N,DIN39-D1*%
X99200000Y-106960000D02*
G75*
G02*
X98900000Y-106960000I-150000J0D01*
G01*
X98900000Y-106960000D02*
G75*
G02*
X99200000Y-106960000I150000J0D01*
G01*
D12*
%TA.AperFunction,Conductor*%
%TO.N,DIN9-A0*%
G36*
X84582000Y-90281000D02*
G01*
X76962000Y-90281000D01*
X76962000Y-88281000D01*
X84582000Y-88281000D01*
X84582000Y-90281000D01*
G37*
%TD.AperFunction*%
%TO.N,DIN40-D2*%
D11*
X95765000Y-94638040D02*
G75*
G02*
X95465000Y-94638040I-150000J0D01*
G01*
X95465000Y-94638040D02*
G75*
G02*
X95765000Y-94638040I150000J0D01*
G01*
%TO.N,DIN35-{slash}NMI*%
X102909000Y-109690000D02*
G75*
G02*
X102609000Y-109690000I-150000J0D01*
G01*
X102609000Y-109690000D02*
G75*
G02*
X102909000Y-109690000I150000J0D01*
G01*
%TO.N,DIN10-A1*%
D10*
X95934000Y-119050000D02*
G75*
G02*
X95084000Y-119050000I-425000J0D01*
G01*
X95084000Y-119050000D02*
G75*
G02*
X95934000Y-119050000I425000J0D01*
G01*
%TO.N,DIN23-A14*%
X93394000Y-98730000D02*
G75*
G02*
X92544000Y-98730000I-425000J0D01*
G01*
X92544000Y-98730000D02*
G75*
G02*
X93394000Y-98730000I425000J0D01*
G01*
%TO.N,DIN16-A7*%
X93394000Y-116510000D02*
G75*
G02*
X92544000Y-116510000I-425000J0D01*
G01*
X92544000Y-116510000D02*
G75*
G02*
X93394000Y-116510000I425000J0D01*
G01*
%TO.N,DIN8-{slash}RESET*%
X95934000Y-113970000D02*
G75*
G02*
X95084000Y-113970000I-425000J0D01*
G01*
X95084000Y-113970000D02*
G75*
G02*
X95934000Y-113970000I425000J0D01*
G01*
%TO.N,DIN45-D7*%
D11*
X91255240Y-79634770D02*
G75*
G02*
X90955240Y-79634770I-150000J0D01*
G01*
X90955240Y-79634770D02*
G75*
G02*
X91255240Y-79634770I150000J0D01*
G01*
%TO.N,DIN6-Spare1*%
D10*
X95934000Y-108890000D02*
G75*
G02*
X95084000Y-108890000I-425000J0D01*
G01*
X95084000Y-108890000D02*
G75*
G02*
X95934000Y-108890000I425000J0D01*
G01*
%TO.N,DIN31-{slash}BUSRQ*%
X120375000Y-111430000D02*
G75*
G02*
X119525000Y-111430000I-425000J0D01*
G01*
X119525000Y-111430000D02*
G75*
G02*
X120375000Y-111430000I425000J0D01*
G01*
%TO.N,DIN46-{slash}RD*%
X117835000Y-101270000D02*
G75*
G02*
X116985000Y-101270000I-425000J0D01*
G01*
X116985000Y-101270000D02*
G75*
G02*
X117835000Y-101270000I425000J0D01*
G01*
%TO.N,DIN33-{slash}MREQ*%
D11*
X128218080Y-107741920D02*
G75*
G02*
X127918080Y-107741920I-150000J0D01*
G01*
X127918080Y-107741920D02*
G75*
G02*
X128218080Y-107741920I150000J0D01*
G01*
D12*
%TA.AperFunction,Conductor*%
%TO.N,DIN20-A11*%
G36*
X136460000Y-138541000D02*
G01*
X128840000Y-138541000D01*
X128840000Y-136541000D01*
X136460000Y-136541000D01*
X136460000Y-138541000D01*
G37*
%TD.AperFunction*%
%TO.N,DIN41-D3*%
D10*
X117835000Y-113970000D02*
G75*
G02*
X116985000Y-113970000I-425000J0D01*
G01*
X116985000Y-113970000D02*
G75*
G02*
X117835000Y-113970000I425000J0D01*
G01*
D12*
%TA.AperFunction,Conductor*%
%TO.N,DIN21-A12*%
G36*
X136460000Y-72501000D02*
G01*
X128840000Y-72501000D01*
X128840000Y-70501000D01*
X136460000Y-70501000D01*
X136460000Y-72501000D01*
G37*
%TD.AperFunction*%
%TO.N,DIN46-{slash}RD*%
D11*
X103274000Y-100720000D02*
G75*
G02*
X102974000Y-100720000I-150000J0D01*
G01*
X102974000Y-100720000D02*
G75*
G02*
X103274000Y-100720000I150000J0D01*
G01*
%TO.N,DIN37-{slash}INT*%
D10*
X117835000Y-124130000D02*
G75*
G02*
X116985000Y-124130000I-425000J0D01*
G01*
X116985000Y-124130000D02*
G75*
G02*
X117835000Y-124130000I425000J0D01*
G01*
D12*
%TA.AperFunction,Conductor*%
%TO.N,DIN20-A11*%
G36*
X84582000Y-138541000D02*
G01*
X76962000Y-138541000D01*
X76962000Y-136541000D01*
X84582000Y-136541000D01*
X84582000Y-138541000D01*
G37*
%TD.AperFunction*%
%TA.AperFunction,Conductor*%
%TO.N,DIN8-{slash}RESET*%
G36*
X136460000Y-118221000D02*
G01*
X128840000Y-118221000D01*
X128840000Y-116221000D01*
X136460000Y-116221000D01*
X136460000Y-118221000D01*
G37*
%TD.AperFunction*%
%TO.N,POWER_+9V*%
D15*
X86690000Y-77730000D02*
G75*
G02*
X86190000Y-77730000I-250000J0D01*
G01*
X86190000Y-77730000D02*
G75*
G02*
X86690000Y-77730000I250000J0D01*
G01*
%TO.N,POWER5_VIN*%
X113030000Y-74030000D02*
G75*
G02*
X112530000Y-74030000I-250000J0D01*
G01*
X112530000Y-74030000D02*
G75*
G02*
X113030000Y-74030000I250000J0D01*
G01*
%TO.N,DIN14-A5*%
D10*
X93394000Y-121590000D02*
G75*
G02*
X92544000Y-121590000I-425000J0D01*
G01*
X92544000Y-121590000D02*
G75*
G02*
X93394000Y-121590000I425000J0D01*
G01*
%TO.N,DIN25-CLOCK*%
X120375000Y-96190000D02*
G75*
G02*
X119525000Y-96190000I-425000J0D01*
G01*
X119525000Y-96190000D02*
G75*
G02*
X120375000Y-96190000I425000J0D01*
G01*
D12*
%TA.AperFunction,Conductor*%
%TO.N,DIN16-A7*%
G36*
X84582000Y-120761000D02*
G01*
X76962000Y-120761000D01*
X76962000Y-118761000D01*
X84582000Y-118761000D01*
X84582000Y-120761000D01*
G37*
%TD.AperFunction*%
%TO.N,GND*%
D14*
X107910000Y-70710000D02*
G75*
G02*
X106910000Y-70710000I-500000J0D01*
G01*
X106910000Y-70710000D02*
G75*
G02*
X107910000Y-70710000I500000J0D01*
G01*
%TO.N,DIN39-D1*%
D11*
X90395130Y-82728870D02*
G75*
G02*
X90095130Y-82728870I-150000J0D01*
G01*
X90095130Y-82728870D02*
G75*
G02*
X90395130Y-82728870I150000J0D01*
G01*
%TO.N,DIN32-{slash}IORQ*%
X122983940Y-108326990D02*
G75*
G02*
X122683940Y-108326990I-150000J0D01*
G01*
X122683940Y-108326990D02*
G75*
G02*
X122983940Y-108326990I150000J0D01*
G01*
%TO.N,DIN44-D6*%
D10*
X117835000Y-106350000D02*
G75*
G02*
X116985000Y-106350000I-425000J0D01*
G01*
X116985000Y-106350000D02*
G75*
G02*
X117835000Y-106350000I425000J0D01*
G01*
D12*
%TA.AperFunction,Conductor*%
%TO.N,DIN27-{slash}BUSACK*%
G36*
X136460000Y-133461000D02*
G01*
X128840000Y-133461000D01*
X128840000Y-131461000D01*
X136460000Y-131461000D01*
X136460000Y-133461000D01*
G37*
%TD.AperFunction*%
%TO.N,DIN35-{slash}NMI*%
D11*
X126090000Y-98070000D02*
G75*
G02*
X125790000Y-98070000I-150000J0D01*
G01*
X125790000Y-98070000D02*
G75*
G02*
X126090000Y-98070000I150000J0D01*
G01*
%TO.N,DIN15-A6*%
X104583000Y-120193000D02*
G75*
G02*
X104283000Y-120193000I-150000J0D01*
G01*
X104283000Y-120193000D02*
G75*
G02*
X104583000Y-120193000I150000J0D01*
G01*
%TO.N,unconnected-(J2-Pad29)*%
D10*
X117835000Y-131750000D02*
G75*
G02*
X116985000Y-131750000I-425000J0D01*
G01*
X116985000Y-131750000D02*
G75*
G02*
X117835000Y-131750000I425000J0D01*
G01*
%TO.N,unconnected-(J2-Pad30)*%
X120375000Y-131750000D02*
G75*
G02*
X119525000Y-131750000I-425000J0D01*
G01*
X119525000Y-131750000D02*
G75*
G02*
X120375000Y-131750000I425000J0D01*
G01*
D12*
%TA.AperFunction,Conductor*%
%TO.N,DIN18-A9*%
G36*
X136460000Y-136001000D02*
G01*
X128840000Y-136001000D01*
X128840000Y-134001000D01*
X136460000Y-134001000D01*
X136460000Y-136001000D01*
G37*
%TD.AperFunction*%
%TA.AperFunction,Conductor*%
%TO.N,POWER_+9V*%
G36*
X84582000Y-77581000D02*
G01*
X76962000Y-77581000D01*
X76962000Y-75581000D01*
X84582000Y-75581000D01*
X84582000Y-77581000D01*
G37*
%TD.AperFunction*%
%TO.N,DIN11-A2*%
D11*
X87950000Y-121400000D02*
G75*
G02*
X87650000Y-121400000I-150000J0D01*
G01*
X87650000Y-121400000D02*
G75*
G02*
X87950000Y-121400000I150000J0D01*
G01*
%TO.N,DIN12-A3*%
D10*
X95934000Y-124130000D02*
G75*
G02*
X95084000Y-124130000I-425000J0D01*
G01*
X95084000Y-124130000D02*
G75*
G02*
X95934000Y-124130000I425000J0D01*
G01*
D12*
%TA.AperFunction,Conductor*%
%TO.N,GND*%
G36*
X84582000Y-85201000D02*
G01*
X76962000Y-85201000D01*
X76962000Y-83201000D01*
X84582000Y-83201000D01*
X84582000Y-85201000D01*
G37*
%TD.AperFunction*%
%TA.AperFunction,Conductor*%
%TO.N,DIN23-A14*%
G36*
X136460000Y-69961000D02*
G01*
X128840000Y-69961000D01*
X128840000Y-67961000D01*
X136460000Y-67961000D01*
X136460000Y-69961000D01*
G37*
%TD.AperFunction*%
%TO.N,GND*%
D15*
X127620000Y-100300000D02*
G75*
G02*
X127120000Y-100300000I-250000J0D01*
G01*
X127120000Y-100300000D02*
G75*
G02*
X127620000Y-100300000I250000J0D01*
G01*
%TO.N,DIN1-NCA4-OE1*%
D11*
X110750000Y-82200000D02*
G75*
G02*
X110450000Y-82200000I-150000J0D01*
G01*
X110450000Y-82200000D02*
G75*
G02*
X110750000Y-82200000I150000J0D01*
G01*
%TO.N,DIN30-{slash}WAIT*%
X85580000Y-115940000D02*
G75*
G02*
X85280000Y-115940000I-150000J0D01*
G01*
X85280000Y-115940000D02*
G75*
G02*
X85580000Y-115940000I150000J0D01*
G01*
%TO.N,DIN25-CLOCK*%
X120150000Y-89000000D02*
G75*
G02*
X119850000Y-89000000I-150000J0D01*
G01*
X119850000Y-89000000D02*
G75*
G02*
X120150000Y-89000000I150000J0D01*
G01*
%TO.N,DIN38-D0*%
D10*
X117835000Y-121590000D02*
G75*
G02*
X116985000Y-121590000I-425000J0D01*
G01*
X116985000Y-121590000D02*
G75*
G02*
X117835000Y-121590000I425000J0D01*
G01*
D12*
%TA.AperFunction,Conductor*%
%TO.N,POWER5_VIN*%
G36*
X84582000Y-75041000D02*
G01*
X76962000Y-75041000D01*
X76962000Y-73041000D01*
X84582000Y-73041000D01*
X84582000Y-75041000D01*
G37*
%TD.AperFunction*%
%TO.N,DIN5-U-{slash}MTR*%
D11*
X103277530Y-106343000D02*
G75*
G02*
X102977530Y-106343000I-150000J0D01*
G01*
X102977530Y-106343000D02*
G75*
G02*
X103277530Y-106343000I150000J0D01*
G01*
D12*
%TA.AperFunction,Conductor*%
%TO.N,GND*%
G36*
X136460000Y-102981000D02*
G01*
X128840000Y-102981000D01*
X128840000Y-100981000D01*
X136460000Y-100981000D01*
X136460000Y-102981000D01*
G37*
%TD.AperFunction*%
%TA.AperFunction,Conductor*%
%TO.N,DIN31-{slash}BUSRQ*%
G36*
X84582000Y-115681000D02*
G01*
X76962000Y-115681000D01*
X76962000Y-113681000D01*
X84582000Y-113681000D01*
X84582000Y-115681000D01*
G37*
%TD.AperFunction*%
%TO.N,DIN26-Spare3*%
D10*
X120375000Y-98730000D02*
G75*
G02*
X119525000Y-98730000I-425000J0D01*
G01*
X119525000Y-98730000D02*
G75*
G02*
X120375000Y-98730000I425000J0D01*
G01*
%TO.N,DIN4-V-{slash}DWR*%
D11*
X122786760Y-107530000D02*
G75*
G02*
X122486760Y-107530000I-150000J0D01*
G01*
X122486760Y-107530000D02*
G75*
G02*
X122786760Y-107530000I150000J0D01*
G01*
D12*
%TA.AperFunction,Conductor*%
%TO.N,DIN2-VIDEO-OE2*%
G36*
X136460000Y-105521000D02*
G01*
X128840000Y-105521000D01*
X128840000Y-103521000D01*
X136460000Y-103521000D01*
X136460000Y-105521000D01*
G37*
%TD.AperFunction*%
%TA.AperFunction,Conductor*%
%TO.N,DIN48-{slash}M1*%
G36*
X118260000Y-97040000D02*
G01*
X116560000Y-97040000D01*
X116560000Y-95340000D01*
X118260000Y-95340000D01*
X118260000Y-97040000D01*
G37*
%TD.AperFunction*%
%TO.N,DIN5-U-{slash}MTR*%
D10*
X95934000Y-106350000D02*
G75*
G02*
X95084000Y-106350000I-425000J0D01*
G01*
X95084000Y-106350000D02*
G75*
G02*
X95934000Y-106350000I425000J0D01*
G01*
%TO.N,unconnected-(J1-Pad26)*%
X95934000Y-126670000D02*
G75*
G02*
X95084000Y-126670000I-425000J0D01*
G01*
X95084000Y-126670000D02*
G75*
G02*
X95934000Y-126670000I425000J0D01*
G01*
%TO.N,DIN45-D7*%
X117835000Y-103810000D02*
G75*
G02*
X116985000Y-103810000I-425000J0D01*
G01*
X116985000Y-103810000D02*
G75*
G02*
X117835000Y-103810000I425000J0D01*
G01*
%TO.N,DIN36-{slash}IORQGE*%
X120375000Y-124130000D02*
G75*
G02*
X119525000Y-124130000I-425000J0D01*
G01*
X119525000Y-124130000D02*
G75*
G02*
X120375000Y-124130000I425000J0D01*
G01*
%TO.N,DIN27-{slash}BUSACK*%
D11*
X127855120Y-133485120D02*
G75*
G02*
X127555120Y-133485120I-150000J0D01*
G01*
X127555120Y-133485120D02*
G75*
G02*
X127855120Y-133485120I150000J0D01*
G01*
D12*
%TA.AperFunction,Conductor*%
%TO.N,DIN15-A6*%
G36*
X84582000Y-123301000D02*
G01*
X76962000Y-123301000D01*
X76962000Y-121301000D01*
X84582000Y-121301000D01*
X84582000Y-123301000D01*
G37*
%TD.AperFunction*%
%TO.N,DIN35-{slash}NMI*%
D11*
X86325300Y-99002330D02*
G75*
G02*
X86025300Y-99002330I-150000J0D01*
G01*
X86025300Y-99002330D02*
G75*
G02*
X86325300Y-99002330I150000J0D01*
G01*
D12*
%TA.AperFunction,Conductor*%
%TO.N,DIN16-A7*%
G36*
X136460000Y-120761000D02*
G01*
X128840000Y-120761000D01*
X128840000Y-118761000D01*
X136460000Y-118761000D01*
X136460000Y-120761000D01*
G37*
%TD.AperFunction*%
%TO.N,DIN17-A8*%
D11*
X88535740Y-130764270D02*
G75*
G02*
X88235740Y-130764270I-150000J0D01*
G01*
X88235740Y-130764270D02*
G75*
G02*
X88535740Y-130764270I150000J0D01*
G01*
D12*
%TA.AperFunction,Conductor*%
%TO.N,DIN25-CLOCK*%
G36*
X136460000Y-87741000D02*
G01*
X128840000Y-87741000D01*
X128840000Y-85741000D01*
X136460000Y-85741000D01*
X136460000Y-87741000D01*
G37*
%TD.AperFunction*%
%TA.AperFunction,Conductor*%
%TO.N,DIN23-A14*%
G36*
X84582000Y-69961000D02*
G01*
X76962000Y-69961000D01*
X76962000Y-67961000D01*
X84582000Y-67961000D01*
X84582000Y-69961000D01*
G37*
%TD.AperFunction*%
%TO.N,DIN32-{slash}IORQ*%
D11*
X128350000Y-109601000D02*
G75*
G02*
X128050000Y-109601000I-150000J0D01*
G01*
X128050000Y-109601000D02*
G75*
G02*
X128350000Y-109601000I150000J0D01*
G01*
%TO.N,DIN20-A11*%
X87520000Y-135601000D02*
G75*
G02*
X87220000Y-135601000I-150000J0D01*
G01*
X87220000Y-135601000D02*
G75*
G02*
X87520000Y-135601000I150000J0D01*
G01*
%TO.N,DIN32-{slash}IORQ*%
D10*
X120375000Y-113970000D02*
G75*
G02*
X119525000Y-113970000I-425000J0D01*
G01*
X119525000Y-113970000D02*
G75*
G02*
X120375000Y-113970000I425000J0D01*
G01*
%TO.N,DIN18-A9*%
D11*
X90880000Y-137080000D02*
G75*
G02*
X90580000Y-137080000I-150000J0D01*
G01*
X90580000Y-137080000D02*
G75*
G02*
X90880000Y-137080000I150000J0D01*
G01*
%TO.N,DIN4-V-{slash}DWR*%
X96750000Y-105400000D02*
G75*
G02*
X96450000Y-105400000I-150000J0D01*
G01*
X96450000Y-105400000D02*
G75*
G02*
X96750000Y-105400000I150000J0D01*
G01*
%TO.N,POWER5V*%
D10*
X120375000Y-129210000D02*
G75*
G02*
X119525000Y-129210000I-425000J0D01*
G01*
X119525000Y-129210000D02*
G75*
G02*
X120375000Y-129210000I425000J0D01*
G01*
D12*
%TA.AperFunction,Conductor*%
%TO.N,GND*%
G36*
X136460000Y-82661000D02*
G01*
X128840000Y-82661000D01*
X128840000Y-80661000D01*
X136460000Y-80661000D01*
X136460000Y-82661000D01*
G37*
%TD.AperFunction*%
%TO.N,DIN22-A13*%
D11*
X91960000Y-71100000D02*
G75*
G02*
X91660000Y-71100000I-150000J0D01*
G01*
X91660000Y-71100000D02*
G75*
G02*
X91960000Y-71100000I150000J0D01*
G01*
%TO.N,DIN21-A12*%
D10*
X93394000Y-103810000D02*
G75*
G02*
X92544000Y-103810000I-425000J0D01*
G01*
X92544000Y-103810000D02*
G75*
G02*
X93394000Y-103810000I425000J0D01*
G01*
%TO.N,unconnected-(J1-Pad29)*%
X93394000Y-131750000D02*
G75*
G02*
X92544000Y-131750000I-425000J0D01*
G01*
X92544000Y-131750000D02*
G75*
G02*
X93394000Y-131750000I425000J0D01*
G01*
%TO.N,DIN48-{slash}M1*%
D11*
X85460000Y-128898530D02*
G75*
G02*
X85160000Y-128898530I-150000J0D01*
G01*
X85160000Y-128898530D02*
G75*
G02*
X85460000Y-128898530I150000J0D01*
G01*
%TO.N,POWER5_VIN*%
D16*
X91859000Y-74041000D02*
G75*
G02*
X90259000Y-74041000I-800000J0D01*
G01*
X90259000Y-74041000D02*
G75*
G02*
X91859000Y-74041000I800000J0D01*
G01*
%TO.N,DIN45-D7*%
D11*
X97910110Y-89936510D02*
G75*
G02*
X97610110Y-89936510I-150000J0D01*
G01*
X97610110Y-89936510D02*
G75*
G02*
X97910110Y-89936510I150000J0D01*
G01*
%TO.N,DIN47-{slash}WR*%
D10*
X117835000Y-98730000D02*
G75*
G02*
X116985000Y-98730000I-425000J0D01*
G01*
X116985000Y-98730000D02*
G75*
G02*
X117835000Y-98730000I425000J0D01*
G01*
%TO.N,DIN37-{slash}INT*%
D11*
X100874000Y-93500000D02*
G75*
G02*
X100574000Y-93500000I-150000J0D01*
G01*
X100574000Y-93500000D02*
G75*
G02*
X100874000Y-93500000I150000J0D01*
G01*
%TO.N,DIN7-Spare2*%
D10*
X95934000Y-111430000D02*
G75*
G02*
X95084000Y-111430000I-425000J0D01*
G01*
X95084000Y-111430000D02*
G75*
G02*
X95934000Y-111430000I425000J0D01*
G01*
%TO.N,DIN42-D4*%
D11*
X94744140Y-92238040D02*
G75*
G02*
X94444140Y-92238040I-150000J0D01*
G01*
X94444140Y-92238040D02*
G75*
G02*
X94744140Y-92238040I150000J0D01*
G01*
D12*
%TA.AperFunction,Conductor*%
%TO.N,DIN10-A1*%
G36*
X136460000Y-92821000D02*
G01*
X128840000Y-92821000D01*
X128840000Y-90821000D01*
X136460000Y-90821000D01*
X136460000Y-92821000D01*
G37*
%TD.AperFunction*%
%TO.N,DIN41-D3*%
D11*
X101061040Y-92034290D02*
G75*
G02*
X100761040Y-92034290I-150000J0D01*
G01*
X100761040Y-92034290D02*
G75*
G02*
X101061040Y-92034290I150000J0D01*
G01*
%TO.N,DIN19-A10*%
D10*
X93394000Y-108890000D02*
G75*
G02*
X92544000Y-108890000I-425000J0D01*
G01*
X92544000Y-108890000D02*
G75*
G02*
X93394000Y-108890000I425000J0D01*
G01*
%TO.N,DIN30-{slash}WAIT*%
X120375000Y-108890000D02*
G75*
G02*
X119525000Y-108890000I-425000J0D01*
G01*
X119525000Y-108890000D02*
G75*
G02*
X120375000Y-108890000I425000J0D01*
G01*
%TO.N,POWER5V*%
X95934000Y-129210000D02*
G75*
G02*
X95084000Y-129210000I-425000J0D01*
G01*
X95084000Y-129210000D02*
G75*
G02*
X95934000Y-129210000I425000J0D01*
G01*
X93394000Y-129210000D02*
G75*
G02*
X92544000Y-129210000I-425000J0D01*
G01*
X92544000Y-129210000D02*
G75*
G02*
X93394000Y-129210000I425000J0D01*
G01*
%TO.N,DIN31-{slash}BUSRQ*%
D11*
X91490000Y-110190000D02*
G75*
G02*
X91190000Y-110190000I-150000J0D01*
G01*
X91190000Y-110190000D02*
G75*
G02*
X91490000Y-110190000I150000J0D01*
G01*
%TO.N,DIN43-D5*%
X96010000Y-91205000D02*
G75*
G02*
X95710000Y-91205000I-150000J0D01*
G01*
X95710000Y-91205000D02*
G75*
G02*
X96010000Y-91205000I150000J0D01*
G01*
%TO.N,DIN16-A7*%
X103890000Y-117653000D02*
G75*
G02*
X103590000Y-117653000I-150000J0D01*
G01*
X103590000Y-117653000D02*
G75*
G02*
X103890000Y-117653000I150000J0D01*
G01*
%TO.N,DIN37-{slash}INT*%
X103360000Y-115903000D02*
G75*
G02*
X103060000Y-115903000I-150000J0D01*
G01*
X103060000Y-115903000D02*
G75*
G02*
X103360000Y-115903000I150000J0D01*
G01*
%TO.N,DIN2-VIDEO-OE2*%
X103274000Y-96973000D02*
G75*
G02*
X102974000Y-96973000I-150000J0D01*
G01*
X102974000Y-96973000D02*
G75*
G02*
X103274000Y-96973000I150000J0D01*
G01*
%TO.N,DIN34-{slash}HALT*%
X100474000Y-96410000D02*
G75*
G02*
X100174000Y-96410000I-150000J0D01*
G01*
X100174000Y-96410000D02*
G75*
G02*
X100474000Y-96410000I150000J0D01*
G01*
D10*
X120375000Y-119050000D02*
G75*
G02*
X119525000Y-119050000I-425000J0D01*
G01*
X119525000Y-119050000D02*
G75*
G02*
X120375000Y-119050000I425000J0D01*
G01*
%TO.N,DIN9-A0*%
D11*
X96162000Y-86940000D02*
G75*
G02*
X95862000Y-86940000I-150000J0D01*
G01*
X95862000Y-86940000D02*
G75*
G02*
X96162000Y-86940000I150000J0D01*
G01*
%TO.N,DIN36-{slash}IORQGE*%
X104106240Y-93734360D02*
G75*
G02*
X103806240Y-93734360I-150000J0D01*
G01*
X103806240Y-93734360D02*
G75*
G02*
X104106240Y-93734360I150000J0D01*
G01*
D12*
%TA.AperFunction,Conductor*%
%TO.N,POWER5_VIN*%
G36*
X136460000Y-75041000D02*
G01*
X128840000Y-75041000D01*
X128840000Y-73041000D01*
X136460000Y-73041000D01*
X136460000Y-75041000D01*
G37*
%TD.AperFunction*%
%TA.AperFunction,Conductor*%
%TO.N,DIN10-A1*%
G36*
X84582000Y-92821000D02*
G01*
X76962000Y-92821000D01*
X76962000Y-90821000D01*
X84582000Y-90821000D01*
X84582000Y-92821000D01*
G37*
%TD.AperFunction*%
%TO.N,POWER_-5V*%
D13*
X85360000Y-118450000D02*
G75*
G02*
X84960000Y-118450000I-200000J0D01*
G01*
X84960000Y-118450000D02*
G75*
G02*
X85360000Y-118450000I200000J0D01*
G01*
%TO.N,DIN1-NCA4-OE1*%
D11*
X89977340Y-80896870D02*
G75*
G02*
X89677340Y-80896870I-150000J0D01*
G01*
X89677340Y-80896870D02*
G75*
G02*
X89977340Y-80896870I150000J0D01*
G01*
%TO.N,DIN17-A8*%
X93106880Y-138236780D02*
G75*
G02*
X92806880Y-138236780I-150000J0D01*
G01*
X92806880Y-138236780D02*
G75*
G02*
X93106880Y-138236780I150000J0D01*
G01*
%TO.N,DIN9-A0*%
D10*
X95934000Y-116510000D02*
G75*
G02*
X95084000Y-116510000I-425000J0D01*
G01*
X95084000Y-116510000D02*
G75*
G02*
X95934000Y-116510000I425000J0D01*
G01*
%TO.N,GND*%
D15*
X86289310Y-101809310D02*
G75*
G02*
X85789310Y-101809310I-250000J0D01*
G01*
X85789310Y-101809310D02*
G75*
G02*
X86289310Y-101809310I250000J0D01*
G01*
%TO.N,DIN38-D0*%
D11*
X114840000Y-81590000D02*
G75*
G02*
X114540000Y-81590000I-150000J0D01*
G01*
X114540000Y-81590000D02*
G75*
G02*
X114840000Y-81590000I150000J0D01*
G01*
D12*
%TA.AperFunction,Conductor*%
%TO.N,DIN36-{slash}IORQGE*%
G36*
X136460000Y-100441000D02*
G01*
X128840000Y-100441000D01*
X128840000Y-98441000D01*
X136460000Y-98441000D01*
X136460000Y-100441000D01*
G37*
%TD.AperFunction*%
%TO.N,DIN33-{slash}MREQ*%
D10*
X120375000Y-116510000D02*
G75*
G02*
X119525000Y-116510000I-425000J0D01*
G01*
X119525000Y-116510000D02*
G75*
G02*
X120375000Y-116510000I425000J0D01*
G01*
%TO.N,DIN2-VIDEO-OE2*%
X95934000Y-98730000D02*
G75*
G02*
X95084000Y-98730000I-425000J0D01*
G01*
X95084000Y-98730000D02*
G75*
G02*
X95934000Y-98730000I425000J0D01*
G01*
%TO.N,POWER_-5V*%
D13*
X127780000Y-116270000D02*
G75*
G02*
X127380000Y-116270000I-200000J0D01*
G01*
X127380000Y-116270000D02*
G75*
G02*
X127780000Y-116270000I200000J0D01*
G01*
%TO.N,DIN42-D4*%
D11*
X128121000Y-96901000D02*
G75*
G02*
X127821000Y-96901000I-150000J0D01*
G01*
X127821000Y-96901000D02*
G75*
G02*
X128121000Y-96901000I150000J0D01*
G01*
%TD*%
D17*
%TO.P,SK1,B1,A14*%
%TO.N,DIN23-A14*%
X80772000Y-68961000D03*
%TO.P,SK1,B2,A12*%
%TO.N,DIN21-A12*%
X80772000Y-71501000D03*
%TO.P,SK1,B3,+5v*%
%TO.N,POWER5_VIN*%
X80772000Y-74041000D03*
%TO.P,SK1,B4,+9V*%
%TO.N,POWER_+9V*%
X80772000Y-76581000D03*
%TO.P,SK1,B6,GND*%
%TO.N,GND*%
X80772000Y-81661000D03*
%TO.P,SK1,B7,GND*%
X80772000Y-84201000D03*
%TO.P,SK1,B8,CLK*%
%TO.N,DIN25-CLOCK*%
X80772000Y-86741000D03*
%TO.P,SK1,B9,A0*%
%TO.N,DIN9-A0*%
X80772000Y-89281000D03*
%TO.P,SK1,B10,A1*%
%TO.N,DIN10-A1*%
X80772000Y-91821000D03*
%TO.P,SK1,B11,A2*%
%TO.N,DIN11-A2*%
X80772000Y-94361000D03*
%TO.P,SK1,B12,A3*%
%TO.N,DIN12-A3*%
X80772000Y-96901000D03*
%TO.P,SK1,B13,~{IORQGE}*%
%TO.N,DIN36-{slash}IORQGE*%
X80772000Y-99441000D03*
%TO.P,SK1,B14,GND*%
%TO.N,GND*%
X80772000Y-101981000D03*
%TO.P,SK1,B15,VIDEO*%
%TO.N,DIN2-VIDEO-OE2*%
X80772000Y-104521000D03*
%TO.P,SK1,B16,Y*%
%TO.N,DIN3-Y-{slash}DRD*%
X80772000Y-107061000D03*
%TO.P,SK1,B17,V*%
%TO.N,DIN4-V-{slash}DWR*%
X80772000Y-109601000D03*
%TO.P,SK1,B18,U*%
%TO.N,DIN5-U-{slash}MTR*%
X80772000Y-112141000D03*
%TO.P,SK1,B19,~{BUSRQ}*%
%TO.N,DIN31-{slash}BUSRQ*%
X80772000Y-114681000D03*
%TO.P,SK1,B20,~{RESET}*%
%TO.N,DIN8-{slash}RESET*%
X80772000Y-117221000D03*
%TO.P,SK1,B21,A7*%
%TO.N,DIN16-A7*%
X80772000Y-119761000D03*
%TO.P,SK1,B22,A6*%
%TO.N,DIN15-A6*%
X80772000Y-122301000D03*
%TO.P,SK1,B23,A5*%
%TO.N,DIN14-A5*%
X80772000Y-124841000D03*
%TO.P,SK1,B24,A4*%
%TO.N,DIN13-A4*%
X80772000Y-127381000D03*
%TO.P,SK1,B25,~{ROMCS}*%
%TO.N,DIN28-{slash}ROMCS*%
X80772000Y-129921000D03*
%TO.P,SK1,B26,~{BUSACK}*%
%TO.N,DIN27-{slash}BUSACK*%
X80772000Y-132461000D03*
%TO.P,SK1,B27,A9*%
%TO.N,DIN18-A9*%
X80772000Y-135001000D03*
%TO.P,SK1,B28,A11*%
%TO.N,DIN20-A11*%
X80772000Y-137541000D03*
%TD*%
D18*
%TO.P,J3,01,01*%
%TO.N,DIN6-Spare1*%
X118649750Y-66068575D03*
D19*
%TO.P,J3,02,02*%
%TO.N,DIN7-Spare2*%
X121189750Y-66068575D03*
%TO.P,J3,03,03*%
%TO.N,DIN26-Spare3*%
X123729750Y-66068575D03*
%TD*%
D20*
%TO.P,S1,1,1*%
%TO.N,DIN8-{slash}RESET*%
X100939965Y-66196650D03*
%TO.P,S1,2,2*%
X107439965Y-66196650D03*
%TO.P,S1,3,3*%
%TO.N,GND*%
X100939965Y-70696650D03*
%TO.P,S1,4,4*%
X107439965Y-70696650D03*
%TD*%
D21*
%TO.P,D1,1,K*%
%TO.N,POWER5V*%
X91059000Y-89281000D03*
D22*
%TO.P,D1,2,A*%
%TO.N,POWER5_VIN*%
X91059000Y-74041000D03*
%TD*%
D17*
%TO.P,SK2,B1,A14*%
%TO.N,DIN23-A14*%
X132650000Y-68961000D03*
%TO.P,SK2,B2,A12*%
%TO.N,DIN21-A12*%
X132650000Y-71501000D03*
%TO.P,SK2,B3,+5v*%
%TO.N,POWER5_VIN*%
X132650000Y-74041000D03*
%TO.P,SK2,B4,+9V*%
%TO.N,POWER_+9V*%
X132650000Y-76581000D03*
%TO.P,SK2,B6,GND*%
%TO.N,GND*%
X132650000Y-81661000D03*
%TO.P,SK2,B7,GND*%
X132650000Y-84201000D03*
%TO.P,SK2,B8,CLK*%
%TO.N,DIN25-CLOCK*%
X132650000Y-86741000D03*
%TO.P,SK2,B9,A0*%
%TO.N,DIN9-A0*%
X132650000Y-89281000D03*
%TO.P,SK2,B10,A1*%
%TO.N,DIN10-A1*%
X132650000Y-91821000D03*
%TO.P,SK2,B11,A2*%
%TO.N,DIN11-A2*%
X132650000Y-94361000D03*
%TO.P,SK2,B12,A3*%
%TO.N,DIN12-A3*%
X132650000Y-96901000D03*
%TO.P,SK2,B13,~{IORQGE}*%
%TO.N,DIN36-{slash}IORQGE*%
X132650000Y-99441000D03*
%TO.P,SK2,B14,GND*%
%TO.N,GND*%
X132650000Y-101981000D03*
%TO.P,SK2,B15,VIDEO*%
%TO.N,DIN2-VIDEO-OE2*%
X132650000Y-104521000D03*
%TO.P,SK2,B16,Y*%
%TO.N,DIN3-Y-{slash}DRD*%
X132650000Y-107061000D03*
%TO.P,SK2,B17,V*%
%TO.N,DIN4-V-{slash}DWR*%
X132650000Y-109601000D03*
%TO.P,SK2,B18,U*%
%TO.N,DIN5-U-{slash}MTR*%
X132650000Y-112141000D03*
%TO.P,SK2,B19,~{BUSRQ}*%
%TO.N,DIN31-{slash}BUSRQ*%
X132650000Y-114681000D03*
%TO.P,SK2,B20,~{RESET}*%
%TO.N,DIN8-{slash}RESET*%
X132650000Y-117221000D03*
%TO.P,SK2,B21,A7*%
%TO.N,DIN16-A7*%
X132650000Y-119761000D03*
%TO.P,SK2,B22,A6*%
%TO.N,DIN15-A6*%
X132650000Y-122301000D03*
%TO.P,SK2,B23,A5*%
%TO.N,DIN14-A5*%
X132650000Y-124841000D03*
%TO.P,SK2,B24,A4*%
%TO.N,DIN13-A4*%
X132650000Y-127381000D03*
%TO.P,SK2,B25,~{ROMCS}*%
%TO.N,DIN28-{slash}ROMCS*%
X132650000Y-129921000D03*
%TO.P,SK2,B26,~{BUSACK}*%
%TO.N,DIN27-{slash}BUSACK*%
X132650000Y-132461000D03*
%TO.P,SK2,B27,A9*%
%TO.N,DIN18-A9*%
X132650000Y-135001000D03*
%TO.P,SK2,B28,A11*%
%TO.N,DIN20-A11*%
X132650000Y-137541000D03*
%TD*%
D23*
%TO.P,J1,01,01*%
%TO.N,DIN24-A15*%
X92969000Y-96190000D03*
D24*
%TO.P,J1,02,02*%
%TO.N,DIN1-NCA4-OE1*%
X95509000Y-96190000D03*
%TO.P,J1,03,03*%
%TO.N,DIN23-A14*%
X92969000Y-98730000D03*
%TO.P,J1,04,04*%
%TO.N,DIN2-VIDEO-OE2*%
X95509000Y-98730000D03*
%TO.P,J1,05,05*%
%TO.N,DIN22-A13*%
X92969000Y-101270000D03*
%TO.P,J1,06,06*%
%TO.N,DIN3-Y-{slash}DRD*%
X95509000Y-101270000D03*
%TO.P,J1,07,07*%
%TO.N,DIN21-A12*%
X92969000Y-103810000D03*
%TO.P,J1,08,08*%
%TO.N,DIN4-V-{slash}DWR*%
X95509000Y-103810000D03*
%TO.P,J1,09,09*%
%TO.N,DIN20-A11*%
X92969000Y-106350000D03*
%TO.P,J1,10,10*%
%TO.N,DIN5-U-{slash}MTR*%
X95509000Y-106350000D03*
%TO.P,J1,11,11*%
%TO.N,DIN19-A10*%
X92969000Y-108890000D03*
%TO.P,J1,12,12*%
%TO.N,DIN6-Spare1*%
X95509000Y-108890000D03*
%TO.P,J1,13,13*%
%TO.N,DIN18-A9*%
X92969000Y-111430000D03*
%TO.P,J1,14,14*%
%TO.N,DIN7-Spare2*%
X95509000Y-111430000D03*
%TO.P,J1,15,15*%
%TO.N,DIN17-A8*%
X92969000Y-113970000D03*
%TO.P,J1,16,16*%
%TO.N,DIN8-{slash}RESET*%
X95509000Y-113970000D03*
%TO.P,J1,17,17*%
%TO.N,DIN16-A7*%
X92969000Y-116510000D03*
%TO.P,J1,18,18*%
%TO.N,DIN9-A0*%
X95509000Y-116510000D03*
%TO.P,J1,19,19*%
%TO.N,DIN15-A6*%
X92969000Y-119050000D03*
%TO.P,J1,20,20*%
%TO.N,DIN10-A1*%
X95509000Y-119050000D03*
%TO.P,J1,21,21*%
%TO.N,DIN14-A5*%
X92969000Y-121590000D03*
%TO.P,J1,22,22*%
%TO.N,DIN11-A2*%
X95509000Y-121590000D03*
%TO.P,J1,23,23*%
%TO.N,DIN13-A4*%
X92969000Y-124130000D03*
%TO.P,J1,24,24*%
%TO.N,DIN12-A3*%
X95509000Y-124130000D03*
%TO.P,J1,25,25*%
%TO.N,unconnected-(J1-Pad25)*%
X92969000Y-126670000D03*
%TO.P,J1,26,26*%
%TO.N,unconnected-(J1-Pad26)*%
X95509000Y-126670000D03*
%TO.P,J1,27,27*%
%TO.N,POWER5V*%
X92969000Y-129210000D03*
%TO.P,J1,28,28*%
X95509000Y-129210000D03*
%TO.P,J1,29,29*%
%TO.N,unconnected-(J1-Pad29)*%
X92969000Y-131750000D03*
%TO.P,J1,30,30*%
%TO.N,unconnected-(J1-Pad30)*%
X95509000Y-131750000D03*
%TO.P,J1,31,31*%
%TO.N,GND*%
X92969000Y-134290000D03*
%TO.P,J1,32,32*%
X95509000Y-134290000D03*
%TD*%
D23*
%TO.P,J2,01,01*%
%TO.N,DIN48-{slash}M1*%
X117410000Y-96189800D03*
D24*
%TO.P,J2,02,02*%
%TO.N,DIN25-CLOCK*%
X119950000Y-96189800D03*
%TO.P,J2,03,03*%
%TO.N,DIN47-{slash}WR*%
X117410000Y-98729800D03*
%TO.P,J2,04,04*%
%TO.N,DIN26-Spare3*%
X119950000Y-98729800D03*
%TO.P,J2,05,05*%
%TO.N,DIN46-{slash}RD*%
X117410000Y-101269800D03*
%TO.P,J2,06,06*%
%TO.N,DIN27-{slash}BUSACK*%
X119950000Y-101269800D03*
%TO.P,J2,07,07*%
%TO.N,DIN45-D7*%
X117410000Y-103809800D03*
%TO.P,J2,08,08*%
%TO.N,DIN28-{slash}ROMCS*%
X119950000Y-103809800D03*
%TO.P,J2,09,09*%
%TO.N,DIN44-D6*%
X117410000Y-106349800D03*
%TO.P,J2,10,10*%
%TO.N,DIN29-{slash}RFRSH*%
X119950000Y-106349800D03*
%TO.P,J2,11,11*%
%TO.N,DIN43-D5*%
X117410000Y-108889800D03*
%TO.P,J2,12,12*%
%TO.N,DIN30-{slash}WAIT*%
X119950000Y-108889800D03*
%TO.P,J2,13,13*%
%TO.N,DIN42-D4*%
X117410000Y-111429800D03*
%TO.P,J2,14,14*%
%TO.N,DIN31-{slash}BUSRQ*%
X119950000Y-111429800D03*
%TO.P,J2,15,15*%
%TO.N,DIN41-D3*%
X117410000Y-113969800D03*
%TO.P,J2,16,16*%
%TO.N,DIN32-{slash}IORQ*%
X119950000Y-113969800D03*
%TO.P,J2,17,17*%
%TO.N,DIN40-D2*%
X117410000Y-116509800D03*
%TO.P,J2,18,18*%
%TO.N,DIN33-{slash}MREQ*%
X119950000Y-116509800D03*
%TO.P,J2,19,19*%
%TO.N,DIN39-D1*%
X117410000Y-119049800D03*
%TO.P,J2,20,20*%
%TO.N,DIN34-{slash}HALT*%
X119950000Y-119049800D03*
%TO.P,J2,21,21*%
%TO.N,DIN38-D0*%
X117410000Y-121589800D03*
%TO.P,J2,22,22*%
%TO.N,DIN35-{slash}NMI*%
X119950000Y-121589800D03*
%TO.P,J2,23,23*%
%TO.N,DIN37-{slash}INT*%
X117410000Y-124129800D03*
%TO.P,J2,24,24*%
%TO.N,DIN36-{slash}IORQGE*%
X119950000Y-124129800D03*
%TO.P,J2,25,25*%
%TO.N,unconnected-(J2-Pad25)*%
X117410000Y-126669800D03*
%TO.P,J2,26,26*%
%TO.N,unconnected-(J2-Pad26)*%
X119950000Y-126669800D03*
%TO.P,J2,27,27*%
%TO.N,POWER5V*%
X117410000Y-129209800D03*
%TO.P,J2,28,28*%
X119950000Y-129209800D03*
%TO.P,J2,29,29*%
%TO.N,unconnected-(J2-Pad29)*%
X117410000Y-131749800D03*
%TO.P,J2,30,30*%
%TO.N,unconnected-(J2-Pad30)*%
X119950000Y-131749800D03*
%TO.P,J2,31,31*%
%TO.N,GND*%
X117410000Y-134289800D03*
%TO.P,J2,32,32*%
X119950000Y-134289800D03*
%TD*%
D25*
%TO.N,POWER5_VIN*%
X112781080Y-74030840D03*
%TO.N,DIN8-{slash}RESET*%
X98460560Y-82290920D03*
%TO.N,DIN13-A4*%
X98259900Y-126921260D03*
%TO.N,DIN15-A6*%
X104432100Y-120192800D03*
%TO.N,DIN18-A9*%
X90728800Y-137081260D03*
%TO.N,DIN2-VIDEO-OE2*%
X103124000Y-96972120D03*
X97701100Y-100081080D03*
%TO.N,DIN11-A2*%
X87800180Y-121399300D03*
D26*
X86614000Y-94361000D03*
D25*
%TO.N,DIN22-A13*%
X93129100Y-70231000D03*
X91810840Y-71099680D03*
%TO.N,DIN9-A0*%
X96012000Y-86939120D03*
%TO.N,DIN4-V-{slash}DWR*%
X122637320Y-107530900D03*
X96598740Y-105399840D03*
%TO.N,DIN3-Y-{slash}DRD*%
X122769400Y-97574100D03*
D26*
%TO.N,DIN6-Spare1*%
X106514900Y-99123500D03*
X110782100Y-71399400D03*
X100409375Y-107950000D03*
X106619675Y-95843725D03*
D25*
%TO.N,DIN20-A11*%
X87370920Y-135600440D03*
%TO.N,GND*%
X127369340Y-100299520D03*
X80779620Y-79489300D03*
X86039960Y-101808280D03*
X115648740Y-82958940D03*
%TO.N,DIN1-NCA4-OE1*%
X89827100Y-80896460D03*
X110599220Y-82199480D03*
%TO.N,DIN17-A8*%
X88684100Y-114884200D03*
X88386920Y-130764280D03*
X92956380Y-138236960D03*
D26*
X85217000Y-133731000D03*
%TO.N,DIN7-Spare2*%
X107715050Y-106346625D03*
X107734100Y-99126675D03*
X112026700Y-71418450D03*
X107664250Y-95881825D03*
X107734100Y-111413925D03*
D25*
%TO.N,DIN14-A5*%
X103499920Y-120769380D03*
%TO.N,DIN5-U-{slash}MTR*%
X103126540Y-106342180D03*
%TO.N,DIN12-A3*%
X87398860Y-124800360D03*
D26*
X85217000Y-96901000D03*
D25*
%TO.N,DIN23-A14*%
X91376500Y-85839300D03*
%TO.N,DIN16-A7*%
X103741220Y-117652800D03*
%TO.N,DIN21-A12*%
X115580160Y-71539100D03*
X94419420Y-71899780D03*
X88409780Y-85168740D03*
D26*
%TO.N,DIN10-A1*%
X86614000Y-91821000D03*
D25*
X88252300Y-115717320D03*
%TO.N,DIN40-D2*%
X95615760Y-94637860D03*
D26*
X90932000Y-83439000D03*
D25*
X101622225Y-108365925D03*
D26*
X115443000Y-86614000D03*
D25*
%TO.N,DIN37-{slash}INT*%
X127199160Y-97670620D03*
D26*
X85217000Y-98298000D03*
D25*
X103210360Y-115902740D03*
X100723700Y-93499940D03*
%TO.N,DIN38-D0*%
X86128860Y-81429860D03*
X114691160Y-81589880D03*
%TO.N,DIN35-{slash}NMI*%
X100523040Y-94950280D03*
X102758240Y-109689900D03*
X86174580Y-99001580D03*
X125939320Y-98069400D03*
%TO.N,DIN28-{slash}ROMCS*%
X127021360Y-129286000D03*
%TO.N,DIN47-{slash}WR*%
X85895180Y-110914180D03*
D26*
X91440000Y-108585000D03*
D25*
%TO.N,DIN29-{slash}RFRSH*%
X89458800Y-131559300D03*
X124199420Y-127464820D03*
%TO.N,DIN32-{slash}IORQ*%
X122832900Y-108325920D03*
X128199920Y-109601000D03*
X87630000Y-126692660D03*
%TO.N,DIN43-D5*%
X101404420Y-91404440D03*
X95859600Y-91203780D03*
X127740180Y-93080840D03*
%TO.N,DIN33-{slash}MREQ*%
X128067840Y-107741720D03*
X123902240Y-107279440D03*
X86995000Y-120401080D03*
X97289620Y-121389140D03*
%TO.N,DIN39-D1*%
X100000000Y-84000000D03*
X97729040Y-96004380D03*
X99049840Y-106959400D03*
X90246200Y-82727800D03*
D26*
X114150775Y-83718400D03*
D25*
%TO.N,DIN41-D3*%
X100911660Y-92034360D03*
X103929180Y-110218220D03*
X125680240Y-94378780D03*
X95270320Y-91810840D03*
%TO.N,DIN36-{slash}IORQGE*%
X88739980Y-98612960D03*
X103957120Y-93733620D03*
X98016060Y-94805500D03*
%TO.N,DIN34-{slash}HALT*%
X128339620Y-106799380D03*
X100324920Y-96410780D03*
D26*
X86741000Y-99568000D03*
D25*
%TO.N,DIN48-{slash}M1*%
X123688880Y-103576120D03*
X127580160Y-127464820D03*
X85310980Y-128897380D03*
X103124000Y-98173540D03*
%TO.N,DIN45-D7*%
X97759520Y-89936320D03*
X91104720Y-79634080D03*
X109829600Y-79740760D03*
%TO.N,DIN30-{slash}WAIT*%
X125385600Y-111173260D03*
X85430360Y-115940840D03*
%TO.N,DIN27-{slash}BUSACK*%
X127704620Y-133484620D03*
%TO.N,DIN42-D4*%
X94594680Y-92237560D03*
X100512880Y-92727780D03*
X127971320Y-96901000D03*
%TO.N,DIN46-{slash}RD*%
X103124000Y-100721160D03*
D26*
X91440000Y-105664000D03*
X85217000Y-109855000D03*
D25*
X127166140Y-105531920D03*
D26*
%TO.N,DIN26-Spare3*%
X108892975Y-95885000D03*
X113379250Y-71504175D03*
D25*
%TO.N,DIN25-CLOCK*%
X120000000Y-89000000D03*
D26*
%TO.N,DIN44-D6*%
X126427000Y-104775000D03*
D25*
X96009460Y-90388440D03*
%TO.N,POWER_+12V*%
X128057680Y-122306080D03*
X85580220Y-123139200D03*
%TO.N,DIN31-{slash}BUSRQ*%
X98930460Y-109090460D03*
X91340940Y-110190280D03*
%TO.N,POWER_-5V*%
X85161120Y-118450360D03*
X127580160Y-116271040D03*
%TO.N,POWER_12VAC*%
X85399880Y-126890780D03*
X127930680Y-125539500D03*
%TO.N,POWER_+9V*%
X114150140Y-77089000D03*
X86438740Y-77729080D03*
%TD*%
D13*
%TO.N,POWER5_VIN*%
X80772000Y-74041000D02*
X91059000Y-74041000D01*
D27*
X112791000Y-74041000D02*
X112780000Y-74030000D01*
D13*
X132650000Y-74041000D02*
X112791000Y-74041000D01*
D27*
%TO.N,DIN8-{slash}RESET*%
X87630000Y-115088030D02*
X89905030Y-112813000D01*
X121429350Y-112800000D02*
X96672000Y-112800000D01*
X80772000Y-117221000D02*
X80891000Y-117340000D01*
X89905030Y-112813000D02*
X94359000Y-112813000D01*
X80891000Y-117340000D02*
X86327530Y-117340000D01*
X98460000Y-82290000D02*
X98260000Y-82090000D01*
X87630000Y-116037530D02*
X87630000Y-115088030D01*
X94359000Y-112813000D02*
X95509000Y-113963000D01*
X98260000Y-68860000D02*
X100910000Y-66210000D01*
X132509000Y-117080000D02*
X125709350Y-117080000D01*
X96672000Y-112800000D02*
X95509000Y-113963000D01*
X86327530Y-117340000D02*
X87630000Y-116037530D01*
X132650000Y-117221000D02*
X132509000Y-117080000D01*
X125709350Y-117080000D02*
X121429350Y-112800000D01*
X98260000Y-82090000D02*
X98260000Y-68860000D01*
%TO.N,DIN13-A4*%
X90999880Y-126092120D02*
X92969000Y-124123000D01*
X122390610Y-126864740D02*
X132133740Y-126864740D01*
X121375350Y-127880000D02*
X122390610Y-126864740D01*
X87381470Y-126092120D02*
X90999880Y-126092120D01*
X98260000Y-126920000D02*
X99220000Y-127880000D01*
X132133740Y-126864740D02*
X132650000Y-127381000D01*
X99220000Y-127880000D02*
X121375350Y-127880000D01*
X81351000Y-127960000D02*
X85513590Y-127960000D01*
X85513590Y-127960000D02*
X87381470Y-126092120D01*
X80772000Y-127381000D02*
X81351000Y-127960000D01*
%TO.N,DIN15-A6*%
X104433000Y-120193000D02*
X104490000Y-120250000D01*
X80772000Y-122301000D02*
X85942530Y-122301000D01*
X87443530Y-120800000D02*
X90151340Y-120800000D01*
X104490000Y-120250000D02*
X127551000Y-120250000D01*
X90151340Y-120800000D02*
X91908340Y-119043000D01*
X129602000Y-122301000D02*
X132650000Y-122301000D01*
X127551000Y-120250000D02*
X129602000Y-122301000D01*
X85942530Y-122301000D02*
X87443530Y-120800000D01*
X91908340Y-119043000D02*
X92969000Y-119043000D01*
%TO.N,DIN18-A9*%
X92630000Y-138980000D02*
X90730000Y-137080000D01*
X88872570Y-135001000D02*
X80772000Y-135001000D01*
X90730000Y-137080000D02*
X90730000Y-136858430D01*
X96330000Y-138380000D02*
X98397060Y-138380000D01*
X100027060Y-136750000D02*
X123507060Y-136750000D01*
X123507060Y-136750000D02*
X125256060Y-135001000D01*
X125256060Y-135001000D02*
X132650000Y-135001000D01*
X95730000Y-138980000D02*
X92630000Y-138980000D01*
X90730000Y-136858430D02*
X88872570Y-135001000D01*
X98397060Y-138380000D02*
X100027060Y-136750000D01*
X95730000Y-138980000D02*
X96330000Y-138380000D01*
%TO.N,DIN2-VIDEO-OE2*%
X85489000Y-104521000D02*
X90030000Y-99980000D01*
X95509000Y-98723000D02*
X96343000Y-98723000D01*
X123370000Y-96960650D02*
X123370000Y-98440000D01*
X129451000Y-104521000D02*
X132650000Y-104521000D01*
X96343000Y-98723000D02*
X97700000Y-100080000D01*
X123370000Y-98440000D02*
X129451000Y-104521000D01*
X90030000Y-99980000D02*
X94252000Y-99980000D01*
X80772000Y-104521000D02*
X85489000Y-104521000D01*
X103124000Y-96973000D02*
X103124000Y-96296000D01*
X104400000Y-95020000D02*
X121429350Y-95020000D01*
X103124000Y-96296000D02*
X104400000Y-95020000D01*
X94252000Y-99980000D02*
X95509000Y-98723000D01*
X121429350Y-95020000D02*
X123370000Y-96960650D01*
%TO.N,DIN11-A2*%
X95736370Y-88910000D02*
X94523000Y-90123370D01*
X132650000Y-94361000D02*
X127761000Y-94361000D01*
X94523000Y-90123370D02*
X94523000Y-90770000D01*
X91403000Y-120433000D02*
X94359000Y-120433000D01*
X94523000Y-90770000D02*
X93163000Y-92130000D01*
X87800000Y-121400000D02*
X90436000Y-121400000D01*
X127761000Y-94361000D02*
X126548150Y-93148150D01*
X106098975Y-93148150D02*
X101860825Y-88910000D01*
X90436000Y-121400000D02*
X91403000Y-120433000D01*
X94359000Y-120433000D02*
X95509000Y-121583000D01*
X101860825Y-88910000D02*
X95736370Y-88910000D01*
X80772000Y-94361000D02*
X86614000Y-94361000D01*
X88845000Y-92130000D02*
X86614000Y-94361000D01*
X126548150Y-93148150D02*
X106098975Y-93148150D01*
X93163000Y-92130000D02*
X88845000Y-92130000D01*
%TO.N,DIN22-A13*%
X91810000Y-71100000D02*
X92679000Y-70231000D01*
X92679000Y-70231000D02*
X93130000Y-70231000D01*
%TO.N,DIN9-A0*%
X126311025Y-91840050D02*
X128870075Y-89281000D01*
X87304000Y-89590000D02*
X89043000Y-91329000D01*
X93472000Y-90668000D02*
X93472000Y-90043000D01*
X93722000Y-89793000D02*
X93722000Y-89791590D01*
X106645075Y-91840050D02*
X126311025Y-91840050D01*
X102670025Y-87865000D02*
X106645075Y-91840050D01*
X93722000Y-89791590D02*
X95242500Y-88271090D01*
X89043000Y-91329000D02*
X92811000Y-91329000D01*
X95242500Y-88271090D02*
X95242500Y-87709500D01*
X86991000Y-89281000D02*
X87300000Y-89590000D01*
X92811000Y-91329000D02*
X93472000Y-90668000D01*
X87300000Y-89590000D02*
X87304000Y-89590000D01*
X80772000Y-89281000D02*
X86991000Y-89281000D01*
X101205000Y-87865000D02*
X102670025Y-87865000D01*
X93472000Y-90043000D02*
X93722000Y-89793000D01*
X128870075Y-89281000D02*
X132650000Y-89281000D01*
X95242500Y-87709500D02*
X96012000Y-86940000D01*
X96012000Y-86940000D02*
X100280000Y-86940000D01*
X100280000Y-86940000D02*
X101205000Y-87865000D01*
X132650000Y-89281000D02*
X132569000Y-89200000D01*
%TO.N,DIN4-V-{slash}DWR*%
X96240000Y-104541000D02*
X95509000Y-103810000D01*
X83820000Y-109601000D02*
X88468000Y-104953000D01*
X96240000Y-105040000D02*
X96600000Y-105400000D01*
X129078640Y-109601000D02*
X132650000Y-109601000D01*
X123304470Y-107530000D02*
X123654470Y-107880000D01*
X92492650Y-104960000D02*
X94359000Y-104960000D01*
X94359000Y-104960000D02*
X95509000Y-103810000D01*
X127007640Y-107530000D02*
X129078640Y-109601000D01*
X96240000Y-105040000D02*
X96240000Y-104541000D01*
X124151530Y-107880000D02*
X124501530Y-107530000D01*
X124501530Y-107530000D02*
X127007640Y-107530000D01*
X92485650Y-104953000D02*
X92492650Y-104960000D01*
X122636760Y-107530000D02*
X123304470Y-107530000D01*
X88468000Y-104953000D02*
X92485650Y-104953000D01*
X123654470Y-107880000D02*
X124151530Y-107880000D01*
X80772000Y-109601000D02*
X83820000Y-109601000D01*
%TO.N,DIN3-Y-{slash}DRD*%
X83820000Y-107061000D02*
X88371000Y-102510000D01*
X127950000Y-105334920D02*
X129676090Y-107061000D01*
X129676090Y-107061000D02*
X132650000Y-107061000D01*
X94262000Y-102510000D02*
X95509000Y-101263000D01*
X127950000Y-103780000D02*
X127950000Y-105334920D01*
X122770000Y-97573000D02*
X122770000Y-98600000D01*
X80772000Y-107061000D02*
X83820000Y-107061000D01*
X88371000Y-102510000D02*
X94262000Y-102510000D01*
X122770000Y-98600000D02*
X127950000Y-103780000D01*
%TO.N,DIN6-Spare1*%
X100409375Y-107950000D02*
X96449000Y-107950000D01*
X106619675Y-99018725D02*
X106514900Y-99123500D01*
X96449000Y-107950000D02*
X95509000Y-108890000D01*
X106619675Y-95843725D02*
X106619675Y-99018725D01*
%TO.N,DIN20-A11*%
X96640000Y-138780000D02*
X98562740Y-138780000D01*
X85430000Y-137541000D02*
X80772000Y-137541000D01*
X90320000Y-137850000D02*
X90934310Y-137850000D01*
X100192740Y-137150000D02*
X123672740Y-137150000D01*
X87370000Y-135601000D02*
X88710000Y-136941000D01*
X87370000Y-135601000D02*
X85430000Y-137541000D01*
X96040000Y-139380000D02*
X96640000Y-138780000D01*
X88710000Y-136941000D02*
X89411000Y-136941000D01*
X123672740Y-137150000D02*
X125421740Y-135401000D01*
X129780000Y-137541000D02*
X132650000Y-137541000D01*
X127640000Y-135401000D02*
X129780000Y-137541000D01*
X90934310Y-137850000D02*
X92464310Y-139380000D01*
X89411000Y-136941000D02*
X90320000Y-137850000D01*
X125421740Y-135401000D02*
X127640000Y-135401000D01*
X92464310Y-139380000D02*
X96040000Y-139380000D01*
X98562740Y-138780000D02*
X100192740Y-137150000D01*
D14*
%TO.N,GND*%
X80772000Y-79498000D02*
X80780000Y-79490000D01*
X86039310Y-101809310D02*
X85867630Y-101981000D01*
X80772000Y-81661000D02*
X80772000Y-84201000D01*
X80772000Y-81661000D02*
X80772000Y-79498000D01*
X85867630Y-101981000D02*
X80772000Y-101981000D01*
X80780000Y-80290000D02*
X80780000Y-79490000D01*
X116949000Y-81661000D02*
X132650000Y-81661000D01*
X116891000Y-84201000D02*
X115650000Y-82960000D01*
X115650000Y-82960000D02*
X116949000Y-81661000D01*
X129051000Y-101981000D02*
X127370000Y-100300000D01*
X132650000Y-84201000D02*
X116891000Y-84201000D01*
D27*
%TO.N,DIN1-NCA4-OE1*%
X97597400Y-82328870D02*
X98205880Y-82937350D01*
X98205880Y-82937350D02*
X109862650Y-82937350D01*
X89827340Y-80896870D02*
X90000080Y-81069610D01*
X90000080Y-81069610D02*
X90549610Y-81069610D01*
X91808870Y-82328870D02*
X97597400Y-82328870D01*
X90549610Y-81069610D02*
X91808870Y-82328870D01*
X109862650Y-82937350D02*
X110600000Y-82200000D01*
%TO.N,DIN17-A8*%
X89296550Y-114270000D02*
X92662000Y-114270000D01*
X92956880Y-137953940D02*
X88733940Y-133731000D01*
X92662000Y-114270000D02*
X92969000Y-113963000D01*
X92956880Y-138236780D02*
X92956880Y-137953940D01*
X88683280Y-114883280D02*
X89296550Y-114270000D01*
X88733940Y-133731000D02*
X85217000Y-133731000D01*
%TO.N,DIN7-Spare2*%
X107664250Y-95881825D02*
X107664250Y-99056825D01*
X107664250Y-99056825D02*
X107734100Y-99126675D01*
X107718025Y-111430000D02*
X95509000Y-111430000D01*
X107734100Y-111413925D02*
X107718025Y-111430000D01*
%TO.N,DIN14-A5*%
X87191000Y-123409000D02*
X91143000Y-123409000D01*
X127570000Y-122809000D02*
X129602000Y-124841000D01*
X85759000Y-124841000D02*
X87191000Y-123409000D01*
X105002650Y-122809000D02*
X127570000Y-122809000D01*
X91143000Y-123409000D02*
X92969000Y-121583000D01*
X129602000Y-124841000D02*
X132650000Y-124841000D01*
X103500000Y-121306350D02*
X105002650Y-122809000D01*
X103500000Y-120770000D02*
X103500000Y-121306350D01*
X80772000Y-124841000D02*
X85759000Y-124841000D01*
%TO.N,DIN5-U-{slash}MTR*%
X83820000Y-112141000D02*
X88392000Y-107569000D01*
X123473700Y-109815280D02*
X127277280Y-109815280D01*
X129603000Y-112141000D02*
X132650000Y-112141000D01*
X88392000Y-107569000D02*
X94283000Y-107569000D01*
X94283000Y-107569000D02*
X95509000Y-106343000D01*
X103127530Y-106343000D02*
X104284530Y-107500000D01*
X127277280Y-109815280D02*
X129603000Y-112141000D01*
X104284530Y-107500000D02*
X121158420Y-107500000D01*
X80772000Y-112141000D02*
X83820000Y-112141000D01*
X121158420Y-107500000D02*
X123473700Y-109815280D01*
%TO.N,DIN12-A3*%
X94322000Y-122936000D02*
X95509000Y-124123000D01*
X92964570Y-92894120D02*
X94923000Y-90935690D01*
X95902060Y-89310000D02*
X101438500Y-89310000D01*
X101438500Y-89310000D02*
X105898950Y-93770450D01*
X94923000Y-90289060D02*
X95902060Y-89310000D01*
X105898950Y-93770450D02*
X126050450Y-93770450D01*
X89223880Y-92894120D02*
X92964570Y-92894120D01*
X94923000Y-90935690D02*
X94923000Y-90289060D01*
X80772000Y-96901000D02*
X85217000Y-96901000D01*
X90665650Y-124800000D02*
X92529650Y-122936000D01*
X85217000Y-96901000D02*
X89223880Y-92894120D01*
X92529650Y-122936000D02*
X94322000Y-122936000D01*
X129181000Y-96901000D02*
X132650000Y-96901000D01*
X126050450Y-93770450D02*
X129181000Y-96901000D01*
X87400000Y-124800000D02*
X90665650Y-124800000D01*
%TO.N,DIN23-A14*%
X95160000Y-70121520D02*
X100371520Y-64910000D01*
X89020000Y-83483640D02*
X89020000Y-80850000D01*
X91375360Y-85839000D02*
X91375360Y-85839000D01*
X108494630Y-64910000D02*
X112545630Y-68961000D01*
X95160000Y-71220000D02*
X92901000Y-68961000D01*
X100371520Y-64910000D02*
X108494630Y-64910000D01*
X132650000Y-68961000D02*
X117602000Y-68961000D01*
X91375360Y-85839000D02*
X89020000Y-83483640D01*
X112545630Y-68961000D02*
X120650000Y-68961000D01*
X89020000Y-80850000D02*
X95160000Y-74710000D01*
X95160000Y-74710000D02*
X95160000Y-71220000D01*
X92901000Y-68961000D02*
X90466690Y-68961000D01*
X95160000Y-71220000D02*
X95160000Y-70121520D01*
X80772000Y-68961000D02*
X90466690Y-68961000D01*
%TO.N,DIN16-A7*%
X129602000Y-119761000D02*
X132650000Y-119761000D01*
X80772000Y-119761000D02*
X89711000Y-119761000D01*
X127501000Y-117660000D02*
X129602000Y-119761000D01*
X89711000Y-119761000D02*
X92969000Y-116503000D01*
X103747000Y-117660000D02*
X127501000Y-117660000D01*
X103740000Y-117653000D02*
X103747000Y-117660000D01*
%TO.N,DIN21-A12*%
X88392000Y-80912310D02*
X88392000Y-81747530D01*
X94420000Y-71900000D02*
X94290000Y-72030000D01*
X94400000Y-71920000D02*
X94400000Y-74904310D01*
X81301000Y-72030000D02*
X80772000Y-71501000D01*
X88410000Y-81765530D02*
X88410000Y-85170000D01*
X115619000Y-71501000D02*
X132650000Y-71501000D01*
X94400000Y-74904310D02*
X88392000Y-80912310D01*
X88392000Y-81747530D02*
X88410000Y-81765530D01*
X94290000Y-72030000D02*
X81301000Y-72030000D01*
X83820000Y-71501000D02*
X80772000Y-71501000D01*
X94420000Y-71900000D02*
X94400000Y-71920000D01*
X115580000Y-71540000D02*
X115619000Y-71501000D01*
%TO.N,DIN10-A1*%
X95570690Y-88510000D02*
X102381575Y-88510000D01*
X80772000Y-91821000D02*
X86614000Y-91821000D01*
X94123000Y-89957690D02*
X95570690Y-88510000D01*
X88373120Y-115840000D02*
X91765650Y-115840000D01*
X94359000Y-116203000D02*
X94359000Y-117893000D01*
X92997310Y-91730000D02*
X94123000Y-90604310D01*
X92289650Y-115316000D02*
X93472000Y-115316000D01*
X86614000Y-91821000D02*
X86705000Y-91730000D01*
X132030875Y-92440125D02*
X132650000Y-91821000D01*
X93472000Y-115316000D02*
X94359000Y-116203000D01*
X94359000Y-117893000D02*
X95509000Y-119043000D01*
X102381575Y-88510000D02*
X106311700Y-92440125D01*
X94123000Y-90604310D02*
X94123000Y-89957690D01*
X86705000Y-91730000D02*
X92997310Y-91730000D01*
X91765650Y-115840000D02*
X92289650Y-115316000D01*
X88251700Y-115718580D02*
X88373120Y-115840000D01*
X106311700Y-92440125D02*
X132030875Y-92440125D01*
%TO.N,DIN40-D2*%
X94150270Y-85641270D02*
X105040520Y-85641270D01*
X105040520Y-85641270D02*
X106105250Y-86706000D01*
X95615000Y-94638040D02*
X96381960Y-95405000D01*
X106105250Y-86706000D02*
X115351000Y-86706000D01*
X98263530Y-95405000D02*
X98268540Y-95400000D01*
X98268540Y-95400000D02*
X98400790Y-95400000D01*
X101199000Y-107317960D02*
X101622225Y-107741185D01*
X99187000Y-103155750D02*
X101199000Y-105167750D01*
X90932000Y-83439000D02*
X91948000Y-83439000D01*
X91948000Y-83439000D02*
X94150270Y-85641270D01*
X101199000Y-105167750D02*
X101199000Y-107317960D01*
X115351000Y-86706000D02*
X115443000Y-86614000D01*
X96381960Y-95405000D02*
X98263530Y-95405000D01*
X98400790Y-95400000D02*
X99187000Y-96186220D01*
X101622225Y-107741185D02*
X101622225Y-108365925D01*
X99187000Y-96186220D02*
X99187000Y-103155750D01*
%TO.N,DIN37-{slash}INT*%
X100436270Y-93500000D02*
X99774320Y-92838040D01*
X127200000Y-97670000D02*
X127100000Y-97670000D01*
X93631960Y-92838040D02*
X93175880Y-93294120D01*
X93175880Y-93294120D02*
X90220880Y-93294120D01*
X102010000Y-117103000D02*
X102010000Y-122040000D01*
X102010000Y-122040000D02*
X104100000Y-124130000D01*
X104100000Y-124130000D02*
X117410000Y-124130000D01*
X90220880Y-93294120D02*
X85217000Y-98298000D01*
X100724000Y-93500000D02*
X100436270Y-93500000D01*
X99774320Y-92838040D02*
X93631960Y-92838040D01*
X103210000Y-115903000D02*
X102010000Y-117103000D01*
%TO.N,DIN35-{slash}NMI*%
X93785880Y-93694120D02*
X94241960Y-93238040D01*
X94241960Y-93238040D02*
X98812040Y-93238040D01*
X91483510Y-93694120D02*
X93785880Y-93694120D01*
X101600000Y-107151860D02*
X101600000Y-104978690D01*
X100924000Y-95350000D02*
X100524000Y-94950000D01*
X98812040Y-93238040D02*
X100524000Y-94950000D01*
X101600000Y-104978690D02*
X100924000Y-104302690D01*
X125940000Y-98070000D02*
X125940000Y-97860000D01*
X86175300Y-99002330D02*
X91483510Y-93694120D01*
X102759000Y-109690000D02*
X102759000Y-108310860D01*
X100924000Y-104302690D02*
X100924000Y-95350000D01*
X102759000Y-108310860D02*
X101600000Y-107151860D01*
%TO.N,DIN28-{slash}ROMCS*%
X127824000Y-129286000D02*
X128459000Y-129921000D01*
X98065690Y-137580000D02*
X93714310Y-137580000D01*
X132523000Y-129921000D02*
X131284000Y-131160000D01*
X127021530Y-129286000D02*
X127824000Y-129286000D01*
X93714310Y-137580000D02*
X86055310Y-129921000D01*
X128459000Y-129921000D02*
X132650000Y-129921000D01*
X126720000Y-131160000D02*
X126720000Y-132405690D01*
X86055310Y-129921000D02*
X80772000Y-129921000D01*
X131284000Y-131160000D02*
X126720000Y-131160000D01*
X99695690Y-135950000D02*
X98065690Y-137580000D01*
X126720000Y-132405690D02*
X123175690Y-135950000D01*
X123175690Y-135950000D02*
X99695690Y-135950000D01*
%TO.N,DIN47-{slash}WR*%
X91440000Y-108585000D02*
X88224530Y-108585000D01*
X88224530Y-108585000D02*
X85895270Y-110914270D01*
%TO.N,DIN29-{slash}RFRSH*%
X124200000Y-130146000D02*
X121366000Y-132980000D01*
X121366000Y-132980000D02*
X90879000Y-132980000D01*
X90879000Y-132980000D02*
X89459000Y-131560000D01*
X124200000Y-127464740D02*
X124200000Y-130146000D01*
%TO.N,DIN32-{slash}IORQ*%
X102961470Y-115303000D02*
X118617000Y-115303000D01*
X90922120Y-126692120D02*
X92167280Y-127937280D01*
X118617000Y-115303000D02*
X119950000Y-113970000D01*
X127692000Y-109093000D02*
X128200000Y-109601000D01*
X87630000Y-126692120D02*
X90922120Y-126692120D01*
X101610000Y-116654470D02*
X102961470Y-115303000D01*
X101610000Y-122370000D02*
X101610000Y-116654470D01*
X96042720Y-127937280D02*
X101610000Y-122370000D01*
X122833940Y-108326990D02*
X123866990Y-108326990D01*
X123866990Y-108326990D02*
X124633000Y-109093000D01*
X92167280Y-127937280D02*
X96042720Y-127937280D01*
X124633000Y-109093000D02*
X127692000Y-109093000D01*
%TO.N,DIN43-D5*%
X96060000Y-91405000D02*
X101405000Y-91405000D01*
X102523640Y-106617950D02*
X103875690Y-107970000D01*
X101405000Y-91405000D02*
X101724000Y-91724000D01*
X95860000Y-91205000D02*
X96060000Y-91405000D01*
X104490000Y-107970000D02*
X105410000Y-108890000D01*
X105410000Y-108890000D02*
X117410000Y-108890000D01*
X101724000Y-103825290D02*
X102523640Y-104624920D01*
X102523640Y-104624920D02*
X102523640Y-106617950D01*
X101724000Y-91724000D02*
X101724000Y-103825290D01*
X103875690Y-107970000D02*
X104490000Y-107970000D01*
%TO.N,DIN33-{slash}MREQ*%
X95193000Y-120433000D02*
X94359000Y-119599000D01*
X124103000Y-107080000D02*
X123903000Y-107280000D01*
X96333000Y-120433000D02*
X95193000Y-120433000D01*
X89985650Y-120400000D02*
X86995000Y-120400000D01*
X94359000Y-119599000D02*
X94359000Y-118806650D01*
X128068080Y-107741920D02*
X127406170Y-107080000D01*
X93445350Y-117893000D02*
X92492650Y-117893000D01*
X94359000Y-118806650D02*
X93445350Y-117893000D01*
X97290000Y-121390000D02*
X96333000Y-120433000D01*
X127406170Y-107080000D02*
X124103000Y-107080000D01*
X92492650Y-117893000D02*
X89985650Y-120400000D01*
%TO.N,DIN39-D1*%
X114150775Y-83718400D02*
X100281600Y-83718400D01*
X98787000Y-105956690D02*
X98787000Y-99667000D01*
X98293320Y-84000000D02*
X97022190Y-82728870D01*
X98787000Y-97062000D02*
X97730000Y-96005000D01*
X98787000Y-99667000D02*
X98787000Y-97062000D01*
X97022190Y-82728870D02*
X90245130Y-82728870D01*
X100281600Y-83718400D02*
X100000000Y-84000000D01*
X99050000Y-106960000D02*
X99050000Y-106219690D01*
X100000000Y-84000000D02*
X98293320Y-84000000D01*
X99050000Y-106219690D02*
X98787000Y-105956690D01*
%TO.N,DIN41-D3*%
X103910000Y-110200000D02*
X103910000Y-108570000D01*
X95270000Y-91810000D02*
X95275000Y-91805000D01*
X101324000Y-103990970D02*
X101324000Y-92447250D01*
X100681750Y-91805000D02*
X100911040Y-92034290D01*
X102123640Y-104790610D02*
X101324000Y-103990970D01*
X101324000Y-92447250D02*
X100911040Y-92034290D01*
X95275000Y-91805000D02*
X100681750Y-91805000D01*
X103928030Y-110218030D02*
X103910000Y-110200000D01*
X102123640Y-106783640D02*
X102123640Y-104790610D01*
X103910000Y-108570000D02*
X102123640Y-106783640D01*
%TO.N,DIN36-{slash}IORQGE*%
X104821880Y-94600000D02*
X103956240Y-93734360D01*
X98015000Y-94805000D02*
X97248040Y-94038040D01*
X88741000Y-98612420D02*
X88741000Y-98779000D01*
X88741000Y-98111000D02*
X88741000Y-98612420D01*
X87352000Y-100168000D02*
X86492470Y-100168000D01*
X94573330Y-94038040D02*
X94117250Y-94494120D01*
X92357880Y-94494120D02*
X88741000Y-98111000D01*
X80783000Y-99430000D02*
X80772000Y-99441000D01*
X132650000Y-99441000D02*
X128200000Y-99441000D01*
X121621470Y-94600000D02*
X104821880Y-94600000D01*
X126462470Y-99441000D02*
X121621470Y-94600000D01*
X88741000Y-98779000D02*
X87352000Y-100168000D01*
X85754470Y-99430000D02*
X80783000Y-99430000D01*
X97248040Y-94038040D02*
X94573330Y-94038040D01*
X86492470Y-100168000D02*
X85754470Y-99430000D01*
X94117250Y-94494120D02*
X92357880Y-94494120D01*
X128200000Y-99441000D02*
X126462470Y-99441000D01*
X104021880Y-93800000D02*
X103956240Y-93734360D01*
%TO.N,DIN34-{slash}HALT*%
X93951570Y-94094120D02*
X92192190Y-94094120D01*
X100324000Y-96124000D02*
X97838040Y-93638040D01*
X128220000Y-106680000D02*
X128340000Y-106800000D01*
X97838040Y-93638040D02*
X94407640Y-93638040D01*
X100324000Y-96410000D02*
X100324000Y-96124000D01*
X92192190Y-94094120D02*
X86741000Y-99545310D01*
X86741000Y-99545310D02*
X86741000Y-99568000D01*
X94407640Y-93638040D02*
X93951570Y-94094120D01*
%TO.N,DIN48-{slash}M1*%
X85598530Y-128898530D02*
X85310000Y-128898530D01*
X93880000Y-137180000D02*
X85598530Y-128898530D01*
X123010000Y-135550000D02*
X99530000Y-135550000D01*
X120546140Y-99999800D02*
X123688230Y-103141890D01*
X97900000Y-137180000D02*
X93880000Y-137180000D01*
X126320000Y-128724740D02*
X126320000Y-132240000D01*
X126320000Y-132240000D02*
X123010000Y-135550000D01*
X99530000Y-135550000D02*
X97900000Y-137180000D01*
X123688230Y-103141890D02*
X123688230Y-103575000D01*
X127580000Y-127464740D02*
X126320000Y-128724740D01*
X104950800Y-99999800D02*
X120546140Y-99999800D01*
X103124000Y-98173000D02*
X104950800Y-99999800D01*
%TO.N,DIN45-D7*%
X103333270Y-101777800D02*
X114814350Y-101777800D01*
X116846550Y-103810000D02*
X117410000Y-103810000D01*
X98228600Y-90405000D02*
X101819220Y-90405000D01*
X97760110Y-89936510D02*
X98228600Y-90405000D01*
X91105240Y-79645240D02*
X91105240Y-79634770D01*
X102524000Y-91109790D02*
X102524000Y-100968530D01*
X102524000Y-100968530D02*
X103333270Y-101777800D01*
X101819220Y-90405000D02*
X102524000Y-91109790D01*
X114814350Y-101777800D02*
X116846550Y-103810000D01*
%TO.N,DIN30-{slash}WAIT*%
X118800000Y-110040000D02*
X119950000Y-108890000D01*
X104954590Y-110040000D02*
X118800000Y-110040000D01*
X122083000Y-111023000D02*
X125236000Y-111023000D01*
X102225270Y-110233000D02*
X102832270Y-110840000D01*
X92337000Y-110233000D02*
X102225270Y-110233000D01*
X85430000Y-115373470D02*
X88630470Y-112173000D01*
X88630470Y-112173000D02*
X90397000Y-112173000D01*
X90397000Y-112173000D02*
X92337000Y-110233000D01*
X125236000Y-111023000D02*
X125385500Y-111172500D01*
X102832270Y-110840000D02*
X104154590Y-110840000D01*
X119950000Y-108890000D02*
X122083000Y-111023000D01*
X85430000Y-115940000D02*
X85430000Y-115373470D01*
X104154590Y-110840000D02*
X104954590Y-110040000D01*
%TO.N,DIN27-{slash}BUSACK*%
X88088630Y-132520000D02*
X80831000Y-132520000D01*
X128983230Y-132207000D02*
X129764000Y-132207000D01*
X99861370Y-136350000D02*
X98231370Y-137980000D01*
X127705120Y-133485120D02*
X126206260Y-133485120D01*
X126206260Y-133485120D02*
X123341370Y-136350000D01*
X127705120Y-133485120D02*
X128983230Y-132207000D01*
X80831000Y-132520000D02*
X80772000Y-132461000D01*
X123341370Y-136350000D02*
X99861370Y-136350000D01*
X129764000Y-132207000D02*
X130018000Y-132461000D01*
X98231370Y-137980000D02*
X93548630Y-137980000D01*
X130018000Y-132461000D02*
X132650000Y-132461000D01*
X93548630Y-137980000D02*
X88088630Y-132520000D01*
%TO.N,DIN42-D4*%
X94849510Y-92238040D02*
X95021470Y-92410000D01*
X100194800Y-92410000D02*
X100513100Y-92728300D01*
X95021470Y-92410000D02*
X100194800Y-92410000D01*
X94594140Y-92238040D02*
X94849510Y-92238040D01*
%TO.N,DIN46-{slash}RD*%
X85217000Y-109855000D02*
X85217000Y-109601000D01*
X123125270Y-104175000D02*
X121566270Y-102616000D01*
X127165910Y-105532840D02*
X127165910Y-104665380D01*
X127165910Y-104665380D02*
X126675530Y-104175000D01*
X103124000Y-100720000D02*
X103674000Y-101270000D01*
X118756000Y-102616000D02*
X117410000Y-101270000D01*
X85217000Y-109601000D02*
X89154000Y-105664000D01*
X126675530Y-104175000D02*
X123125270Y-104175000D01*
X89154000Y-105664000D02*
X91440000Y-105664000D01*
X121566270Y-102616000D02*
X118756000Y-102616000D01*
X103674000Y-101270000D02*
X117410000Y-101270000D01*
%TO.N,DIN26-Spare3*%
X118799200Y-97579000D02*
X119950000Y-98729800D01*
X108892975Y-95885000D02*
X110586975Y-97579000D01*
X110586975Y-97579000D02*
X118799200Y-97579000D01*
%TO.N,DIN25-CLOCK*%
X105857675Y-89042875D02*
X126479300Y-89042875D01*
X126479300Y-89042875D02*
X128781175Y-86741000D01*
X81153000Y-86360000D02*
X91047830Y-86360000D01*
X91126830Y-86439000D02*
X91623880Y-86439000D01*
X80772000Y-86741000D02*
X81153000Y-86360000D01*
X103154800Y-86340000D02*
X105857675Y-89042875D01*
X91047830Y-86360000D02*
X91126830Y-86439000D01*
X128781175Y-86741000D02*
X132650000Y-86741000D01*
X91623880Y-86439000D02*
X91722880Y-86340000D01*
X91722880Y-86340000D02*
X103154800Y-86340000D01*
%TO.N,DIN44-D6*%
X101653530Y-90805000D02*
X96426000Y-90805000D01*
X126427000Y-104775000D02*
X126242000Y-104960000D01*
X113553875Y-102352475D02*
X103282749Y-102352475D01*
X103282749Y-102352475D02*
X102124000Y-101193726D01*
X118800000Y-104960000D02*
X117410000Y-106350000D01*
X117410000Y-106349800D02*
X117410000Y-106208600D01*
X96426000Y-90805000D02*
X96010000Y-90389000D01*
X102124000Y-101193726D02*
X102124000Y-91275470D01*
X126242000Y-104960000D02*
X118800000Y-104960000D01*
X117410000Y-106208600D02*
X113553875Y-102352475D01*
X102124000Y-91275470D02*
X101653530Y-90805000D01*
%TO.N,DIN31-{slash}BUSRQ*%
X122543000Y-113000000D02*
X120966000Y-111423000D01*
X126905000Y-113000000D02*
X122543000Y-113000000D01*
X83820000Y-114681000D02*
X88311000Y-110190000D01*
X80772000Y-114681000D02*
X83820000Y-114681000D01*
X120966000Y-111423000D02*
X119957000Y-111423000D01*
X128586000Y-114681000D02*
X126905000Y-113000000D01*
X88311000Y-110190000D02*
X91340000Y-110190000D01*
X119957000Y-111423000D02*
X119950000Y-111430000D01*
X132650000Y-114681000D02*
X128586000Y-114681000D01*
D13*
%TO.N,POWER_+9V*%
X84990000Y-77730000D02*
X83841000Y-76581000D01*
X132650000Y-76581000D02*
X114659000Y-76581000D01*
X86440000Y-77730000D02*
X84990000Y-77730000D01*
D27*
X80772000Y-76581000D02*
X83841000Y-76581000D01*
D13*
X114659000Y-76581000D02*
X114150000Y-77090000D01*
%TD*%
M02*
